<?xml version="1.0" standalone="no"?>
<!DOCTYPE svg PUBLIC "-//W3C//DTD SVG 1.1//EN" "http://www.w3.org/Graphics/SVG/1.1/DTD/svg11.dtd" >
<!--
2013-9-30: Created.
-->
<svg>
<metadata>
Created by iconfont
</metadata>
<defs>

<font id="iconfont" horiz-adv-x="1024" >
  <font-face
    font-family="iconfont"
    font-weight="500"
    font-stretch="normal"
    units-per-em="1024"
    ascent="896"
    descent="-128"
  />
    <missing-glyph />
    
    <glyph glyph-name="x" unicode="x" horiz-adv-x="1001"
d="M281 543q-27 -1 -53 -1h-83q-18 0 -36.5 -6t-32.5 -18.5t-23 -32t-9 -45.5v-76h912v41q0 16 -0.5 30t-0.5 18q0 13 -5 29t-17 29.5t-31.5 22.5t-49.5 9h-133v-97h-438v97zM955 310v-52q0 -23 0.5 -52t0.5 -58t-10.5 -47.5t-26 -30t-33 -16t-31.5 -4.5q-14 -1 -29.5 -0.5
t-29.5 0.5h-32l-45 128h-439l-44 -128h-29h-34q-20 0 -45 1q-25 0 -41 9.5t-25.5 23t-13.5 29.5t-4 30v167h911zM163 247q-12 0 -21 -8.5t-9 -21.5t9 -21.5t21 -8.5q13 0 22 8.5t9 21.5t-9 21.5t-22 8.5zM316 123q-8 -26 -14 -48q-5 -19 -10.5 -37t-7.5 -25t-3 -15t1 -14.5
t9.5 -10.5t21.5 -4h37h67h81h80h64h36q23 0 34 12t2 38q-5 13 -9.5 30.5t-9.5 34.5q-5 19 -11 39h-368zM336 498v228q0 11 2.5 23t10 21.5t20.5 15.5t34 6h188q31 0 51.5 -14.5t20.5 -52.5v-227h-327z" />
    

    
    <glyph glyph-name="wenhao" unicode="&#58883;" d="M511.99820088 834.87870234C263.47559698 834.87870234 62.00899385 633.4112001 62.00899385 384.88949531c0-248.52260479 201.46660312-449.99010703 449.98920703-449.99010703s449.98920703 201.46750224 449.98920703 449.99010703C961.98740879 633.4112001 760.52170566 834.87870234 511.99820088 834.87870234M511.99820088-8.74583290999999c-217.39836885 0-393.63532823 176.23605937-393.63532822 393.63532822 0 217.39836885 176.23695849 393.63442822 393.63532822 393.63442823 217.39836885 0 393.63532823-176.23605937 393.63532823-393.63442823C905.63352911 167.49022646000003 729.3965706-8.74583290999999 511.99820088-8.74583290999999M424.40316612 480.35328018c0 0 14.11500146 86.8629331 100.97793456 77.09017851 86.86203398-9.77185547 67.31832393-74.91905508 58.63113106-87.9475957-8.68539375-21.71573349-89.03405654-73.83349336-102.06259716-105.32108145-13.02943974-31.48758809-11.94387803-90.12051826-11.94387804-90.12051826l78.17664023 0c0 0-4.34314688 61.88961533 39.08832013 87.94849482 43.43146699 26.05888037 117.26406036 102.06349717 84.69091054 174.81142794-52.11775987 83.60534795-103.14905888 92.2916417-169.38182022 90.11961826-66.23276133-2.17112344-135.72310869-34.74517324-158.52440302-135.7231087C398.34428575 483.61086445 424.40316612 480.35328018 424.40316612 480.35328018M468.92019395 244.73869776000004l81.43332539 0 0-89.02236446-81.43332539 0 0 89.02236446Z"  horiz-adv-x="1024" />

    
    <glyph glyph-name="bofang" unicode="&#58909;" d="M371.571862-68.205281 371.571862-68.205281 775.924433 262.884704C803.306549 285.305594 803.359491 321.770672 775.924433 344.234912L371.571862 675.324896C344.189747 697.745786 321.896298 687.328051 321.896298 651.959411L321.896298-44.839795C321.896298-80.486135 344.136806-90.669521 371.571862-68.205281L371.571862-68.205281ZM412.117862-117.723176 412.117862-117.723176C342.998042-174.319529 257.896298-134.619538 257.896298-44.839795L257.896298 651.959411C257.896298 741.441344 343.036778 781.407427 412.117862 724.84279L816.470433 393.752806C875.16997 345.688739 875.132094 261.399862 816.470433 213.36681L412.117862-117.723176Z"  horiz-adv-x="1024" />

    
    <glyph glyph-name="bianji1" unicode="&#58928;" d="M67.450611 44.775496C57.234078 28.425629 51.92517 0.818514 55.071942-17.720317L82.291191-178.079263C85.455307-196.720268 102.614893-207.351429 120.656937-202.052844L276.718734-156.220604C294.860216-150.892814 317.479827-133.675025 327.463149-117.698372L636.567307 376.971687C646.78384 393.321557 641.74085 413.962582 625.824365 423.908306L423.450519 550.36552C407.172118 560.537394 386.538091 555.422208 376.554769 539.445552L67.450611 44.775496ZM453.404059 662.430125C443.217797 646.128698 448.1525 625.314378 464.068985 615.368654L666.442832 488.911441C682.721231 478.739567 703.390186 483.910651 713.4166 499.956259L778.653926 604.357806C788.840187 620.659233 783.905483 641.473553 767.989001 651.419277L565.615152 777.876491C549.336751 788.048365 528.667795 782.877281 518.641386 766.831673L453.404059 662.430125ZM143.877184 58.59966C135.618811 45.383499 139.503993 27.316139 152.966583 18.903781 166.035451 10.737442 184.186882 14.624737 192.629535 28.13581L446.385249 434.229839C454.643622 447.446 450.758439 465.513361 437.295849 473.92572 424.226982 482.092055 406.075551 478.204759 397.632897 464.69369L143.877184 58.59966ZM511.999998-212C549.965493-212 580.266665-181.435969 580.266665-143.733333 580.266665-105.767837 549.702637-75.466667 511.999998-75.466667 474.034503-75.466667 443.733332-106.030698 443.733332-143.733333 443.733332-181.69883 474.297359-212 511.999998-212ZM716.799998-212C754.765495-212 785.066665-181.435969 785.066665-143.733333 785.066665-105.767837 754.502634-75.466667 716.799998-75.466667 678.834502-75.466667 648.533332-106.030698 648.533332-143.733333 648.533332-181.69883 679.097363-212 716.799998-212ZM921.599998-212C959.565495-212 989.866665-181.435969 989.866665-143.733333 989.866665-105.767837 959.302634-75.466667 921.599998-75.466667 883.634502-75.466667 853.333332-106.030698 853.333332-143.733333 853.333332-181.69883 883.897363-212 921.599998-212Z"  horiz-adv-x="1024" />

    
    <glyph glyph-name="xinjian" unicode="&#59029;" d="M932 603.2l-262.8 264.4c-18.1 18.2-42.7 28.4-68.3 28.4L108 896c-59.7 0-108-48.4-108-108l0-808c0-59.7 48.4-108 108-108l744 0c59.7 0 108 48.4 108 108L960 535.3C960 560.8 949.9 585.2 932 603.2zM896-20c0-24.3-19.7-44-44-44L108-64c-24.3 0-44 19.7-44 44l0 808c0 24.3 19.7 44 44 44l492.9 0c8.5 0 16.9-3.5 22.9-9.5l262.8-264.4c6.1-6.1 9.4-14.2 9.4-22.8L896-20zM736 385 512.1 385l0 223c0 17.7-14.3 32-32 32s-32-14.3-32-32l0-223L224 385c-17.7 0-32-14.3-32-32s14.3-32 32-32l224.1 0 0-225c0-17.7 14.3-32 32-32s32 14.3 32 32l0 225L736 321c17.7 0 32 14.3 32 32S753.7 385 736 385z"  horiz-adv-x="1024" />

    
    <glyph glyph-name="weixin" unicode="&#59365;" d="M962 274.98749999999995c0 124.70625-124.68750029 226.25624971-264.95624971 226.25624971-148.6125 0-265.31250029-101.54999971-265.31250029-226.25624971 0-125.02500029 116.70000029-226.21875029 265.31250029-226.21875029 31.08750029 0 62.53125029 7.93125 93.6 15.50625029l85.65000029-46.95000029-23.43750029 78.03749971C915.35000029 142.33125028999996 962 204.84375 962 274.98749999999995zM610.98125029 314.025c-15.50625029 0-31.05 15.525-31.05 31.10625 0 15.48749971 15.54374971 31.05 31.05 31.05 23.5125 0 39.07500029-15.56250029 39.0750003-31.05C650.05624971 329.54999999999995 634.49375029 314.025 610.98125029 314.025zM782.71250029 314.025c-15.525 0-31.03125029 15.525-31.03125029 31.10625 0 15.48749971 15.50625029 31.05 31.03125029 31.05 23.47499971 0 39.0375-15.56250029 39.0375-31.05C821.75000029 329.54999999999995 805.81249971 314.025 782.71250029 314.025zM671.3 528.80624971c10.21875029 0 20.475-0.71250029 30.67499971-1.76249971-27.48750029 128.43749971-164.7 223.65-321.3937503 223.65C205.58750029 750.69375 62 631.46249971 62 479.77500029c0-87.50625029 47.64375-159.45000029 127.36874971-215.2125L157.625 168.63749971000004l111.46875029 56.06250029c39.86250029-7.74375029 71.96249971-15.88124971 111.4875-15.88124971 9.86249971 0 19.78125029 0.35624971 29.66249971 1.36874971-6.35625 21.20625-9.88125029 43.72499971-9.88125029 66.69375029C400.34375 415.91249971 519.96875029 528.80624971 671.3 528.80624971zM499.81249971 615.24375c23.98124971 0 39.84374971-15.88124971 39.84374971-39.88125 0-23.9625-15.88124971-39.84374971-39.84374971-39.84374971-24.00000029 0-47.96250029 15.88124971-47.96250029 39.84374971C452.20625 599.38125 476.15000029 615.24375 499.81249971 615.24375zM276.85625029 535.55624971c-24.00000029 0-47.96250029 15.8625-47.96250029 39.8437497 0 24.00000029 23.98124971 39.86250029 47.96250029 39.8625003 24.01875 0 39.89999971-15.88124971 39.89999971-39.8625003C316.73750029 551.75624971 300.87500029 535.55624971 276.85625029 535.55624971z"  horiz-adv-x="1024" />

    
    <glyph glyph-name="icon" unicode="&#58952;" d="M399.399 383.754l292.155 292.16c12.278 12.27 12.278 32.186 0 44.457-12.27 12.278-32.186 12.278-44.457 0l-314.387-314.389c-12.281-12.27-12.281-32.186 0-44.457l314.388-314.388c6.137-6.14 14.183-9.211 22.228-9.211s16.092 3.071 22.228 9.211c12.281 12.27 12.281 32.186 0 44.457l-292.157 292.161z"  horiz-adv-x="1024" />

    
    <glyph glyph-name="jia1" unicode="&#58921;" d="M964.426 418.972h-387.971v416.714c0 23.776-19.276 43.083-43.083 43.083s-43.083-19.276-43.083-43.083v-416.714h-416.714c-23.83 0-43.083-19.276-43.083-43.083s19.27-43.083 43.083-43.083h416.714v-387.971c0-23.776 19.27-43.083 43.083-43.083 23.776 0 43.083 19.276 43.083 43.083v387.971h387.971c23.776 0 43.083 19.276 43.083 43.083s-19.276 43.083-43.083 43.083z"  horiz-adv-x="1024" />

    
    <glyph glyph-name="shanchu-copy" unicode="&#58882;" d="M877.753 668.289c-7.219 10.243-16.949 18.782-29.186 25.613-12.241 6.827-27.775 10.243-46.603 10.243h-43.305c-15.064 0-29.186 0.341-42.366 1.026v63.514c0 17.759-4.234 32.958-12.706 45.589-8.476 12.636-23.694 18.954-45.664 18.954l-294.669 0c-16.326 0-30.129-6.318-41.43-18.954-11.296-12.632-16.945-27.83-16.945-45.589v-62.495h-83.787c-16.322 0-30.438-3.071-42.366-9.217-11.924-6.146-21.653-13.827-29.185-23.051-7.533-9.217-13.18-19.291-16.949-30.219-3.764-10.928-5.645-20.835-5.645-29.71 0-17.755 0.313-28.344 0.94-31.758 0-2.73 0.317-4.438 0.94-5.124h58.37v-527.597c0-17.759 2.981-33.639 8.943-47.642 5.962-13.999 14.125-25.954 24.481-35.856 10.357-9.903 22.753-17.583 37.184-23.051 14.438-5.46 29.812-8.191 46.13-8.191h419.885c17.575 0 33.11 2.899 46.603 8.703 13.494 5.809 24.951 13.494 34.364 23.051 9.416 9.562 16.635 20.662 21.653 33.298 5.021 12.632 7.533 25.785 7.533 39.443l0 537.84h62.134v6.146c0 2.049 0.157 4.438 0.47 7.172 0.317 2.734 0.474 6.491 0.474 11.269 0 10.246-1.414 21.34-4.239 33.294-2.823 11.953-7.841 23.054-15.059 33.297zM363.253 768.683h294.668v-64.54h-294.668v64.54zM364.19 97.659c0-28.003-10.043-42.002-30.125-42.002-10.67 0-18.045 3.412-22.123 10.243-4.081 6.827-6.118 17.415-6.118 31.758l0 475.349h58.366l-0-475.349zM539.301 97.659c0-14.344-1.884-24.759-5.649-31.246-3.768-6.487-10.987-9.734-21.653-9.734-20.713 0-31.070 13.658-31.070 40.979l-0 475.349h58.37v-475.349zM717.232 99.712c0-14.344-1.88-24.759-5.649-31.246-3.764-6.494-11.292-9.738-22.593-9.738-20.713 0-31.070 13.662-31.070 40.983l-0 473.297h59.311l0-473.297z"  horiz-adv-x="1024" />

    
    <glyph glyph-name="bianji" unicode="&#58908;" d="M742.941466-115.911461l-542.473192 0c-55.909493 0-101.745204 45.835711-101.745204 101.745204L98.723069 662.791933c0 55.909493 45.835711 101.745204 101.745204 101.745204l406.477127 0c16.621741 0 30.221348-13.599606 30.221348-30.221348s-13.599606-30.221348-30.221348-30.221348l-406.477127 0c-22.666011 0-41.302509-18.636498-41.302509-41.302509l0-676.95819c0-22.666011 18.636498-41.302509 41.302509-41.302509l542.473192 0c22.666011 0 41.302509 18.636498 41.302509 41.302509L784.243974 515.714707c0 16.621741 13.599606 30.221348 30.221348 30.221348s30.221348-13.599606 30.221348-30.221348l0-529.880964C844.68667-70.07575 799.354648-115.911461 742.941466-115.911461zM644.722086 508.66306c-7.555337 0-15.110674 2.518446-20.651254 8.562715-12.088539 11.58485-12.592228 30.725037-1.007378 42.813576l249.829808 262.422036c11.58485 12.088539 30.725037 12.592228 42.813576 1.007378 12.088539-11.58485 12.592228-30.725037 1.007378-42.813576l-249.829808-262.422036C660.840138 511.685194 652.781112 508.66306 644.722086 508.66306zM496.133792 443.687162l-271.99213 0c-16.621741 0-30.221348 13.599606-30.221348 30.221348s13.599606 30.221348 30.221348 30.221348l271.99213 0c16.621741 0 30.221348-13.599606 30.221348-30.221348S513.259223 443.687162 496.133792 443.687162zM720.275455 176.731923l-495.630103 0c-16.621741 0-30.221348 13.599606-30.221348 30.221348s13.599606 30.221348 30.221348 30.221348L720.275455 237.174619c16.621741 0 30.221348-13.599606 30.221348-30.221348S736.897196 176.731923 720.275455 176.731923z"  horiz-adv-x="1024" />

    
    <glyph glyph-name="shezhi1" unicode="&#58904;" d="M511.994372 198.660828c-101.688057 0-184.408356 82.862219-184.408356 184.710862 0 101.847619 82.720299 184.701652 184.408356 184.701652s184.417566-82.85301 184.417566-184.701652C696.411938 281.522024 613.682428 198.660828 511.994372 198.660828zM511.994372 507.177414c-68.157032 0-123.61022-55.543014-123.61022-123.805724 0-68.272943 55.453188-123.815957 123.61022-123.815957 68.166242 0 123.620454 55.543014 123.620454 123.815957C635.614825 451.6344 580.160614 507.177414 511.994372 507.177414zM581.629118 769.954259l0-40.661072c0-29.854958 17.801141-56.518225 45.331252-67.944462 8.955319-3.720741 18.401846-5.598508 28.096023-5.598508 19.615537 0 38.055247 7.650237 51.915474 21.538549l26.02579 26.061562 98.469627-98.629321-26.016579-26.061562c-21.074831-21.109784-27.321348-52.570309-15.913063-80.145341 11.399075-27.584242 38.026593-45.402049 67.827514-45.402049l39.339549 0 0-139.490961-39.339549 0c-29.800921 0-56.429462-17.817808-67.827514-45.39284-11.408285-27.584242-5.161768-59.043744 15.913063-80.153528l26.016579-26.062586-98.469627-98.629321-26.02579 26.062586c-13.86125 13.887288-32.299937 21.538549-51.915474 21.538549-9.694177 0-19.140703-1.87879-28.096023-5.599532-27.530111-11.416004-45.331252-38.089503-45.331252-67.943438l0-39.393195L442.369858-1.952212l0 39.393195c0 29.854958-17.791931 56.527434-45.322042 67.943438-8.955319 3.720741-18.41208 5.599532-28.106256 5.599532-19.605303 0-38.054223-7.65126-51.91445-21.538549l-26.026813-26.062586-98.469627 98.629321 26.017603 26.062586c21.074831 21.109784 27.320325 52.569286 15.913063 80.144318-11.399075 27.584242-38.026593 45.402049-67.828537 45.402049l-39.331362 0L127.301437 453.112054l39.331362 0c29.801944 0 56.430486 17.817808 67.828537 45.402049 11.407262 27.575032 5.161768 59.034535-15.913063 80.145341l-26.017603 26.061562 98.469627 98.629321 26.026813-26.061562c13.86125-13.888312 32.309147-21.538549 51.91445-21.538549 9.694177 0 19.141727 1.877767 28.096023 5.598508 27.540345 11.426237 45.332275 38.089503 45.332275 67.944462l0 40.661072L581.629118 769.954259M581.629118 830.849164 442.369858 830.849164c-33.44097 0-60.798136-31.204699-60.798136-64.697511l0-36.858466c0-5.124717-3.082325-9.729595-7.796889-11.69025-1.558559-0.64673-3.20001-0.957815-4.833273-0.957815-3.282901 0-6.510541 1.277086-8.927689 3.702322l-26.026813 26.061562c-11.818648 11.845793-27.402193 17.763572-42.987785 17.763572s-31.159927-5.91778-42.987785-17.763572l-98.477814-98.629321c-23.637295-23.681352-23.637295-62.445214 0-86.11838l26.026813-26.061562c3.610372-3.619434 4.686934-9.063423 2.73541-13.788028-1.951525-4.722558-6.556591-7.80578-11.663099-7.80578l-36.804715 0c-33.430737 0-63.323759-27.40107-63.323759-60.894905l0-139.490961c0-33.492812 29.893022-60.894905 63.323759-60.894905l36.804715 0c5.106507 0 9.711574-3.082198 11.663099-7.80578s0.874963-10.168594-2.73541-13.788028l-26.026813-26.062586c-23.637295-23.681352-23.637295-62.436004 0-86.117356l98.477814-98.629321c11.827858-11.835559 27.402193-17.763572 42.987785-17.763572s31.169137 5.928013 42.987785 17.763572l26.026813 26.061562c2.416125 2.416026 5.644788 3.702322 8.927689 3.702322 1.633264 0 3.273691-0.310062 4.833273-0.957815 4.714565-1.960655 7.796889-6.574742 7.796889-11.69025l0-36.859489c0-33.484625 27.357165-63.429635 60.798136-63.429635l139.25926 0c33.439947 0 60.797112 29.946033 60.797112 63.429635l0 36.859489c0 5.115508 3.073114 9.729595 7.796889 11.69025 1.558559 0.647753 3.201033 0.957815 4.833273 0.957815 3.282901 0 6.510541-1.286296 8.927689-3.702322l26.017603-26.061562c11.827858-11.835559 27.412426-17.763572 42.996995-17.763572 15.576382 0 31.170161 5.928013 42.988808 17.763572l98.477814 98.629321c23.637295 23.682375 23.637295 62.437028 0 86.117356l-26.026813 26.062586c-3.611396 3.619434-4.686934 9.063423-2.736433 13.788028 1.951525 4.723581 6.556591 7.80578 11.663099 7.80578l36.805739 0c33.430737 0 63.323759 27.40107 63.323759 60.894905L957.494652 453.112054c0 33.492812-29.893022 60.894905-63.323759 60.894905l-36.805739 0c-5.106507 0-9.711574 3.083222-11.663099 7.80578-1.950502 4.723581-0.874963 10.168594 2.736433 13.788028l26.026813 26.061562c23.637295 23.672142 23.637295 62.437028 0 86.11838l-98.477814 98.629321c-11.818648 11.845793-27.412426 17.763572-42.988808 17.763572-15.584569 0-31.169137-5.91778-42.996995-17.763572l-26.017603-26.061562c-2.416125-2.426259-5.644788-3.702322-8.927689-3.702322-1.63224 0-3.273691 0.310062-4.833273 0.957815-4.723775 1.960655-7.796889 6.565533-7.796889 11.69025l0 36.858466C642.42623 799.645488 615.069065 830.849164 581.629118 830.849164L581.629118 830.849164z"  horiz-adv-x="1024" />

    
    <glyph glyph-name="baocun1" unicode="&#59144;" d="M832.11832 588.581422 716.558397 704.137251c-25.063839 25.068955-59.060117 39.148625-94.506421 39.148625L223.353462 743.285876c-39.001269 0-70.617337-31.619138-70.617337-70.617337l0-577.311495c0-38.987966 31.608905-70.596871 70.596871-70.596871l577.316611 0c38.998199 0 70.614268 31.614022 70.614268 70.612221L871.263875 494.070908C871.264898 529.519258 857.182158 563.512467 832.11832 588.581422zM302.087665 697.027319 526.341125 697.027319l0-117.004831c0-6.915503 5.658883-12.574387 12.574387-12.574387l53.997821 0c6.915503 0 12.574387 5.658883 12.574387 12.574387l0 117.004831 29.780257 0c24.665773 0 44.662199-19.995403 44.662199-44.662199l0-150.390195c0-14.932084-12.217253-27.149337-27.149337-27.149337L329.237001 474.825588c-14.932084 0-27.149337 12.219299-27.149337 18.958794L302.087665 697.027319zM762.869143 75.293079 261.129834 75.293079l0 248.295016c0 14.929014 12.217253 27.149337 27.149337 27.149337L735.719806 350.737432c14.932084 0 27.149337-12.219299 27.149337-27.149337L762.869143 75.293079z"  horiz-adv-x="1024" />

    
    <glyph glyph-name="fenlei" unicode="&#58885;" d="M877.065625 661.006926 146.541407 661.006926c-15.425034 0-27.832194-12.57499-27.832194-27.833217l0-18.107248c0-15.426058 12.57499-27.833217 27.832194-27.833217l730.356387 0c15.425034 0 27.832194 12.57499 27.832194 27.833217l0 17.940442C904.897818 648.432959 892.489636 661.006926 877.065625 661.006926L877.065625 661.006926zM877.065625 420.071227 146.541407 420.071227c-15.425034 0-27.832194-12.57499-27.832194-27.833217l0-18.442909c0-15.424011 12.57499-27.83117 27.832194-27.83117l730.356387 0c15.425034 0 27.832194 12.57499 27.832194 27.83117l0 18.442909C904.897818 407.664068 892.489636 420.071227 877.065625 420.071227L877.065625 420.071227zM877.065625 179.133482 146.541407 179.133482c-15.425034 0-27.832194-12.57499-27.832194-27.833217l0-18.441886c0-15.425034 12.57499-27.833217 27.832194-27.833217l730.356387 0c15.425034 0 27.832194 12.57499 27.832194 27.833217l0 18.441886C904.897818 166.726322 892.489636 179.133482 877.065625 179.133482L877.065625 179.133482z"  horiz-adv-x="1024" />

    
    <glyph glyph-name="qq" unicode="&#58929;" d="M141.1578125 307.39312500000005c-31.44375-74.02875-36.5484375-144.6534375-11.3053125-157.846875 17.41125-9.09 44.705625 11.608125 70.2525 49.6021875 10.1165625-41.3971875 35.1496875-78.8784375 70.9059375-108.946875-37.50375-13.845-62.0015625-36.455625-62.0015625-62.0925 0-42.144375 66.2896875-76.220625 148.104375-76.220625 73.79625 0 134.9128125 27.691875 146.19375 64.0978125 3.03 0.0459375 14.6840625 0.0459375 17.62125 0 11.3278125-36.36 72.49125-64.0978125 146.2396875-64.0978125 81.8128125 0 148.104375 34.123125 148.104375 76.220625 0 25.5909375-24.4734375 48.2475-62.0015625 62.0925 35.7084375 30.1153125 60.8334375 67.5496875 70.9040625 108.946875 25.5478125-37.9940625 52.771875-58.6921875 70.2065625-49.6021875 25.265625 13.1934375 20.2790625 83.865-11.28 157.846875-24.7078125 58.179375-58.228125 101.019375-83.8659375 110.4825 0.373125 3.6834375 0.55875 7.460625 0.55875 11.1890625 0 22.47-6.2446875 43.261875-16.9209375 60.18375 0.1865625 1.3059375 0.1865625 2.656875 0.1865625 3.9628125 0 10.348125-2.47125 20.0446875-6.669375 28.43625-6.4771875 151.2271875-104.934375 271.314375-264.249375 271.314375-159.40875 0-257.911875-120.0871875-264.3215625-271.314375-4.2421875-8.4384375-6.6890625-18.1340625-6.6890625-28.43625 0-1.3059375 0.0928125-2.6578125 0.140625-3.9628125-10.5825-16.921875-16.8290625-37.666875-16.8290625-60.18375 0-3.729375 0.140625-7.4578125 0.466875-11.1890625-25.4540625-9.463125-59.08875-52.3509375-83.7496875-110.4825z"  horiz-adv-x="1024" />

    
    <glyph glyph-name="ren" unicode="&#58959;" d="M371.2 256l-0.512 0.512C302.08 310.784 272.896 366.08 272.896 441.856c0 17.408-13.824 31.232-31.232 31.232-17.408 0-31.232-13.824-31.232-31.232 0-83.456 30.208-151.04 94.208-210.944-97.28-76.288-151.552-154.624-177.664-256-4.096-16.896 5.632-33.792 22.528-37.888 2.56-0.512 5.12-1.024 7.68-1.024 13.824 0 26.624 9.216 30.208 23.552 25.088 96.768 80.896 169.984 185.344 244.736 13.824 10.24 17.408 29.696 7.168 43.52-2.048 3.584-5.12 6.144-8.704 8.192z m526.848-280.576c-26.624 100.864-79.872 178.688-175.104 253.44C788.48 288.768 819.2 357.376 819.2 441.856c0 17.408-13.824 31.232-31.232 31.232s-31.232-13.824-31.232-31.232c0-75.776-30.72-133.12-98.816-186.368-4.096-2.048-8.192-5.12-11.264-9.728-10.24-13.824-6.656-33.792 7.168-43.52 104.448-74.752 157.696-145.408 183.808-243.2 3.584-13.824 16.384-23.04 30.208-23.04 2.56 0 5.12 0.512 8.192 1.024 16.384 4.608 26.624 21.504 22.016 38.4zM237.568 507.392c16.896 3.072 28.16 18.944 25.6 35.84 0 1.024-14.336 88.576 39.936 152.576 40.96 48.64 111.104 73.216 208.896 73.216 97.792 0 168.448-24.576 209.408-73.216 54.272-64 40.96-151.552 40.96-152.576-3.072-16.896 8.704-33.28 25.6-35.84 1.536-0.512 3.584-0.512 5.12-0.512 14.848 0 28.16 10.752 30.72 26.112 1.024 4.608 18.944 116.224-54.272 202.752-53.76 63.488-140.288 95.744-257.536 95.744s-203.776-32.256-257.024-95.744C181.76 648.704 200.704 537.088 201.728 532.48c2.56-16.896 18.944-28.16 35.84-25.088z m163.84 21.504c-17.408 0-31.232-13.824-31.232-31.232v-33.28c0-17.408 13.824-31.232 31.232-31.232 17.408 0 31.232 13.824 31.232 31.232v33.28c0 17.408-13.824 31.232-31.232 31.232z m222.208 0c-17.408 0-31.232-13.824-31.232-31.232v-33.28c0-17.408 13.824-31.232 31.232-31.232s31.232 13.824 31.232 31.232v33.28c0 17.408-13.824 31.232-31.232 31.232z m-34.304-132.096c-14.336 9.216-33.792 5.632-43.008-8.704 0 0-13.824-19.968-34.304-19.968-19.968 0-32.256 17.92-33.28 19.456-9.216 14.336-28.16 18.944-43.008 9.728-14.848-9.216-18.944-28.16-10.24-43.008 11.264-17.92 41.984-48.64 86.016-48.64 44.032 0 75.264 30.208 86.528 48.128 9.728 14.848 5.632 33.792-8.704 43.008z"  horiz-adv-x="1024" />

    
    <glyph glyph-name="shezhi" unicode="&#58948;" d="M679.296-99.264c-23.68 0-48.192 9.92-62.4 25.28l-10.944 11.648c-49.472 47.04-136.96 48.704-190.72-2.752l-8.064-8.896c-16-17.28-43.648-25.024-63.936-25.024-8.384 0-16.064 1.28-22.784 3.712 0 0-18.944 6.592-64.256 32.832-38.144 22.08-55.36 35.2-59.776 38.72-23.872 20.416-34.88 58.496-25.856 87.424l4.928 16.576A138.496 138.496 0 0 1 77.44 242.624l-11.648 2.56c-29.504 6.72-56.768 35.456-62.016 65.344C2.048 314.56 0 346.048 0 382.464c0 47.232 3.072 69.696 4.16 74.368 4.864 27.648 32 56.192 61.376 62.912l17.6 4.096A135.68 135.68 0 0 1 160 586.496a138.88 138.88 0 0 1 14.144 103.168l-3.776 11.904c-8.96 28.928 1.856 66.688 24.64 86.08 4.8 3.968 22.016 17.28 60.864 39.744 40.768 23.616 60.352 31.36 63.936 32.64C327.296 862.72 335.168 864 343.616 864c18.56 0 46.336-6.592 63.36-25.088l12.16-12.992c46.272-43.712 137.984-44.672 189.056 3.648l8.704 9.536c22.464 24.192 63.424 29.44 86.528 21.248 3.968-1.472 23.552-9.28 64.448-32.832 41.152-23.872 58.88-37.824 62.336-41.216 21.12-17.856 32.192-55.872 23.232-84.8l-5.12-16.96a138.176 138.176 0 0 1 15.424-98.112c17.856-30.976 46.336-53.12 82.176-63.872l12.032-2.688c29.504-6.784 56.64-35.392 61.952-65.216 1.28-2.624 3.904-29.568 3.968-71.872 0-43.776-2.752-69.184-4.544-75.52-4.544-26.56-31.744-55.168-61.184-61.888l-15.488-3.712a137.28 137.28 0 0 1-78.912-63.168 139.264 139.264 0 0 1-14.016-103.104l3.776-11.968a86.144 86.144 0 0 0-25.28-86.4c-3.136-2.624-19.52-15.808-60.224-39.36-43.392-25.024-62.4-32.064-64.448-32.832a68.16 68.16 0 0 0-24.256-4.096zM512 38.592c52.096 0 101.632-19.84 139.392-55.872l12.352-13.12a26.88 26.88 0 0 1 15.552-4.864c1.92 0 2.816 0.256 2.88 0.256 0 0 16.512 6.4 53.888 27.968 36.928 21.376 51.008 32.832 51.136 32.96 3.584 3.008 6.72 13.824 5.248 18.688l-4.288 14.016c-12.736 53.824-5.376 107.008 20.288 151.744a202.048 202.048 0 0 0 117.888 93.056l17.472 4.224c4.736 1.088 12.608 9.408 13.44 13.952 0 0.128 2.816 17.792 2.816 61.056-0.128 42.88-2.944 60.48-3.008 60.672-0.832 4.672-8.704 13.056-13.184 14.08l-14.144 3.2c-53.952 16.128-95.104 48.384-121.344 93.824a203.392 203.392 0 0 0-21.76 146.752l5.696 18.944c1.408 4.672-1.792 16-5.44 19.072-0.064 0.064-13.824 11.264-51.008 32.832-37.568 21.696-54.272 28.096-54.464 28.16a39.808 39.808 0 0 1-17.92-5.056l-9.664-10.56c-78.208-74.304-206.72-73.28-279.936-3.84l-13.696 14.528a32.96 32.96 0 0 1-16.512 4.672c-1.728 0-18.112-6.208-55.68-28.032-36.416-21.056-50.432-32.256-51.968-33.472-2.688-2.304-6.016-13.056-4.48-17.984l4.288-13.888c12.928-53.76 5.504-107.008-20.288-152a200.128 200.128 0 0 0-115.968-92.544l-19.712-4.608C75.328 456.32 67.52 448 66.688 443.456c0 0-2.752-17.664-2.752-60.992 0-43.2 2.752-60.672 2.752-60.864 0.832-4.544 8.704-12.928 13.184-13.952l13.504-3.008c53.12-15.488 95.744-48.704 121.984-93.952 25.92-45.12 33.6-97.28 21.824-146.88l-5.504-18.688c-1.536-4.928 1.728-16.256 5.376-19.392 0.768-0.576 15.168-11.968 51.072-32.704 37.44-21.696 53.888-28.032 54.08-28.032a36.672 36.672 0 0 1 18.176 4.992l9.088 9.92c40.256 38.272 90.368 58.688 142.528 58.688zM512 192c-105.856 0-192 86.144-192 192s86.144 192 192 192 192-86.144 192-192-86.144-192-192-192z m0 320c-70.592 0-128-57.472-128-128 0-70.528 57.408-128 128-128s128 57.472 128 128c0 70.528-57.408 128-128 128z"  horiz-adv-x="1024" />

    
    <glyph glyph-name="weibo" unicode="&#59033;" d="M735.55740445 392.14762667c-14.77518222 1.38126222-28.16910222 9.52775111-18.3660089 26.37368888s27.89262222 65.86595555-6.90403555 100.38727112c-34.79665778 34.65898667-110.88099555 21.54040889-164.73429333-0.82944-53.71448889-22.36984889-50.81429333-6.76636445-49.15768889 8.56064 1.79541333 16.15530667 30.79395555 106.46300445-57.85713778 117.37088-116.12842667 14.22222222-265.12156445-129.52234667-317.73240889-212.37304889-79.53635555-125.10435555-66.97073778-209.75047111-66.97073778-209.75047111h0.55182222c9.52775111-116.81905778 181.58136889-209.88700445 392.43548445-209.88700445 181.30375111 0 334.02652445 68.90382222 379.17923555 162.52586667 0 0 0.13880889 0.41415111 0.55182223 1.10478222 4.69560889 10.08071111 8.28529778 20.29795555 10.49372444 30.93048889 6.35221333 25.13009778 11.18435555 61.58563555-0.69063111 97.48707555-21.12739555 63.51872-86.02624 86.71800889-100.80142222 88.09699556zM420.72632889 63.09319111000002c-150.09792 0-271.88792889 80.64113778-271.88792889 180.06129778s121.65233778 180.06129778 271.88792889 180.06129778c150.09792 0 271.88792889-80.64113778 271.88792889-180.06129778 0-99.55896889-121.79000889-180.06129778-271.88792889-180.06129778zM790.37781333 462.15509333c2.76138667-1.24245333 5.66158222-1.79541333 8.56064-1.79541333 8.56064 0 16.84593778 5.10976 20.29795556 13.53159111 5.66158222 13.39505778 8.56064 27.61614222 8.56064 42.39246222 0 59.92789333-48.74353778 108.67256889-108.67256889 108.67256889-14.63751111 0-28.85859555-2.89905778-42.25365333-8.56064-11.18435555-4.69560889-16.43178667-17.67424-11.73731556-28.99740444 4.69560889-11.18435555 17.67424-16.43178667 28.99740444-11.73731556 8.00881778 3.31434667 16.43178667 5.10976 25.13009778 5.10976 35.62609778 0 64.48469333-28.99740445 64.48469334-64.48469333 0-8.69944889-1.65660445-17.12355555-5.10976-25.13009778-4.83214222-11.32316445 0.41415111-24.30293333 11.73731555-28.99740444zM717.88430222 760.55552c-24.71708445 0-49.15768889-3.58968889-72.63232-10.49372445-17.53656889-5.24629333-27.47847111-23.61230222-22.36984889-41.1488711 5.24629333-17.53656889 23.61230222-27.47847111 41.14887112-22.3698489 17.39889778 5.10976 35.48728889 7.73233778 53.85216 7.73233778 103.97809778 0 188.62307555-84.64611555 188.62307555-188.62307555 0-18.64135111-2.76138667-37.14389333-8.00881778-54.81927111-5.24629333-17.53656889 4.5568-36.04024889 22.09450667-41.28654222 3.17553778-0.96711111 6.48874667-1.38126222 9.66656-1.38126223 14.22222222 0 27.3408 9.25127111 31.75992889 23.47349333 7.18051555 23.88764445 10.90901333 48.74353778 10.90901333 74.01358223-0.13880889 140.57016889-114.47182222 254.90318222-255.04085333 254.90318222zM395.59509333 357.48864000000003c-80.08817778 0-144.98816-56.75349333-144.98816-126.89976889s64.89884445-126.89976889 144.98816-126.89976889 144.98816 56.75349333 144.98816 126.89976889-64.89884445 126.89976889-144.98816 126.89976889zM348.23168 148.15118222c-28.03143111 0-50.81429333 22.784-50.81429333 50.81429333s22.784 50.81429333 50.81429333 50.81429334c28.03143111 0 50.81429333-22.784 50.81429333-50.81429334 0-28.03143111-22.784-50.81429333-50.81429333-50.81429333zM443.23498667 239.70133333c-6.07573333-10.63253333-18.36600889-15.05166222-27.3408-9.80423111-8.97479111 5.10976-11.18435555 17.95072-5.10976 28.58325333 6.07573333 10.63253333 18.36600889 15.05166222 27.3408 9.80423112 8.97479111-5.24629333 11.18435555-18.08952889 5.10976-28.58325334z"  horiz-adv-x="1024" />

    
    <glyph glyph-name="duihao" unicode="&#58894;" d="M90.637117 508.997966l407.303108-329.328529L1254.82167 878.108397a52.239379 52.239379 0 0 0 67.208858 7.536005 49.112193 49.112193 0 0 0-4.203758-66.644939L537.414535-101.572206a54.341258 54.341258 0 0 0-93.610507 0.66645L10.253068 442.76315a57.981097 57.981097 0 0 0 7.125881 74.078413 51.829256 51.829256 0 0 0 73.258168-7.843597z"  horiz-adv-x="1333" />

    
    <glyph glyph-name="zhuzhuangtu" unicode="&#58886;" d="M125.278208 106.92096V718.480384H67.876864v-668.950528h28.703744v-0.009216H963.1232v57.40032H125.278208z m557.457408 388.560896h-118.1184v-330.059776h118.1184V495.481856z m165.5808 165.5808h-118.1184v-495.640576h118.1184V661.062656z m-331.1616-57.40032H399.03744v-438.240256h118.117376V603.662336zM349.365248 390.612992h-118.1184v-225.190912h118.1184V390.612992z"  horiz-adv-x="1024" />

    
    <glyph glyph-name="zhuzhuangtu1" unicode="&#59002;" d="M320 544h-256v-480h256v480zM256 128h-128v352h128v-352zM640 832h-256v-768h256v768zM576 128h-128v640h128v-640zM64 0h896v-64h-896zM704 64h256v608h-256v-608zM768 608h128v-480h-128v480z"  horiz-adv-x="1024" />

    
    <glyph glyph-name="cha1" unicode="&#58912;" d="M822.848 755.456L512 444.608 201.216 755.456a42.88 42.88 0 1 1-60.672-60.672L451.392 384l-310.848-310.784a42.88 42.88 0 1 1 60.672-60.672L512 323.328l310.848-310.784a42.88 42.88 0 0 1 60.608 60.672L572.672 384l310.784 310.784a42.88 42.88 0 1 1-60.608 60.672z"  horiz-adv-x="1024" />

    
    <glyph glyph-name="lajitong" unicode="&#58902;" d="M943.081844 569.351431c-20.229539 0-37.87878-16.376294-37.87878-36.605832v-547.573714c0-20.229539-16.634323-36.089773-36.863862-36.089772H356.098374c-20.229539 0-37.121892 16.135466-37.121892 36.089772V534.276576c0 20.229539-14.845316 36.605833-35.074856 36.605832-20.229539 0-35.074856-16.376294-35.074855-36.605832v-549.104691c0-60.413385 46.582986-113.154684 107.013573-113.154683H867.840344c60.413385 0 112.896654 52.741298 112.896654 113.154683V532.745599c0.240828 19.954307-17.425615 36.605833-37.655154 36.605832zM536.048381 131.337186V533.760516c0 20.229539-14.845316 36.605833-35.074856 36.605833-20.229539 0-35.074856-16.376294-35.074855-36.605833v-402.1653c0-20.229539 14.845316-36.605833 35.074855-36.605833 20.229539 0 35.074856 16.118264 35.074856 36.347803z m221.957263 0V533.760516c0 20.229539-17.924473 36.605833-37.878779 36.605833-19.971509 0-37.895982-16.376294-37.895982-36.605833v-402.1653c0-20.229539 17.924473-36.605833 37.895982-36.605833 19.954307 0 37.87878 16.118264 37.878779 36.347803z m329.469695 583.680688H905.203064v74.484612c0 60.413385-49.404112 106.239484-109.31864 106.239484L429.052009 896c-60.413385 0-110.075527-45.826099-110.075527-106.239484v-74.759844H136.704206c-20.229539 0-36.605833-14.845316-36.605832-35.074856 0-20.229539 16.376294-35.074856 36.605832-35.074855h950.771133c20.229539 0 36.605833 14.845316 36.605833 35.074855 0 20.229539-16.376294 35.092058-36.605833 35.092058z m-258.563096 0H390.14111v74.484612c0 20.229539 18.93939 36.347803 39.168929 36.347803h366.591587c19.971509 0 33.285849-15.877436 33.285849-36.347803l-0.275232-74.484612z"  horiz-adv-x="1219" />

    
    <glyph glyph-name="baocun" unicode="&#58980;" d="M933.069-110.251h-830.123c-33.314 0-60.621 27.307-60.621 61.167v879.821c0 33.86 27.307 61.167 60.621 61.167h695.228l195.516-203.708v-737.28c0-33.86-27.307-61.167-60.621-61.167zM102.946 836.745c-2.731 0-5.461-2.731-5.461-6.007v-879.821c0-3.277 2.185-6.007 5.461-6.007h830.123c2.731 0 5.461 2.731 5.461 6.007v714.889l-163.84 170.94h-671.744zM709.154 569.685h-407.962c-26.761 0-48.606 21.845-48.606 48.606v225.007l27.853 2.185 27.307-1.638v-218.999h395.401v218.453h54.613v-224.461c0-27.307-21.845-49.152-48.606-49.152zM755.575-110.251h-500.804c-33.314 0-60.621 27.307-60.621 60.621v281.259c0 33.314 27.307 60.621 60.621 60.621h500.804c33.314 0 60.621-27.307 60.621-60.621v-281.259c0-33.314-27.307-60.621-60.621-60.621zM254.771 237.636c-3.277 0-5.461-2.731-5.461-5.461v-281.259c0-3.277 2.731-5.461 5.461-5.461h500.804c3.277 0 5.461 2.731 5.461 5.461v281.259c0 3.277-2.731 5.461-5.461 5.461h-500.804zM595.558 784.862h55.159v-110.865h-55.159z"  horiz-adv-x="1025" />

    
    <glyph glyph-name="Z" unicode="&#58973;" d="M0 135.836735l20.897959 112.32653L501.55102 796.734694H128L146.285714 896h493.714286l-20.897959-107.102041-470.204082-551.183673h381.387755l-28.734694-101.877551zM1175.510204 308.244898h-86.204082l-49.632653-227.265306c-15.673469-33.959184-15.673469-33.959184-15.673469-60.081633a195.918367 195.918367 0 0 1 0-31.346939 52.244898 52.244898 0 0 1 0-39.183673 49.632653 49.632653 0 0 1 36.571429 0h47.020408l-13.061225-65.306123H1055.346939a125.387755 125.387755 0 0 0-83.591837 23.510205 86.204082 86.204082 0 0 0-28.734694 70.530612 389.22449 389.22449 0 0 0 0 54.857143c0 23.510204 0 57.469388 20.897959 107.10204l44.408164 167.183674h-151.510204l-94.040817-428.408163h-80.979592l80.979592 428.408163a49.632653 49.632653 0 0 1-39.183673-15.673469 83.591837 83.591837 0 0 1-18.285715-47.020409h-83.591836a177.632653 177.632653 0 0 0 47.020408 107.102041 164.571429 164.571429 0 0 0 109.714286 28.734694h412.734693z"  horiz-adv-x="1191" />

    
    <glyph glyph-name="H" unicode="&#58975;" d="M55.053763-128L253.247312 896h148.645161l-82.580645-434.924731h412.903226L817.548387 896h148.645161l-198.193548-1024h-148.645161l85.333333 448.688172H283.526882L203.698925-128z"  horiz-adv-x="1024" />

    
    <glyph glyph-name="Y1" unicode="&#58976;" d="M95.100417 137.770992l46.900764 260.559797L3.904489 896h114.64631l101.618321-375.206107L467.700926 896h122.463105L256.647491 395.725191l-54.717557-260.559797zM574.530443 96.081425a794.707379 794.707379 0 0 0 20.844783 166.75827c36.478372 164.152672 122.463104 304.854962 260.559797 304.854961s164.152672-88.590331 164.152672-213.659033a700.905852 700.905852 0 0 0-13.02799-138.096692c-36.478372-192.814249-117.251908-341.333333-260.559797-341.333333s-171.969466 75.562341-171.969465 221.475827z m88.590331 104.223919a651.399491 651.399491 0 0 1 0-112.040713c0-101.618321 39.083969-156.335878 99.012722-156.335878s140.70229 109.435115 169.363868 260.559797z m260.559796 59.928753a646.188295 646.188295 0 0 1 0 99.012722c0 85.984733-31.267176 148.519084-96.407125 148.519084s-140.70229-117.251908-140.70229-247.531806z"  horiz-adv-x="1024" />

    
    <glyph glyph-name="Z2" unicode="&#58974;" d="M0 137.770992l20.844784 112.040713L500.274809 796.987277H127.6743L145.913486 896h492.458015l-20.844783-106.829517-469.007634-549.78117h380.417303l-28.661578-101.618321zM648.793893 96.081425a794.707379 794.707379 0 0 0 20.844784 166.75827c36.478372 164.152672 122.463104 304.854962 260.559796 304.854961s164.152672-88.590331 164.152672-213.659033a700.905852 700.905852 0 0 0-13.02799-138.096692c-36.478372-192.814249-117.251908-341.333333-260.559796-341.333333s-171.969466 75.562341-171.969466 221.475827z m88.590331 104.223919a651.399491 651.399491 0 0 1 0-112.040713c0-101.618321 39.083969-156.335878 99.012723-156.335878s140.70229 109.435115 169.363867 260.559797z m260.559796 59.928753a646.188295 646.188295 0 0 1 0 99.012722c0 85.984733-31.267176 148.519084-96.407124 148.519084s-140.70229-117.251908-140.70229-247.531806z"  horiz-adv-x="1094" />

    
    <glyph glyph-name="NOT" unicode="&#58979;" d="M0-108.423645l190.869465 978.817772h195.763555l274.068976-773.26604 151.716754 773.26604h141.928577l-220.233998-978.817772h-161.504933L293.645331 689.312839 141.928577-108.423645zM978.817772 312.467997a641.12564 641.12564 0 0 0 39.152711 234.916265 489.408886 489.408886 0 0 0 122.352221 195.763555 489.408886 489.408886 0 0 0 171.29311 112.564044 577.502485 577.502485 0 0 0 210.445821 39.15271 411.103464 411.103464 0 0 0 440.467997-440.467997 660.701996 660.701996 0 0 0-29.364533-200.657643 538.349774 538.349774 0 0 0-73.411333-156.610844 489.408886 489.408886 0 0 0-185.975376-161.504932 553.032041 553.032041 0 0 0-249.598532-58.729066 445.362086 445.362086 0 0 0-323.009865 117.458132 430.67982 430.67982 0 0 0-122.352221 318.115776z m141.928577 0a318.115776 318.115776 0 0 1 102.775866-230.022176 293.645331 293.645331 0 0 1 220.233998-88.0936 362.162576 362.162576 0 0 1 269.174887 122.352222 440.467997 440.467997 0 0 1 107.669955 308.327598 323.009865 323.009865 0 0 1-107.669955 234.916265 293.645331 293.645331 0 0 1-200.657643 83.199511 362.162576 362.162576 0 0 1-288.751242-117.458133 445.362086 445.362086 0 0 1-102.775866-308.327598zM2143.61092-108.423645L2305.115852 743.147817h-210.445821L2119.140476 875.288216H2691.748872l-39.152711-132.140399H2447.044429l-161.504932-831.995106z"  horiz-adv-x="2747" />

    
    <glyph glyph-name="celiang" unicode="&#58981;" d="M1147.125 536.7875l36.875 111.25 84-28L1212 896 1000 708l88-28-44.6375-136.6375q-21.575 0.625-43.3625 0.6375C448 544 0 244 0-124h156c0 287.275 378.1 522.8 840.5125 523.9875l-172.5-527.9875 104 4 172.5125 520.2625C1517.6375 365.125 1844 142.9 1844-124H2000c0 334.675-370.55 613.1-852.875 660.7875z"  horiz-adv-x="2000" />

    
    <glyph glyph-name="Y" unicode="&#58984;" d="M240.217993-124.49880399999995l63.128029 350.692044L117.476443 896h154.305564l136.759647-504.984295L741.701092 896h164.822465L461.152782 222.692044 387.507852-128 240.217993-124.49880399999995z"  horiz-adv-x="1024" />

    
    <glyph glyph-name="Z1" unicode="&#58985;" d="M82.413615-128L110.468764 22.799657000000025l631.227918 739.944851H254.248169L278.799657 896h662.786728l-28.055149-143.779405-631.227918-743.448513h512l-24.551487-136.772082H82.413615z"  horiz-adv-x="1024" />

    
    <glyph glyph-name="X" unicode="&#58986;" d="M518.993937 282.31098599999996L168.318181-128H0l455.88106 522.535987L217.417423 895.97424H378.677266l182.396216-389.226133L911.749239 895.97424H1087.087117L634.722347 384.01288l248.973862-508.470831H715.378028L518.993937 282.31098599999996z"  horiz-adv-x="1087" />

    
    <glyph glyph-name="chaodaoxinpian" unicode="&#58989;" d="M1577.398038 896a120.190956 120.190956 0 0 1-120.190956-120.190956v-783.618088h-0.404165a34.960268 34.960268 0 0 0-69.920535 0V442.238244a120.190956 120.190956 0 0 1-120.190956 120.190956 120.190956 120.190956 0 0 1-120.190956-120.190956v-450.047288h-0.404165a34.960268 34.960268 0 0 0-69.920535 0V442.238244a120.190956 120.190956 0 0 1-120.210202 120.229448 120.190956 120.190956 0 0 1-120.190956-120.229448v-450.047288h-0.404165a34.989137 34.989137 0 0 0-34.950645-34.950645 34.989137 34.989137 0 0 0-34.950644 34.950645V442.238244a120.190956 120.190956 0 0 1-120.190956 120.190956H409.938729v168.786979H0v-424.488667h409.938729v170.384393h235.281735v0.115475a34.989137 34.989137 0 0 0 35.008382-34.989136v-450.047288a120.190956 120.190956 0 0 1 120.190956-120.190956 120.190956 120.190956 0 0 1 120.190956 120.190956h0.404165V442.238244a34.989137 34.989137 0 0 0 34.950645 34.989136 34.989137 34.989137 0 0 0 34.96989-34.989136v-450.047288a120.190956 120.190956 0 0 1 120.190956-120.190956 120.190956 120.190956 0 0 1 120.190956 120.190956h0.423411V442.238244a34.989137 34.989137 0 0 0 34.950645 34.950644 34.989137 34.989137 0 0 0 34.950644-34.950644v-450.047288a120.190956 120.190956 0 0 1 120.190956-120.190956 120.190956 120.190956 0 0 1 120.190956 120.190956h0.404165V775.789798a34.989137 34.989137 0 0 0 34.950645 34.950645v-0.115476H2136.300417V895.980754z"  horiz-adv-x="2136" />

    
    <glyph glyph-name="xinpian" unicode="&#58990;" d="M1439.829735 649.682387a40.937726 40.937726 0 0 1-40.880122 40.880121h-129.476119v-81.760243h129.495321a40.937726 40.937726 0 0 1 40.86092 40.880122zM1398.930412 513.2361h-129.456918v-81.760243h129.495321a40.937726 40.937726 0 0 1 40.880122 40.880122 40.918525 40.918525 0 0 1-40.918525 40.880121zM1398.930412 336.024902h-129.456918v-81.760243h129.495321a40.880122 40.880122 0 1 1 0 81.760243zM1398.930412 158.794502h-129.456918v-81.760243h129.495321a40.880122 40.880122 0 1 1 0 81.760243zM11.291266 678.119897A40.054454 40.054454 0 0 1 0.039152 648.875921a40.937726 40.937726 0 0 1 40.880121-40.707307h129.495322v82.297886H40.919273a40.841718 40.841718 0 0 1-29.628007-12.346603zM0.039152 471.837537a40.937726 40.937726 0 0 1 40.880121-40.880122h129.495322v82.278685H40.919273A40.707307 40.707307 0 0 1 0.039152 471.837537zM11.137654 323.601493A39.26719 39.26719 0 0 1 0.01995 294.952765a40.937726 40.937726 0 0 1 40.880122-40.707308h129.495321v81.779445H40.900072a41.014532 41.014532 0 0 1-29.762418-12.423409zM11.291266 146.447899a40.054454 40.054454 0 0 1-11.252114-29.243976 40.937726 40.937726 0 0 1 40.880121-40.707308h129.495322v82.297887H40.919273a40.841718 40.841718 0 0 1-29.628007-12.346603zM1100.07733 896H334.549531a129.648934 129.648934 0 0 1-129.495322-129.495321v-764.990156a129.648934 129.648934 0 0 1 129.495322-129.495321h764.990155a129.648934 129.648934 0 0 1 129.495322 129.495321V754.983742h0.518442v11.520937A129.648934 129.648934 0 0 1 1100.07733 896z m54.013989-534.801853H749.284028c-9.255152 0-16.878171-2.188978-22.52343-6.413321L543.808133 221.257177a97.793546 97.793546 0 0 1-36.233344 7.277391 100.251345 100.251345 0 0 1-100.136136-100.136136 100.251345 100.251345 0 0 1 100.136136-100.136136 100.251345 100.251345 0 0 1 100.136136 100.136136 98.446399 98.446399 0 0 1-7.987849 38.806353l162.233982 117.974386h392.134261v-285.757618c0-29.41679-22.120197-52.439461-50.346491-52.439461H336.124059c-28.706332 0-50.346491 22.77305-50.346491 52.977105V406.302612h404.788089a38.575934 38.575934 0 0 1 22.062593 6.144499l0.192015 0.134411 183.221287 133.143618a97.927957 97.927957 0 0 1 36.252546-7.277391 100.251345 100.251345 0 0 1 100.136136 100.136136 100.251345 100.251345 0 0 1-100.136136 100.116934 100.251345 100.251345 0 0 1-100.136136-100.116934 98.523205 98.523205 0 0 1 7.968647-38.825555l-162.21478-117.974385H285.758367V767.560764c0 30.204054 21.640158 52.977104 50.34649 52.977105H1103.725627c28.706332 0 50.346491-22.77305 50.34649-52.977105z"  horiz-adv-x="1439" />

    
    <glyph glyph-name="Z3" unicode="&#58992;" d="M786.474773 173.087755h175.813926q-71.009006-144.034149-199.494985-222.492609t-292.134742-78.595146q-90.623621 0-166.690054 25.01376a426.224896 426.224896 0 0 0-136.27715 73.708578 437.023186 437.023186 0 0 0-124.419534 157.053606A457.902158 457.902158 0 0 0 0.010732 325.220621a589.019365 589.019365 0 0 0 42.27052 221.125736 583.927766 583.927766 0 0 0 122.06168 188.662523 509.159862 509.159862 0 0 0 174.481225 119.362107A547.773999 547.773999 0 0 0 551.201911 895.992243q173.797789 0 298.559041-91.614603t166.690054-250.547659H855.330956q-38.545794 100.08921-119.362107 153.773113T545.734423 761.423684a363.075405 363.075405 0 0 1-146.733722-30.105359 394.923525 394.923525 0 0 1-125.10297-87.58233 432.785883 432.785883 0 0 1-87.240612-138.976722 437.638279 437.638279 0 0 1-31.84812-162.62361q0-146.733721 88.265766-240.398633t224.850463-93.664911a393.180763 393.180763 0 0 1 183.639268 43.60322 350.636869 350.636869 0 0 1 134.910277 121.412416zM960.955999-108.317042l27.644988 144.102493L1597.884231 747.857478H1127.304335l25.013759 128.485978h635.595533l-26.380632-138.635004-609.283244-714.190678h493.064943l-25.047932-131.834816z"  horiz-adv-x="1788" />

    
    <glyph glyph-name="moniqi" unicode="&#58993;" d="M795.451279 641.07994a63.549272 63.549272 0 0 1-63.476974-63.495049 62.970894 62.970894 0 0 1 2.367734-17.170594l-114.934534-123.176419a63.260083 63.260083 0 0 1-59.030694-18.562315l-82.906857 17.748971a63.043191 63.043191 0 0 1-59.970559 42.655371 63.567346 63.567346 0 0 1-63.476975-63.495049 62.356367 62.356367 0 0 1 0.867567-10.284282l-106.638425-91.383709a62.681705 62.681705 0 0 1-19.700998 3.217227 63.567346 63.567346 0 0 1-63.495049-63.495049 63.043191 63.043191 0 0 1 18.598465-44.950807 63.07934 63.07934 0 0 1 44.896584-18.598465 63.549272 63.549272 0 0 1 63.458901 63.495049 62.482888 62.482888 0 0 1-0.867567 10.266208l106.638425 91.401783a62.699779 62.699779 0 0 1 19.719072-3.163004 62.808225 62.808225 0 0 1 46.089489 19.88174l82.943006-17.78512a63.043191 63.043191 0 0 1 59.952484-42.583073 63.476975 63.476975 0 0 1 61.091166 80.665643l114.952608 123.176418a62.916671 62.916671 0 0 1 12.923131-1.337499 63.549272 63.549272 0 0 1 63.386603 63.476975 63.549272 63.549272 0 0 1-63.386603 63.495049zM511.991885 896C229.671172 896 0.000922 666.32975 0.000922 384.009037a507.888095 507.888095 0 0 1 95.956508-298.063436 32.859095 32.859095 0 0 1 3.000336-4.139017 517.919336 517.919336 0 0 1 177.760833-152.4568 512.262077 512.262077 0 0 1 235.273286-57.33171 511.069173 511.069173 0 0 1 254.540499 67.869032 516.563763 516.563763 0 0 1 182.857789 178.230765 33.455547 33.455547 0 0 1 2.548477 4.265537 510.563092 510.563092 0 0 1 72.062272 261.625629C1024.000922 666.32975 794.312598 896 511.991885 896z m0-958.082994a445.061795 445.061795 0 0 0-329.838073 146.058495 283.56784 283.56784 0 0 0 43.595234 3.379896 257.125126 257.125126 0 0 0 88.238779-15.218569c31.901156-11.603707 62.067179-17.242891 92.178978-17.242891 44.517024 0 81.804324 12.019416 121.29669 24.74373 21.020422 6.777866 42.763816 13.790698 66.35079 19.032247a214.343235 214.343235 0 0 0 46.993205 5.422293c29.226158 0 53.626476-6.651346 79.635407-13.718401 22.918224-6.217562 46.613644-12.652017 73.417845-13.935292 3.614862-0.180743 7.229724-0.25304 10.971106-0.253041a259.782049 259.782049 0 0 1 31.630041 2.006249 444.519566 444.519566 0 0 0-324.470002-140.274716z m285.013785 204.402366c-19.6287 0.92179-38.87784 6.16334-59.265661 11.694078l-2.837666-10.392728 2.656923 10.519248c-27.47295 7.46469-58.614985 15.941541-96.84215 15.941541a278.742 278.742 0 0 1-61.163463-6.958609c-26.533086-5.910299-49.776648-13.393063-72.297237-20.658936-35.85943-11.549484-66.874945-21.544577-100.999241-21.544577-22.375995 0-45.185774 4.337834-69.694538 13.266543a324.108516 324.108516 0 0 1-111.138928 19.357586 342.526238 342.526238 0 0 1-87.967664-11.422964 443.272438 443.272438 0 0 0-71.556191 241.888483c0 245.973277 200.118754 446.092031 446.092031 446.092031s446.092031-200.118754 446.09203-446.092031a445.061795 445.061795 0 0 0-58.8861-221.265696c-17.297114-7.229724-55.126644-20.604713-94.528638-20.622787-2.566552 0.018074-5.151178 0.072297-7.663507 0.198818z"  horiz-adv-x="1024" />

    
    <glyph glyph-name="X1" unicode="&#58994;" d="M384.043489 443.977285L134.194049 143.208659H0L339.858856 528.954424 169.929428 896h118.948114l129.149347-287.187691L661.029947 896h130.851624L467.305926 517.026064 650.84114 143.208659H526.835898zM1038.960151 560.96219c-137.275542 0-222.737271-139.86002-259.00694-303.030044A789.955638 789.955638 0 0 1 759.190409 92.165219c0-145.041402 28.578362-220.165219 170.985585-220.165219S1152.92569 19.638305 1189.182935 211.299714a696.790176 696.790176 0 0 1 12.94724 137.275542c0 124.315876-25.894481 212.386934-163.170024 212.386934z m-28.491384-59.579673c64.748629 0 95.836917-62.126875 95.836917-147.638305a641.646362 641.646362 0 0 0 0-98.421395H870.608746c0 129.509683 75.111392 246.0597 139.860021 246.0597z m-64.748629-572.399748c-59.567247 0-98.421395 54.385866-98.421395 155.404165a647.585691 647.585691 0 0 0 0 111.368636l266.7728-7.76586c-28.491385-150.222783-108.784158-259.006941-168.351405-259.006941z"  horiz-adv-x="1202" />

    
    <glyph glyph-name="banbenlishi" unicode="&#58898;" d="M933.84687143 494.5356505c-5.79953147 28.1691528-14.36074457 55.92405333-25.54555522 82.43619714-10.63247434 25.26938706-23.88854624 49.57218555-39.07779529 72.4941432l49.01984921 49.01984922H761.93218898v-156.1730971l61.03316436 61.0331644c10.08013802-16.43200579 19.05560336-33.554432 26.51214381-51.22919454 9.52780169-22.64578949 16.84625804-46.25816757 21.817285-70.28479789 5.10911105-24.71705073 7.59462453-50.12452187 7.59462453-75.53199301 0-25.40747114-2.62359757-50.95302637-7.59462453-75.53199304-4.97102697-24.02663031-12.28948332-47.77709247-21.817285-70.28479789-9.3897176-22.23153725-20.98878051-43.63457002-34.52102056-63.65676195-13.39415599-19.88410785-28.85957319-38.52545897-45.84391534-55.50980108-16.98434213-16.98434213-35.62569324-32.44975935-55.50980109-45.84391532-20.02219194-13.53224006-41.42522469-25.13130297-63.65676194-34.52102058-22.64578949-9.52780169-46.25816757-16.84625804-70.28479789-21.817285-49.43410147-10.08013802-101.76796865-10.08013802-151.20207012 0-24.02663031 4.97102697-47.77709247 12.28948332-70.28479791 21.817285-22.23153725 9.3897176-43.63457002 20.98878051-63.65676193 34.52102058-19.88410785 13.39415599-38.52545897 28.85957319-55.50980109 45.84391532-16.98434213 16.98434213-32.31167525 35.62569324-45.84391532 55.50980108-13.53224006 20.02219194-25.13130297 41.42522469-34.52102057 63.65676195-9.52780169 22.64578949-16.84625804 46.25816757-21.81728501 70.28479789-5.10911105 24.71705073-7.59462453 50.12452187-7.59462453 75.53199304 0 25.40747114 2.62359757 50.95302637 7.59462453 75.53199301 4.97102697 24.02663031 12.28948332 47.77709247 21.81728501 70.28479789 9.3897176 22.23153725 20.98878051 43.63457002 34.52102057 63.65676194 13.39415599 19.88410785 28.85957319 38.52545897 45.84391532 55.50980109 16.98434213 16.98434213 35.62569324 32.44975935 55.50980109 45.84391533 20.02219194 13.53224006 41.42522469 25.13130297 63.65676193 34.52102057 22.64578949 9.52780169 46.25816757 16.84625804 70.28479791 21.81728499 49.43410147 10.08013802 101.76796865 10.08013802 151.20207012 0l12.84181966 62.55208929c-57.85723049 11.87523108-119.02847895 11.87523108-176.74762536 0-28.1691528-5.79953147-55.92405333-14.36074457-82.43619714-25.54555522-25.95980747-11.04672658-51.09111045-24.57896666-74.56540444-40.45863611-23.19812583-15.74158539-45.01541083-33.69251609-64.89951868-53.57662394-19.88410785-19.88410785-37.83503855-41.70139286-53.57662394-64.89951868-15.87966947-23.47429398-29.41190953-48.46751289-40.45863612-74.56540444-11.18481067-26.51214381-19.74602377-54.26704435-25.54555522-82.43619714-5.93761554-28.85957319-8.97546534-58.68573497-8.97546534-88.37381267s3.0378498-59.51423947 8.97546534-88.37381268c5.79953147-28.1691528 14.36074457-55.92405333 25.54555522-82.43619714 11.04672658-25.95980747 24.57896666-51.09111045 40.45863612-74.56540444 15.74158539-23.19812583 33.69251609-45.01541083 53.57662394-64.89951869 19.88410785-19.88410785 41.70139286-37.83503855 64.89951868-53.57662393 23.47429398-15.87966947 48.46751289-29.41190953 74.56540444-40.45863612 26.51214381-11.18481067 54.26704435-19.74602377 82.43619714-25.54555521 28.85957319-5.93761554 58.68573497-8.97546534 88.37381268-8.97546536s59.51423947 3.0378498 88.37381268 8.97546536c28.1691528 5.79953147 55.92405333 14.36074457 82.43619713 25.54555521 25.95980747 11.04672658 51.09111045 24.57896666 74.56540445 40.45863612 23.19812583 15.74158539 45.01541083 33.69251609 64.89951868 53.57662393 19.88410785 19.88410785 37.83503855 41.70139286 53.57662393 64.89951869 15.87966947 23.47429398 29.41190953 48.46751289 40.45863612 74.56540444 11.18481067 26.51214381 19.74602377 54.26704435 25.54555523 82.43619714 5.93761554 28.85957319 8.97546534 58.68573497 8.97546534 88.37381268-0.13808409 29.82616178-3.1759339 59.51423947-9.11354944 88.37381267zM444.47688375 660.6508015100001v-342.44852412h314.14128725v63.79484602H508.40981387V660.6508015100001h-63.93293012z"  horiz-adv-x="1024" />

    
    <glyph glyph-name="QFT" unicode="&#59000;" d="M303.552163 520.793893c10.422392-13.02799 26.05598-26.05598 46.900763-39.083969l-20.844784-26.05598c-20.844784 13.02799-39.083969 28.661578-54.717557 49.506361-23.450382-10.422392-44.295165-15.633588-65.139949-15.633587-15.633588 0-33.872774 2.605598-54.717557 10.422391s-36.478372 15.633588-49.506361 28.661578-23.450382 28.661578-31.267176 49.506361c-7.816794 20.844784-10.422392 41.689567-10.422392 65.139949 0 28.661578 5.211196 57.323155 15.633588 83.379135 10.422392 18.239186 20.844784 39.083969 36.478371 54.717558S147.216285 810.015267 165.455471 817.832061c23.450382 10.422392 49.506361 18.239186 75.562341 18.239186 41.689567 0 75.562341-13.02799 101.61832-41.689568 26.05598-26.05598 39.083969-62.534351 39.08397-109.435114 0-33.872774-7.816794-65.139949-20.844784-93.801527s-33.872774-52.111959-57.323155-70.351145z m-28.661578 28.661578c18.239186 15.633588 33.872774 33.872774 44.295166 59.928753s18.239186 52.111959 18.239185 78.167939c0 33.872774-10.422392 59.928753-28.661577 80.773537-18.239186 20.844784-41.689567 28.661578-67.745547 28.661577-23.450382 0-44.295165-5.211196-65.139949-18.239185-20.844784-13.02799-36.478372-33.872774-49.506362-59.928754s-18.239186-52.111959-18.239185-83.379134c0-36.478372 13.02799-67.745547 36.478371-88.590331 18.239186-15.633588 39.083969-23.450382 59.928753-23.450382 15.633588 0 31.267176 2.605598 44.295166 7.816794-13.02799 13.02799-28.661578 23.450382-41.689568 31.267176l15.633588 28.661577c10.422392-5.211196 18.239186-10.422392 26.05598-15.633588 5.211196-5.211196 15.633588-13.02799 26.055979-26.055979zM405.170483 494.737913l70.351145 336.122138h218.87023L686.575064 791.776081h-174.575064L488.549618 684.946565h177.180662l-7.816794-39.08397h-177.180662l-31.267175-151.124682h-44.295166zM777.770992 494.737913L840.305344 791.776081h-109.435115l7.816794 39.08397h263.165394L994.035623 791.776081h-109.435114l-62.534351-297.038168h-44.295166zM277.496183-73.282443c-23.450382 52.111959-36.478372 106.829517-36.478371 161.547074 0 36.478372 5.211196 70.351145 15.633587 104.223919 10.422392 31.267176 23.450382 62.534351 44.295166 93.801526 13.02799 20.844784 33.872774 46.900763 62.534351 80.773537h31.267176c-18.239186-18.239186-36.478372-46.900763-57.323156-80.773537s-33.872774-67.745547-44.295165-101.61832-13.02799-67.745547-13.02799-101.618321c0-49.506361 7.816794-101.618321 26.05598-156.335878H277.496183zM498.97201 25.73028l18.239186 85.984733h-138.096692l7.816794 41.689567 187.603053 208.447837h33.872774l-44.295166-213.659033h46.900764l-7.816794-36.478371h-46.900764l-15.633587-85.984733h-41.689568z m26.05598 122.463104l28.661577 140.70229-125.068702-140.70229h96.407125zM712.631043 367.063613c23.450382-52.111959 36.478372-106.829517 36.478372-161.547074 0-36.478372-5.211196-70.351145-15.633588-104.223918-10.422392-31.267176-23.450382-62.534351-44.295165-93.801527-13.02799-20.844784-33.872774-46.900763-62.534352-80.773537H592.773537c18.239186 18.239186 36.478372 46.900763 57.323155 80.773537s33.872774 67.745547 44.295166 101.618321c7.816794 33.872774 13.02799 67.745547 13.027989 101.61832 0 49.506361-7.816794 101.618321-26.055979 156.335878h31.267175z"  horiz-adv-x="1024" />

    
    <glyph glyph-name="GHZ" unicode="&#59001;" d="M203.236641 625.017812l7.816794 39.083969h145.913486l-28.661577-135.491094c-18.239186-10.422392-39.083969-20.844784-62.534352-28.661578s-46.900763-13.02799-70.351145-13.027989c-49.506361 0-85.984733 15.633588-109.435114 44.295165-20.844784 26.05598-31.267176 57.323155-31.267176 96.407125s7.816794 78.167939 26.05598 109.435114c18.239186 33.872774 39.083969 57.323155 67.745547 72.956743 26.05598 15.633588 57.323155 23.450382 91.195929 23.450382 23.450382 0 44.295165-5.211196 65.139949-13.02799s33.872774-20.844784 44.295165-33.872774c10.422392-15.633588 18.239186-33.872774 20.844784-57.323155l-44.295165-5.211196c-5.211196 23.450382-15.633588 41.689567-28.661578 52.11196-15.633588 15.633588-33.872774 20.844784-57.323155 20.844783-26.05598 0-46.900763-5.211196-67.745547-18.239185-20.844784-13.02799-39.083969-33.872774-52.11196-59.928754s-18.239186-57.323155-18.239185-91.195928c0-33.872774 7.816794-59.928753 26.055979-75.562341s39.083969-26.05598 67.745547-26.05598 59.928753 10.422392 93.801527 28.661578l15.633588 72.956743H203.236641zM396.050891 494.737913l70.351145 336.122138h44.295165l-28.661578-140.70229h174.575064l28.661578 140.70229h44.295165l-70.351145-336.122138h-44.295165l33.872773 158.941476h-174.575063l-33.872774-158.941476h-44.295165zM724.356234 494.737913l5.211196 33.872774 169.363868 200.631043 33.872773 41.689568c7.816794 7.816794 13.02799 15.633588 20.844784 23.450381-15.633588-2.605598-23.450382-2.605598-31.267176-2.605598H773.862595l7.816794 39.08397h231.898219l-2.605598-33.872774-179.786259-213.659033c-20.844784-26.05598-36.478372-41.689567-41.689568-49.506361 7.816794 0 10.422392 2.605598 13.02799 2.605598h182.391858l-10.422392-41.689568h-250.137405zM294.43257-73.282443c-23.450382 52.111959-36.478372 106.829517-36.478372 161.547074 0 36.478372 5.211196 70.351145 15.633588 104.223919 10.422392 31.267176 23.450382 62.534351 44.295166 93.801526 13.02799 20.844784 33.872774 46.900763 62.534351 80.773537h31.267175c-18.239186-18.239186-36.478372-46.900763-57.323155-80.773537s-33.872774-67.745547-44.295165-101.61832-13.02799-67.745547-13.02799-101.618321c0-49.506361 7.816794-101.618321 26.05598-156.335878h-28.661578zM401.262087 111.715013l39.083969 5.211196c2.605598-23.450382 10.422392-39.083969 20.844784-49.506362 10.422392-10.422392 23.450382-15.633588 41.689567-15.633587 20.844784 0 39.083969 7.816794 52.111959 20.844783 15.633588 15.633588 23.450382 31.267176 23.450382 49.506362 0 15.633588-5.211196 31.267176-15.633588 41.689567-10.422392 10.422392-26.05598 15.633588-44.295165 15.633588H505.486005l7.816794 33.872773h10.422392c23.450382 0 41.689567 5.211196 54.717557 18.239186 13.02799 10.422392 18.239186 26.05598 18.239186 41.689568 0 15.633588-5.211196 28.661578-15.633588 39.083969-10.422392 10.422392-23.450382 15.633588-39.083969 15.633588s-28.661578-5.211196-39.08397-15.633588c-13.02799-10.422392-18.239186-26.05598-23.450382-46.900763l-41.689567 7.816794c7.816794 28.661578 20.844784 49.506361 39.083969 65.139949 18.239186 15.633588 41.689567 23.450382 67.745548 23.450381 28.661578 0 49.506361-7.816794 67.745547-26.055979 18.239186-15.633588 26.05598-36.478372 26.055979-62.534351 0-18.239186-5.211196-33.872774-13.02799-46.900764-10.422392-13.02799-23.450382-23.450382-41.689567-33.872773 13.02799-7.816794 23.450382-18.239186 28.661578-28.661578 5.211196-10.422392 10.422392-23.450382 10.422391-39.083969 0-31.267176-10.422392-57.323155-33.872773-78.167939-23.450382-20.844784-49.506361-33.872774-80.773537-33.872774-31.267176 0-54.717557 7.816794-72.956743 26.05598s-31.267176 44.295165-33.872773 72.956743zM729.56743 367.063613c23.450382-52.111959 36.478372-106.829517 36.478372-161.547074 0-36.478372-5.211196-70.351145-15.633588-104.223918-10.422392-31.267176-23.450382-62.534351-44.295166-93.801527-13.02799-20.844784-33.872774-46.900763-62.534351-80.773537H609.709924c18.239186 18.239186 36.478372 46.900763 57.323155 80.773537s33.872774 67.745547 44.295165 101.618321c7.816794 33.872774 13.02799 67.745547 13.02799 101.61832 0 49.506361-7.816794 101.618321-26.05598 156.335878h31.267176z"  horiz-adv-x="1024" />

    
    <glyph glyph-name="H1" unicode="&#59003;" d="M314.76284978 247.73504569L392.21871843 614.9332379699999h48.76850955L409.43113343 462.89023667h192.20530395l31.55609454 154.91173733h48.76850954l-77.45586866-370.06692831H555.73666326l37.293566 174.99288834H400.82492592l-37.2935666-174.99288834H314.76284978zM747.94196659 138.72308247c-25.81862309 57.37471763-40.16230205 117.61817071-40.16230204 177.86162439 0 40.16230205 5.73747146 77.45586866 17.21241499 114.74943527 11.47494353 34.42483059 25.81862309 68.84966116 48.76851015 103.27449114 14.34367957 22.94988706 37.29356662 51.63724557 68.84966116 88.93081221h34.42482997c-20.08115103-20.08115103-40.16230205-51.63724557-63.11218909-88.93081221-22.94988706-37.29356662-37.29356662-74.58713263-48.76850953-111.88069924s-14.34367957-74.58713263-14.34367957-111.88069866c0-54.50598161 8.60620749-111.88069925 28.68735852-172.1241529h-31.55609456zM940.14727054 460.02150065c11.47494353 11.47494353 25.81862309 17.212415 37.29356602 22.94988705 11.47494353 5.73747146 25.81862309 8.60620749 37.29356661 8.6062075 28.68735852 0 51.63724557-8.60620749 68.84966056-28.68735853s28.68735852-45.8997741 28.68735912-77.45586865c0-43.03103808-14.34367957-77.45586866-40.16230264-109.01196323-22.94988706-25.81862309-51.63724557-37.29356662-86.06207615-37.29356661-31.55609455 0-57.37471763 11.47494353-77.45586867 34.42483058-20.08115103 22.94988706-31.55609455 54.50598161-31.55609456 94.66828366 0 37.29356662 5.73747146 74.58713263 20.08115163 114.74943528 11.47494353 31.55609455 22.94988706 54.50598161 37.29356602 74.58713264 17.212415 22.94988706 34.42483059 37.29356662 48.76851014 45.89977411 17.212415 8.60620749 34.42483059 14.34367957 57.37471703 14.34367955 25.81862309 0 45.8997741-8.60620749 63.11218972-22.94988705s25.81862309-37.29356662 25.81862248-68.84966118l-43.03103808-2.86873603c-2.86873602 20.08115103-8.60620749 34.42483059-17.21241499 43.03103809-8.60620749 8.60620749-20.08115103 14.34367957-31.55609456 14.34367956-14.34367957 0-28.68735852-5.73747146-40.16230265-17.212415s-25.81862309-25.81862309-37.29356601-45.89977411-17.212415-40.16230205-20.08115102-57.37471763z m-14.34367956-109.01196323c0-20.08115103 5.73747146-37.29356662 20.08115103-51.63724556 14.34367957-14.34367957 28.68735852-20.08115103 43.03103807-20.08115103 11.47494353 0 22.94988706 5.73747146 37.29356662 14.34367896s22.94988706 22.94988706 31.55609455 40.16230264c8.60620749 17.212415 14.34367957 34.42483059 14.34367896 51.63724559 0 22.94988706-5.73747146 40.16230205-17.21241499 54.50598161-11.47494353 14.34367957-28.68735852 20.08115103-45.89977411 20.08115103-20.08115103 0-40.16230205-8.60620749-57.37471704-28.68735854-17.212415-25.81862309-25.81862309-48.76851014-25.81862309-80.3246047zM1227.02085754 623.5394454699999c25.81862309-57.37471763 40.16230205-117.61817071 40.16230264-177.86162439 0-40.16230205-5.73747146-77.45586866-17.21241559-114.74943468-11.47494353-34.42483059-25.81862309-68.84966116-48.76850954-103.27449173-14.34367957-22.94988706-37.29356662-51.63724557-68.84966116-88.9308122H1095.05900727c20.08115103 20.08115103 40.16230205 51.63724557 63.11218968 88.9308122s37.29356662 74.58713263 48.76850956 111.88069924c8.60620749 37.29356662 14.34367957 74.58713263 14.34367957 111.88069923 0 54.50598161-8.60620749 111.88069925-28.68735914 172.12415233h34.4248306z"  horiz-adv-x="1682" />

    
    <glyph glyph-name="GHZ1" unicode="&#59004;" d="M203.236641 625.017812l7.816794 39.083969h145.913486l-28.661577-135.491094c-18.239186-10.422392-39.083969-20.844784-62.534352-28.661578s-46.900763-13.02799-70.351145-13.027989c-49.506361 0-85.984733 15.633588-109.435114 44.295165-20.844784 26.05598-31.267176 57.323155-31.267176 96.407125s7.816794 78.167939 26.05598 109.435114c18.239186 33.872774 39.083969 57.323155 67.745547 72.956743 26.05598 15.633588 57.323155 23.450382 91.195929 23.450382 23.450382 0 44.295165-5.211196 65.139949-13.02799s33.872774-20.844784 44.295165-33.872774c10.422392-15.633588 18.239186-33.872774 20.844784-57.323155l-44.295165-5.211196c-5.211196 23.450382-15.633588 41.689567-28.661578 52.11196-15.633588 15.633588-33.872774 20.844784-57.323155 20.844783-26.05598 0-46.900763-5.211196-67.745547-18.239185-20.844784-13.02799-39.083969-33.872774-52.11196-59.928754s-18.239186-57.323155-18.239185-91.195928c0-33.872774 7.816794-59.928753 26.055979-75.562341s39.083969-26.05598 67.745547-26.05598 59.928753 10.422392 93.801527 28.661578l15.633588 72.956743H203.236641zM396.050891 494.737913l70.351145 336.122138h44.295165l-28.661578-140.70229h174.575064l28.661578 140.70229h44.295165l-70.351145-336.122138h-44.295165l33.872773 158.941476h-174.575063l-33.872774-158.941476h-44.295165zM724.356234 494.737913l5.211196 33.872774 169.363868 200.631043 33.872773 41.689568c7.816794 7.816794 13.02799 15.633588 20.844784 23.450381-15.633588-2.605598-23.450382-2.605598-31.267176-2.605598H773.862595l7.816794 39.08397h231.898219l-2.605598-33.872774-179.786259-213.659033c-20.844784-26.05598-36.478372-41.689567-41.689568-49.506361 7.816794 0 10.422392 2.605598 13.02799 2.605598h182.391858l-10.422392-41.689568h-250.137405zM294.43257-73.282443c-23.450382 52.111959-36.478372 106.829517-36.478372 161.547074 0 36.478372 5.211196 70.351145 15.633588 104.223919 10.422392 31.267176 23.450382 62.534351 44.295166 93.801526 13.02799 20.844784 33.872774 46.900763 62.534351 80.773537h31.267175c-18.239186-18.239186-36.478372-46.900763-57.323155-80.773537s-33.872774-67.745547-44.295165-101.61832-13.02799-67.745547-13.02799-101.618321c0-49.506361 7.816794-101.618321 26.05598-156.335878h-28.661578zM469.007634 218.544529c10.422392 10.422392 23.450382 15.633588 33.872773 20.844784 10.422392 5.211196 23.450382 7.816794 33.872774 7.816794 26.05598 0 46.900763-7.816794 62.534351-26.05598s26.05598-41.689567 26.055979-70.351145c0-39.083969-13.02799-70.351145-36.478371-99.012722-20.844784-23.450382-46.900763-33.872774-78.167939-33.872774-28.661578 0-52.111959 10.422392-70.351145 31.267176-18.239186 20.844784-28.661578 49.506361-28.661578 85.984732 0 33.872774 5.211196 67.745547 18.239186 104.223919 10.422392 28.661578 20.844784 49.506361 33.872774 67.745547s28.661578 31.267176 44.295165 39.08397c15.633588 7.816794 31.267176 13.02799 52.111959 13.027989 23.450382 0 41.689567-7.816794 57.323156-20.844783 15.633588-13.02799 23.450382-33.872774 23.450381-62.534352l-39.083969-2.605597c-2.605598 18.239186-7.816794 31.267176-15.633588 39.083969-7.816794 7.816794-18.239186 13.02799-28.661578 13.02799-13.02799 0-26.05598-5.211196-36.478371-15.633588s-23.450382-23.450382-31.267176-41.689567-18.239186-33.872774-20.844783-49.506362z m-13.02799-99.012722c0-18.239186 5.211196-33.872774 18.239186-46.900764 13.02799-13.02799 26.05598-18.239186 39.083969-18.239185 10.422392 0 20.844784 5.211196 33.872774 13.027989s20.844784 20.844784 28.661577 36.478372 13.02799 31.267176 13.02799 46.900763c0 20.844784-5.211196 36.478372-15.633588 49.506362-10.422392 13.02799-26.05598 18.239186-41.689567 18.239185-18.239186 0-36.478372-7.816794-52.11196-26.055979-15.633588-23.450382-23.450382-44.295165-23.450381-72.956743zM729.56743 367.063613c23.450382-52.111959 36.478372-106.829517 36.478372-161.547074 0-36.478372-5.211196-70.351145-15.633588-104.223918-10.422392-31.267176-23.450382-62.534351-44.295166-93.801527-13.02799-20.844784-33.872774-46.900763-62.534351-80.773537H609.709924c18.239186 18.239186 36.478372 46.900763 57.323155 80.773537s33.872774 67.745547 44.295165 101.618321c7.816794 33.872774 13.02799 67.745547 13.02799 101.61832 0 49.506361-7.816794 101.618321-26.05598 156.335878h31.267176z"  horiz-adv-x="1024" />

    
    <glyph glyph-name="GHZ2" unicode="&#59005;" d="M203.236641 625.017812l7.816794 39.083969h145.913486l-28.661577-135.491094c-18.239186-10.422392-39.083969-20.844784-62.534352-28.661578s-46.900763-13.02799-70.351145-13.027989c-49.506361 0-85.984733 15.633588-109.435114 44.295165-20.844784 26.05598-31.267176 57.323155-31.267176 96.407125s7.816794 78.167939 26.05598 109.435114c18.239186 33.872774 39.083969 57.323155 67.745547 72.956743 26.05598 15.633588 57.323155 23.450382 91.195929 23.450382 23.450382 0 44.295165-5.211196 65.139949-13.02799s33.872774-20.844784 44.295165-33.872774c10.422392-15.633588 18.239186-33.872774 20.844784-57.323155l-44.295165-5.211196c-5.211196 23.450382-15.633588 41.689567-28.661578 52.11196-15.633588 15.633588-33.872774 20.844784-57.323155 20.844783-26.05598 0-46.900763-5.211196-67.745547-18.239185-20.844784-13.02799-39.083969-33.872774-52.11196-59.928754s-18.239186-57.323155-18.239185-91.195928c0-33.872774 7.816794-59.928753 26.055979-75.562341s39.083969-26.05598 67.745547-26.05598 59.928753 10.422392 93.801527 28.661578l15.633588 72.956743H203.236641zM396.050891 494.737913l70.351145 336.122138h44.295165l-28.661578-140.70229h174.575064l28.661578 140.70229h44.295165l-70.351145-336.122138h-44.295165l33.872773 158.941476h-174.575063l-33.872774-158.941476h-44.295165zM724.356234 494.737913l5.211196 33.872774 169.363868 200.631043 33.872773 41.689568c7.816794 7.816794 13.02799 15.633588 20.844784 23.450381-15.633588-2.605598-23.450382-2.605598-31.267176-2.605598H773.862595l7.816794 39.08397h231.898219l-2.605598-33.872774-179.786259-213.659033c-20.844784-26.05598-36.478372-41.689567-41.689568-49.506361 7.816794 0 10.422392 2.605598 13.02799 2.605598h182.391858l-10.422392-41.689568h-250.137405zM294.43257-73.282443c-23.450382 52.111959-36.478372 106.829517-36.478372 161.547074 0 36.478372 5.211196 70.351145 15.633588 104.223919 10.422392 31.267176 23.450382 62.534351 44.295166 93.801526 13.02799 20.844784 33.872774 46.900763 62.534351 80.773537h31.267175c-18.239186-18.239186-36.478372-46.900763-57.323155-80.773537s-33.872774-67.745547-44.295165-101.61832-13.02799-67.745547-13.02799-101.618321c0-49.506361 7.816794-101.618321 26.05598-156.335878h-28.661578zM401.262087 25.73028c5.211196 20.844784 10.422392 36.478372 18.239185 49.506361 7.816794 13.02799 18.239186 26.05598 31.267176 39.08397s36.478372 31.267176 72.956743 59.928753c20.844784 18.239186 36.478372 31.267176 44.295165 39.083969 10.422392 13.02799 20.844784 23.450382 26.05598 33.872774 2.605598 7.816794 5.211196 15.633588 5.211196 26.05598 0 15.633588-5.211196 28.661578-15.633588 39.083969-10.422392 10.422392-23.450382 15.633588-39.083969 15.633588s-28.661578-5.211196-41.689568-15.633588c-13.02799-10.422392-20.844784-28.661578-26.05598-52.111959l-41.689567 5.211196c5.211196 28.661578 15.633588 52.111959 33.872774 70.351145 18.239186 18.239186 44.295165 26.05598 70.351145 26.055979 18.239186 0 36.478372-5.211196 52.111959-13.02799 15.633588-7.816794 26.05598-18.239186 33.872773-33.872773s10.422392-28.661578 10.422392-44.295165c0-23.450382-7.816794-44.295165-23.450381-65.13995-10.422392-13.02799-39.083969-39.083969-85.984733-75.562341-20.844784-15.633588-36.478372-28.661578-46.900764-39.083969s-18.239186-20.844784-23.450381-28.661578H609.709924l-7.816794-39.083969H401.262087zM729.56743 367.063613c23.450382-52.111959 36.478372-106.829517 36.478372-161.547074 0-36.478372-5.211196-70.351145-15.633588-104.223918-10.422392-31.267176-23.450382-62.534351-44.295166-93.801527-13.02799-20.844784-33.872774-46.900763-62.534351-80.773537H609.709924c18.239186 18.239186 36.478372 46.900763 57.323155 80.773537s33.872774 67.745547 44.295165 101.618321c7.816794 33.872774 13.02799 67.745547 13.02799 101.61832 0 49.506361-7.816794 101.618321-26.05598 156.335878h31.267176z"  horiz-adv-x="1024" />

    
    <glyph glyph-name="QFT1" unicode="&#59006;" d="M303.552163 520.793893c10.422392-13.02799 26.05598-26.05598 46.900763-39.083969l-20.844784-26.05598c-20.844784 13.02799-39.083969 28.661578-54.717557 49.506361-23.450382-10.422392-44.295165-15.633588-65.139949-15.633587-15.633588 0-33.872774 2.605598-54.717557 10.422391s-36.478372 15.633588-49.506361 28.661578-23.450382 28.661578-31.267176 49.506361c-7.816794 20.844784-10.422392 41.689567-10.422392 65.139949 0 28.661578 5.211196 57.323155 15.633588 83.379135 10.422392 18.239186 20.844784 39.083969 36.478371 54.717558S147.216285 810.015267 165.455471 817.832061c23.450382 10.422392 49.506361 18.239186 75.562341 18.239186 41.689567 0 75.562341-13.02799 101.61832-41.689568 26.05598-26.05598 39.083969-62.534351 39.08397-109.435114 0-33.872774-7.816794-65.139949-20.844784-93.801527s-33.872774-52.111959-57.323155-70.351145z m-28.661578 28.661578c18.239186 15.633588 33.872774 33.872774 44.295166 59.928753s18.239186 52.111959 18.239185 78.167939c0 33.872774-10.422392 59.928753-28.661577 80.773537-18.239186 20.844784-41.689567 28.661578-67.745547 28.661577-23.450382 0-44.295165-5.211196-65.139949-18.239185-20.844784-13.02799-36.478372-33.872774-49.506362-59.928754s-18.239186-52.111959-18.239185-83.379134c0-36.478372 13.02799-67.745547 36.478371-88.590331 18.239186-15.633588 39.083969-23.450382 59.928753-23.450382 15.633588 0 31.267176 2.605598 44.295166 7.816794-13.02799 13.02799-28.661578 23.450382-41.689568 31.267176l15.633588 28.661577c10.422392-5.211196 18.239186-10.422392 26.05598-15.633588 5.211196-5.211196 15.633588-13.02799 26.055979-26.055979zM405.170483 494.737913l70.351145 336.122138h218.87023L686.575064 791.776081h-174.575064L488.549618 684.946565h177.180662l-7.816794-39.08397h-177.180662l-31.267175-151.124682h-44.295166zM777.770992 494.737913L840.305344 791.776081h-109.435115l7.816794 39.08397h263.165394L994.035623 791.776081h-109.435114l-62.534351-297.038168h-44.295166zM277.496183-73.282443c-23.450382 52.111959-36.478372 106.829517-36.478371 161.547074 0 36.478372 5.211196 70.351145 15.633587 104.223919 10.422392 31.267176 23.450382 62.534351 44.295166 93.801526 13.02799 20.844784 33.872774 46.900763 62.534351 80.773537h31.267176c-18.239186-18.239186-36.478372-46.900763-57.323156-80.773537s-33.872774-67.745547-44.295165-101.61832-13.02799-67.745547-13.02799-101.618321c0-49.506361 7.816794-101.618321 26.05598-156.335878H277.496183zM384.3257 111.715013l39.083969 5.211196c2.605598-23.450382 10.422392-39.083969 20.844784-49.506362 10.422392-10.422392 23.450382-15.633588 41.689567-15.633587 20.844784 0 39.083969 7.816794 52.11196 20.844783 15.633588 15.633588 23.450382 31.267176 23.450381 49.506362 0 15.633588-5.211196 31.267176-15.633587 41.689567-10.422392 10.422392-26.05598 15.633588-44.295166 15.633588H488.549618l7.816794 33.872773h10.422392c23.450382 0 41.689567 5.211196 54.717557 18.239186 13.02799 10.422392 18.239186 26.05598 18.239186 41.689568 0 15.633588-5.211196 28.661578-15.633588 39.083969-10.422392 10.422392-23.450382 15.633588-39.083969 15.633588s-28.661578-5.211196-39.08397-15.633588c-13.02799-10.422392-18.239186-26.05598-23.450381-46.900763l-41.689568 7.816794c7.816794 28.661578 20.844784 49.506361 39.08397 65.139949 18.239186 15.633588 41.689567 23.450382 67.745547 23.450381 28.661578 0 49.506361-7.816794 67.745547-26.055979 18.239186-15.633588 26.05598-36.478372 26.05598-62.534351 0-18.239186-5.211196-33.872774-13.02799-46.900764-10.422392-13.02799-23.450382-23.450382-41.689568-33.872773 13.02799-7.816794 23.450382-18.239186 28.661578-28.661578 5.211196-10.422392 10.422392-23.450382 10.422392-39.083969 0-31.267176-10.422392-57.323155-33.872774-78.167939-23.450382-20.844784-49.506361-33.872774-80.773537-33.872774-31.267176 0-54.717557 7.816794-72.956743 26.05598s-31.267176 44.295165-33.872773 72.956743zM712.631043 367.063613c23.450382-52.111959 36.478372-106.829517 36.478372-161.547074 0-36.478372-5.211196-70.351145-15.633588-104.223918-10.422392-31.267176-23.450382-62.534351-44.295165-93.801527-13.02799-20.844784-33.872774-46.900763-62.534352-80.773537H592.773537c18.239186 18.239186 36.478372 46.900763 57.323155 80.773537s33.872774 67.745547 44.295166 101.618321c7.816794 33.872774 13.02799 67.745547 13.027989 101.61832 0 49.506361-7.816794 101.618321-26.055979 156.335878h31.267175z"  horiz-adv-x="1024" />

    
    <glyph glyph-name="z-CNOT" unicode="&#59007;" d="M354.52793867 440.231214l8.878612 35.514451 147.976879 168.693641 35.514451 35.514451c-23.676301-2.959538-38.473988-2.959538-47.352601-2.959537h-103.583815l8.878612 38.473988h213.086706l-5.919076-29.595376-150.936416-168.693641c-8.878613-8.878613-20.716763-23.676301-38.473988-38.473989 26.635838 2.959538 44.393064 2.959538 53.271676 2.959538h109.50289l-8.878612-41.433526h-221.965318zM635.68400767 552.693642l8.878613 47.352601h145.017341l-11.83815-47.352601h-142.057804zM227.26782267 111.72254299999997l38.473989-5.919075c-11.83815-35.514451-29.595376-59.190751-53.271677-76.947977s-50.312139-26.635838-79.907514-26.635838c-35.514451 0-65.109827 11.83815-85.82659 32.554913s-32.554913 53.271676-32.554913 94.705203c0 53.271676 14.797688 97.66474 47.352601 133.179191 29.595376 32.554913 65.109827 47.352601 106.543353 47.352601 32.554913 0 56.231214-8.878613 76.947977-26.635838s29.595376-38.473988 32.554913-68.069365l-32.554913-2.959537c-2.959538 20.716763-11.83815 38.473988-23.676301 47.352601-11.83815 11.83815-26.635838 14.797688-47.352601 14.797688-35.514451 0-65.109827-14.797688-88.786127-47.352601-20.716763-26.635838-29.595376-62.150289-29.595376-97.66474 0-29.595376 8.878613-53.271676 23.6763-71.028902s35.514451-23.676301 59.190752-23.676301c20.716763 0 38.473988 5.919075 56.231214 20.716763s26.635838 32.554913 32.554913 56.231214zM298.29672467 8.138728000000015l62.150289 295.953758h38.473988l50.312139-112.462428c14.797688-32.554913 26.635838-62.150289 35.514451-85.82659 5.919075-14.797688 11.83815-32.554913 17.757225-53.271676 2.959538 23.676301 8.878613 50.312139 14.797688 76.947977l35.514451 174.612717h38.473988l-62.150289-295.953758h-38.473988l-73.988439 171.65318c-11.83815 29.595376-23.676301 56.231214-29.595376 79.907514-2.959538-20.716763-5.919075-44.393064-11.83815-71.028902L336.77071267 8.138728000000015h-38.473988zM614.96724467 132.439306c0 53.271676 14.797688 94.705202 44.393064 127.260116 29.595376 32.554913 68.069364 50.312139 112.462427 50.312139 35.514451 0 68.069364-11.83815 91.745665-35.514451 23.676301-23.676301 35.514451-56.231214 35.514451-97.66474 0-29.595376-5.919075-56.231214-17.757225-79.907515-8.878613-17.757225-20.716763-35.514451-32.554914-47.352601-14.797688-14.797688-26.635838-23.676301-41.433526-29.595375-20.716763-8.878613-41.433526-14.797688-65.109826-14.797688-23.676301 0-44.393064 5.919075-65.109827 17.757225-20.716763 11.83815-35.514451 26.635838-44.393064 47.352601-11.83815 17.757225-17.757225 38.473988-17.757225 62.150289z m38.473988-2.959537c0-17.757225 2.959538-32.554913 11.838151-47.352601 5.919075-14.797688 17.757225-26.635838 32.554913-35.514451s29.595376-11.83815 44.393064-11.838151 29.595376 2.959538 44.393063 11.838151c14.797688 5.919075 26.635838 17.757225 35.514451 29.595375 11.83815 11.83815 20.716763 29.595376 26.635838 47.352602 5.919075 17.757225 8.878613 38.473988 8.878613 56.231214 0 29.595376-8.878613 53.271676-23.676301 71.028901-17.757225 17.757225-35.514451 26.635838-62.150289 26.635838-29.595376 0-59.190751-11.83815-82.867052-38.473988-23.676301-29.595376-35.514451-65.109827-35.514451-109.50289zM993.78805367 8.138728000000015l56.231214 263.398844h-97.66474l5.919075 32.554914H1192.07707167l-5.919076-32.554914h-97.664739L1032.26204267 8.138728000000015h-38.473989z"  horiz-adv-x="1213" />

    
    <glyph glyph-name="CZ" unicode="&#59008;" d="M540.50517281 355.49482719l48.76851015-5.73747206c-14.34367957-43.03103808-37.29356662-74.58713263-68.84966117-97.5370197S457.31183268 217.79550485000004 420.01826607 217.79550485000004c-45.8997741 0-80.32460469 14.34367957-106.14322719 40.16230265S273.71273683 323.93873264 273.71273683 375.57597821c0 65.98092513 20.08115103 120.48690674 60.24345308 166.38668085 34.42483059 40.16230205 80.32460469 57.37471763 131.96185028 57.37471703 40.16230205 0 71.71839661-11.47494353 94.66828425-31.55609453s37.29356662-48.76851014 43.03103807-86.06207617l-45.8997741-2.86873603c-5.73747146 25.81862309-14.34367957 45.8997741-31.55609456 60.24345368s-31.55609455 20.08115103-57.37471763 20.08115102c-45.8997741 0-83.19334013-20.08115103-109.01196323-60.24345308-22.94988706-34.42483059-37.29356662-74.58713263-37.29356661-123.35564277 0-37.29356662 8.60620749-65.98092513 28.68735912-86.06207617s43.03103808-28.68735852 71.7183966-28.6873591c25.81862309 0 48.76851014 8.60620749 68.84966117 25.81862307s37.29356662 37.29356662 48.76850954 68.84966118zM612.22357 226.40171236000003l5.73747147 37.29356661 186.46783187 220.89266245 37.29356661 45.89977413c8.60620749 8.60620749 14.34367957 17.212415 22.94988707 25.81862249-17.212415-2.86873602-28.68735852-2.86873602-34.42483058-2.86873544H666.72955161l8.60620749 43.03103807h255.31749306l-2.86873605-37.29356661-197.94277539-235.23634143c-22.94988706-28.68735852-40.16230205-45.8997741-45.89977411-54.5059816 8.60620749 0 11.47494353 2.86873602 14.34367955 2.86873543h200.81151084l-11.47494293-45.8997741h-275.39864407z"  horiz-adv-x="1177" />

    
    <glyph glyph-name="SWAP" unicode="&#59009;" d="M448.09432009 363.10971813000003l50.13667635 4.17805664v-12.53416926c0-16.71222523 4.17805662-29.24639449 12.53416925-41.78056372s16.71222523-20.89028187 33.42445047-29.24639448c16.71222523-8.35611262 33.42445111-8.35611262 58.49278898-8.35611262 33.42445111 0 54.31473234 8.35611262 71.02695821 20.89028186 16.71222523 12.53416925 25.06833785 29.24639449 25.06833785 45.95861972 0 12.53416925-4.17805662 25.06833785-12.53416925 33.4244511-8.35611262 12.53416925-33.42445111 25.06833785-71.02695757 41.78056374-33.42445111 12.53416925-54.31473234 25.06833785-66.84890159 29.24639384-16.71222523 12.53416925-29.24639449 25.06833785-37.6025071 37.60250775-8.35611262 16.71222523-12.53416925 29.24639449-12.53416925 50.13667571s4.17805662 37.6025071 16.71222523 54.31473297c12.53416925 16.71222523 29.24639449 29.24639449 50.13667635 37.60250711 20.89028187 8.35611262 45.95861973 12.53416925 71.02695759 12.53416861 33.42445111 0 58.49278897-4.17805662 79.38307082-16.71222525 20.89028187-12.53416925 37.6025071-25.06833785 45.95861972-41.78056308 12.53416925-20.89028187 20.89028187-37.6025071 20.89028187-54.31473298v-8.35611263l-54.31473235-4.17805662c0 12.53416925 0 20.89028187-4.17805662 25.06833849 0 12.53416925-8.35611262 25.06833785-12.5341686 29.24639448-8.35611262 8.35611262-20.89028187 16.71222523-33.42445112 20.89028187s-29.24639449 4.17805662-41.78056372 4.178056c-29.24639449 0-50.13667634-8.35611262-66.84890159-20.89028186-12.53416925-8.35611262-20.89028187-20.89028187-20.89028123-37.60250711 0-8.35611262 4.17805662-16.71222523 8.35611262-25.06833785s12.53416925-16.71222523 29.24639448-20.89028188c8.35611262-4.17805662 33.42445111-16.71222523 66.8489016-29.24639448 29.24639449-12.53416925 45.95861973-20.89028187 58.49278896-29.24639447 12.53416925-12.53416925 25.06833785-25.06833785 29.24639447-37.6025071s12.53416925-29.24639449 12.53416863-45.95861973c0-20.89028187-8.35611262-41.78056373-20.89028187-58.49278896-12.53416925-16.71222523-29.24639449-33.42445111-54.31473235-41.78056374-20.89028187-8.35611262-50.13667634-16.71222523-79.38307083-16.71222523-45.95861973 0-79.38307084 8.35611262-108.62946467 29.24639447s-41.78056373 54.31473234-41.78056374 104.45140869zM870.07801146 237.76802757999997l-25.06833786 392.73729689h54.31473236l8.35611261-196.36864813c0-8.35611262 0-33.42445111 4.17805663-75.2050142v-50.13667635c20.89028187 45.95861973 37.6025071 75.20501421 45.95861971 96.09529607L1078.98082884 630.50532447h54.31473298l12.5341686-229.79309923c0-25.06833785 4.17805662-58.49278897 4.17805663-96.09529608 4.17805662 8.35611262 8.35611262 20.89028187 16.71222524 41.78056374 12.53416925 29.24639449 20.89028187 50.13667634 29.24639449 62.67084495l112.8075213 221.43698662h54.31473297L1162.5419563 237.76802757999997h-58.49278897l-12.53416924 238.14921186c0 20.89028187-4.17805662 45.95861973-4.17805663 75.20501484-12.53416925-25.06833785-20.89028187-45.95861973-29.24639447-58.49278897l-137.87585918-254.86143773H870.07801146zM1275.34947761 237.76802757999997l225.61504262 392.73729689h62.67084559l66.84890159-392.73729689H1580.34759106l-20.89028186 112.80752131h-158.76614104l-62.67084558-112.80752131h-62.67084497z m146.23197242 154.58808504h129.51974655l-16.71222524 100.27335269c-4.17805662 37.6025071-8.35611262 71.02695822-12.53416925 100.27335206-8.35611262-20.89028187-20.89028187-50.13667634-37.60250711-79.38307083l-62.67084495-121.16363392zM1680.62094312 237.76802757999997l83.56112745 392.73729689h162.94419766c29.24639449 0 50.13667634-4.17805662 62.67084497-8.35611261 12.53416925-8.35611262 25.06833785-16.71222523 33.4244511-33.42445048 12.53416925-16.71222523 16.71222523-33.42445111 16.71222523-54.31473297 0-16.71222523-4.17805662-33.42445111-8.35611262-50.13667571-8.35611262-16.71222523-16.71222523-29.24639449-25.06833848-41.78056373-8.35611262-12.53416925-20.89028187-20.89028187-29.24639385-25.06833786s-20.89028187-8.35611262-33.42445111-12.53416925c-25.06833785-4.17805662-50.13667634-8.35611262-75.20501422-8.35611261h-100.27335269l-33.42445047-158.76614167h-54.31473297z m96.09529607 204.72476139h87.73918344c33.42445111 0 58.49278897 4.17805662 75.20501422 12.53416925s29.24639449 16.71222523 37.60250774 33.42445046 12.53416925 29.24639449 12.53416861 45.95861973c0 12.53416925-4.17805662 25.06833785-8.35611263 33.4244511s-12.53416925 12.53416925-20.89028187 16.71222525c-8.35611262 4.17805662-25.06833785 4.17805662-54.31473234 4.17805662h-100.27335269l-29.24639448-146.23197241z"  horiz-adv-x="2560" />

    


  </font>
</defs>
</svg>
