<?xml version="1.0" standalone="no"?><!DOCTYPE svg PUBLIC "-//W3C//DTD SVG 1.1//EN" "http://www.w3.org/Graphics/SVG/1.1/DTD/svg11.dtd" ><svg xmlns="http://www.w3.org/2000/svg"><metadata></metadata><defs><font id="1.000;ADBE;SourceHanSansCN-Normal;ADOBE" horiz-adv-x="1000"><font-face font-family="Source Han Sans CN Normal" font-weight="350" font-stretch="normal" units-per-em="1000" panose-1="2 11 4 0 0 0 0 0 0 0" ascent="880" descent="-120" x-height="0" bbox="-42 -279 1000 936" underline-thickness="50" underline-position="-125" unicode-range="U+0000-ffe5" /><missing-glyph horiz-adv-x="1000" d="M100 880 l800 0 l0 -1000 l-800 0 l0 1000 ZM818 830 l-636 0 l318 -409 l318 409 ZM850 -29 l0 818 l-318 -409 l318 -409 ZM818 -70 l-318 409 l-318 -409 l636 0 ZM150 -29 l318 409 l-318 409 l0 -818 Z" /><glyph glyph-name="" unicode="  " d="" /><glyph glyph-name="" unicode="!" d="M116 747 l82 0 l-13 -531 l-56 0 l-13 531 ZM157 -13 q-25 0 -43 18 q-18 18 -18 46 q0 29 18 48 q18 18 43 18 q26 0 43 -18 q19 -19 19 -48 q0 -28 -19 -46 q-18 -18 -43 -18 Z" /><glyph glyph-name="" unicode="#" d="M129 230 l-89 0 l0 59 l96 0 l21 170 l-95 0 l0 58 l102 0 l26 207 l54 0 l-25 -207 l152 0 l27 207 l54 0 l-27 -207 l90 0 l0 -58 l-96 0 l-21 -170 l95 0 l0 -59 l-102 0 l-27 -230 l-55 0 l27 230 l-152 0 l-28 -230 l-55 0 l28 230 ZM343 289 l21 170 l-152 0 l-21 -170 l152 0 Z" /><glyph glyph-name="" unicode="%" d="M204 284 q-76 0 -119 61 q-45 61 -45 171 q0 109 45 170 q43 59 119 59 q76 0 120 -59 q44 -61 44 -170 q0 -110 -44 -171 q-44 -61 -120 -61 ZM204 336 q46 0 73 46 q28 47 28 134 q0 86 -28 133 q-27 45 -73 45 q-46 0 -73 -45 q-28 -47 -28 -133 q0 -87 28 -134 q27 -46 73 -46 ZM630 745 l57 0 l-405 -758 l-57 0 l405 758 ZM710 -13 q-76 0 -119 60 q-45 62 -45 172 q0 108 45 169 q43 60 119 60 q75 0 119 -60 q45 -61 45 -169 q0 -110 -45 -172 q-44 -60 -119 -60 ZM710 38 q46 0 73 46 q28 48 28 135 q0 86 -28 133 q-27 44 -73 44 q-101 0 -101 -177 q0 -88 28 -135 q26 -46 73 -46 Z" /><glyph glyph-name="" unicode="&amp;" d="M116 193 q0 -62 44 -102 q43 -39 106 -39 q74 0 145 64 q-121 107 -196 228 q-99 -79 -99 -151 ZM205 576 q0 -61 36 -135 q129 88 129 161 q0 84 -72 84 q-42 0 -68 -32 q-25 -31 -25 -78 ZM631 -13 q-76 21 -165 86 q-93 -86 -209 -86 q-97 0 -158 56 q-62 57 -62 146 q0 110 145 212 q-48 96 -48 174 q0 73 45 121 q47 49 120 49 q64 0 102 -40 q36 -38 36 -101 q0 -64 -52 -122 q-32 -36 -114 -96 q74 -120 190 -216 q71 92 107 222 l75 0 q-45 -157 -128 -264 q76 -55 138 -73 l-22 -68 Z" /><glyph glyph-name="" unicode="*" d="M112 509 l62 104 l-107 43 l16 47 l112 -29 l10 120 l50 0 l9 -118 l112 27 l15 -47 l-106 -43 l62 -104 l-40 -29 l-77 95 l-78 -95 l-40 29 Z" /><glyph glyph-name="" unicode="." d="M134 -13 q-25 0 -43 18 q-18 18 -18 46 q0 29 18 48 q18 18 43 18 q26 0 44 -18 q18 -19 18 -48 q0 -28 -18 -46 q-18 -18 -44 -18 Z" /><glyph glyph-name="" unicode="/" d="M319 791 l61 0 l-309 -969 l-60 0 l308 969 Z" /><glyph glyph-name="" unicode="0" d="M275 -13 q-106 0 -164 95 q-61 99 -61 287 q0 186 61 283 q58 93 164 93 q105 0 163 -93 q60 -97 60 -283 q0 -188 -60 -287 q-58 -95 -163 -95 ZM275 53 q144 0 144 316 q0 155 -40 235 q-37 75 -104 75 q-68 0 -106 -75 q-40 -80 -40 -235 q0 -158 40 -240 q38 -76 106 -76 Z" /><glyph glyph-name="" unicode="1" d="M89 68 l164 0 l0 561 l-129 0 l0 53 q92 16 148 50 l62 0 l0 -664 l149 0 l0 -68 l-394 0 l0 68 Z" /><glyph glyph-name="" unicode="2" d="M45 49 q338 295 338 479 q0 68 -34 108 q-37 43 -105 43 q-81 0 -156 -87 l-48 46 q99 107 213 107 q97 0 154 -58 q56 -58 56 -156 q0 -190 -295 -467 q59 6 120 6 l210 0 l0 -70 l-453 0 l0 49 Z" /><glyph glyph-name="" unicode="3" d="M262 -13 q-140 0 -232 100 l42 53 q83 -85 185 -85 q68 0 110 38 q43 40 43 104 q0 152 -232 152 l0 64 q206 0 206 145 q0 55 -34 88 q-35 33 -94 34 q-83 -1 -154 -74 l-45 53 q94 86 202 87 q93 -1 149 -48 q59 -49 59 -134 q0 -131 -131 -178 l0 -4 q68 -16 110 -63 q46 -51 46 -124 q0 -95 -67 -153 q-64 -55 -163 -55 Z" /><glyph glyph-name="" unicode="4" d="M340 269 l0 238 q0 58 6 130 l-5 0 q-23 -45 -58 -106 l-177 -262 l234 0 ZM517 204 l-100 0 l0 -204 l-77 0 l0 204 l-321 0 l0 53 l311 475 l87 0 l0 -463 l100 0 l0 -65 Z" /><glyph glyph-name="" unicode="5" d="M259 -13 q-134 0 -231 97 l41 54 q81 -83 183 -83 q68 0 114 49 q47 50 47 131 q0 80 -43 127 q-42 46 -114 46 q-58 0 -124 -44 l-45 28 l23 340 l350 0 l0 -70 l-278 0 l-20 -222 q55 31 114 31 q97 0 155 -56 q64 -62 64 -178 q0 -114 -73 -185 q-67 -65 -163 -65 Z" /><glyph glyph-name="" unicode="6" d="M299 52 q55 0 91 48 q37 48 37 123 q0 169 -137 169 q-85 0 -154 -97 q16 -243 163 -243 ZM446 621 q-48 56 -118 56 q-189 0 -194 -313 q74 89 169 89 q95 0 148 -58 q54 -59 54 -172 q0 -103 -61 -170 q-60 -66 -145 -66 q-109 0 -174 91 q-68 96 -68 270 q0 203 82 307 q70 90 186 90 q97 0 167 -73 l-46 -51 Z" /><glyph glyph-name="" unicode="7" d="M200 0 q17 397 208 662 l-359 0 l0 70 l453 0 l0 -49 q-122 -158 -169 -318 q-38 -132 -48 -365 l-85 0 Z" /><glyph glyph-name="" unicode="8" d="M277 -13 q-101 0 -166 55 q-66 55 -66 140 q0 129 136 204 l0 4 q-99 67 -99 168 q0 82 57 134 q55 51 140 51 q92 0 146 -54 q53 -53 53 -139 q0 -100 -99 -178 l0 -5 q124 -72 124 -192 q0 -80 -62 -133 q-64 -55 -164 -55 ZM327 394 q80 68 80 152 q0 58 -34 95 q-36 40 -96 40 q-52 0 -86 -34 q-34 -35 -34 -89 q0 -61 52 -103 q36 -29 118 -61 ZM278 48 q65 0 107 37 q40 36 40 92 q0 68 -60 114 q-37 27 -140 69 q-106 -67 -106 -172 q0 -60 45 -100 q46 -40 114 -40 Z" /><glyph glyph-name="" unicode="9" d="M258 340 q86 0 158 101 q-13 240 -165 240 q-55 0 -91 -48 q-37 -48 -37 -124 q0 -78 33 -122 q36 -47 102 -47 ZM104 111 q51 -56 125 -56 q79 0 127 70 q56 81 61 247 q-76 -93 -172 -93 q-93 0 -146 58 q-54 61 -54 172 q0 103 61 171 q59 65 145 65 q110 0 174 -87 q69 -91 69 -258 q0 -210 -80 -319 q-70 -94 -183 -94 q-102 0 -172 73 l45 51 Z" /><glyph glyph-name="" unicode="&lt;" d="M38 336 l0 67 l473 187 l0 -72 l-241 -89 l-149 -57 l0 -4 l390 -146 l0 -72 l-473 186 Z" /><glyph glyph-name="" unicode="&gt;" d="M38 222 l390 146 l0 4 l-149 57 l-241 89 l0 72 l473 -187 l0 -67 l-473 -186 l0 72 Z" /><glyph glyph-name="" unicode="?" d="M179 216 q-13 97 68 201 q86 111 86 162 q0 49 -28 79 q-30 34 -84 34 q-75 0 -132 -65 l-47 43 q81 90 188 90 q84 0 134 -48 q49 -48 49 -128 q0 -70 -88 -180 q-84 -105 -74 -188 l-72 0 ZM218 -13 q-26 0 -44 18 q-18 18 -18 46 q0 29 18 48 q18 18 44 18 q25 0 43 -18 q18 -19 18 -48 q0 -28 -18 -46 q-18 -18 -43 -18 Z" /><glyph glyph-name="" unicode="@" d="M445 -170 q-170 0 -276 102 q-113 108 -113 294 q0 217 138 357 q132 134 322 134 q166 0 265 -101 q97 -100 97 -265 q0 -135 -72 -219 q-64 -75 -146 -75 q-104 0 -114 84 l-2 0 q-66 -77 -136 -77 q-58 0 -94 41 q-38 43 -38 116 q0 94 57 172 q63 84 156 84 q59 0 90 -54 l2 0 l11 45 l56 0 l-43 -219 q-34 -135 62 -135 q57 0 102 62 q50 68 50 172 q0 141 -79 225 q-83 88 -230 88 q-157 0 -271 -118 q-121 -124 -121 -314 q0 -159 95 -253 q91 -90 238 -90 q95 0 182 51 l23 -50 q-97 -57 -211 -57 ZM423 122 q52 0 107 68 l33 181 q-29 48 -75 48 q-63 0 -107 -64 q-39 -59 -39 -129 q0 -104 81 -104 Z" /><glyph glyph-name="" unicode="a" d="M415 296 l-38 119 q-28 84 -76 248 l-4 0 q-32 -115 -75 -248 l-38 -119 l231 0 ZM436 231 l-273 0 l-75 -231 l-83 0 l250 732 l91 0 l251 -732 l-88 0 l-73 231 Z" /><glyph glyph-name="" unicode="b" d="M102 732 l212 0 q250 0 250 -179 q0 -123 -109 -159 l0 -4 q152 -29 152 -176 q0 -104 -77 -161 q-73 -53 -200 -53 l-228 0 l0 732 ZM297 418 q185 0 185 125 q0 66 -45 95 q-43 28 -135 28 l-117 0 l0 -248 l112 0 ZM317 66 q209 0 209 151 q0 137 -209 137 l-132 0 l0 -288 l132 0 Z" /><glyph glyph-name="" unicode="c" d="M374 -13 q-139 0 -225 101 q-90 104 -90 278 q0 173 91 278 q89 101 230 101 q118 0 199 -89 l-46 -54 q-63 70 -152 70 q-108 0 -172 -81 q-65 -83 -65 -223 q0 -142 63 -225 q63 -83 171 -83 q98 0 173 84 l46 -52 q-89 -105 -223 -105 Z" /><glyph glyph-name="" unicode="d" d="M102 732 l180 0 q167 0 255 -95 q87 -94 87 -268 q0 -175 -86 -271 q-88 -98 -253 -98 l-183 0 l0 732 ZM275 68 q131 0 199 80 q65 78 65 221 q0 295 -264 295 l-90 0 l0 -596 l90 0 Z" /><glyph glyph-name="" unicode="e" d="M102 732 l417 0 l0 -70 l-334 0 l0 -241 l281 0 l0 -70 l-281 0 l0 -281 l345 0 l0 -70 l-428 0 l0 732 Z" /><glyph glyph-name="" unicode="f" d="M102 732 l416 0 l0 -70 l-333 0 l0 -258 l282 0 l0 -70 l-282 0 l0 -334 l-83 0 l0 732 Z" /><glyph glyph-name="" unicode="g" d="M385 -13 q-146 0 -235 101 q-91 103 -91 278 q0 174 94 278 q91 101 238 101 q122 0 209 -89 l-46 -54 q-66 70 -161 70 q-114 0 -181 -81 q-68 -82 -68 -223 q0 -143 65 -225 q66 -83 184 -83 q91 0 139 46 l0 200 l-159 0 l0 69 l236 0 l0 -304 q-81 -84 -224 -84 Z" /><glyph glyph-name="" unicode="h" d="M102 732 l83 0 l0 -310 l353 0 l0 310 l82 0 l0 -732 l-82 0 l0 350 l-353 0 l0 -350 l-83 0 l0 732 Z" /><glyph glyph-name="" unicode="i" d="M102 732 l83 0 l0 -732 l-83 0 l0 732 Z" /><glyph glyph-name="" unicode="j" d="M234 -13 q-133 0 -197 114 l60 42 q46 -83 130 -83 q121 0 121 159 l0 513 l83 0 l0 -521 q0 -100 -46 -158 q-51 -66 -151 -66 Z" /><glyph glyph-name="" unicode="k" d="M102 732 l83 0 l0 -377 l2 0 l317 377 l95 0 l-230 -277 l264 -455 l-93 0 l-224 390 l-131 -154 l0 -236 l-83 0 l0 732 Z" /><glyph glyph-name="" unicode="l" d="M102 732 l83 0 l0 -662 l323 0 l0 -70 l-406 0 l0 732 Z" /><glyph glyph-name="" unicode="m" d="M102 732 l102 0 l144 -400 l53 -156 l5 0 l51 156 l143 400 l102 0 l0 -732 l-77 0 l0 423 q0 52 10 212 l-4 0 l-58 -166 l-143 -394 l-57 0 l-144 394 l-58 166 l-4 0 q10 -160 10 -212 l0 -423 l-75 0 l0 732 Z" /><glyph glyph-name="" unicode="n" d="M102 732 l85 0 l277 -474 l79 -150 l5 0 q-11 161 -11 228 l0 396 l79 0 l0 -732 l-86 0 l-275 474 l-80 150 l-5 0 q10 -182 10 -223 l0 -401 l-78 0 l0 732 Z" /><glyph glyph-name="" unicode="o" d="M368 -13 q-137 0 -222 103 q-87 105 -87 279 q0 172 87 275 q84 101 222 101 q138 0 223 -101 q87 -102 87 -275 q0 -174 -87 -279 q-85 -103 -223 -103 ZM368 60 q102 0 164 84 q61 84 61 225 q0 140 -61 222 q-61 81 -164 81 q-102 0 -163 -81 q-61 -83 -61 -222 q0 -141 61 -225 q62 -84 163 -84 Z" /><glyph glyph-name="" unicode="p" d="M102 732 l203 0 q272 0 272 -212 q0 -111 -74 -169 q-69 -55 -194 -55 l-124 0 l0 -296 l-83 0 l0 732 ZM297 364 q198 0 198 156 q0 80 -51 114 q-47 31 -151 31 l-108 0 l0 -301 l112 0 Z" /><glyph glyph-name="" unicode="q" d="M144 369 q0 -143 61 -228 q61 -85 163 -85 q102 0 164 85 q61 85 61 228 q0 140 -61 222 q-61 81 -164 81 q-102 0 -163 -81 q-61 -83 -61 -222 ZM691 -166 q-39 -15 -101 -15 q-194 0 -263 171 q-121 16 -194 116 q-74 103 -74 263 q0 172 87 275 q84 101 222 101 q138 0 223 -101 q87 -102 87 -275 q0 -158 -72 -260 q-71 -100 -190 -118 q50 -102 183 -102 q38 0 76 10 l16 -65 Z" /><glyph glyph-name="" unicode="r" d="M185 384 l128 0 q183 0 183 145 q0 136 -183 136 l-128 0 l0 -281 ZM505 0 l-183 316 l-137 0 l0 -316 l-83 0 l0 732 l224 0 q253 0 253 -203 q0 -167 -170 -205 l189 -324 l-93 0 Z" /><glyph glyph-name="" unicode="s" d="M302 -13 q-152 0 -254 109 l50 57 q86 -93 205 -93 q74 0 118 35 q43 34 43 91 q0 53 -36 86 q-23 20 -89 49 l-106 47 q-149 64 -149 186 q0 83 64 137 q64 54 162 54 q128 0 213 -90 l-44 -53 q-73 70 -169 70 q-64 0 -103 -30 q-39 -31 -39 -82 q0 -50 40 -83 q23 -19 82 -44 l106 -45 q152 -67 152 -196 q0 -88 -66 -146 q-69 -59 -180 -59 Z" /><glyph glyph-name="" unicode="t" d="M255 662 l-223 0 l0 70 l531 0 l0 -70 l-224 0 l0 -662 l-84 0 l0 662 Z" /><glyph glyph-name="" unicode="u" d="M358 -13 q-259 0 -259 310 l0 435 l83 0 l0 -436 q0 -236 176 -236 q180 0 180 236 l0 436 l79 0 l0 -435 q0 -310 -259 -310 Z" /><glyph glyph-name="" unicode="v" d="M2 732 l87 0 l123 -404 q75 -250 72 -242 l4 0 q16 48 37 121 q25 87 36 121 l121 404 l84 0 l-234 -732 l-95 0 l-235 732 Z" /><glyph glyph-name="" unicode="w" d="M27 732 l85 0 l81 -407 q23 -117 45 -237 l4 0 q20 93 53 237 l104 407 l77 0 l105 -407 q18 -77 54 -237 l5 0 q26 149 43 237 l80 407 l80 0 l-154 -732 l-98 0 l-117 456 l-36 166 l-5 0 q-6 -32 -18 -83 l-19 -83 l-114 -456 l-97 0 l-158 732 Z" /><glyph glyph-name="" unicode="x" d="M232 378 l-201 354 l92 0 l104 -194 l58 -105 l5 0 q36 76 52 105 l104 194 l86 0 l-201 -358 l215 -374 l-91 0 l-176 322 l-4 0 q-29 -59 -60 -118 l-111 -204 l-87 0 l215 378 Z" /><glyph glyph-name="" unicode="y" d="M220 287 l-220 445 l88 0 l172 -372 l4 0 q59 125 74 160 l99 212 l85 0 l-220 -445 l0 -287 l-82 0 l0 287 Z" /><glyph glyph-name="" unicode="z" d="M51 49 l395 613 l-359 0 l0 70 l461 0 l0 -49 l-394 -613 l398 0 l0 -70 l-501 0 l0 49 Z" /><glyph glyph-name="" unicode="[" d="M106 789 l193 0 l0 -47 l-131 0 l0 -864 l131 0 l0 -47 l-193 0 l0 958 Z" /><glyph glyph-name="" unicode="]" d="M32 -122 l132 0 l0 864 l-132 0 l0 47 l193 0 l0 -958 l-193 0 l0 47 Z" /><glyph glyph-name="" unicode="a" d="M217 -13 q-69 0 -112 39 q-45 42 -45 113 q0 88 81 136 q78 46 254 66 q2 145 -115 145 q-79 0 -164 -60 l-33 57 q108 71 210 71 q183 0 183 -219 l0 -335 l-67 0 l-7 66 l-3 0 q-93 -79 -182 -79 ZM239 53 q72 0 156 75 l0 158 q-139 -16 -200 -51 q-56 -34 -56 -91 q0 -91 100 -91 Z" /><glyph glyph-name="" unicode="b" d="M326 -13 q-81 0 -156 69 l-2 0 l-9 -56 l-64 0 l0 796 l81 0 l0 -221 l-4 -99 q93 78 174 78 q104 0 161 -75 q55 -73 55 -200 q0 -134 -71 -215 q-67 -77 -165 -77 ZM314 56 q72 0 117 60 q46 61 46 162 q0 207 -150 207 q-68 0 -151 -78 l0 -292 q66 -59 138 -59 Z" /><glyph glyph-name="" unicode="c" d="M304 -13 q-110 0 -179 74 q-72 78 -72 208 q0 131 77 210 q72 75 180 75 q87 0 158 -65 l-43 -54 q-53 50 -112 50 q-76 0 -126 -60 q-50 -60 -50 -156 q0 -96 48 -155 q48 -59 126 -59 q69 0 131 55 l36 -54 q-77 -69 -174 -69 Z" /><glyph glyph-name="" unicode="d" d="M277 -13 q-103 0 -162 74 q-61 74 -61 208 q0 127 71 208 q67 77 164 77 q77 0 155 -64 l-4 94 l0 212 l81 0 l0 -796 l-67 0 l-8 65 l-2 0 q-78 -78 -167 -78 ZM294 56 q74 0 146 77 l0 292 q-68 60 -138 60 q-70 0 -116 -60 q-47 -61 -47 -155 q0 -100 40 -157 q41 -57 115 -57 Z" /><glyph glyph-name="" unicode="e" d="M309 -13 q-110 0 -181 75 q-75 78 -75 207 q0 127 74 209 q70 76 167 76 q101 0 157 -68 q56 -67 56 -185 q0 -32 -4 -49 l-369 0 q4 -90 54 -145 q50 -55 131 -55 q72 0 137 44 l30 -54 q-86 -55 -177 -55 ZM435 311 q0 177 -140 177 q-62 0 -107 -46 q-47 -49 -55 -131 l302 0 Z" /><glyph glyph-name="" unicode="f" d="M329 728 q-31 15 -62 15 q-78 0 -78 -110 l0 -93 l116 0 l0 -67 l-116 0 l0 -473 l-82 0 l0 473 l-74 0 l0 62 l74 5 l0 94 q0 175 153 175 q46 0 87 -18 l-18 -63 Z" /><glyph glyph-name="" unicode="g" d="M275 -251 q-101 0 -161 38 q-62 39 -62 108 q0 71 80 124 l0 4 q-49 30 -49 89 q0 56 60 100 l0 4 q-70 56 -70 145 q0 86 59 140 q57 53 141 53 q37 0 75 -14 l187 0 l0 -63 l-114 0 q47 -45 47 -117 q0 -85 -57 -138 q-55 -51 -138 -51 q-45 0 -83 20 q-36 -31 -36 -68 q0 -61 96 -61 l108 0 q186 0 186 -128 q0 -76 -73 -129 q-77 -56 -196 -56 ZM273 227 q50 0 85 37 q36 38 36 97 q0 60 -36 97 q-34 35 -85 35 q-52 0 -86 -35 q-35 -36 -35 -97 q0 -59 36 -97 q35 -37 85 -37 ZM286 -194 q78 0 130 36 q48 34 48 80 q0 71 -113 71 l-99 0 q-31 0 -69 9 q-59 -42 -59 -97 q0 -45 43 -72 q43 -27 119 -27 Z" /><glyph glyph-name="" unicode="h" d="M95 796 l81 0 l0 -221 l-3 -113 q96 92 181 92 q165 0 165 -211 l0 -343 l-82 0 l0 333 q0 150 -107 150 q-69 0 -154 -88 l0 -395 l-81 0 l0 796 Z" /><glyph glyph-name="" unicode="i" d="M95 540 l81 0 l0 -540 l-81 0 l0 540 ZM136 656 q-26 0 -42 16 q-17 15 -17 39 q0 56 59 56 q25 0 42 -15 q17 -16 17 -41 q0 -24 -17 -39 q-18 -16 -42 -16 Z" /><glyph glyph-name="" unicode="j" d="M35 -245 q-45 0 -77 14 l16 62 q35 -10 53 -10 q39 0 55 30 q13 24 13 79 l0 610 l81 0 l0 -611 q0 -174 -141 -174 ZM136 656 q-25 0 -41 16 q-17 15 -17 39 q0 56 58 56 q59 0 59 -56 q0 -24 -17 -39 q-17 -16 -42 -16 Z" /><glyph glyph-name="" unicode="k" d="M95 796 l79 0 l0 -551 l3 0 l240 295 l90 0 l-180 -216 l205 -324 l-89 0 l-163 267 l-106 -124 l0 -143 l-79 0 l0 796 Z" /><glyph glyph-name="" unicode="l" d="M183 -13 q-88 0 -88 112 l0 697 l81 0 l0 -703 q0 -38 25 -38 q9 0 19 2 l12 -63 q-23 -7 -49 -7 Z" /><glyph glyph-name="" unicode="m" d="M95 540 l66 0 l8 -80 l3 0 q85 94 168 94 q115 0 149 -105 q98 105 180 105 q164 0 164 -211 l0 -343 l-82 0 l0 333 q0 150 -105 150 q-64 0 -142 -88 l0 -395 l-81 0 l0 333 q0 150 -106 150 q-65 0 -141 -88 l0 -395 l-81 0 l0 540 Z" /><glyph glyph-name="" unicode="n" d="M95 540 l66 0 l8 -79 l3 0 q95 93 182 93 q165 0 165 -211 l0 -343 l-82 0 l0 333 q0 150 -107 150 q-69 0 -154 -88 l0 -395 l-81 0 l0 540 Z" /><glyph glyph-name="" unicode="o" d="M301 -13 q-103 0 -173 74 q-75 79 -75 208 q0 131 75 210 q69 75 173 75 q104 0 174 -75 q75 -79 75 -210 q0 -129 -75 -208 q-70 -74 -174 -74 ZM301 55 q73 0 119 59 q46 59 46 155 q0 96 -46 156 q-46 60 -119 60 q-73 0 -118 -60 q-46 -59 -46 -156 q0 -96 46 -155 q45 -59 118 -59 Z" /><glyph glyph-name="" unicode="p" d="M95 540 l66 0 l8 -63 l3 0 q96 77 174 77 q104 0 161 -75 q55 -73 55 -200 q0 -134 -71 -215 q-67 -77 -165 -77 q-72 0 -152 63 l2 -95 l0 -187 l-81 0 l0 772 ZM314 56 q72 0 117 60 q46 61 46 162 q0 207 -150 207 q-67 0 -151 -78 l0 -292 q68 -59 138 -59 Z" /><glyph glyph-name="" unicode="q" d="M440 -36 l4 101 q-80 -78 -167 -78 q-103 0 -162 74 q-61 74 -61 208 q0 127 71 208 q67 77 164 77 q80 0 156 -65 l3 0 l8 51 l65 0 l0 -772 l-81 0 l0 196 ZM294 56 q74 0 146 77 l0 292 q-68 60 -138 60 q-70 0 -116 -60 q-47 -61 -47 -155 q0 -100 40 -157 q41 -57 115 -57 Z" /><glyph glyph-name="" unicode="r" d="M95 540 l66 0 l8 -99 l3 0 q61 113 153 113 q33 0 57 -12 l-16 -71 q-27 9 -51 9 q-89 0 -139 -128 l0 -352 l-81 0 l0 540 Z" /><glyph glyph-name="" unicode="s" d="M233 -13 q-111 0 -201 74 l41 55 q78 -65 163 -65 q54 0 84 26 q28 25 28 64 q0 61 -126 106 q-76 28 -110 54 q-53 41 -53 102 q0 65 48 107 q50 44 135 44 q89 0 164 -60 l-39 -53 q-66 48 -125 48 q-51 0 -79 -24 q-26 -23 -26 -58 q0 -36 38 -60 q22 -15 84 -37 q84 -33 113 -55 q54 -42 54 -110 q0 -68 -50 -111 q-53 -47 -143 -47 Z" /><glyph glyph-name="" unicode="t" d="M259 -13 q-149 0 -149 176 l0 310 l-82 0 l0 62 l85 5 l9 153 l69 0 l0 -153 l149 0 l0 -67 l-149 0 l0 -313 q0 -106 85 -106 q27 0 63 14 l16 -61 q-60 -20 -96 -20 Z" /><glyph glyph-name="" unicode="u" d="M251 -13 q-164 0 -164 210 l0 343 l81 0 l0 -333 q0 -78 25 -113 q25 -36 82 -36 q74 0 152 95 l0 387 l81 0 l0 -540 l-67 0 l-7 86 l-3 0 q-86 -99 -180 -99 Z" /><glyph glyph-name="" unicode="v" d="M13 540 l85 0 l107 -314 q19 -64 51 -159 l4 0 l51 159 l107 314 l80 0 l-193 -540 l-95 0 l-197 540 Z" /><glyph glyph-name="" unicode="w" d="M27 540 l83 0 l85 -321 l33 -149 l4 0 l19 74 q11 46 19 75 l87 321 l82 0 l88 -321 l38 -149 l4 0 l35 149 l83 321 l78 0 l-148 -540 l-99 0 l-82 301 q-6 22 -38 156 l-5 0 q-23 -107 -39 -157 l-79 -300 l-96 0 l-152 540 Z" /><glyph glyph-name="" unicode="x" d="M194 282 l-165 258 l88 0 l76 -123 q17 -30 55 -90 l4 0 l121 213 l84 0 l-164 -266 l178 -274 l-89 0 l-83 131 q-26 46 -59 98 l-5 0 l-134 -229 l-86 0 l179 282 Z" /><glyph glyph-name="" unicode="y" d="M96 -236 q-35 0 -62 11 l17 66 q22 -8 42 -8 q84 0 126 122 l12 42 l-218 543 l85 0 l115 -309 l54 -152 l5 0 q5 15 23 77 q14 48 23 75 l101 309 l80 0 l-206 -590 q-65 -186 -197 -186 Z" /><glyph glyph-name="" unicode="z" d="M34 44 l292 429 l-260 0 l0 67 l364 0 l0 -43 l-293 -430 l302 0 l0 -67 l-405 0 l0 44 Z" /><glyph glyph-name="" unicode="{" d="M253 -169 q-68 0 -97 30 q-32 33 -32 116 q0 42 5 112 q5 69 5 106 q0 88 -96 89 l0 52 q96 1 96 86 q0 38 -5 109 q-5 70 -5 111 q0 83 32 117 q29 30 97 30 l46 0 l0 -47 l-30 0 q-45 0 -62 -25 q-16 -23 -16 -80 q0 -33 3 -99 q3 -66 3 -106 q0 -102 -64 -120 l0 -4 q64 -19 64 -121 q0 -39 -3 -105 q-3 -66 -3 -99 q0 -57 16 -80 q17 -25 62 -25 l30 0 l0 -47 l-46 0 Z" /><glyph glyph-name="" unicode="|" d="M103 836 l58 0 l0 -1115 l-58 0 l0 1115 Z" /><glyph glyph-name="" unicode="}" d="M32 -122 l30 0 q45 0 62 25 q16 23 16 80 q0 33 -3 99 q-3 66 -3 105 q0 102 64 121 l0 4 q-64 18 -64 120 q0 40 3 106 q3 66 3 99 q0 57 -16 80 q-17 25 -62 25 l-30 0 l0 47 l46 0 q68 0 97 -30 q32 -34 32 -117 q0 -41 -5 -111 q-5 -71 -5 -109 q0 -85 96 -86 l0 -52 q-96 -1 -96 -89 q0 -37 5 -106 q5 -70 5 -112 q0 -83 -32 -116 q-29 -30 -97 -30 l-46 0 l0 47 Z" /><glyph glyph-name="" unicode="&#x2014;" d="M46 309 l800 0 l0 -58 l-800 0 l0 58 Z" /><glyph glyph-name="" unicode="&#x2026;" d="M104 380 q0 26 18 45 q19 18 45 18 q26 0 45 -18 q18 -19 18 -45 q0 -26 -18 -45 q-19 -18 -45 -18 q-26 0 -45 18 q-18 19 -18 45 ZM437 380 q0 26 18 45 q19 18 45 18 q26 0 45 -18 q18 -19 18 -45 q0 -26 -18 -45 q-19 -18 -45 -18 q-26 0 -45 18 q-18 19 -18 45 ZM770 380 q0 26 18 45 q19 18 45 18 q26 0 45 -18 q18 -19 18 -45 q0 -26 -18 -45 q-19 -18 -45 -18 q-26 0 -45 18 q-18 19 -18 45 Z" /><glyph glyph-name="" unicode="&#x2003;&#x3000;" d="" /><glyph glyph-name="" unicode="&#x3002;" d="M194 243 q63 0 107 -44 q44 -44 44 -106 q0 -63 -44 -107 q-44 -44 -107 -44 q-62 0 -106 44 q-44 44 -44 107 q0 62 44 106 q44 44 106 44 ZM194 -11 q44 0 74 30 q30 31 30 74 q0 42 -30 73 q-31 30 -74 30 q-42 0 -72 -30 q-31 -31 -31 -73 q0 -43 31 -74 q30 -30 72 -30 Z" /><glyph glyph-name="" unicode="&#x300a;" d="M807 -68 l-49 -17 l-226 465 l226 465 l49 -17 l-220 -448 l220 -448 ZM962 -68 l-49 -17 l-226 465 l226 465 l49 -17 l-220 -448 l220 -448 Z" /><glyph glyph-name="" unicode="&#x300b;" d="M193 -68 l220 448 l-220 448 l49 17 l226 -465 l-226 -465 l-49 17 ZM38 -68 l220 448 l-220 448 l49 17 l226 -465 l-226 -465 l-49 17 Z" /><glyph glyph-name="" unicode="&#x3010;" d="M965 845 l0 -5 q-198 -167 -198 -460 q0 -293 198 -460 l0 -5 l-298 0 l0 930 l298 0 Z" /><glyph glyph-name="" unicode="&#x3011;" d="M333 -85 l-298 0 l0 5 q198 167 198 460 q0 293 -198 460 l0 5 l298 0 l0 -930 Z" /><glyph glyph-name="" unicode="&#x301c;&#xff5e;" d="M698 249 q-115 0 -223 105 q-88 85 -174 85 q-123 0 -194 -135 l-65 34 q96 173 260 173 q115 0 223 -105 q88 -85 174 -85 q123 0 194 135 l65 -34 q-96 -173 -260 -173 Z" /><glyph glyph-name="" unicode="&#x2f00;&#x4e00;" d="M953 425 l0 -72 l-905 0 l0 72 l905 0 Z" /><glyph glyph-name="" unicode="&#x4e01;" d="M934 674 l-368 0 l0 -637 q0 -74 -56 -90 q-45 -13 -231 -13 q-9 37 -31 74 q143 -5 211 -2 q33 1 33 31 l0 637 l-428 0 l0 68 l870 0 l0 -68 Z" /><glyph glyph-name="" unicode="&#x4e03;" d="M765 26 q48 0 64 35 q14 32 21 143 q31 -21 68 -31 q-9 -125 -36 -166 q-31 -47 -117 -47 l-268 0 q-90 0 -122 29 q-33 30 -33 113 l0 313 l-277 -44 l-12 65 l289 47 l0 336 l71 0 l0 -325 l526 86 l10 -67 l-536 -86 l0 -327 q0 -45 16 -59 q17 -15 70 -15 l266 0 Z" /><glyph glyph-name="" unicode="&#x4e07;" d="M410 694 q-4 -129 -13 -211 l445 0 q0 -24 -1 -33 q-24 -434 -74 -486 q-27 -30 -82 -33 q-56 -5 -175 4 q-2 34 -23 65 q75 -8 174 -8 q35 0 47 12 q42 38 63 415 l-382 0 q-53 -359 -302 -497 q-16 28 -48 50 q186 98 254 320 q42 137 48 402 l-275 0 l0 65 l869 0 l0 -65 l-525 0 Z" /><glyph glyph-name="" unicode="&#x4e08;" d="M641 574 q-15 -303 -128 -439 q160 -116 437 -149 q-25 -27 -40 -62 q-282 38 -444 163 q-119 -106 -357 -157 q-7 26 -37 58 q229 46 341 144 q-138 134 -202 378 l62 16 q55 -221 186 -346 q98 120 110 394 l-502 0 l0 65 l504 0 q2 57 2 182 l72 0 q0 -124 -2 -182 l291 0 l0 -65 l-293 0 Z" /><glyph glyph-name="" unicode="&#x4e09;" d="M876 738 l0 -67 l-750 0 l0 67 l750 0 ZM798 413 l0 -67 l-610 0 l0 67 l610 0 ZM928 67 l0 -67 l-860 0 l0 67 l860 0 Z" /><glyph glyph-name="" unicode="&#x4e0a;" d="M943 38 l0 -66 l-887 0 l0 66 l376 0 l0 781 l70 0 l0 -310 l378 0 l0 -67 l-378 0 l0 -404 l441 0 Z" /><glyph glyph-name="" unicode="&#x4e0b;" d="M515 695 l0 -178 l11 13 q223 -109 358 -210 l-46 -61 q-107 88 -323 202 l0 -533 l-70 0 l0 767 l-386 0 l0 67 l883 0 l0 -67 l-427 0 Z" /><glyph glyph-name="" unicode="&#x4e0d;&#xf967;" d="M608 697 q-24 -41 -73 -113 l0 -658 l-71 0 l0 569 q-164 -190 -369 -299 q-20 29 -46 57 q305 152 475 444 l-451 0 l0 67 l855 0 l0 -67 l-320 0 ZM610 525 q236 -151 344 -263 l-52 -50 q-119 126 -341 270 l49 43 Z" /><glyph glyph-name="" unicode="&#x4e0e;" d="M681 170 l-619 0 l0 64 l619 0 l0 -64 ZM881 411 q-39 -381 -102 -442 q-29 -29 -89 -33 q-59 -2 -176 5 q-4 37 -25 66 q89 -8 182 -8 q39 0 52 12 q53 43 88 370 l-588 0 l-55 1 q52 182 96 431 l66 -7 q-10 -61 -21 -111 l562 0 l0 -64 l-576 0 q-27 -125 -42 -187 l631 0 l-3 -33 Z" /><glyph glyph-name="" unicode="&#x4e10;" d="M532 699 l0 -159 l339 0 l0 -63 l-339 0 l0 -163 l386 0 q-1 -23 -3 -33 q-32 -280 -87 -329 q-28 -26 -92 -29 q-77 -2 -183 5 q-4 35 -27 65 q91 -9 195 -9 q39 0 53 10 q42 32 70 255 l-705 0 q26 128 45 330 l69 -5 q-10 -103 -34 -260 l242 0 l0 385 l-387 0 l0 64 l856 0 l0 -64 l-398 0 Z" /><glyph glyph-name="" unicode="&#x4e11;" d="M399 347 q-26 -263 -34 -327 l331 0 q14 146 25 327 l-322 0 ZM428 701 l-23 -287 l319 0 q10 199 12 287 l-308 0 ZM952 20 l0 -65 l-902 0 l0 65 l246 0 q20 164 35 327 l-195 0 l0 67 l202 0 q16 202 21 287 l-245 0 l0 66 l693 0 q-14 -421 -41 -747 l186 0 Z" /><glyph glyph-name="" unicode="&#x4e13;" d="M385 468 q-9 -30 -39 -116 l438 0 l12 5 l50 -31 q-81 -82 -269 -264 q108 -47 166 -81 l-40 -57 q-163 102 -442 187 l38 49 q103 -30 212 -72 q129 121 208 202 l-468 0 q23 58 65 178 l-256 0 l0 64 l277 0 q25 72 41 125 l-238 0 l0 63 l257 0 q9 28 33 114 l70 0 l-34 -114 l386 0 l0 -63 l-406 0 q-26 -84 -40 -125 l517 0 l0 -64 l-538 0 Z" /><glyph glyph-name="" unicode="&#x4e14;" d="M282 33 l445 0 l0 184 l-445 0 l0 -184 ZM282 712 l0 -181 l445 0 l0 181 l-445 0 ZM727 468 l-445 0 l0 -187 l445 0 l0 187 ZM944 33 l0 -65 l-886 0 l0 65 l158 0 l0 743 l579 0 l0 -743 l149 0 Z" /><glyph glyph-name="" unicode="&#x4e16;" d="M527 520 l0 -256 l199 0 l0 256 l-199 0 ZM461 202 l0 318 l-189 0 l0 -464 l646 0 l0 -64 l-716 0 l0 528 l-147 0 l0 64 l147 0 l0 224 l70 0 l0 -224 l189 0 l0 247 l66 0 l0 -247 l199 0 l0 236 l69 0 l0 -236 l152 0 l0 -64 l-152 0 l0 -318 l-334 0 Z" /><glyph glyph-name="" unicode="&#x4e18;" d="M281 44 l378 0 l0 364 l-378 0 l0 -364 ZM947 44 l0 -66 l-893 0 l0 66 l160 0 l0 677 q403 23 573 83 l40 -58 q-177 -61 -546 -82 l0 -191 l617 0 l0 -65 l-172 0 l0 -364 l221 0 Z" /><glyph glyph-name="" unicode="&#x4e19;" d="M531 547 l361 0 l0 -531 q0 -62 -43 -76 q-37 -12 -180 -12 q-4 30 -24 67 q36 -1 158 -1 q23 1 23 23 l0 467 l-298 0 q-6 -52 -15 -84 q185 -141 272 -235 l-47 -50 q-83 98 -246 224 q-63 -151 -242 -243 q-15 25 -49 51 q236 113 256 337 l-281 0 l0 -559 l-66 0 l0 622 l350 0 l0 155 l-389 0 l0 65 l858 0 l0 -65 l-398 0 l0 -155 Z" /><glyph glyph-name="" unicode="&#x4e1a;" d="M916 572 q-83 -195 -174 -342 l-54 30 q106 173 168 341 l60 -29 ZM226 239 q-38 137 -138 346 l61 19 q102 -206 144 -341 l-67 -24 ZM938 43 l0 -66 l-873 0 l0 66 l282 0 l0 780 l67 0 l0 -780 l174 0 l0 779 l67 0 l0 -779 l283 0 Z" /><glyph glyph-name="" unicode="&#x4e1b;" d="M719 818 q-8 -120 -20 -204 q71 -345 245 -476 q-26 -23 -49 -58 q-144 120 -221 388 q-61 -267 -218 -402 q-20 27 -56 51 q126 99 184 283 q49 154 64 422 l71 -4 ZM452 243 q-39 86 -140 226 q-51 -257 -187 -395 q-22 26 -56 50 q188 174 211 701 l71 -4 q-11 -168 -25 -265 q122 -153 177 -264 l-51 -49 ZM60 23 l882 0 l0 -68 l-882 0 l0 68 Z" /><glyph glyph-name="" unicode="&#x4e1c;" d="M329 244 q-73 -160 -196 -276 q-43 36 -56 44 q119 98 187 250 l65 -18 ZM578 344 l0 -324 q0 -58 -38 -74 q-35 -13 -151 -13 q-5 32 -25 69 q112 -2 127 -1 q20 1 20 20 l0 323 l-223 0 q-89 0 -106 -14 q-12 44 -25 69 q25 7 74 79 q41 56 98 161 l-247 0 l0 64 l279 0 q29 55 63 138 l68 -31 q-20 -47 -51 -107 l470 0 l0 -64 l-503 0 q-64 -118 -143 -230 l246 0 l0 150 l67 0 l0 -150 l292 0 l0 -65 l-292 0 ZM720 264 q148 -142 214 -251 l-58 -34 q-70 120 -210 256 l54 29 Z" /><glyph glyph-name="" unicode="&#x4e1d;" d="M909 242 q-6 -28 -6 -60 q-346 -20 -377 -30 q-6 28 -21 61 q25 7 89 74 q51 51 123 146 q-180 -13 -200 -22 q-6 28 -22 63 q21 4 62 64 q89 117 158 294 l62 -26 q-91 -194 -189 -322 l173 8 q52 71 97 147 l59 -32 q-141 -217 -303 -379 l295 14 ZM472 238 q-6 -36 -4 -59 q-321 -22 -346 -33 q-14 44 -23 62 q28 7 87 76 q42 44 113 141 q-162 -10 -189 -20 q-7 32 -22 62 q21 4 61 65 q87 117 154 298 l63 -25 q-89 -195 -186 -328 l161 8 q60 86 100 160 l60 -31 q-141 -229 -293 -390 l264 14 ZM941 47 l0 -62 l-885 0 l0 62 l885 0 Z" /><glyph glyph-name="" unicode="&#x4e22;" d="M938 316 l-496 0 l33 -14 q-121 -161 -219 -254 l499 35 q-52 74 -117 147 l61 25 q151 -161 217 -296 l-66 -30 q-18 38 -56 98 q-609 -47 -643 -61 l0 1 q-4 22 -21 67 q25 4 74 53 q90 78 191 229 l-333 0 l0 62 l404 0 l0 143 l-320 0 l0 63 l320 0 l0 130 q-163 -13 -329 -18 q-4 33 -18 62 q487 18 696 71 l51 -58 q-128 -31 -333 -51 l0 -136 l322 0 l0 -63 l-322 0 l0 -143 l405 0 l0 -62 Z" /><glyph glyph-name="" unicode="&#x4e24;" d="M592 557 l0 144 l-190 0 l0 -144 l190 0 ZM657 557 l239 0 l0 -544 q0 -63 -43 -78 q-34 -11 -184 -11 q-5 33 -23 67 q99 -4 160 -1 q24 0 24 24 l0 480 l-175 0 q-2 -54 -10 -101 q121 -142 166 -226 l-40 -50 q-44 84 -141 203 q-37 -148 -139 -251 q-20 30 -47 47 q134 127 147 378 l-191 0 q-1 -41 -10 -104 q79 -96 106 -149 l-40 -53 q-25 51 -82 128 q-40 -149 -138 -247 q-16 27 -46 47 q133 129 146 378 l-164 0 l0 -571 l-66 0 l0 634 l231 0 l0 144 l-274 0 l0 64 l875 0 l0 -64 l-281 0 l0 -144 Z" /><glyph glyph-name="" unicode="&#x4e25;" d="M427 452 l143 0 l0 267 l-143 0 l0 -267 ZM933 392 l-749 0 l0 -107 q0 -238 -99 -360 q-22 26 -51 46 q85 105 85 314 l0 167 l243 0 l0 267 l-253 0 l0 59 l793 0 l0 -59 l-266 0 l0 -267 l297 0 l0 -60 ZM240 476 q-21 93 -89 187 l56 20 q69 -94 92 -185 l-59 -22 ZM684 495 q60 88 101 192 l68 -23 q-69 -126 -116 -190 l-53 21 Z" /><glyph glyph-name="" unicode="&#x4e27;" d="M883 276 q-101 -81 -223 -147 q118 -104 296 -141 q-18 -18 -41 -57 q-343 83 -461 404 l-163 0 l0 -316 l246 54 q-5 -32 -3 -62 q-309 -72 -332 -86 q-11 37 -29 61 q49 21 49 65 l0 284 l-164 0 l0 61 l408 0 l0 264 l-371 0 l0 62 l371 0 l0 114 l64 0 l0 -114 l379 0 l0 -62 l-379 0 l0 -264 l414 0 l0 -61 l-426 0 q41 -98 103 -168 q125 73 209 146 l53 -37 ZM235 628 q83 -100 114 -167 l-60 -30 q-35 78 -111 172 l57 25 ZM625 449 q71 83 123 182 l65 -26 q-87 -125 -137 -179 l-51 23 Z" /><glyph glyph-name="" unicode="&#x4e2a;" d="M466 547 l68 0 l0 -622 l-68 0 l0 622 ZM566 808 q-8 -15 -26 -43 q158 -197 424 -329 q-31 -26 -48 -59 q-251 136 -415 336 q-166 -216 -411 -334 q-26 39 -49 58 q312 140 467 398 l58 -27 Z" /><glyph glyph-name="" unicode="&#x4e2d;" d="M829 318 l0 274 l-297 0 l0 -274 l297 0 ZM463 318 l0 274 l-296 0 l0 -274 l296 0 ZM897 657 l0 -463 l-68 0 l0 58 l-297 0 l0 -326 l-69 0 l0 326 l-296 0 l0 -63 l-66 0 l0 468 l362 0 l0 179 l69 0 l0 -179 l365 0 Z" /><glyph glyph-name="" unicode="&#x4e30;" d="M945 166 l-410 0 l0 -240 l-70 0 l0 240 l-408 0 l0 67 l408 0 l0 170 l-321 0 l0 63 l321 0 l0 157 l-371 0 l0 66 l371 0 l0 147 l70 0 l0 -147 l370 0 l0 -66 l-370 0 l0 -157 l325 0 l0 -63 l-325 0 l0 -170 l410 0 l0 -67 Z" /><glyph glyph-name="" unicode="&#x4e32;&#xf905;" d="M824 152 l0 153 l-292 0 l0 -153 l292 0 ZM463 152 l0 153 l-285 0 l0 -153 l285 0 ZM463 513 l0 146 l-247 0 l0 -146 l247 0 ZM532 659 l0 -146 l248 0 l0 146 l-248 0 ZM895 366 l0 -315 l-71 0 l0 40 l-292 0 l0 -166 l-69 0 l0 166 l-285 0 l0 -42 l-68 0 l0 317 l353 0 l0 87 l-314 0 l0 266 l314 0 l0 116 l69 0 l0 -116 l318 0 l0 -266 l-318 0 l0 -87 l363 0 Z" /><glyph glyph-name="" unicode="&#x4e34;" d="M92 713 l62 0 l0 -654 l-62 0 l0 654 ZM256 822 l65 0 l0 -891 l-65 0 l0 891 ZM491 314 l0 -273 l151 0 l0 273 l-151 0 ZM852 314 l-148 0 l0 -273 l148 0 l0 273 ZM427 378 l493 0 l0 -449 l-68 0 l0 50 l-361 0 l0 -54 l-64 0 l0 453 ZM750 418 q-59 65 -169 155 l44 39 q117 -92 171 -147 l-46 -47 ZM948 717 l0 -64 l-418 0 q-56 -125 -122 -201 q-30 23 -58 37 q117 123 177 351 l65 -13 q-19 -66 -36 -110 l392 0 Z" /><glyph glyph-name="" unicode="&#x4e38;" d="M860 5 q20 0 26 34 q6 32 8 146 q23 -19 62 -29 q-5 -127 -21 -169 q-19 -46 -70 -46 l-98 0 q-52 0 -70 22 q-19 22 -19 84 l0 508 l-237 0 q-9 -133 -41 -246 q121 -83 178 -142 l-51 -52 q-53 58 -150 128 q-82 -216 -290 -321 q-18 30 -49 52 q205 98 281 310 q-99 68 -185 114 l46 46 q73 -39 160 -95 q23 89 33 206 l-285 0 l0 66 l288 0 q4 71 4 211 l69 0 q0 -116 -4 -211 l300 0 l0 -575 q0 -26 6 -33 q5 -8 24 -8 l85 0 Z" /><glyph glyph-name="" unicode="&#x4e39;&#xf95e;" d="M422 664 q134 -101 201 -181 l-52 -43 q-70 86 -198 186 l49 38 ZM740 399 l0 319 l-473 0 l0 -273 q0 -30 -1 -46 l474 0 ZM940 335 l-133 0 l0 -317 q0 -66 -47 -82 q-40 -13 -198 -11 q-9 37 -27 65 q110 -4 176 -1 q29 1 29 29 l0 317 l-477 0 q-23 -276 -178 -413 q-17 30 -47 49 q140 124 159 364 l-140 0 l0 64 l143 0 q1 16 1 47 l0 335 l606 0 l0 -382 l133 0 l0 -64 Z" /><glyph glyph-name="" unicode="&#x4e3a;" d="M276 632 q-34 68 -107 150 l57 26 q73 -79 110 -147 l-60 -29 ZM896 595 l-1 -35 q-21 -530 -70 -588 q-27 -33 -78 -37 q-45 -3 -158 3 q-4 39 -23 69 q67 -7 155 -7 q31 0 43 15 q42 41 61 514 l-351 0 q-45 -379 -364 -591 q-20 27 -52 48 q302 197 348 543 l-319 0 l0 66 l326 0 q4 59 4 124 l0 115 l67 0 l0 -116 q0 -66 -4 -123 l416 0 ZM641 176 q-42 85 -138 198 l53 27 q100 -109 143 -192 l-58 -33 Z" /><glyph glyph-name="" unicode="&#x4e3b;" d="M945 23 l0 -65 l-885 0 l0 65 l405 0 l0 255 l-314 0 l0 64 l314 0 l0 228 l-358 0 l0 64 l448 0 q-61 74 -175 160 l54 37 q121 -87 182 -163 l-47 -34 l326 0 l0 -64 l-360 0 l0 -228 l319 0 l0 -64 l-319 0 l0 -255 l410 0 Z" /><glyph glyph-name="" unicode="&#x4e3d;" d="M451 9 q0 -51 -32 -66 q-29 -14 -121 -12 q-5 30 -20 63 q42 -1 91 -1 q16 0 16 16 l0 530 l-209 0 l0 -614 l-63 0 l0 676 l338 0 l0 -592 ZM299 200 q-27 77 -95 201 l52 19 q65 -112 99 -196 l-56 -24 ZM896 7 q0 -52 -33 -67 q-26 -12 -128 -12 q-3 27 -19 63 q23 -1 96 -1 q18 1 18 17 l0 532 l-224 0 l0 -614 l-63 0 l0 676 l353 0 l0 -594 ZM740 194 q-27 66 -100 196 l50 20 q75 -123 103 -192 l-53 -24 ZM943 773 l0 -64 l-886 0 l0 64 l886 0 Z" /><glyph glyph-name="" unicode="&#x4e3e;" d="M492 659 q-27 74 -91 158 l56 24 q66 -85 94 -155 l-59 -27 ZM533 187 l380 0 l0 -63 l-380 0 l0 -201 l-66 0 l0 201 l-371 0 l0 63 l371 0 l0 130 l-234 0 l0 62 l234 0 l0 125 l66 0 l0 -125 l243 0 l0 -62 l-243 0 l0 -130 ZM701 576 q102 -147 269 -216 q-26 -21 -45 -53 q-183 86 -294 269 l-257 0 q-103 -190 -295 -277 q-20 32 -44 51 q175 70 271 226 l-247 0 l0 62 l208 0 q-32 66 -104 147 l56 27 q73 -74 109 -147 l-51 -27 l362 0 q79 92 127 185 l68 -25 q-61 -92 -122 -160 l231 0 l0 -62 l-242 0 Z" /><glyph glyph-name="" unicode="&#x4e43;" d="M888 414 q0 -24 -1 -33 q-19 -353 -63 -399 q-28 -30 -83 -33 q-67 -4 -175 4 q-5 37 -27 68 q87 -8 177 -8 q34 0 47 12 q34 29 52 324 l-273 0 q50 140 101 352 l-309 0 l0 -29 q0 -495 -248 -748 q-21 29 -52 52 q233 236 233 696 l0 29 l-165 0 l0 64 l629 0 q-42 -178 -92 -351 l249 0 Z" /><glyph glyph-name="" unicode="&#x4e45;" d="M676 653 q-34 -138 -90 -253 q115 -308 375 -417 q-27 -22 -48 -58 q-239 112 -366 402 q-163 -276 -447 -406 q-22 38 -51 58 q414 176 542 626 l-270 0 q-95 -181 -224 -298 q-32 30 -59 47 q203 165 303 481 l70 -16 q-20 -65 -57 -147 l263 0 l13 3 l46 -22 Z" /><glyph glyph-name="" unicode="&#x4e48;" d="M515 798 q-165 -257 -398 -437 q-22 27 -50 48 q243 178 380 414 l68 -25 ZM878 -65 q-18 39 -60 108 q-657 -55 -684 -65 q-7 26 -28 68 q36 9 133 97 q212 183 423 479 l67 -32 q-234 -315 -486 -530 l534 45 q-73 108 -143 191 l58 30 q171 -200 249 -356 l-63 -35 Z" /><glyph glyph-name="" unicode="&#x4e49;" d="M517 575 q-23 85 -98 241 l57 23 q71 -140 101 -238 l-60 -26 ZM860 740 q-116 -326 -310 -521 q181 -163 407 -235 q-21 -19 -46 -59 q-232 78 -411 246 q-172 -156 -423 -245 q-11 28 -36 56 q244 83 413 235 q-189 198 -303 488 l60 18 q106 -271 292 -459 q188 190 290 498 l67 -22 Z" /><glyph glyph-name="" unicode="&#x4e4b;" d="M525 642 q-38 77 -105 167 l58 30 q77 -100 107 -163 l-60 -34 ZM860 606 q-208 -308 -553 -517 l16 -11 q10 -6 16 -11 q74 -47 256 -47 q181 0 362 17 q-17 -42 -19 -71 q-165 -11 -345 -11 q-186 0 -269 54 l-93 58 q-37 0 -128 -123 l-50 60 q116 125 179 125 q5 0 15 -2 q303 175 500 444 l-642 0 l0 65 l691 0 l14 4 l50 -34 Z" /><glyph glyph-name="" unicode="&#x4e4c;" d="M758 134 l-697 0 l0 60 l697 0 l0 -60 ZM915 342 q-20 -337 -61 -381 q-23 -27 -72 -30 q-46 -3 -145 2 q-3 34 -22 63 q74 -6 144 -6 q28 0 40 11 q31 30 49 311 l-652 0 l0 421 l194 0 q35 70 46 108 l70 -12 q-41 -79 -51 -96 l363 0 q-1 -22 -2 -31 q-16 -192 -48 -225 q-21 -21 -65 -23 q-60 -2 -127 3 q-2 28 -16 57 q62 -6 118 -6 q25 0 35 9 q21 24 33 155 l-485 0 l0 -299 l654 0 l0 -31 Z" /><glyph glyph-name="" unicode="&#x4e4d;" d="M473 599 l0 -153 l410 0 l0 -64 l-410 0 l0 -159 l423 0 l0 -65 l-423 0 l0 -234 l-69 0 l0 675 l-130 0 q-80 -129 -169 -218 q-26 24 -60 42 q171 152 271 415 l67 -17 q-29 -74 -72 -157 l627 0 l0 -65 l-465 0 Z" /><glyph glyph-name="" unicode="&#x4e4e;" d="M944 298 l-401 0 l0 -281 q0 -67 -51 -83 q-40 -12 -206 -12 q-10 37 -29 69 q112 -5 186 -2 q30 1 30 28 l0 281 l-416 0 l0 67 l416 0 l0 339 q-152 -15 -334 -20 q-1 24 -16 60 q485 18 694 75 l35 -59 q-114 -30 -309 -50 l0 -345 l401 0 l0 -67 ZM228 649 q73 -123 100 -219 l-62 -24 q-21 93 -95 223 l57 20 ZM673 430 q71 117 112 236 l69 -24 q-84 -167 -127 -234 l-54 22 Z" /><glyph glyph-name="" unicode="&#x4e4f;" d="M886 759 q-257 -63 -751 -79 q-3 28 -16 60 q502 20 724 75 l43 -56 ZM490 510 q-32 57 -93 146 l56 28 q60 -80 96 -140 l-59 -34 ZM337 66 q74 -52 263 -52 q181 0 362 17 q-19 -36 -21 -72 q-177 -10 -344 -10 q-193 0 -277 59 q-97 66 -95 66 q-32 0 -120 -137 l-52 64 q111 136 174 136 q22 0 53 -26 q276 115 465 315 l-622 0 l0 65 l680 0 l14 4 l48 -35 q-199 -239 -534 -390 l6 -4 Z" /><glyph glyph-name="" unicode="&#x4e50;" d="M305 256 q-84 -144 -208 -268 q-4 4 -54 43 q121 109 199 246 l63 -21 ZM553 368 l0 -355 q0 -60 -40 -75 q-34 -13 -167 -13 q-8 36 -24 67 q33 -1 140 -1 q24 1 24 22 l0 355 l-239 0 q-102 0 -116 -13 q-9 35 -23 64 q16 5 31 63 q35 144 36 275 q459 12 655 66 l40 -58 q-212 -54 -629 -66 q-11 -121 -46 -264 l291 0 l0 205 l67 0 l0 -205 l368 0 l0 -67 l-368 0 ZM750 276 q146 -156 206 -253 l-60 -32 q-67 111 -202 259 l56 26 Z" /><glyph glyph-name="" unicode="&#x4e52;" d="M426 133 q-136 -118 -306 -201 q-22 29 -46 48 q180 83 291 192 l61 -39 ZM294 261 l349 0 l0 242 l-349 0 l0 -242 ZM949 261 l0 -64 l-895 0 l0 64 l173 0 l0 510 q396 22 577 60 l36 -60 q-212 -42 -546 -56 l0 -149 l599 0 l0 -63 l-182 0 l0 -242 l238 0 Z" /><glyph glyph-name="" unicode="&#x4e53;" d="M640 164 q190 -106 292 -189 l-51 -48 q-114 94 -291 195 l50 42 ZM294 261 l349 0 l0 242 l-349 0 l0 -242 ZM949 261 l0 -64 l-895 0 l0 64 l173 0 l0 510 q396 22 577 60 l36 -60 q-212 -42 -546 -56 l0 -149 l599 0 l0 -63 l-182 0 l0 -242 l238 0 Z" /><glyph glyph-name="" unicode="&#x4e54;" d="M303 378 l67 0 l0 -116 q0 -109 -36 -179 q-50 -98 -180 -159 q-17 28 -50 49 q121 55 167 139 q32 59 32 152 l0 114 ZM619 378 l68 0 l0 -452 l-68 0 l0 452 ZM652 523 q111 -146 312 -210 q-23 -18 -45 -56 q-223 78 -341 266 l-162 0 q-118 -178 -334 -273 q-27 38 -46 55 q189 74 300 218 l-278 0 l0 64 l321 0 q35 62 58 128 q-164 -11 -309 -14 q-2 28 -15 57 q475 12 697 61 l49 -53 q-135 -29 -348 -45 q-22 -65 -57 -134 l489 0 l0 -64 l-291 0 Z" /><glyph glyph-name="" unicode="&#x4e56;" d="M286 514 l64 0 l0 -401 l-64 0 l0 87 q-142 -52 -202 -72 l-29 61 q69 19 231 69 l0 104 l-211 0 l0 59 l211 0 l0 93 ZM533 559 l0 -635 l-69 0 l0 635 l-401 0 l0 62 l401 0 l0 106 q-149 -11 -326 -16 q-3 25 -17 55 q474 18 684 62 l47 -54 q-129 -27 -319 -41 l0 -112 l407 0 l0 -62 l-407 0 ZM859 178 q21 0 27 18 q7 19 9 86 q25 -18 58 -25 q-6 -83 -24 -111 q-18 -28 -64 -28 l-127 0 q-56 0 -76 18 q-19 19 -19 72 l0 305 l65 0 l0 -129 q115 52 169 94 l49 -49 q-78 -48 -218 -103 l0 -118 q0 -19 7 -24 q7 -6 31 -6 l113 0 Z" /><glyph glyph-name="" unicode="&#x4e58;" d="M706 535 l0 -105 q79 29 148 65 l42 -49 q-83 -39 -190 -71 l0 -90 q0 -16 6 -20 q7 -5 29 -5 l105 0 q18 0 24 13 q6 14 7 64 q22 -18 57 -23 q-6 -66 -23 -88 q-16 -23 -58 -23 l-119 0 q-54 0 -72 17 q-18 16 -18 66 l0 249 l62 0 ZM65 276 q75 10 226 37 l0 94 l-197 0 l0 55 l197 0 l0 72 l62 0 l0 -323 l-62 0 l0 49 q-101 -21 -211 -40 l-15 56 ZM534 333 q143 -240 425 -322 q-25 -25 -44 -56 q-230 81 -381 285 l0 -314 l-69 0 l0 311 q-151 -198 -382 -277 q-25 38 -44 55 q283 82 426 315 l0 234 l-397 0 l0 61 l397 0 l0 99 q-147 -11 -318 -16 q-3 29 -16 56 q466 18 679 65 l31 -58 q-121 -27 -307 -41 l0 -105 l397 0 l0 -61 l-397 0 l0 -231 Z" /><glyph glyph-name="" unicode="&#x2f04;&#x4e59;" d="M767 31 q55 0 74 40 q18 38 23 165 q32 -17 68 -24 q-10 -151 -44 -201 q-34 -48 -126 -48 l-461 0 q-208 0 -208 133 q0 65 80 155 q116 133 475 433 l-550 0 l0 68 l643 0 l15 5 l47 -33 q-3 -4 -13 -10 q-401 -330 -535 -469 q-91 -95 -91 -144 q0 -70 128 -70 l475 0 Z" /><glyph glyph-name="" unicode="&#x4e5d;" d="M854 13 q22 0 29 31 q7 30 10 135 q25 -20 62 -30 q-5 -118 -23 -157 q-20 -43 -74 -43 l-116 0 q-57 0 -77 22 q-20 22 -20 84 l0 488 l-230 0 q-39 -455 -314 -619 q-22 30 -53 51 q265 148 296 568 l-265 0 l0 65 l269 0 q4 75 4 224 l72 0 q-2 -175 -5 -224 l295 0 l0 -553 q0 -27 6 -34 q7 -8 30 -8 l104 0 Z" /><glyph glyph-name="" unicode="&#x4e5e;" d="M262 641 q-73 -109 -163 -188 q-37 34 -57 47 q163 128 249 337 l68 -20 q-32 -71 -56 -111 l622 0 l0 -65 l-663 0 ZM790 9 q44 0 59 27 q15 28 19 119 q30 -17 65 -24 q-9 -116 -39 -153 q-29 -34 -108 -34 l-457 0 q-177 0 -177 107 q0 52 62 113 q94 91 378 271 l-392 0 l0 64 l505 0 l14 3 l48 -34 q-4 -4 -14 -10 q-531 -328 -531 -402 q0 -46 99 -46 l469 -1 Z" /><glyph glyph-name="" unicode="&#x4e5f;" d="M764 6 q69 0 91 35 q21 33 30 145 q29 -17 63 -27 q-12 -126 -44 -167 q-38 -47 -141 -47 l-357 0 q-109 0 -147 30 q-39 31 -39 121 l0 321 l-167 -51 l-18 59 l185 56 l0 287 l64 0 l0 -267 l217 67 l0 266 l65 0 l0 -247 l239 74 l7 6 l14 9 l47 -20 l-4 -14 q-5 -292 -32 -366 q-24 -65 -81 -74 q-52 -7 -116 -3 q-5 40 -17 62 q36 -3 102 -3 q38 0 54 47 q22 63 25 292 l-238 -73 l0 -389 l-65 0 l0 369 l-217 -68 l0 -342 q0 -53 23 -70 q23 -18 96 -18 l361 0 Z" /><glyph glyph-name="" unicode="&#x4e60;" d="M718 267 q-273 -96 -587 -203 l-24 67 q217 66 598 198 l13 -62 ZM279 608 q185 -123 268 -202 l-46 -51 q-89 88 -266 210 l44 43 ZM882 721 q-9 -686 -51 -744 q-28 -39 -80 -43 q-52 -6 -156 2 q-2 33 -22 63 q69 -5 155 -5 q28 0 40 16 q37 41 47 686 l-693 0 l0 64 l760 0 l0 -39 Z" /><glyph glyph-name="" unicode="&#x4e61;" d="M883 430 q-95 -215 -296 -338 q-178 -109 -474 -164 q-11 32 -36 68 q453 69 638 296 q-521 -41 -562 -57 q-4 30 -22 68 q41 5 146 62 q101 53 247 153 q-308 -23 -339 -35 q-11 42 -22 69 q27 2 87 47 q121 78 254 231 l62 -39 q-132 -137 -269 -232 l313 22 q62 45 127 102 l60 -44 q-228 -189 -469 -315 l433 31 q30 49 50 99 l72 -24 Z" /><glyph glyph-name="" unicode="&#x4e66;" d="M904 617 q-60 60 -183 142 l40 43 q117 -74 185 -135 l-42 -50 ZM492 391 l238 0 l0 204 l-238 0 l0 -204 ZM940 391 l-2 -31 q-22 -269 -60 -306 q-25 -26 -73 -29 q-40 -3 -151 3 q-4 36 -23 64 q64 -7 150 -7 q32 0 42 10 q28 23 45 233 l-376 0 l0 -403 l-68 0 l0 403 l-361 0 l0 63 l361 0 l0 204 l-293 0 l0 64 l293 0 l0 172 l68 0 l0 -172 l304 0 l0 -268 l144 0 Z" /><glyph glyph-name="" unicode="&#x4e70;" d="M752 556 q42 65 78 148 l-715 0 l0 63 l737 0 l0 2 l12 0 l12 4 l48 -20 q-74 -162 -118 -224 l-54 27 ZM419 485 q-67 57 -193 111 l35 45 q125 -50 195 -105 l-37 -51 ZM153 496 q122 -48 195 -101 l-37 -51 q-68 55 -194 107 l36 45 ZM567 174 q224 -99 358 -196 l-42 -51 q-125 96 -350 200 l34 47 ZM933 297 l0 -62 l-393 0 q-43 -123 -142 -195 q-107 -79 -305 -118 q-10 29 -35 56 q330 61 412 257 l-400 0 l0 62 l421 0 q24 95 31 341 l67 0 q-7 -233 -32 -341 l376 0 Z" /><glyph glyph-name="" unicode="&#x4e71;" d="M456 262 l-296 0 l0 -213 l296 0 l0 213 ZM340 557 l224 0 l0 -61 l-224 0 l0 -174 l181 0 l0 -373 l-65 0 l0 40 l-296 0 l0 -46 l-63 0 l0 379 l178 0 l0 174 l-231 0 l0 61 l231 0 l0 158 q-110 -17 -195 -25 q-4 22 -19 53 q300 34 428 83 l52 -50 q-80 -29 -201 -50 l0 -169 ZM848 1 q28 0 36 37 q8 33 12 150 q27 -21 60 -30 q-5 -127 -24 -170 q-21 -48 -80 -48 l-135 0 q-61 0 -82 25 q-22 24 -22 96 l0 764 l65 0 l0 -766 q0 -36 9 -47 q8 -11 36 -11 l125 0 Z" /><glyph glyph-name="" unicode="&#x4e73;" d="M563 212 l-213 -23 l0 -191 q0 -50 -34 -63 q-27 -10 -139 -10 q-3 17 -21 58 q89 -2 112 0 q18 1 18 16 l0 182 l-228 -25 l-8 63 q128 12 236 24 l0 68 q74 49 143 123 l-325 0 l0 59 l379 0 l15 3 l45 -33 q-82 -96 -193 -174 l0 -39 l211 22 l2 -60 ZM158 695 q51 -91 77 -170 l-57 -24 q-21 69 -73 173 l53 21 ZM308 710 q45 -118 58 -172 l-58 -21 q-15 72 -55 176 l55 17 ZM561 711 q-76 -150 -113 -206 l-53 22 q56 90 101 209 l65 -25 ZM570 784 q-158 -46 -475 -64 q-5 28 -19 54 q310 20 446 62 l48 -52 ZM851 10 q26 0 35 37 q7 33 10 150 q25 -19 60 -29 q-5 -127 -24 -170 q-20 -47 -77 -47 l-128 0 q-59 0 -80 24 q-20 24 -20 93 l0 742 l65 0 l0 -744 q0 -36 8 -46 q8 -10 35 -10 l116 0 Z" /><glyph glyph-name="" unicode="&#x4e7e;" d="M144 292 l243 0 l0 101 l-243 0 l0 -101 ZM144 438 l243 0 l0 100 l-243 0 l0 -100 ZM297 142 l177 0 l0 -55 l-177 0 l0 -155 l-64 0 l0 155 l-185 0 l0 55 l185 0 l0 96 l-149 0 l0 354 l148 0 l0 93 l-175 0 l0 55 l175 0 l0 96 l64 0 l0 -96 l176 0 l0 -55 l-176 0 l0 -93 l153 0 l0 -354 l-152 0 l0 -96 ZM599 619 q-46 -83 -85 -130 q-21 19 -54 39 q102 116 156 302 l63 -15 q-21 -67 -50 -133 l319 0 l0 -63 l-349 0 ZM858 3 q26 0 34 25 q9 26 11 117 q31 -17 58 -21 q-6 -115 -28 -152 q-20 -32 -76 -32 l-218 0 q-124 0 -124 86 q0 83 254 390 l-232 0 l0 62 l293 0 l14 2 l43 -17 l-7 -15 q-299 -355 -299 -413 q0 -32 57 -32 l220 0 Z" /><glyph glyph-name="" unicode="&#x4e86;" d="M887 722 q-139 -153 -350 -267 l0 -441 q0 -63 -49 -78 q-41 -12 -204 -12 q-6 28 -28 67 q115 -4 185 -1 q27 1 27 24 l0 474 q155 76 288 202 l-656 0 l0 65 l720 0 l15 4 l52 -37 Z" /><glyph glyph-name="" unicode="&#x4e88;" d="M948 445 q-109 -171 -182 -240 l-54 34 q65 63 127 163 l-299 0 l0 -390 q0 -60 -45 -73 q-37 -11 -179 -11 q-3 23 -24 64 q102 -3 156 0 q24 1 24 21 l0 389 l-416 0 l0 63 l530 0 q-138 70 -300 142 l35 48 q49 -20 185 -80 q114 64 203 145 l-559 0 l0 62 l623 0 l15 4 l48 -37 q-110 -110 -266 -205 q66 -31 113 -55 l-16 -24 l216 0 l13 5 l52 -25 Z" /><glyph glyph-name="" unicode="&#x4e89;" d="M757 339 l-229 0 l0 -124 l229 0 l0 124 ZM528 400 l229 0 l0 116 l-229 0 l0 -116 ZM338 693 q-63 -71 -120 -117 l307 0 q50 46 100 117 l-287 0 ZM957 339 l-135 0 l0 -185 l-19 0 l0 -1 l-275 0 l0 -141 q0 -60 -45 -75 q-37 -11 -180 -11 q-6 30 -26 64 q117 -3 158 -1 q25 1 25 23 l0 141 l-317 0 l0 62 l317 0 l0 124 l-413 0 l0 61 l413 0 l0 116 l-277 0 l0 31 l-50 -35 q-21 28 -50 46 q180 109 276 279 l73 -13 q-22 -36 -48 -72 l285 0 l12 3 l47 -32 q-50 -77 -122 -147 l216 0 l0 -176 l135 0 l0 -61 Z" /><glyph glyph-name="" unicode="&#x4e8b;" d="M780 209 l-249 0 l0 -80 l249 0 l0 80 ZM531 263 l249 0 l0 75 l-249 0 l0 -75 ZM464 511 l0 76 l-225 0 l0 -76 l225 0 ZM531 587 l0 -76 l233 0 l0 76 l-233 0 ZM950 209 l-103 0 l0 -177 l-67 0 l0 45 l-249 0 l0 -74 q0 -57 -42 -71 q-34 -11 -166 -11 q-4 21 -24 57 q91 -3 140 0 q25 1 25 25 l0 74 l-327 0 l0 52 l327 0 l0 80 l-412 0 l0 54 l412 0 l0 75 l-318 0 l0 51 l318 0 l0 74 l-289 0 l0 172 l289 0 l0 62 l-394 0 l0 56 l394 0 l0 82 l67 0 l0 -82 l401 0 l0 -56 l-401 0 l0 -62 l301 0 l0 -172 l-301 0 l0 -74 l316 0 l0 -126 l103 0 l0 -54 Z" /><glyph glyph-name="" unicode="&#x2f06;&#x4e8c;" d="M857 692 l0 -71 l-713 0 l0 71 l713 0 ZM941 100 l0 -73 l-881 0 l0 73 l881 0 Z" /><glyph glyph-name="" unicode="&#x4e8e;" d="M943 370 l-400 0 l0 -345 q0 -68 -50 -83 q-41 -14 -201 -12 q-8 31 -29 69 q114 -4 182 -1 q29 1 29 27 l0 345 l-416 0 l0 66 l416 0 l0 261 l-347 0 l0 66 l746 0 l0 -66 l-330 0 l0 -261 l400 0 l0 -66 Z" /><glyph glyph-name="" unicode="&#x4e8f;" d="M860 713 l-721 0 l0 63 l721 0 l0 -63 ZM370 476 q-16 -83 -40 -185 l496 0 l-3 -31 q-24 -267 -69 -309 q-29 -27 -87 -28 q-54 -3 -189 4 q-4 36 -26 63 q109 -8 196 -8 q38 0 50 10 q35 27 55 237 l-501 0 l0 1 l-12 0 q34 111 58 246 l-239 0 l0 63 l880 0 l0 -63 l-569 0 Z" /><glyph glyph-name="" unicode="&#x4e91;" d="M838 686 l-670 0 l0 67 l670 0 l0 -67 ZM467 404 q-110 -208 -233 -356 l521 41 q-68 105 -132 190 l60 31 q164 -215 234 -352 l-61 -37 q-27 50 -62 108 q-618 -55 -649 -69 q-10 41 -26 74 q24 6 76 74 q86 103 181 296 l-316 0 l0 68 l881 0 l0 -68 l-474 0 Z" /><glyph glyph-name="" unicode="&#x4e92;" d="M666 257 q23 185 27 225 l-359 0 q-21 -111 -45 -225 l377 0 ZM947 27 l0 -65 l-890 0 l0 65 l576 0 q16 104 25 167 l-456 0 q55 216 104 517 l-216 0 l0 64 l827 0 l0 -64 l-540 0 q-5 -29 -31 -166 l360 0 l12 3 l49 -6 q-21 -221 -66 -515 l246 0 Z" /><glyph glyph-name="" unicode="&#x4e94;" d="M438 383 q-28 -173 -60 -337 l291 0 q21 194 32 337 l-263 0 ZM943 46 l0 -66 l-883 0 l0 66 l246 0 q30 137 62 337 l-189 0 l0 65 l200 0 q23 149 33 224 l-288 0 l0 66 l746 0 l0 -66 l-387 0 q-10 -70 -34 -224 l264 0 l11 3 l50 -5 q-10 -180 -37 -400 l206 0 Z" /><glyph glyph-name="" unicode="&#x4e95;" d="M646 317 l0 243 l-286 0 l0 -118 q0 -74 -5 -125 l291 0 ZM937 250 l-222 0 l0 -326 l-69 0 l0 326 l-299 0 q-37 -217 -217 -336 q-17 24 -55 48 q164 104 201 288 l-211 0 l0 67 l221 0 q5 51 5 126 l0 117 l-194 0 l0 67 l194 0 l0 204 l69 0 l0 -204 l286 0 l0 205 l69 0 l0 -205 l199 0 l0 -67 l-199 0 l0 -243 l222 0 l0 -67 Z" /><glyph glyph-name="" unicode="&#x4e9a;" d="M408 49 l169 0 l0 660 l-169 0 l0 -660 ZM950 49 l0 -64 l-900 0 l0 64 l288 0 l0 660 l-263 0 l0 65 l853 0 l0 -65 l-281 0 l0 -660 l303 0 ZM146 560 q100 -199 141 -327 l-62 -25 q-40 132 -137 332 l58 20 ZM684 234 q99 161 157 325 l63 -23 q-75 -182 -161 -324 l-59 22 Z" /><glyph glyph-name="" unicode="&#x4e9b;" d="M667 336 q-68 0 -92 21 q-24 22 -24 83 l0 394 l67 0 l0 -202 q157 59 229 105 l54 -51 q-112 -59 -283 -113 l0 -133 q0 -26 10 -33 q10 -8 45 -8 l164 0 q31 0 40 24 q9 23 13 108 q23 -17 61 -27 q-7 -100 -28 -133 q-22 -35 -81 -35 l-175 0 ZM172 234 l669 0 l0 -64 l-669 0 l0 64 ZM503 366 q-183 -26 -448 -60 l-8 65 l67 7 l0 347 l62 0 l0 -339 l95 11 l0 437 l65 0 l0 -174 l160 0 l0 -61 l-160 0 l0 -193 l166 20 l1 -60 ZM61 16 l879 0 l0 -66 l-879 0 l0 66 Z" /><glyph glyph-name="" unicode="&#x4ea1;" d="M275 560 l0 -507 l609 0 l0 -67 l-678 0 l0 574 l-146 0 l0 65 l451 0 q-19 73 -82 189 l66 22 q62 -102 88 -186 l-69 -25 l427 0 l0 -65 l-666 0 Z" /><glyph glyph-name="" unicode="&#x4ea4;" d="M928 631 l-857 0 l0 65 l419 0 q-20 54 -68 126 l61 22 q52 -69 74 -128 l-50 -20 l421 0 l0 -65 ZM673 596 q174 -117 258 -217 l-55 -43 q-80 102 -254 222 l51 38 ZM387 571 q-98 -126 -260 -231 q-24 28 -51 50 q154 88 248 206 l63 -25 ZM721 409 q-60 -153 -168 -256 q154 -120 401 -161 q-25 -26 -41 -61 q-252 48 -410 178 q-151 -121 -413 -188 q-15 34 -40 61 q257 55 405 171 q-104 101 -165 250 l60 19 q53 -134 154 -227 q101 98 150 233 l67 -19 Z" /><glyph glyph-name="" unicode="&#x4ea5;" d="M859 394 q-87 -129 -224 -230 q197 -113 286 -187 l-58 -47 q-94 82 -285 194 q-199 -131 -475 -199 q-17 38 -40 61 q525 123 735 443 l61 -35 ZM942 702 l0 -64 l-466 0 q-98 -116 -168 -187 l279 15 q43 42 81 96 l60 -31 q-188 -271 -592 -394 q-17 37 -42 60 q246 67 420 204 q-294 -20 -326 -31 q-7 43 -18 70 q41 10 63 30 q40 33 157 168 l-328 0 l0 64 l431 0 q-21 48 -64 118 l65 20 q51 -70 74 -129 l-26 -9 l400 0 Z" /><glyph glyph-name="" unicode="&#x4ea6;" d="M507 665 q-27 71 -83 154 l62 21 q57 -80 87 -150 l-66 -25 ZM265 473 q-50 -193 -143 -311 q-22 18 -57 38 q89 103 134 285 l66 -12 ZM672 594 l0 -580 q0 -61 -41 -76 q-36 -13 -171 -13 q-7 37 -23 68 q105 -3 146 -1 q22 0 22 22 l0 580 l-176 0 l0 -118 q0 -170 -40 -283 q-59 -166 -213 -275 q-24 33 -50 49 q145 100 200 252 q37 103 37 258 l0 117 l-299 0 l0 66 l873 0 l0 -66 l-265 0 ZM785 485 q116 -182 155 -322 l-62 -27 q-41 150 -150 326 l57 23 Z" /><glyph glyph-name="" unicode="&#x4ea7;" d="M898 648 l-785 0 l0 64 l382 0 q-32 64 -65 105 l64 18 q54 -63 76 -120 l-8 -3 l336 0 l0 -64 ZM353 468 q-29 70 -85 145 l56 23 q61 -74 90 -142 l-61 -26 ZM924 396 l-727 0 l0 -73 q0 -265 -103 -406 q-23 30 -54 46 q89 124 89 362 l0 136 l479 0 q48 78 83 170 l70 -23 q-54 -98 -87 -147 l250 0 l0 -65 Z" /><glyph glyph-name="" unicode="&#x4ea9;" d="M205 458 l0 -171 l262 0 l0 171 l-262 0 ZM789 458 l-257 0 l0 -171 l257 0 l0 171 ZM789 43 l0 182 l-257 0 l0 -182 l257 0 ZM205 43 l262 0 l0 182 l-262 0 l0 -182 ZM140 522 l717 0 l0 -593 l-68 0 l0 51 l-584 0 l0 -55 l-65 0 l0 597 ZM936 697 l0 -65 l-871 0 l0 65 l427 0 q-21 46 -69 123 l62 21 q56 -79 78 -134 l-23 -10 l396 0 Z" /><glyph glyph-name="" unicode="&#x4eab;" d="M933 688 l-866 0 l0 58 l408 0 q-19 46 -38 83 l65 13 q30 -49 47 -96 l384 0 l0 -58 ZM260 474 l483 0 l0 96 l-483 0 l0 -96 ZM194 423 l0 197 l618 0 l0 -197 l-618 0 ZM944 118 l-410 0 l0 -124 q0 -50 -44 -64 q-29 -8 -179 -8 q-5 23 -23 56 q98 -4 153 -1 q24 1 24 19 l0 122 l-407 0 l0 59 l407 0 l0 63 q117 25 215 64 l-529 0 l0 55 l619 0 l0 1 l17 0 l15 3 l45 -38 q-121 -70 -313 -117 l0 -31 l410 0 l0 -59 Z" /><glyph glyph-name="" unicode="&#x4eac;" d="M306 181 q-87 -132 -200 -224 l-49 42 q122 97 184 205 l65 -23 ZM258 329 l491 0 l0 169 l-491 0 l0 -169 ZM537 270 l0 -266 q0 -57 -42 -71 q-38 -12 -178 -10 q-7 32 -23 63 q36 -1 152 -1 q22 1 22 20 l0 265 l-276 0 l0 287 l626 0 l0 -287 l-281 0 ZM741 205 q130 -128 190 -212 l-57 -40 q-64 96 -187 219 l54 33 ZM934 709 l0 -65 l-865 0 l0 65 l413 0 q-29 59 -65 113 l63 20 q54 -79 79 -133 l375 0 Z" /><glyph glyph-name="" unicode="&#x4ead;" d="M197 244 l614 0 l0 -57 l-258 0 l0 -182 q0 -55 -44 -68 q-35 -9 -186 -9 q-5 26 -24 61 q113 -4 160 -2 q23 2 23 20 l0 180 l-285 0 l0 57 ZM78 374 l846 0 l0 -174 l-62 0 l0 120 l-723 0 l0 -120 l-61 0 l0 174 ZM735 580 l-468 0 l0 -89 l468 0 l0 89 ZM804 629 l0 -187 l-603 0 l0 187 l603 0 ZM938 748 l0 -57 l-875 0 l0 57 l419 0 q-21 35 -52 73 l62 19 q41 -47 69 -92 l377 0 Z" /><glyph glyph-name="" unicode="&#x4eae;" d="M834 -2 q21 0 28 20 q7 20 9 91 q20 -15 60 -26 q-5 -85 -23 -114 q-18 -28 -66 -28 l-125 0 q-59 0 -79 18 q-19 17 -19 68 l0 156 l-246 0 q-13 -116 -69 -171 q-59 -59 -204 -88 q-12 33 -37 55 q147 25 197 82 q44 51 49 180 l379 0 l0 -215 q0 -17 7 -23 q7 -5 31 -5 l108 0 ZM84 366 l830 0 l0 -159 l-65 0 l0 105 l-702 0 l0 -106 l-63 0 l0 160 ZM733 573 l-462 0 l0 -91 l462 0 l0 91 ZM802 622 l0 -189 l-597 0 l0 189 l597 0 ZM933 738 l0 -57 l-869 0 l0 57 l422 0 q-20 49 -47 88 l65 15 q39 -54 57 -103 l372 0 Z" /><glyph glyph-name="" unicode="&#x4eb2;" d="M878 653 l-742 0 l0 57 l340 0 q-24 57 -54 109 l65 15 q41 -65 64 -124 l327 0 l0 -57 ZM338 186 q-69 -128 -189 -223 q-28 26 -55 41 q120 84 180 202 l64 -20 ZM697 209 q138 -124 192 -205 l-57 -39 q-65 100 -189 210 l54 34 ZM535 415 l0 -109 l376 0 l0 -60 l-376 0 l0 -241 q0 -53 -37 -68 q-34 -12 -148 -10 q-6 27 -23 61 q81 -3 121 0 q20 0 20 17 l0 241 l-373 0 l0 60 l373 0 l0 109 l-394 0 l0 60 l250 0 q-21 73 -70 150 l60 16 q54 -81 75 -153 l-42 -13 l246 0 q49 79 83 165 l68 -15 q-46 -93 -82 -150 l264 0 l0 -60 l-391 0 Z" /><glyph glyph-name="" unicode="&#x2f08;&#x4eba;" d="M538 832 q-3 -93 -7 -144 q70 -539 429 -700 q-33 -27 -48 -56 q-301 142 -410 567 q-88 -407 -401 -570 q-16 24 -52 51 q266 133 363 448 q48 157 53 404 l73 0 Z" /><glyph glyph-name="" unicode="&#x4ebf;" d="M350 814 q-43 -106 -95 -199 l0 -688 l-65 0 l0 584 q-53 -79 -115 -143 q-19 41 -39 64 q159 154 251 401 l63 -19 ZM800 36 q40 0 53 37 q12 38 17 166 q28 -17 60 -22 q-7 -153 -34 -200 q-25 -45 -98 -45 l-261 0 q-165 0 -165 111 q0 55 59 144 q88 132 356 438 l-396 0 l0 63 l462 0 l16 3 l43 -23 q-5 -6 -11 -11 q-463 -520 -463 -608 q0 -53 94 -53 l268 0 Z" /><glyph glyph-name="" unicode="&#x4ec0;&#xf9fd;" d="M361 813 q-41 -103 -101 -208 l0 -679 l-65 0 l0 577 q-62 -89 -116 -143 q-16 35 -38 64 q166 161 257 408 l63 -19 ZM951 424 l-273 0 l0 -500 l-68 0 l0 500 l-283 0 l0 65 l283 0 l0 337 l68 0 l0 -337 l273 0 l0 -65 Z" /><glyph glyph-name="" unicode="&#x4ec1;" d="M902 596 l-515 0 l0 69 l515 0 l0 -69 ZM366 813 q-51 -125 -109 -223 l0 -664 l-66 0 l0 562 q-46 -64 -109 -130 q-14 32 -41 65 q165 157 260 411 l65 -21 ZM947 69 l0 -70 l-618 0 l0 70 l618 0 Z" /><glyph glyph-name="" unicode="&#x4ec5;" d="M366 808 q-46 -112 -109 -217 l0 -665 l-66 0 l0 567 q-62 -85 -120 -140 q-14 32 -41 65 q172 158 271 411 l65 -21 ZM466 662 q57 -257 174 -425 q137 174 190 425 l-364 0 ZM905 714 q-56 -320 -224 -530 q120 -142 284 -202 q-25 -22 -44 -54 q-162 65 -282 206 q-128 -137 -302 -209 q-13 30 -39 55 q172 64 300 207 q-128 179 -195 474 l5 1 l-45 0 l0 63 l488 0 l12 3 l42 -14 Z" /><glyph glyph-name="" unicode="&#x4ec6;" d="M360 811 q-44 -112 -101 -216 l0 -670 l-68 0 l0 560 q-60 -88 -117 -146 q-12 31 -40 68 q167 164 261 425 l65 -21 ZM546 823 l71 0 l0 -896 l-71 0 l0 896 ZM676 562 q203 -176 270 -247 l-49 -54 q-73 82 -268 255 l47 46 Z" /><glyph glyph-name="" unicode="&#x4ec7;" d="M336 815 q-44 -117 -99 -219 l0 -672 l-65 0 l0 565 q-42 -63 -93 -121 q-17 32 -39 64 q149 155 234 401 l62 -18 ZM862 -1 q19 0 25 5 q10 7 13 31 q4 40 4 121 q23 -20 55 -30 q-2 -97 -10 -131 q-8 -33 -29 -46 q-21 -12 -53 -12 l-55 0 q-37 0 -58 18 q-23 19 -23 105 l0 476 l-177 0 q-25 -453 -241 -614 q-23 32 -50 46 q203 146 226 568 l-177 0 l0 65 l179 0 q3 75 3 233 l66 0 q0 -158 -3 -233 l241 0 l0 -548 q0 -44 8 -50 q7 -4 20 -4 l36 0 Z" /><glyph glyph-name="" unicode="&#x4eca;" d="M800 349 l51 -26 q-123 -163 -319 -402 l-67 32 q134 156 267 325 l-568 0 l0 67 l625 0 l11 4 ZM581 371 q-55 65 -189 166 l46 40 q139 -102 192 -159 l-49 -47 ZM560 811 l-18 -26 q167 -200 417 -309 q-22 -17 -51 -58 q-228 113 -406 317 q-169 -203 -412 -322 q-22 34 -50 56 q300 137 457 373 l63 -31 Z" /><glyph glyph-name="" unicode="&#x4ecb;" d="M282 445 l69 0 l0 -131 q0 -124 -37 -205 q-51 -114 -187 -186 q-19 26 -53 48 q127 66 175 166 q33 69 33 179 l0 129 ZM655 447 l69 0 l0 -525 l-69 0 l0 525 ZM553 804 l-16 -26 q161 -218 436 -300 q-26 -24 -47 -61 q-258 90 -425 310 q-173 -222 -427 -322 q-15 36 -39 63 q139 46 268 150 q129 104 196 222 l54 -36 Z" /><glyph glyph-name="" unicode="&#x4ecd;" d="M296 812 q-30 -95 -78 -198 l0 -690 l-64 0 l0 570 q-39 -70 -87 -127 q-15 34 -37 66 q130 154 206 397 l60 -18 ZM916 475 q0 -23 -1 -32 q-24 -431 -68 -479 q-25 -28 -72 -32 q-38 -4 -150 2 q-2 36 -21 65 q75 -7 145 -7 q29 0 42 13 q38 36 58 409 l-190 0 q25 90 61 287 l-208 0 q-6 -267 -39 -425 q-51 -236 -175 -355 q-24 29 -51 44 q189 175 198 736 l-122 0 l0 62 l472 0 q-36 -189 -59 -288 l180 0 Z" /><glyph glyph-name="" unicode="&#x4ece;" d="M458 164 q-46 100 -155 248 q-53 -321 -192 -487 q-15 15 -63 46 q192 206 221 840 l71 -3 q-10 -180 -26 -309 q134 -160 194 -289 l-50 -46 ZM721 809 q-13 -187 -35 -326 q74 -358 267 -488 q-31 -31 -48 -59 q-162 124 -246 410 q-65 -271 -224 -417 q-19 19 -63 46 q141 117 206 338 q53 180 71 499 l72 -3 Z" /><glyph glyph-name="" unicode="&#x4ed1;" d="M695 23 q50 0 66 28 q15 26 21 120 q27 -20 63 -26 q-8 -112 -36 -147 q-29 -38 -113 -38 l-283 0 q-93 0 -126 23 q-34 24 -34 93 l0 407 l66 0 l0 -207 q271 85 384 171 l60 -50 q-147 -99 -444 -184 l0 -137 q0 -33 17 -43 q18 -10 76 -10 l283 0 ZM565 810 q-11 -18 -23 -31 q164 -205 421 -295 q-30 -24 -50 -59 q-237 99 -407 307 q-170 -203 -414 -311 q-21 34 -47 57 q311 127 460 359 l60 -27 Z" /><glyph glyph-name="" unicode="&#x4ed3;" d="M562 808 q-12 -19 -23 -34 q151 -184 427 -313 q-28 -20 -45 -56 q-263 136 -418 320 q-107 -135 -265 -244 l523 0 l-2 -31 q-11 -233 -38 -264 q-20 -23 -65 -26 q-55 -4 -136 2 q-2 30 -17 59 q66 -6 126 -6 q26 0 36 10 q18 22 26 193 l-388 0 l0 -345 q0 -35 19 -45 q18 -11 81 -11 l296 0 q56 0 73 29 q16 26 23 124 q29 -21 67 -26 q-11 -117 -40 -153 q-31 -40 -121 -40 l-298 0 q-99 0 -133 24 q-36 25 -36 98 l0 405 q-84 -55 -150 -86 q-26 37 -48 56 q310 137 464 388 l62 -28 Z" /><glyph glyph-name="" unicode="&#x4ed4;" d="M336 816 q-44 -121 -106 -229 l0 -663 l-64 0 l0 561 q-42 -63 -90 -114 q-18 35 -38 63 q150 157 235 401 l63 -19 ZM956 339 l-287 0 l0 -322 q0 -62 -44 -77 q-38 -13 -181 -11 q-5 31 -23 67 q127 -4 158 -2 q23 1 23 23 l0 322 l-290 0 l0 65 l290 0 l0 145 q115 61 209 153 l-437 0 l0 62 l496 0 l14 4 l46 -33 q-99 -115 -261 -215 l0 -116 l287 0 l0 -65 Z" /><glyph glyph-name="" unicode="&#x4ed6;" d="M334 813 q-47 -117 -103 -213 l0 -674 l-65 0 l0 573 q-50 -71 -106 -131 q-17 37 -38 63 q160 155 251 401 l61 -19 ZM816 -2 q45 0 60 29 q14 26 20 117 q26 -19 62 -28 q-9 -106 -34 -140 q-29 -39 -107 -39 l-268 0 q-87 0 -118 27 q-31 27 -31 104 l0 334 l-102 -39 l-25 58 l127 49 l0 269 l65 0 l0 -243 l156 61 l0 277 l63 0 l0 -253 l167 65 l19 16 l46 -18 l-3 -12 q0 -318 -14 -373 q-10 -58 -59 -69 q-38 -8 -100 -6 q-4 39 -17 62 q29 -1 79 -1 q28 0 36 31 q10 33 12 301 l-166 -64 l0 -369 l-63 0 l0 344 l-156 -61 l0 -359 q0 -43 16 -56 q16 -14 69 -14 l266 0 Z" /><glyph glyph-name="" unicode="&#x4ed7;" d="M364 809 q-47 -113 -107 -211 l0 -672 l-66 0 l0 573 q-65 -88 -125 -145 q-16 36 -42 64 q177 160 277 411 l63 -20 ZM727 550 q0 -252 -100 -401 q125 -125 341 -168 q-25 -24 -42 -59 q-208 48 -340 175 q-88 -103 -244 -175 q-16 29 -47 54 q157 71 244 173 q-98 126 -148 321 l60 14 q43 -170 128 -281 q81 128 81 347 l0 10 l-334 0 l0 63 l334 0 l0 209 l67 0 l0 -209 l228 0 l0 -63 l-228 0 l0 -10 Z" /><glyph glyph-name="" unicode="&#x4ed8;" d="M366 809 q-46 -114 -108 -222 l0 -661 l-67 0 l0 558 q-50 -70 -107 -129 q-17 35 -42 65 q164 155 259 409 l65 -20 ZM949 546 l-129 0 l0 -528 q0 -68 -51 -84 q-40 -13 -211 -11 q-9 31 -27 66 q118 -4 190 -1 q32 1 32 30 l0 528 l-408 0 l0 67 l408 0 l0 210 l67 0 l0 -210 l129 0 l0 -67 ZM559 157 q-42 87 -148 251 l57 27 q99 -147 152 -244 l-61 -34 Z" /><glyph glyph-name="" unicode="&#x4ed9;" d="M334 815 q-45 -119 -99 -217 l0 -673 l-63 0 l0 569 q-49 -72 -97 -125 q-18 40 -38 64 q149 157 235 401 l62 -19 ZM915 608 l0 -682 l-67 0 l0 63 l-484 0 l0 616 l66 0 l0 -554 l172 0 l0 769 l67 0 l0 -769 l179 0 l0 557 l67 0 Z" /><glyph glyph-name="" unicode="&#x4ee3;" d="M879 615 q-58 78 -166 165 l48 31 q109 -84 169 -159 l-51 -37 ZM382 805 q-49 -112 -110 -205 l0 -673 l-67 0 l0 578 q-65 -86 -140 -153 q-16 34 -39 63 q189 160 294 410 l62 -20 ZM644 469 q60 -453 216 -466 q40 -3 57 175 q18 -18 55 -34 q-28 -222 -110 -219 q-217 16 -282 537 l-248 -32 l-10 63 l250 31 q-13 137 -21 297 l67 0 q4 -143 19 -289 l303 37 l10 -61 l-306 -39 Z" /><glyph glyph-name="" unicode="&#x4ee4;" d="M847 349 q-100 -106 -281 -284 q70 -53 113 -91 l-51 -54 q-111 109 -316 236 l47 46 q73 -43 153 -99 q126 120 209 208 l-550 0 l0 64 l616 0 l11 4 l49 -30 ZM555 406 q-51 75 -152 156 l48 37 q111 -89 155 -151 l-51 -42 ZM570 806 l-26 -33 q172 -184 424 -283 q-25 -20 -49 -60 q-239 110 -415 297 q-176 -188 -416 -298 q-22 32 -48 54 q307 131 470 355 l60 -32 Z" /><glyph glyph-name="" unicode="&#x4ee5;" d="M528 476 q-43 103 -149 238 l55 29 q105 -125 154 -232 l-60 -35 ZM475 266 q3 -21 17 -62 q-314 -148 -347 -177 q-12 30 -37 55 q57 31 57 87 l0 587 l71 0 l0 -600 l239 110 ZM833 793 q-24 -384 -109 -564 q166 -157 236 -260 l-57 -43 q-67 104 -209 244 q-98 -161 -299 -252 q-16 28 -49 57 q229 90 321 291 q77 170 96 531 l70 -4 Z" /><glyph glyph-name="" unicode="&#x4eea;" d="M656 579 q-34 91 -114 206 l53 26 q86 -118 117 -200 l-56 -32 ZM336 813 q-44 -112 -105 -216 l0 -670 l-63 0 l0 572 q-49 -71 -107 -132 q-21 44 -39 64 q160 155 251 401 l63 -19 ZM907 766 q-72 -392 -236 -590 q117 -134 290 -195 q-29 -25 -47 -58 q-173 68 -289 201 q-125 -127 -313 -200 q-10 19 -40 51 q191 72 313 199 q-149 202 -218 580 l64 8 q60 -344 200 -535 q147 188 211 552 l65 -13 Z" /><glyph glyph-name="" unicode="&#x4eec;" d="M292 813 q-28 -103 -76 -215 l0 -673 l-64 0 l0 542 q-39 -68 -74 -114 q-15 38 -37 65 q119 154 191 411 l60 -16 ZM343 638 l65 0 l0 -714 l-65 0 l0 714 ZM437 834 q79 -108 119 -191 l-55 -31 q-36 83 -116 196 l52 26 ZM918 13 q0 -59 -40 -74 q-29 -12 -157 -12 q-5 28 -23 64 q95 -3 131 -1 q23 1 23 23 l0 724 l-276 0 l0 61 l342 0 l0 -785 Z" /><glyph glyph-name="" unicode="&#x4ef0;" d="M307 818 q-27 -88 -79 -202 l0 -692 l-64 0 l0 571 q-43 -74 -93 -135 q-23 46 -37 65 q133 156 213 411 l60 -18 ZM611 764 q-89 -40 -205 -71 l0 -516 l163 56 q2 -27 8 -55 q-212 -81 -237 -102 q-13 30 -33 50 q38 25 38 77 l0 526 q146 43 218 84 l48 -49 ZM919 175 q0 -53 -33 -69 q-31 -12 -138 -12 q-3 26 -22 64 q74 -3 111 0 q18 0 18 18 l0 492 l-174 0 l0 -743 l-64 0 l0 803 l302 0 l0 -553 Z" /><glyph glyph-name="" unicode="&#x4ef2;" d="M331 816 q-38 -108 -97 -218 l0 -672 l-64 0 l0 566 q-44 -69 -93 -122 q-19 36 -39 63 q147 155 231 402 l62 -19 ZM866 312 l0 255 l-205 0 l0 -255 l205 0 ZM595 312 l0 255 l-201 0 l0 -255 l201 0 ZM932 629 l0 -437 l-66 0 l0 58 l-205 0 l0 -324 l-66 0 l0 324 l-201 0 l0 -64 l-63 0 l0 443 l264 0 l0 196 l66 0 l0 -196 l271 0 Z" /><glyph glyph-name="" unicode="&#x4ef6;" d="M337 813 q-44 -116 -100 -218 l0 -669 l-63 0 l0 566 q-44 -66 -98 -126 q-15 34 -38 65 q151 156 236 401 l63 -19 ZM947 272 l-274 0 l0 -348 l-66 0 l0 348 l-289 0 l0 64 l289 0 l0 229 l-164 0 q-32 -92 -74 -156 q-32 22 -57 34 q83 117 123 343 l63 -12 q-15 -84 -35 -145 l144 0 l0 194 l66 0 l0 -194 l231 0 l0 -64 l-231 0 l0 -229 l274 0 l0 -64 Z" /><glyph glyph-name="" unicode="&#x4ef7;" d="M337 816 q-44 -118 -97 -216 l0 -675 l-67 0 l0 563 q-41 -64 -90 -118 q-21 40 -39 64 q144 150 231 401 l62 -19 ZM442 451 l67 0 l0 -137 q0 -264 -176 -397 q-16 24 -48 46 q157 110 157 352 l0 136 ZM726 452 l67 0 l0 -525 l-67 0 l0 525 ZM669 825 l-21 -45 q120 -201 317 -306 q-15 -11 -47 -51 q-172 101 -302 298 q-119 -195 -315 -313 q-13 29 -41 51 q243 141 340 378 l69 -12 Z" /><glyph glyph-name="" unicode="&#x4efb;" d="M365 816 q-44 -106 -108 -213 l0 -679 l-66 0 l0 580 q-60 -81 -123 -143 q-22 41 -43 65 q176 159 276 410 l64 -20 ZM669 344 l0 -317 l271 0 l0 -64 l-600 0 l0 64 l262 0 l0 317 l-300 0 l0 64 l300 0 l0 272 q-110 -19 -246 -36 q-2 18 -20 56 q361 48 528 109 l49 -55 q-77 -27 -244 -62 l0 -284 l288 0 l0 -64 l-288 0 Z" /><glyph glyph-name="" unicode="&#x4efd;" d="M328 813 q-41 -114 -94 -215 l0 -674 l-66 0 l0 561 q-36 -56 -89 -119 q-14 31 -39 65 q143 153 226 401 l62 -19 ZM573 795 q-75 -269 -245 -415 q-15 32 -42 57 q156 124 222 372 l65 -14 ZM847 444 q0 -23 -1 -32 q-20 -402 -60 -450 q-22 -27 -64 -30 q-44 -4 -114 1 q-4 36 -19 62 q58 -5 106 -5 q24 0 35 13 q31 33 50 379 l-186 0 q-39 -333 -242 -459 q-20 30 -46 49 q191 106 223 410 l-135 0 l0 62 l453 0 ZM748 815 q60 -243 219 -371 q-34 -24 -46 -55 q-169 143 -233 415 l60 11 Z" /><glyph glyph-name="" unicode="&#x4eff;" d="M635 665 q-10 50 -46 153 l64 14 q40 -106 50 -148 l-68 -19 ZM336 815 q-43 -117 -101 -221 l0 -668 l-64 0 l0 563 q-42 -63 -93 -121 q-22 40 -40 65 q148 154 234 400 l64 -18 ZM569 594 q-4 -102 -8 -153 l319 0 l0 -31 q-20 -400 -59 -446 q-23 -27 -69 -30 q-29 -3 -132 1 q-2 34 -20 62 q54 -5 126 -5 q24 -1 37 12 q32 31 47 375 l-255 0 q-36 -325 -221 -456 q-16 25 -49 45 q127 87 175 268 q32 122 39 358 l-174 0 l0 65 l629 0 l0 -65 l-385 0 Z" /><glyph glyph-name="" unicode="&#x4f01;" d="M543 16 l387 0 l0 -62 l-847 0 l0 62 l129 0 l0 373 l66 0 l0 -373 l196 0 l0 550 l69 0 l0 -233 l293 0 l0 -61 l-293 0 l0 -256 ZM560 816 l-23 -32 q150 -180 430 -308 q-31 -27 -44 -55 q-263 130 -422 316 q-168 -203 -416 -315 q-15 26 -45 54 q309 129 461 369 l59 -29 Z" /><glyph glyph-name="" unicode="&#x4f0a;" d="M344 813 q-39 -98 -103 -207 l0 -681 l-64 0 l0 583 q-58 -81 -116 -138 q-17 40 -38 65 q164 153 259 397 l62 -19 ZM815 469 l-209 0 l0 -52 q0 -73 -7 -122 l216 0 l0 174 ZM606 531 l209 0 l0 172 l-209 0 l0 -172 ZM954 469 l-75 0 l0 -290 l-64 0 l0 54 l-226 0 q-48 -210 -258 -311 q-18 30 -44 51 q188 83 235 260 l-177 0 l0 62 l189 0 q6 50 6 122 l0 52 l-251 0 l0 62 l251 0 l0 172 l-180 0 l0 63 l519 0 l0 -235 l75 0 l0 -62 Z" /><glyph glyph-name="" unicode="&#x4f0d;" d="M338 814 q-38 -105 -96 -206 l0 -684 l-65 0 l0 579 q-46 -70 -113 -142 q-14 36 -37 64 q159 157 250 407 l61 -18 ZM576 381 q-27 -168 -62 -352 l241 0 q21 173 36 352 l-215 0 ZM957 29 l0 -62 l-661 0 l0 62 l149 0 q30 138 65 352 l-160 0 l0 63 l170 0 q20 125 38 247 l-218 0 l0 63 l586 0 l0 -63 l-302 0 q-14 -106 -37 -247 l215 0 l12 3 l48 -4 q-12 -171 -41 -414 l136 0 Z" /><glyph glyph-name="" unicode="&#x4f0f;" d="M849 596 q-40 77 -121 177 l50 30 q83 -97 125 -173 l-54 -34 ZM346 814 q-43 -109 -100 -208 l0 -680 l-66 0 l0 575 q-54 -78 -110 -136 q-20 43 -39 65 q159 156 252 404 l63 -20 ZM659 473 q79 -374 300 -491 q-32 -26 -49 -57 q-196 118 -285 432 q-55 -266 -274 -432 q-26 28 -54 44 q245 181 278 504 l-261 0 l0 66 l266 0 q1 24 1 68 l0 227 l67 0 l0 -228 q0 -44 -1 -67 l298 0 l0 -66 l-286 0 Z" /><glyph glyph-name="" unicode="&#x4f10;" d="M836 635 q-53 54 -171 146 l42 35 q104 -75 173 -139 l-44 -42 ZM364 811 q-50 -122 -106 -216 l0 -669 l-67 0 l0 567 q-45 -64 -109 -131 q-19 37 -40 64 q164 155 259 405 l63 -20 ZM896 451 q-77 -151 -205 -271 q71 -190 158 -190 q39 1 49 177 q26 -24 58 -35 q-10 -121 -33 -165 q-24 -44 -79 -44 q-124 0 -207 210 q-122 -101 -284 -173 q-22 37 -46 56 q176 69 308 181 q-44 136 -63 304 l-251 -26 l-7 63 l251 25 q-13 126 -15 261 l69 0 q0 -134 12 -254 l316 32 l6 -62 l-315 -33 q18 -144 52 -259 q101 101 163 225 l63 -22 Z" /><glyph glyph-name="" unicode="&#x4f11;" d="M365 808 q-45 -112 -110 -215 l0 -667 l-65 0 l0 572 q-57 -78 -124 -140 q-19 37 -42 66 q177 152 276 405 l65 -21 ZM697 515 q110 -273 277 -410 q-32 -23 -50 -53 q-156 143 -269 418 l0 -546 l-65 0 l0 525 q-110 -264 -269 -401 q-24 31 -50 51 q172 134 281 416 l-248 0 l0 64 l286 0 l0 243 l65 0 l0 -243 l294 0 l0 -64 l-252 0 Z" /><glyph glyph-name="" unicode="&#x4f17;" d="M561 814 q-12 -25 -27 -48 q146 -212 422 -285 q-23 -22 -46 -59 q-253 79 -409 294 q-143 -204 -403 -300 q-19 36 -47 61 q324 106 446 363 l64 -26 ZM466 89 q-62 76 -161 161 q-61 -206 -194 -319 q-22 20 -57 42 q187 140 229 506 l67 -6 q-9 -76 -28 -159 q135 -106 191 -177 l-47 -48 ZM709 467 q-8 -71 -19 -128 q76 -256 256 -348 q-19 -17 -46 -58 q-151 89 -234 299 q-57 -199 -192 -308 q-14 14 -56 42 q191 139 224 508 l67 -7 Z" /><glyph glyph-name="" unicode="&#x4f18;" d="M833 624 q-41 64 -135 152 l46 33 q90 -81 138 -147 l-49 -38 ZM340 815 q-41 -117 -105 -230 l0 -660 l-63 0 l0 559 q-42 -63 -90 -115 q-19 38 -39 63 q149 156 236 401 l61 -18 ZM848 14 q23 0 30 28 q7 28 9 125 q24 -18 59 -28 q-5 -112 -22 -149 q-19 -38 -71 -38 l-120 0 q-55 0 -75 21 q-19 20 -19 77 l0 404 l65 0 l0 -404 q0 -23 6 -29 q7 -7 30 -7 l108 0 ZM946 598 l0 -63 l-363 0 q-33 -444 -254 -605 q-19 28 -49 47 q210 147 237 558 l-225 0 l0 63 l229 0 q4 100 4 226 l66 0 q0 -132 -5 -226 l360 0 Z" /><glyph glyph-name="" unicode="&#x4f19;" d="M950 629 q-62 -170 -119 -279 l-58 20 q63 124 107 280 l70 -21 ZM327 358 q56 97 77 286 l63 -9 q-19 -196 -77 -303 l-63 26 ZM342 814 q-41 -111 -99 -212 l0 -676 l-68 0 l0 566 q-46 -67 -97 -121 q-15 37 -39 65 q150 150 240 398 l63 -20 ZM667 828 q-2 -285 -11 -387 q27 -185 95 -291 q75 -119 215 -163 q-29 -25 -44 -59 q-220 81 -292 345 q-64 -248 -294 -347 q-15 29 -45 53 q214 89 271 306 q34 129 35 543 l70 0 Z" /><glyph glyph-name="" unicode="&#x4f1a;" d="M92 334 l822 0 l0 -64 l-441 0 q-111 -147 -210 -239 l471 37 q-68 76 -121 127 l56 29 q154 -137 228 -263 l-59 -35 q-14 27 -57 83 q-589 -50 -622 -62 q-13 45 -23 69 q23 4 75 53 q85 78 173 201 l-292 0 l0 64 ZM569 807 l-29 -40 q166 -177 417 -266 q-25 -21 -47 -58 q-231 94 -407 279 q-94 -107 -237 -197 l474 0 l0 -62 l-477 0 l0 60 q-82 -52 -167 -91 q-21 33 -48 57 q322 138 457 345 l64 -27 Z" /><glyph glyph-name="" unicode="&#x4f1e;" d="M533 222 l411 0 l0 -64 l-411 0 l0 -234 l-68 0 l0 234 l-411 0 l0 64 l411 0 l0 369 l68 0 l0 -369 ZM262 506 q81 -118 108 -207 l-59 -27 q-27 93 -105 210 l56 24 ZM803 481 q-76 -143 -125 -210 l-52 23 q63 91 114 212 l63 -25 ZM568 811 q-23 -28 -30 -34 q156 -138 432 -234 q-28 -23 -44 -57 q-266 103 -429 249 q-171 -161 -416 -256 q-24 37 -45 58 q317 108 479 303 l53 -29 Z" /><glyph glyph-name="" unicode="&#x4f1f;" d="M343 814 q-45 -119 -103 -225 l0 -665 l-63 0 l0 563 q-41 -63 -94 -121 q-15 34 -38 65 q150 157 235 401 l63 -18 ZM939 337 l-2 -29 q-16 -243 -45 -274 q-18 -21 -51 -24 q-29 -3 -85 0 q-2 32 -16 59 q44 -4 75 -4 q19 0 26 10 q21 23 33 199 l-229 0 l0 -348 l-64 0 l0 348 l-276 0 l0 63 l276 0 l0 122 l-221 0 l0 62 l221 0 l0 118 l-246 0 l0 62 l246 0 l0 134 l64 0 l0 -134 l269 0 l0 -62 l-269 0 l0 -118 l241 0 l0 -62 l-241 0 l0 -122 l294 0 Z" /><glyph glyph-name="" unicode="&#x4f20;" d="M335 813 q-50 -123 -105 -218 l0 -669 l-64 0 l0 570 q-38 -56 -106 -130 q-17 39 -38 65 q159 156 250 401 l63 -19 ZM545 467 q-5 -18 -39 -125 l327 0 l10 5 l47 -30 q-77 -90 -221 -249 q74 -56 112 -94 l-50 -50 q-94 101 -258 205 l48 39 q43 -27 98 -63 q85 92 156 175 l-359 0 q14 38 61 187 l-184 0 l0 62 l203 0 l36 127 l-182 0 l0 61 l198 0 q17 60 30 114 l65 -9 l-28 -105 l289 0 l0 -61 l-306 0 q-18 -69 -36 -127 l387 0 l0 -62 l-404 0 Z" /><glyph glyph-name="" unicode="&#x4f24;" d="M338 815 q-46 -115 -108 -222 l0 -667 l-64 0 l0 568 q-55 -77 -103 -126 q-16 34 -39 65 q159 156 250 401 l64 -19 ZM902 423 q0 -21 -1 -31 q-13 -375 -47 -416 q-23 -26 -68 -29 q-48 -5 -143 2 q-2 34 -21 61 q73 -6 138 -6 q27 0 38 12 q27 29 38 345 l-222 0 q-45 -321 -272 -439 q-17 29 -43 49 q209 103 249 390 l-203 0 l0 62 l211 0 q6 74 9 150 l66 0 q-3 -84 -10 -150 l281 0 ZM926 686 l0 -63 l-459 0 q-51 -90 -112 -151 q-15 15 -54 41 q124 115 190 320 l64 -14 q-19 -64 -54 -133 l425 0 Z" /><glyph glyph-name="" unicode="&#x4f26;" d="M330 815 q-43 -115 -100 -220 l0 -669 l-64 0 l0 563 q-43 -65 -93 -120 q-22 42 -39 63 q149 157 234 402 l62 -19 ZM775 3 q40 0 52 25 q11 24 16 112 q25 -18 61 -25 q-8 -104 -31 -137 q-24 -35 -95 -35 l-225 0 q-80 0 -108 22 q-28 22 -28 86 l0 419 l66 0 l0 -216 q176 79 307 167 l43 -55 q-160 -99 -350 -177 l0 -138 q0 -30 13 -39 q14 -9 60 -9 l219 0 ZM678 828 l-26 -49 q129 -195 318 -300 q-25 -17 -47 -51 q-171 106 -305 296 q-122 -190 -313 -307 q-16 29 -44 49 q239 140 346 375 l71 -13 Z" /><glyph glyph-name="" unicode="&#x4f2a;" d="M443 608 q-25 58 -95 139 l54 27 q71 -79 100 -135 l-59 -31 ZM342 813 q-46 -115 -104 -214 l0 -673 l-63 0 l0 574 q-47 -68 -106 -129 q-17 38 -39 64 q158 155 249 397 l63 -19 ZM919 540 q-21 -513 -66 -567 q-24 -31 -73 -35 q-44 -4 -145 1 q-4 39 -21 65 q61 -5 139 -5 q28 0 40 14 q40 40 57 497 l-243 0 q-49 -410 -290 -578 q-23 30 -51 46 q229 151 274 532 l-225 0 l0 65 l232 0 q7 75 9 253 l68 0 q-2 -165 -10 -253 l305 0 l0 -35 ZM726 181 q-44 85 -125 176 l55 30 q88 -97 127 -172 l-57 -34 Z" /><glyph glyph-name="" unicode="&#x4f2f;" d="M345 818 q-40 -132 -104 -252 l0 -644 l-65 0 l0 536 q-45 -66 -96 -120 q-17 32 -42 59 q160 156 244 435 l63 -14 ZM808 38 l0 248 l-376 0 l0 -248 l376 0 ZM432 591 l0 -240 l376 0 l0 240 l-376 0 ZM876 654 l0 -721 l-68 0 l0 39 l-376 0 l0 -46 l-66 0 l0 728 l164 0 q35 93 55 182 l75 -13 q-29 -91 -62 -169 l278 0 Z" /><glyph glyph-name="" unicode="&#x4f30;" d="M335 813 q-40 -106 -105 -219 l0 -668 l-64 0 l0 569 q-46 -66 -105 -129 q-18 40 -39 65 q160 155 251 401 l62 -19 ZM826 278 l-377 0 l0 -248 l377 0 l0 248 ZM669 550 l0 -209 l225 0 l0 -413 l-68 0 l0 39 l-377 0 l0 -43 l-65 0 l0 417 l217 0 l0 209 l-276 0 l0 64 l276 0 l0 220 l68 0 l0 -220 l287 0 l0 -64 l-287 0 Z" /><glyph glyph-name="" unicode="&#x4f34;" d="M865 759 q-57 -132 -117 -230 q-15 12 -57 30 q58 84 114 217 l60 -17 ZM467 529 q-37 82 -128 219 l53 24 q89 -123 130 -212 l-55 -31 ZM300 813 q-28 -94 -74 -200 l0 -689 l-64 0 l0 561 q-38 -69 -87 -131 q-16 38 -36 65 q126 157 201 411 l60 -17 ZM943 217 l-302 0 l0 -291 l-66 0 l0 291 l-291 0 l0 62 l291 0 l0 158 l-250 0 l0 63 l250 0 l0 336 l66 0 l0 -336 l261 0 l0 -63 l-261 0 l0 -158 l302 0 l0 -62 Z" /><glyph glyph-name="" unicode="&#x4f36;" d="M336 813 q-42 -108 -105 -217 l0 -670 l-65 0 l0 569 q-49 -72 -105 -129 q-18 40 -39 65 q160 155 251 401 l63 -19 ZM869 342 q-79 -135 -231 -283 q75 -56 111 -91 l-47 -44 q-89 87 -268 208 l45 38 q78 -52 106 -73 q101 89 185 210 l-406 0 l0 62 l447 0 l12 4 l46 -31 ZM584 555 q66 -63 105 -115 l-54 -34 q-44 62 -103 122 l52 27 ZM660 816 l-18 -35 q118 -195 305 -300 q-27 -25 -48 -53 q-161 103 -289 301 q-118 -184 -304 -306 q-18 27 -47 47 q233 146 338 365 l63 -19 Z" /><glyph glyph-name="" unicode="&#x4f38;" d="M352 814 q-38 -101 -105 -217 l0 -671 l-63 0 l0 573 q-52 -75 -107 -133 q-18 40 -39 65 q160 155 251 401 l63 -18 ZM851 267 l0 158 l-182 0 l0 -158 l182 0 ZM602 267 l0 158 l-176 0 l0 -158 l176 0 ZM426 640 l0 -154 l176 0 l0 154 l-176 0 ZM669 640 l0 -154 l182 0 l0 154 l-182 0 ZM914 702 l0 -546 l-63 0 l0 49 l-182 0 l0 -281 l-67 0 l0 281 l-176 0 l0 -54 l-62 0 l0 551 l238 0 l0 132 l67 0 l0 -132 l245 0 Z" /><glyph glyph-name="" unicode="&#x4f3a;" d="M331 813 q-41 -108 -102 -216 l0 -671 l-64 0 l0 571 q-48 -70 -105 -130 q-20 43 -38 64 q158 155 249 401 l60 -19 ZM779 556 l-447 0 l0 59 l447 0 l0 -59 ZM437 393 l0 -205 l217 0 l0 205 l-217 0 ZM437 130 l0 -70 l-62 0 l0 391 l341 0 l0 -321 l-279 0 ZM919 16 q0 -63 -43 -80 q-36 -12 -183 -12 q-9 41 -23 68 q113 -3 157 -1 q25 1 25 25 l0 704 l-508 0 l0 61 l575 0 l0 -765 Z" /><glyph glyph-name="" unicode="&#x4f3c;" d="M616 411 q-33 139 -126 312 l55 20 q97 -171 131 -307 l-60 -25 ZM300 812 q-30 -95 -78 -197 l0 -691 l-64 0 l0 572 q-45 -77 -100 -143 q-15 39 -36 66 q136 157 218 411 l60 -18 ZM617 281 q6 -29 19 -59 q-245 -170 -268 -200 q-14 32 -37 59 q34 31 34 83 l0 603 l65 0 l0 -613 l187 127 ZM901 -44 q-33 111 -115 282 q-64 -196 -208 -309 q-16 23 -53 51 q152 107 212 322 q48 169 59 506 l67 -2 q-12 -310 -51 -480 q110 -203 151 -338 l-62 -32 Z" /><glyph glyph-name="" unicode="&#x4f43;" d="M333 813 q-44 -115 -106 -220 l0 -667 l-64 0 l0 568 q-48 -68 -104 -126 q-17 37 -38 63 q160 155 251 401 l61 -19 ZM846 49 l0 304 l-183 0 l0 -304 l183 0 ZM422 49 l176 0 l0 304 l-176 0 l0 -304 ZM422 713 l0 -295 l176 0 l0 295 l-176 0 ZM846 713 l-183 0 l0 -295 l183 0 l0 295 ZM912 777 l0 -844 l-66 0 l0 51 l-424 0 l0 -60 l-63 0 l0 853 l553 0 Z" /><glyph glyph-name="" unicode="&#x4f46;" d="M806 700 l-344 0 l0 -204 l344 0 l0 204 ZM806 434 l-344 0 l0 -210 l344 0 l0 210 ZM876 162 l-482 0 l0 601 l482 0 l0 -601 ZM348 812 q-42 -109 -105 -216 l0 -670 l-65 0 l0 570 q-52 -74 -108 -131 q-17 39 -39 66 q162 157 254 401 l63 -20 ZM963 28 l0 -63 l-656 0 l0 63 l656 0 Z" /><glyph glyph-name="" unicode="&#x4f4d;" d="M621 666 q-16 76 -48 158 l62 17 q37 -98 51 -156 l-65 -19 ZM909 588 l-538 0 l0 64 l538 0 l0 -64 ZM507 79 q-18 209 -70 430 l60 12 q57 -227 76 -423 l-66 -19 ZM355 814 q-38 -101 -103 -214 l0 -674 l-66 0 l0 570 q-41 -59 -106 -130 q-17 39 -38 65 q158 155 251 401 l62 -18 ZM951 30 l0 -64 l-624 0 l0 64 l351 0 q61 222 98 501 l69 -13 q-49 -287 -105 -488 l211 0 Z" /><glyph glyph-name="" unicode="&#x4f4e;" d="M333 814 q-35 -99 -97 -214 l0 -674 l-64 0 l0 569 q-51 -76 -108 -138 q-20 43 -38 64 q157 162 246 411 l61 -18 ZM628 146 q60 -99 93 -186 l-52 -19 q-26 79 -90 189 l49 16 ZM670 451 q-12 122 -18 265 q-110 -24 -211 -38 l0 -227 l229 0 ZM740 389 q44 -374 133 -378 q27 -2 40 147 q20 -20 49 -32 q-25 -194 -89 -192 q-146 3 -196 455 l-236 0 l0 -376 l147 37 q0 -29 2 -55 q-206 -59 -228 -75 q-6 30 -25 57 q41 17 41 60 l0 690 q316 47 466 105 l58 -52 q-88 -29 -187 -52 q6 -151 18 -277 l214 0 l0 -62 l-207 0 Z" /><glyph glyph-name="" unicode="&#x4f4f;" d="M634 651 q-23 68 -86 166 l60 22 q63 -91 90 -162 l-64 -26 ZM356 812 q-40 -104 -103 -214 l0 -672 l-67 0 l0 568 q-45 -65 -106 -128 q-20 43 -39 65 q160 155 251 401 l64 -20 ZM958 22 l0 -63 l-645 0 l0 63 l293 0 l0 263 l-233 0 l0 63 l233 0 l0 228 l-267 0 l0 63 l604 0 l0 -63 l-270 0 l0 -228 l240 0 l0 -63 l-240 0 l0 -263 l285 0 Z" /><glyph glyph-name="" unicode="&#x4f51;" d="M344 816 q-40 -101 -103 -207 l0 -683 l-64 0 l0 585 q-58 -81 -116 -138 q-20 44 -38 64 q166 156 259 398 l62 -19 ZM520 307 l0 -254 l325 0 l0 254 l-325 0 ZM585 575 q-39 -120 -82 -205 l409 0 l0 -433 l-67 0 l0 54 l-325 0 l0 -63 l-65 0 l0 358 q-66 -102 -149 -169 q-20 29 -43 51 q167 134 254 407 l-216 0 l0 65 l235 0 q26 105 40 193 l67 -11 q-13 -81 -40 -182 l355 0 l0 -65 l-373 0 Z" /><glyph glyph-name="" unicode="&#x4f53;" d="M320 814 q-39 -113 -91 -216 l0 -672 l-63 0 l0 563 q-38 -63 -90 -123 q-12 32 -39 65 q141 155 221 401 l62 -18 ZM692 566 q105 -293 275 -424 q-30 -24 -51 -53 q-164 145 -269 446 l0 -362 l166 0 l0 -60 l-166 0 l0 -184 l-64 0 l0 184 l-170 0 l0 60 l170 0 l0 358 q-107 -296 -274 -444 q-26 32 -48 50 q173 137 279 429 l-243 0 l0 64 l286 0 l0 203 l64 0 l0 -203 l303 0 l0 -64 l-258 0 Z" /><glyph glyph-name="" unicode="&#x4f55;" d="M334 815 q-37 -102 -91 -204 l0 -686 l-66 0 l0 575 q-46 -70 -97 -127 q-13 33 -38 64 q144 152 230 397 l62 -19 ZM434 467 l0 -222 l183 0 l0 222 l-183 0 ZM434 186 l0 -71 l-63 0 l0 411 l308 0 l0 -340 l-245 0 ZM958 673 l-75 0 l0 -653 q0 -66 -48 -82 q-44 -14 -200 -12 q-4 30 -25 69 q135 -5 180 -1 q27 0 27 26 l0 653 l-478 0 l0 64 l619 0 l0 -64 Z" /><glyph glyph-name="" unicode="&#x4f59;" d="M341 184 q-93 -126 -228 -222 q-27 29 -52 45 q134 84 218 199 l62 -22 ZM539 273 l0 -266 q0 -56 -40 -71 q-34 -12 -159 -12 q-6 30 -27 64 q100 -3 135 -1 q22 1 22 20 l0 266 l-374 0 l0 63 l374 0 l0 133 l-229 0 l0 61 l518 0 l0 -61 l-220 0 l0 -133 l373 0 l0 -63 l-373 0 ZM703 209 q140 -107 217 -203 l-57 -41 q-68 93 -214 211 l54 33 ZM556 816 l-18 -21 q150 -171 434 -288 q-26 -20 -45 -56 q-270 122 -427 299 q-180 -194 -424 -311 q-30 40 -46 54 q306 133 474 352 l52 -29 Z" /><glyph glyph-name="" unicode="&#x4f5b;" d="M334 813 q-47 -118 -104 -215 l0 -672 l-64 0 l0 573 q-48 -69 -107 -133 q-18 40 -39 65 q160 155 251 401 l63 -19 ZM669 295 l0 138 l-123 0 l0 -54 q0 -43 -3 -84 l126 0 ZM483 295 q3 41 3 84 l0 54 l-103 0 q-13 -85 -24 -138 l124 0 ZM546 492 l123 0 l0 138 l-123 0 l0 -138 ZM728 630 l0 -138 l123 0 l0 138 l-123 0 ZM941 295 q0 -17 -1 -27 q-7 -208 -30 -235 q-15 -19 -48 -22 q-30 -3 -90 0 q-2 34 -15 57 q35 -4 77 -4 q20 0 26 8 q14 16 19 164 l-151 0 l0 -311 l-59 0 l0 311 l-132 0 q-32 -216 -218 -314 q-25 30 -43 44 q169 91 199 270 l-188 0 q27 115 46 256 l153 0 l0 138 l-172 0 l0 58 l172 0 l0 136 l60 0 l0 -136 l123 0 l0 136 l59 0 l0 -136 l183 0 l0 -255 l-183 0 l0 -138 l213 0 Z" /><glyph glyph-name="" unicode="&#x4f5c;" d="M356 812 q-44 -110 -103 -215 l0 -671 l-67 0 l0 568 q-45 -65 -106 -128 q-20 43 -39 65 q160 155 251 401 l64 -20 ZM643 604 l0 -150 l292 0 l0 -62 l-292 0 l0 -158 l305 0 l0 -63 l-305 0 l0 -246 l-67 0 l0 679 l-74 0 q-65 -123 -144 -211 q-30 30 -52 45 q140 143 221 384 l64 -16 q-19 -52 -57 -138 l423 0 l0 -64 l-314 0 Z" /><glyph glyph-name="" unicode="&#x4f60;" d="M334 813 q-47 -118 -104 -215 l0 -672 l-64 0 l0 573 q-48 -69 -107 -133 q-18 40 -39 65 q160 155 251 401 l63 -19 ZM518 400 q-50 -208 -147 -341 q-38 26 -57 37 q90 110 140 317 l64 -13 ZM680 579 l0 -572 q0 -55 -33 -70 q-31 -14 -130 -14 q-7 33 -24 68 q24 -1 105 -1 q17 0 17 17 l0 572 l-159 0 q-43 -100 -97 -176 q-40 33 -54 42 q107 134 163 386 l65 -15 q-27 -105 -53 -175 l418 0 l11 3 l44 -11 q-20 -120 -44 -209 l-56 11 q10 48 27 144 l-200 0 ZM818 420 q100 -182 128 -336 l-63 -21 q-30 160 -124 338 l59 19 Z" /><glyph glyph-name="" unicode="&#x4f63;" d="M334 813 q-44 -113 -104 -216 l0 -671 l-64 0 l0 572 q-49 -71 -107 -132 q-18 40 -39 65 q161 156 251 401 l63 -19 ZM862 298 l0 169 l-191 0 l0 -169 l191 0 ZM608 298 l0 169 l-180 0 l0 -65 q0 -50 -3 -104 l183 0 ZM428 698 l0 -171 l180 0 l0 171 l-180 0 ZM862 698 l-191 0 l0 -171 l191 0 l0 171 ZM925 8 q0 -53 -33 -70 q-29 -12 -138 -12 q-5 32 -21 63 q80 -3 110 -1 q19 1 19 20 l0 230 l-191 0 l0 -303 l-63 0 l0 303 l-188 0 q-24 -204 -110 -316 q-18 24 -50 42 q104 135 104 438 l0 357 l561 0 l0 -751 Z" /><glyph glyph-name="" unicode="&#x4f69;" d="M282 814 q-26 -97 -69 -203 l0 -684 l-60 0 l0 558 q-40 -73 -83 -130 q-10 27 -36 67 q123 152 189 408 l59 -16 ZM426 621 l337 0 l0 -55 l-136 0 l0 -110 l127 0 l0 -342 q0 -34 -20 -46 q-17 -9 -70 -9 q-6 27 -18 46 q26 -1 52 -1 q9 1 9 10 l0 299 l-86 0 l0 -478 l-47 0 l0 478 l-90 0 l0 -358 l-46 0 l0 401 l130 0 l0 110 l-142 0 l0 55 ZM870 785 q-4 -422 0 -557 q6 -239 35 -239 q15 0 17 173 q17 -24 38 -39 q-5 -117 -15 -154 q-13 -41 -46 -41 q-65 0 -80 221 q-7 96 -8 578 l-429 0 l0 -219 q0 -387 -90 -584 q-23 24 -48 34 q81 180 81 550 l0 277 l545 0 Z" /><glyph glyph-name="" unicode="&#x4f73;" d="M597 639 l-220 0 l0 62 l220 0 l0 135 l66 0 l0 -135 l227 0 l0 -62 l-227 0 l0 -150 l272 0 l0 -63 l-606 0 l0 63 l268 0 l0 150 ZM337 814 q-37 -106 -98 -220 l0 -670 l-65 0 l0 561 q-43 -65 -89 -118 q-15 32 -39 64 q145 153 228 401 l63 -18 ZM956 27 l0 -65 l-661 0 l0 65 l302 0 l0 175 l-240 0 l0 63 l240 0 l0 120 l66 0 l0 -120 l244 0 l0 -63 l-244 0 l0 -175 l293 0 Z" /><glyph glyph-name="" unicode="&#x4f7f;" d="M345 818 q-40 -103 -104 -209 l0 -689 l-64 0 l0 592 q-56 -80 -115 -137 q-17 40 -38 65 q163 151 259 397 l62 -19 ZM600 344 q1 18 1 52 l0 106 l-189 0 l0 -158 l188 0 ZM666 502 l0 -107 q0 -34 -1 -51 l195 0 l0 158 l-194 0 ZM661 287 q-14 -118 -68 -196 q150 -83 374 -109 q-21 -19 -40 -60 q-223 33 -373 123 q-78 -80 -230 -125 q-15 32 -40 55 q142 38 216 106 q-94 68 -149 165 l55 18 q47 -77 133 -139 q45 63 57 162 l-245 0 l0 271 l250 0 l0 103 l-281 0 l0 61 l281 0 l0 110 l65 0 l0 -110 l292 0 l0 -61 l-292 0 l0 -103 l258 0 l0 -271 l-263 0 Z" /><glyph glyph-name="" unicode="&#x4f84;" d="M873 395 q-18 38 -41 73 q-450 -30 -483 -42 q-4 22 -23 66 q39 6 60 29 q41 38 151 195 l-193 0 l0 61 l590 0 l0 -61 l-318 0 q-120 -164 -158 -211 l339 20 q-40 62 -85 120 l56 26 q116 -146 163 -245 l-58 -31 ZM331 815 q-45 -123 -101 -223 l0 -666 l-65 0 l0 559 q-42 -64 -90 -117 q-11 29 -38 65 q148 158 231 401 l63 -19 ZM954 23 l0 -62 l-656 0 l0 62 l297 0 l0 190 l-236 0 l0 60 l236 0 l0 143 l66 0 l0 -143 l247 0 l0 -60 l-247 0 l0 -190 l293 0 Z" /><glyph glyph-name="" unicode="&#x4f88;" d="M532 683 q-82 -71 -189 -127 q-14 24 -44 45 q193 90 290 234 l68 -14 q-28 -40 -67 -82 l230 0 l12 3 l42 -25 q-133 -261 -541 -358 q-10 27 -33 52 q143 31 258 91 q-48 41 -102 73 l51 33 q50 -26 109 -74 q107 67 164 149 l-248 0 ZM341 813 q-43 -112 -105 -220 l0 -667 l-65 0 l0 565 q-50 -72 -107 -132 q-15 39 -38 66 q161 159 252 407 l63 -19 ZM939 364 q-126 -349 -623 -444 q-10 29 -32 56 q211 33 357 123 q-59 56 -131 102 l50 33 q81 -50 134 -99 q106 82 157 191 l-245 0 q-104 -95 -244 -161 q-18 29 -44 47 q233 102 337 262 l71 -15 q-30 -42 -62 -75 l220 0 l12 3 l43 -23 Z" /><glyph glyph-name="" unicode="&#x4f8b;" d="M280 818 q-26 -92 -69 -195 l0 -696 l-62 0 l0 569 q-39 -69 -76 -117 q-12 35 -35 66 q114 139 182 389 l60 -16 ZM299 778 l346 0 l0 -62 l-170 0 q-16 -82 -39 -159 l136 0 l11 3 l38 -10 q-48 -459 -291 -628 q-21 36 -43 52 q112 69 185 226 q-45 43 -111 93 l36 46 q62 -43 100 -78 q40 103 58 235 l-137 0 q-49 -143 -112 -233 q-21 21 -51 41 q103 136 156 412 l-112 0 l0 62 ZM753 165 l-60 0 l0 553 l60 0 l0 -553 ZM918 832 l0 -813 q0 -60 -38 -74 q-29 -13 -151 -13 q-8 35 -22 65 q30 -1 127 -1 q22 1 22 22 l0 814 l62 0 Z" /><glyph glyph-name="" unicode="&#x4f8d;" d="M337 814 q-44 -112 -106 -220 l0 -668 l-63 0 l0 569 q-43 -62 -106 -129 q-18 40 -38 64 q160 158 250 402 l63 -18 ZM454 238 q93 -101 126 -174 l-58 -33 q-39 81 -123 176 l55 31 ZM807 447 l0 -116 l143 0 l0 -62 l-143 0 l0 -260 q0 -57 -39 -71 q-32 -11 -165 -11 q-4 28 -23 63 q91 -3 139 0 q21 0 21 19 l0 260 l-424 0 l0 62 l424 0 l0 116 l-438 0 l0 62 l293 0 l0 134 l-230 0 l0 61 l230 0 l0 126 l67 0 l0 -126 l240 0 l0 -61 l-240 0 l0 -134 l295 0 l0 -62 l-150 0 Z" /><glyph glyph-name="" unicode="&#x4f9b;" d="M338 814 q-45 -116 -104 -217 l0 -671 l-65 0 l0 570 q-46 -66 -106 -129 q-19 43 -38 65 q160 155 251 401 l62 -19 ZM549 159 q-75 -134 -190 -233 q-23 25 -53 42 q113 86 181 209 l62 -18 ZM765 175 q119 -114 179 -215 l-56 -37 q-53 99 -174 222 l51 30 ZM532 302 l202 0 l0 253 l-202 0 l0 -253 ZM956 302 l0 -65 l-646 0 l0 65 l157 0 l0 253 l-132 0 l0 64 l132 0 l0 205 l65 0 l0 -205 l202 0 l0 205 l65 0 l0 -205 l145 0 l0 -64 l-145 0 l0 -253 l157 0 Z" /><glyph glyph-name="" unicode="&#x4f9d;" d="M619 652 q-20 67 -71 159 l58 19 q53 -87 76 -155 l-63 -23 ZM336 816 q-44 -119 -106 -230 l0 -663 l-64 0 l0 561 q-40 -61 -90 -115 q-13 30 -38 64 q151 159 235 402 l63 -19 ZM948 438 q-98 -89 -215 -169 q99 -185 233 -262 q-25 -22 -48 -54 q-231 145 -339 558 q-48 -66 -101 -121 l0 -365 l182 66 q4 -32 11 -58 q-240 -90 -270 -110 l0 -1 q-12 28 -34 50 q46 32 46 82 l0 272 q-55 -51 -126 -100 q-23 33 -47 53 q194 120 311 305 l-253 0 l0 63 l642 0 l0 -63 l-313 0 l-5 -7 q35 -146 87 -259 q111 82 190 166 l49 -46 Z" /><glyph glyph-name="" unicode="&#x4fa0;" d="M329 817 q-44 -122 -98 -219 l0 -676 l-64 0 l0 570 q-43 -65 -93 -120 q-22 44 -37 63 q146 155 230 400 l62 -18 ZM662 291 q81 -241 301 -311 q-26 -20 -44 -55 q-204 75 -295 301 q-72 -201 -309 -303 q-21 32 -45 52 q256 103 304 316 l-277 0 l0 62 l287 0 q6 50 6 124 l0 151 l-260 0 l0 62 l260 0 l0 136 l67 0 l0 -136 l269 0 l0 -62 l-269 0 l0 -152 q0 -73 -6 -123 l297 0 l0 -62 l-286 0 ZM425 589 q55 -102 73 -182 l-60 -22 q-15 80 -69 185 l56 19 ZM731 402 q45 76 83 188 l64 -24 q-77 -155 -98 -185 l-49 21 Z" /><glyph glyph-name="" unicode="&#x4fa3;" d="M791 735 l-337 0 l0 -214 l337 0 l0 214 ZM857 460 l-465 0 l0 335 l465 0 l0 -335 ZM312 813 q-29 -90 -77 -195 l0 -694 l-66 0 l0 570 q-44 -73 -99 -140 q-25 51 -36 65 q136 157 218 411 l60 -17 ZM823 43 l0 234 l-408 0 l0 -234 l408 0 ZM892 338 l0 -404 l-69 0 l0 47 l-408 0 l0 -54 l-66 0 l0 411 l543 0 Z" /><glyph glyph-name="" unicode="&#x4fa5;" d="M499 708 q-18 66 -22 129 l67 0 q4 -63 20 -122 l337 33 l6 -59 l-325 -33 q24 -62 65 -123 q107 51 164 115 l59 -24 q-63 -73 -185 -136 q75 -80 153 -78 q22 0 31 22 q9 22 12 81 q23 -18 54 -27 q-9 -79 -30 -109 q-21 -28 -69 -28 q-113 0 -212 112 q-126 -52 -275 -84 q-31 45 -42 55 q152 25 281 76 q-44 64 -72 141 l-216 -21 l-6 59 l205 21 ZM329 816 q-37 -103 -95 -213 l0 -677 l-63 0 l0 571 q-46 -70 -97 -127 q-18 38 -37 66 q147 156 230 398 l62 -18 ZM866 -6 q20 0 26 19 q6 18 8 87 q24 -17 60 -25 q-5 -82 -23 -109 q-17 -28 -63 -28 l-122 0 q-56 0 -75 17 q-19 17 -19 67 l0 222 l-124 0 q-13 -134 -60 -203 q-54 -79 -179 -119 q-17 34 -41 53 q115 32 162 98 q41 57 51 171 l-193 0 l0 59 l661 0 l0 -59 l-209 0 l0 -221 q0 -18 6 -23 q7 -6 29 -6 l105 0 Z" /><glyph glyph-name="" unicode="&#x4fa6;" d="M432 146 l-61 0 l0 404 l195 0 l0 283 l64 0 l0 -87 l285 0 l0 -61 l-285 0 l0 -135 l244 0 l0 -403 l-64 0 l0 343 l-378 0 l0 -344 ZM344 815 q-41 -107 -104 -215 l0 -673 l-63 0 l0 575 q-46 -67 -109 -134 q-15 37 -38 64 q159 154 251 401 l63 -18 ZM586 419 l63 0 l0 -137 q0 -109 -52 -184 q-74 -106 -261 -171 q-16 31 -40 51 q179 56 246 148 q44 62 44 157 l0 136 ZM694 126 q160 -74 248 -151 l-40 -50 q-84 77 -245 158 l37 43 Z" /><glyph glyph-name="" unicode="&#x4fa7;" d="M352 156 l-55 0 l0 615 l333 0 l0 -614 l-57 0 l0 563 l-221 0 l0 -564 ZM271 820 q-28 -100 -68 -200 l0 -693 l-57 0 l0 568 q-37 -72 -79 -133 q-12 30 -36 62 q114 150 181 410 l59 -14 ZM489 316 q0 -276 -188 -392 q-10 20 -35 40 q170 105 170 353 l0 331 l53 0 l0 -332 ZM521 130 q84 -88 132 -162 l-44 -33 q-42 76 -128 169 l40 26 ZM769 148 l-54 0 l0 592 l54 0 l0 -592 ZM918 828 l0 -823 q0 -52 -32 -65 q-26 -12 -130 -12 q-3 21 -18 58 q25 -1 104 -1 q20 1 20 20 l0 823 l56 0 Z" /><glyph glyph-name="" unicode="&#x4fa8;" d="M331 813 q-43 -110 -103 -217 l0 -671 l-62 0 l0 573 q-53 -77 -107 -132 q-13 35 -37 65 q159 156 248 400 l61 -18 ZM453 333 l64 0 l0 -60 q0 -228 -170 -354 q-14 23 -49 43 q155 111 155 313 l0 58 ZM710 332 l65 0 l0 -406 l-65 0 l0 406 ZM733 510 q92 -132 232 -191 q-23 -20 -44 -50 q-160 78 -253 241 l-105 0 q-88 -160 -268 -248 q-12 24 -41 53 q153 67 235 195 l-195 0 l0 60 l229 0 q32 67 49 141 q-98 -10 -199 -15 q-2 20 -18 56 q324 20 477 62 l39 -56 q-86 -23 -232 -40 q-16 -78 -47 -148 l339 0 l0 -60 l-198 0 Z" /><glyph glyph-name="" unicode="&#x4fae;" d="M295 812 q-27 -92 -73 -196 l0 -692 l-64 0 l0 563 q-46 -79 -89 -133 q-12 31 -35 65 q130 162 200 411 l61 -18 ZM440 659 q-49 -99 -108 -169 q-28 21 -57 36 q108 114 170 310 l63 -16 q-22 -62 -38 -100 l455 0 l0 -61 l-485 0 ZM594 498 q81 -58 116 -114 l-40 -29 q-34 57 -114 117 l38 26 ZM651 132 q-40 62 -122 128 l40 26 q83 -62 124 -124 l-42 -30 ZM798 128 q6 43 15 163 l-373 0 q-10 -75 -23 -163 l381 0 ZM468 499 l-20 -147 l368 0 q4 52 7 147 l-355 0 ZM875 291 q-5 -89 -14 -163 l69 0 l0 -59 l-75 0 q-14 -81 -34 -105 q-23 -29 -68 -33 q-62 -2 -127 3 q-2 33 -17 57 q53 -5 120 -5 q25 -1 37 14 q14 15 24 69 l-448 0 q14 66 36 222 l-93 0 l0 61 l102 0 q17 120 25 206 l475 0 l0 -33 l-8 -173 l79 0 l0 -61 l-83 0 Z" /><glyph glyph-name="" unicode="&#x4faf;" d="M702 603 q4 23 10 64 l9 61 l-334 0 l0 58 l348 0 l11 4 l47 -6 q-10 -84 -27 -181 l175 0 l0 -59 l-646 0 l0 59 l407 0 ZM312 812 q-34 -109 -81 -211 l0 -677 l-65 0 l0 551 q-39 -69 -84 -125 q-20 42 -38 65 q129 154 207 414 l61 -17 ZM652 181 q68 -155 307 -198 q-23 -25 -37 -56 q-228 48 -315 216 q-64 -139 -290 -222 q-16 28 -42 49 q230 76 279 211 l-268 0 l0 60 l283 0 q3 27 3 51 l0 88 l-142 0 q-34 -55 -77 -98 q-25 21 -53 34 q92 84 141 218 l60 -17 q-14 -34 -36 -80 l419 0 l0 -57 l-246 0 l0 -89 q0 -23 -3 -50 l299 0 l0 -60 l-282 0 Z" /><glyph glyph-name="" unicode="&#x4fb5;" d="M867 488 l-488 0 l0 52 l426 0 l0 78 l-397 0 l0 51 l397 0 l0 78 l-426 0 l0 51 l488 0 l0 -310 ZM337 813 q-48 -120 -105 -217 l0 -669 l-63 0 l0 571 q-53 -77 -107 -132 q-17 39 -38 65 q159 156 250 400 l63 -18 ZM486 245 q52 -88 142 -150 q96 64 147 150 l-289 0 ZM859 284 q-52 -132 -177 -221 q110 -61 252 -85 q-22 -19 -41 -55 q-150 30 -267 103 q-125 -70 -298 -101 q-13 33 -31 54 q155 24 276 85 q-97 75 -150 177 l11 4 l-42 0 l0 54 l417 0 l12 3 l38 -18 ZM943 422 l0 -145 l-59 0 l0 94 l-517 0 l0 -95 l-58 0 l0 146 l634 0 Z" /><glyph glyph-name="" unicode="&#x4fbf;&#xf965;" d="M326 814 q-44 -123 -96 -222 l0 -665 l-64 0 l0 555 q-39 -62 -85 -116 q-12 28 -40 65 q141 154 222 401 l63 -18 ZM603 308 q1 18 1 56 l0 53 l-185 0 l0 -109 l184 0 ZM419 468 l185 0 l0 108 l-185 0 l0 -108 ZM669 576 l0 -108 l173 0 l0 108 l-173 0 ZM842 417 l-173 0 l0 -53 q0 -38 -2 -56 l175 0 l0 109 ZM662 255 q-17 -108 -80 -181 q152 -66 382 -83 q-25 -23 -39 -60 q-238 22 -390 98 q-80 -66 -227 -107 q-16 31 -39 55 q133 30 209 84 q-93 59 -147 146 l57 21 q47 -75 138 -126 q56 60 71 153 l-240 0 l0 374 l247 0 l0 88 l-276 0 l0 60 l615 0 l0 -60 l-274 0 l0 -88 l237 0 l0 -374 l-244 0 Z" /><glyph glyph-name="" unicode="&#x4fc3;" d="M300 814 q-32 -99 -76 -192 l0 -698 l-66 0 l0 573 q-46 -79 -100 -142 q-15 39 -36 66 q139 160 218 411 l60 -18 ZM445 514 l373 0 l0 215 l-373 0 l0 -215 ZM665 20 q52 -11 122 -11 q141 0 174 1 q-17 -34 -22 -63 l-157 0 q-131 0 -209 35 q-95 43 -149 149 q-40 -128 -116 -209 q-20 21 -53 40 q121 114 149 391 l64 -7 q-7 -65 -21 -128 q45 -132 152 -179 l0 415 l-218 0 l0 335 l503 0 l0 -335 l-219 0 l0 -158 l238 0 l0 -63 l-238 0 l0 -213 Z" /><glyph glyph-name="" unicode="&#x4fc4;" d="M885 587 q-34 86 -108 191 l51 21 q77 -106 109 -185 l-52 -27 ZM300 812 q-29 -92 -78 -197 l0 -691 l-64 0 l0 572 q-42 -74 -100 -143 q-15 39 -36 66 q136 157 218 411 l60 -18 ZM917 398 q-54 -132 -145 -247 q41 -164 101 -164 q31 0 37 169 q21 -22 50 -34 q-8 -115 -27 -156 q-20 -43 -68 -43 q-91 0 -142 169 q-67 -73 -148 -132 q-19 28 -45 48 q93 60 175 154 q-25 119 -38 304 l-168 0 l0 -160 q59 15 139 38 l7 -60 l-146 -42 l0 -233 q0 -55 -36 -70 q-29 -12 -139 -12 q-6 34 -22 63 q84 -3 114 -1 q20 1 20 20 l0 215 q-136 -38 -157 -43 l-19 64 q58 13 176 45 l0 176 l-168 0 l0 59 l168 0 l0 167 q-81 -21 -148 -35 q-3 24 -21 52 q222 51 321 100 l50 -50 q-70 -30 -139 -50 l0 -184 l166 0 q-6 118 -8 301 l65 0 q-2 -163 6 -301 l211 0 l0 -59 l-209 0 q10 -126 26 -238 q62 87 102 186 l59 -16 Z" /><glyph glyph-name="" unicode="&#x4fca;" d="M724 567 q140 -107 209 -179 l-50 -38 q-74 85 -205 185 l46 32 ZM859 549 q-14 25 -42 57 q-436 -33 -465 -45 q-10 36 -21 62 q21 2 59 37 q83 66 161 180 l63 -24 q-84 -106 -166 -177 l326 20 q-52 60 -92 102 l49 29 q118 -118 180 -206 l-52 -35 ZM549 531 q-96 -105 -210 -189 l-46 46 q115 74 198 167 l58 -24 ZM341 815 q-42 -112 -102 -219 l0 -670 l-64 0 l0 569 q-53 -76 -100 -126 q-18 40 -38 64 q155 158 242 401 l62 -19 ZM481 258 q47 -78 139 -144 q97 68 145 157 l-272 0 l-12 -13 ZM855 308 q-55 -136 -179 -229 q122 -69 270 -95 q-22 -23 -39 -56 q-159 34 -286 114 q-132 -79 -321 -117 q-10 29 -34 57 q175 29 300 99 q-79 63 -125 136 q-54 -50 -99 -83 q-21 25 -48 45 q154 99 241 248 l59 -21 q-27 -44 -55 -79 l261 0 l12 3 l43 -22 Z" /><glyph glyph-name="" unicode="&#x4fcf;" d="M928 781 q-61 -115 -116 -188 l-55 25 q69 100 107 189 l64 -26 ZM333 814 q-40 -114 -101 -225 l0 -662 l-64 0 l0 557 q-43 -64 -91 -118 q-8 21 -38 65 q148 156 233 401 l61 -18 ZM456 589 q-29 87 -102 188 l56 25 q77 -100 105 -184 l-59 -29 ZM828 204 l0 113 l-385 0 l0 -113 l385 0 ZM443 488 l0 -113 l385 0 l0 113 l-385 0 ZM892 12 q0 -56 -36 -70 q-29 -11 -154 -11 q-5 32 -21 63 q91 -3 127 -1 q20 1 20 20 l0 133 l-385 0 l0 -222 l-65 0 l0 627 l228 0 l0 285 l66 0 l0 -285 l220 0 l0 -539 Z" /><glyph glyph-name="" unicode="&#x4fd0;" d="M300 817 q-31 -98 -80 -208 l0 -682 l-62 0 l0 562 q-42 -75 -86 -129 q-13 30 -37 67 q128 152 204 407 l61 -17 ZM496 527 l147 0 l0 -61 l-147 0 l0 -20 q70 -81 145 -184 l-38 -55 q-29 48 -107 155 l0 -429 l-62 0 l0 406 q-72 -180 -157 -276 q-12 28 -36 60 q117 125 185 343 l-158 0 l0 61 l166 0 l0 170 q-67 -16 -140 -27 q-5 22 -20 49 q217 41 316 83 l47 -48 q-62 -23 -141 -43 l0 -184 ZM748 148 l-58 0 l0 577 l58 0 l0 -577 ZM917 823 l0 -811 q0 -55 -37 -72 q-31 -12 -144 -12 q-5 27 -20 64 q54 -2 119 -2 q20 1 20 22 l0 811 l62 0 Z" /><glyph glyph-name="" unicode="&#x4fd7;" d="M881 560 q-67 96 -207 230 l51 34 q151 -140 210 -224 l-54 -40 ZM566 803 q-83 -146 -208 -259 q-26 23 -55 40 q123 99 202 240 l61 -21 ZM327 813 q-43 -117 -98 -215 l0 -673 l-64 0 l0 568 q-45 -68 -98 -126 q-19 41 -39 64 q149 152 237 401 l62 -19 ZM441 237 l0 -212 l339 0 l0 212 l-339 0 ZM654 638 l-15 -31 q111 -192 328 -305 q-30 -24 -44 -54 q-205 121 -315 300 q-90 -150 -228 -251 l466 0 l0 -367 l-66 0 l0 35 l-339 0 l0 -42 l-64 0 l0 372 q-18 -14 -69 -45 q-15 26 -45 52 q225 116 332 358 l59 -22 Z" /><glyph glyph-name="" unicode="&#x4fd8;" d="M913 783 q-191 -53 -560 -73 q-2 19 -16 55 q372 24 532 70 l44 -52 ZM725 528 q59 90 102 196 l61 -26 q-65 -125 -111 -193 l-52 23 ZM607 518 q-16 66 -55 169 l57 17 q44 -110 57 -165 l-59 -21 ZM444 506 q-18 59 -73 161 l53 21 q50 -82 77 -157 l-57 -25 ZM320 814 q-39 -114 -91 -216 l0 -672 l-64 0 l0 558 q-37 -60 -85 -117 q-13 27 -38 64 q137 154 215 401 l63 -18 ZM929 195 l-271 0 l0 -199 q0 -47 -32 -61 q-25 -10 -124 -10 q-3 17 -22 58 q78 -2 97 0 q16 0 16 14 l0 198 l-287 0 l0 62 l287 0 l0 57 q80 47 147 116 l-366 0 l0 61 l423 0 l15 3 l43 -33 q-81 -93 -197 -169 l0 -35 l271 0 l0 -62 Z" /><glyph glyph-name="" unicode="&#x4fdd;" d="M344 813 q-45 -109 -103 -208 l0 -678 l-64 0 l0 579 q-51 -73 -113 -136 q-15 34 -38 65 q163 153 256 397 l62 -19 ZM443 536 l384 0 l0 192 l-384 0 l0 -192 ZM708 285 q105 -177 268 -265 q-26 -21 -47 -53 q-155 99 -262 281 l0 -324 l-67 0 l0 322 q-114 -185 -277 -277 q-23 34 -46 52 q167 82 282 264 l-255 0 l0 61 l296 0 l0 130 l-221 0 l0 312 l515 0 l0 -312 l-227 0 l0 -130 l283 0 l0 -61 l-242 0 Z" /><glyph glyph-name="" unicode="&#x4fe1;" d="M612 679 q-23 58 -70 133 l57 23 q50 -70 73 -130 l-60 -26 ZM321 814 q-32 -95 -86 -202 l0 -691 l-62 0 l0 582 q-38 -61 -98 -134 q-16 35 -38 62 q143 154 224 401 l60 -18 ZM429 187 l0 -167 l384 0 l0 167 l-384 0 ZM370 243 l503 0 l0 -316 l-60 0 l0 37 l-384 0 l0 -40 l-59 0 l0 319 ZM384 388 l479 0 l0 -56 l-479 0 l0 56 ZM863 472 l-479 0 l0 55 l479 0 l0 -55 ZM943 669 l0 -57 l-632 0 l0 57 l632 0 Z" /><glyph glyph-name="" unicode="&#x4fe9;" d="M286 813 q-27 -90 -67 -190 l0 -699 l-61 0 l0 570 q-40 -75 -87 -138 q-11 28 -36 64 q122 157 192 410 l59 -17 ZM679 704 l-121 0 l0 -147 l121 0 l0 147 ZM736 704 l0 -147 l176 0 l0 -544 q0 -52 -32 -66 q-30 -11 -135 -11 q-5 27 -20 61 q81 -3 110 -1 q18 0 18 18 l0 483 l-117 0 q-2 -59 -7 -107 q84 -141 112 -225 l-44 -38 q-28 81 -82 182 q-27 -140 -107 -235 q-15 22 -41 42 q108 121 112 381 l-122 0 q-2 -67 -9 -116 q55 -84 74 -133 l-37 -39 q-20 47 -50 100 q-31 -136 -106 -229 q-23 29 -43 41 q105 123 112 376 l-118 0 l0 -572 l-61 0 l0 632 l180 0 l0 147 l-200 0 l0 62 l643 0 l0 -62 l-206 0 Z" /><glyph glyph-name="" unicode="&#x4fed;" d="M311 815 q-35 -108 -89 -219 l0 -670 l-64 0 l0 554 q-42 -69 -89 -125 q-15 35 -36 67 q137 156 217 410 l61 -17 ZM641 820 q-9 -19 -18 -36 q124 -165 338 -278 q-23 -25 -35 -58 q-199 119 -336 284 q-118 -181 -309 -296 q-20 32 -40 54 q232 124 342 350 l58 -20 ZM799 466 l-388 0 l0 58 l388 0 l0 -58 ZM600 159 q-8 100 -44 236 l54 9 q36 -136 47 -234 l-57 -11 ZM404 379 q58 -141 75 -245 l-54 -17 q-18 110 -73 248 l52 14 ZM882 372 q-92 -216 -158 -331 l205 0 l0 -61 l-650 0 l0 61 l385 0 q89 153 155 348 l63 -17 Z" /><glyph glyph-name="" unicode="&#x4fee;" d="M302 811 q-27 -87 -79 -199 l0 -688 l-64 0 l0 570 q-42 -71 -99 -142 q-13 34 -36 67 q136 155 218 410 l60 -18 ZM308 558 l58 0 l0 -479 l-58 0 l0 479 ZM547 668 q53 -85 144 -146 q98 63 148 147 l-292 -1 ZM924 708 q-54 -128 -181 -218 q98 -54 224 -79 q-22 -21 -38 -54 q-129 30 -240 98 q-114 -66 -286 -104 q-17 38 -32 52 q150 27 268 88 q-78 60 -124 130 q-44 -59 -93 -105 q-32 29 -52 39 q128 107 197 281 l61 -16 q-21 -49 -46 -95 l293 0 l10 3 l39 -20 ZM844 264 q-109 -118 -341 -181 q-18 29 -36 45 q225 51 326 158 l51 -22 ZM749 364 q-88 -91 -258 -148 q-18 26 -38 40 q167 52 245 130 l51 -22 ZM947 154 q-139 -164 -499 -227 q-14 30 -35 54 q348 51 476 198 l58 -25 Z" /><glyph glyph-name="" unicode="&#x4fef;" d="M288 813 q-31 -104 -73 -204 l0 -683 l-62 0 l0 555 q-39 -71 -79 -125 q-15 36 -37 63 q119 152 191 411 l60 -17 ZM588 632 q-25 -91 -49 -150 l0 -554 l-58 0 l0 434 q-29 -50 -58 -86 q-8 19 -29 49 q95 121 137 321 l57 -14 ZM859 494 l88 0 l0 -57 l-88 0 l0 -436 q0 -50 -31 -62 q-26 -12 -127 -12 q-6 31 -20 58 q24 -1 102 -1 q18 1 18 17 l0 436 l-214 0 l0 57 l214 0 l0 142 l58 0 l0 -142 ZM707 136 q-27 80 -96 208 l48 21 q71 -127 98 -204 l-50 -25 ZM948 729 l0 -59 l-573 0 l0 -258 q0 -327 -74 -483 q-17 16 -52 33 q66 142 66 450 l0 317 l299 0 q-24 58 -45 98 l59 16 q31 -58 52 -114 l268 0 Z" /><glyph glyph-name="" unicode="&#x4ff1;" d="M335 816 q-43 -113 -103 -217 l0 -673 l-64 0 l0 574 q-49 -71 -107 -132 q-18 40 -39 65 q160 155 251 401 l62 -18 ZM556 103 q-81 -101 -228 -180 q-15 19 -43 45 q137 70 218 170 l53 -35 ZM736 137 q144 -94 217 -167 l-46 -47 q-63 68 -213 174 l42 40 ZM455 218 l337 0 l0 96 l-337 0 l0 -96 ZM455 742 l0 -92 l337 0 l0 92 l-337 0 ZM455 458 l0 -94 l337 0 l0 94 l-337 0 ZM792 600 l-337 0 l0 -92 l337 0 l0 92 ZM953 218 l0 -60 l-662 0 l0 60 l101 0 l0 580 l465 0 l0 -580 l96 0 Z" /><glyph glyph-name="" unicode="&#x4ffa;" d="M332 813 q-44 -114 -105 -222 l0 -665 l-64 0 l0 566 q-43 -65 -101 -126 q-19 40 -39 65 q156 154 246 401 l63 -19 ZM573 173 l0 99 l-146 0 l0 -99 l146 0 ZM544 653 q-49 -103 -117 -182 l146 0 l0 82 l63 0 l0 -82 l162 0 q-71 78 -118 182 l-136 0 ZM636 324 l156 0 l0 92 l-156 0 l0 -92 ZM427 324 l146 0 l0 92 l-146 0 l0 -92 ZM792 173 l0 99 l-156 0 l0 -99 l156 0 ZM636 118 l0 -88 q0 -28 10 -36 q10 -8 42 -8 l157 0 q27 0 36 23 q9 22 12 99 q22 -16 58 -24 q-6 -92 -26 -123 q-21 -33 -76 -33 l-166 0 q-65 0 -87 21 q-23 21 -23 81 l0 88 l-146 0 l0 -46 l-61 0 l0 337 q-37 -32 -72 -56 q-23 33 -46 51 q144 89 226 249 l-173 0 l0 60 l200 0 q20 48 39 123 l64 -13 q-15 -58 -36 -110 l381 0 l0 -60 l-205 0 q85 -169 227 -238 q-24 -19 -46 -51 q-38 22 -71 51 l0 -297 l-218 0 Z" /><glyph glyph-name="" unicode="&#x500d;" d="M926 664 l-576 0 l0 60 l259 0 q-8 43 -29 109 l61 10 q24 -61 36 -119 l249 0 l0 -60 ZM485 454 q-13 80 -62 178 l54 16 q50 -90 66 -175 l-58 -19 ZM333 815 q-44 -116 -103 -223 l0 -668 l-64 0 l0 565 q-39 -59 -93 -120 q-13 27 -38 64 q149 156 236 401 l62 -19 ZM460 229 l0 -199 l342 0 l0 199 l-342 0 ZM397 289 l470 0 l0 -361 l-65 0 l0 42 l-342 0 l0 -45 l-63 0 l0 364 ZM955 441 l0 -60 l-645 0 l0 60 l384 0 q44 88 86 212 l62 -17 q-48 -121 -85 -195 l198 0 Z" /><glyph glyph-name="" unicode="&#x5012;" d="M771 169 l-59 0 l0 585 l59 0 l0 -585 ZM291 814 q-29 -92 -77 -201 l0 -689 l-62 0 l0 569 q-40 -72 -95 -140 q-6 20 -34 67 q129 156 208 411 l60 -17 ZM490 110 q36 6 177 35 l4 -55 q-255 -55 -406 -85 l-12 60 q82 13 175 32 l0 161 l-149 0 l0 57 l149 0 l0 115 l62 0 l0 -115 l160 0 l0 -57 l-160 0 l0 -148 ZM564 649 q84 -115 118 -198 l-52 -25 q-10 30 -31 67 q-275 -40 -297 -52 q-7 33 -21 59 q19 4 41 43 q40 60 79 162 l-106 0 l0 57 l368 0 l0 -57 l-195 0 q-46 -109 -100 -190 l205 26 q-18 31 -56 88 l47 20 ZM915 807 l0 -777 q0 -57 -41 -71 q-33 -12 -156 -12 q-6 25 -26 61 q67 -2 139 -2 q23 1 23 23 l0 778 l61 0 Z" /><glyph glyph-name="" unicode="&#x5014;" d="M325 815 q-35 -105 -87 -208 l0 -681 l-64 0 l0 566 q-45 -71 -94 -130 q-10 23 -39 65 q137 151 221 405 l63 -17 ZM420 735 l0 -131 l433 0 l0 131 l-433 0 ZM420 547 l0 -58 q0 -378 -82 -565 q-20 22 -53 35 q73 169 73 530 l0 303 l557 0 l0 -245 l-495 0 ZM924 197 l0 -268 l-57 0 l0 37 l-399 0 l0 233 l57 0 l0 -177 l139 0 l0 235 l-178 0 l0 220 l55 0 l0 -165 l123 0 l0 203 l57 0 l0 -203 l129 0 l0 165 l57 0 l0 -220 l-186 0 l0 -235 l146 0 l0 175 l57 0 Z" /><glyph glyph-name="" unicode="&#x5018;" d="M908 780 q-78 -123 -149 -201 l-49 20 q82 98 135 203 l63 -22 ZM300 812 q-32 -104 -76 -204 l0 -684 l-64 0 l0 558 q-41 -71 -85 -129 q-14 36 -37 66 q126 155 202 411 l60 -18 ZM468 577 q-46 96 -137 198 l48 26 q95 -100 140 -194 l-51 -30 ZM542 320 l0 -159 l149 0 l0 159 l-149 0 ZM542 107 l0 -53 l-55 0 l0 320 l260 0 l0 -267 l-205 0 ZM902 6 q0 -54 -36 -69 q-27 -10 -157 -10 q-5 31 -21 60 q104 -2 129 0 q21 0 21 20 l0 457 l-440 0 l0 -540 l-64 0 l0 600 l248 0 l0 312 l67 0 l0 -312 l253 0 l0 -518 Z" /><glyph glyph-name="" unicode="&#x5019;" d="M947 544 l-547 0 l0 58 l367 0 q11 64 19 127 l-328 0 l0 57 l342 0 l11 4 l45 -6 q-13 -109 -27 -182 l118 0 l0 -58 ZM298 812 q-29 -100 -84 -223 l0 -667 l-64 0 l0 543 q-38 -65 -75 -112 q-15 38 -37 65 q126 156 198 411 l62 -17 ZM299 618 l59 0 l0 -500 l-59 0 l0 500 ZM716 187 q52 -153 246 -203 q-28 -22 -40 -54 q-172 48 -244 198 q-60 -132 -263 -206 q-15 29 -41 49 q221 72 258 216 l-230 0 l0 58 l238 0 q1 8 1 23 l0 114 l-117 0 q-33 -65 -75 -113 q-25 21 -53 35 q82 84 126 232 l60 -14 q-18 -56 -30 -83 l361 0 l0 -57 l-207 0 l0 -114 q0 -15 -1 -23 l242 0 l0 -58 l-231 0 Z" /><glyph glyph-name="" unicode="&#x501a;" d="M598 731 q6 31 12 98 l68 0 q-5 -54 -12 -98 l263 0 l0 -58 l-278 0 l-12 -36 q174 -74 286 -142 l-41 -51 q-103 68 -273 143 q-72 -104 -276 -145 q-9 23 -35 53 q229 42 282 178 l-251 0 l0 58 l267 0 ZM334 813 q-46 -117 -104 -216 l0 -671 l-64 0 l0 572 q-49 -71 -107 -132 q-19 43 -38 65 q160 155 251 401 l62 -19 ZM430 242 l0 -129 l182 0 l0 129 l-182 0 ZM430 62 l0 -58 l-59 0 l0 289 l301 0 l0 -231 l-242 0 ZM956 372 l-92 0 l0 -371 q0 -55 -41 -68 q-31 -10 -173 -10 q-5 29 -21 59 q35 -1 148 -1 q22 1 22 20 l0 371 l-511 0 l0 59 l668 0 l0 -59 Z" /><glyph glyph-name="" unicode="&#x501f;" d="M350 814 q-44 -112 -106 -220 l0 -668 l-63 0 l0 570 q-43 -62 -106 -129 q-20 43 -38 64 q159 156 250 401 l63 -18 ZM499 303 l0 -109 l310 0 l0 109 l-310 0 ZM809 26 l0 112 l-310 0 l0 -112 l310 0 ZM435 360 l442 0 l0 -433 l-68 0 l0 43 l-310 0 l0 -45 l-64 0 l0 435 ZM566 505 l167 0 l0 137 l-167 0 l0 -137 ZM949 505 l0 -61 l-601 0 l0 61 l154 0 l0 137 l-125 0 l0 60 l125 0 l0 133 l64 0 l0 -133 l167 0 l0 133 l65 0 l0 -133 l131 0 l0 -60 l-131 0 l0 -137 l151 0 Z" /><glyph glyph-name="" unicode="&#x5021;" d="M797 739 l-357 0 l0 -100 l357 0 l0 100 ZM797 588 l-357 0 l0 -102 l357 0 l0 102 ZM865 432 l-490 0 l0 362 l490 0 l0 -362 ZM331 813 q-41 -113 -103 -223 l0 -664 l-65 0 l0 559 q-46 -67 -96 -122 q-17 38 -39 68 q152 156 239 401 l64 -19 ZM842 23 l0 114 l-446 0 l0 -114 l446 0 ZM396 301 l0 -107 l446 0 l0 107 l-446 0 ZM910 359 l0 -429 l-68 0 l0 35 l-446 0 l0 -40 l-66 0 l0 434 l580 0 Z" /><glyph glyph-name="" unicode="&#x5026;" d="M847 788 q-42 -80 -91 -141 q-12 9 -51 27 q46 52 86 130 l56 -16 ZM462 654 q-31 55 -88 130 l46 27 q65 -79 90 -125 l-48 -32 ZM325 813 q-43 -121 -95 -219 l0 -666 l-64 0 l0 557 q-37 -59 -89 -119 q-14 31 -39 65 q143 153 226 401 l61 -19 ZM777 316 q-37 46 -63 97 l-191 0 q-29 -52 -68 -97 l322 0 ZM777 413 q69 -111 170 -163 q-23 -18 -43 -48 q-62 37 -121 107 l0 -155 q0 -42 -28 -54 q-20 -9 -115 -9 q-4 21 -20 51 q73 -2 90 0 q14 1 14 13 l0 106 l-241 0 l0 -233 q0 -23 12 -29 q13 -7 56 -7 l203 0 q36 0 47 20 q10 19 13 92 q25 -17 58 -24 q-7 -89 -28 -118 q-23 -29 -86 -29 l-210 0 q-74 0 -100 19 q-27 20 -27 76 l0 250 q-50 -53 -107 -90 q-20 28 -46 51 q110 67 181 174 l-157 0 l0 56 l191 0 q22 41 47 108 l-175 0 l0 56 l194 0 q28 98 44 203 l64 -8 q-17 -108 -43 -195 l273 0 l0 -56 l-290 0 q-18 -53 -44 -108 l393 0 l0 -56 l-169 0 Z" /><glyph glyph-name="" unicode="&#x503a;" d="M590 694 l-254 0 l0 53 l254 0 l0 88 l62 0 l0 -88 l239 0 l0 -53 l-239 0 l0 -67 l212 0 l0 -50 l-212 0 l0 -76 l281 0 l0 -51 l-624 0 l0 51 l281 0 l0 76 l-225 0 l0 50 l225 0 l0 67 ZM814 104 l0 232 l-388 0 l0 -232 l-61 0 l0 281 l512 0 l0 -281 l-63 0 ZM311 815 q-32 -103 -81 -208 l0 -681 l-64 0 l0 562 q-34 -59 -83 -122 q-20 40 -40 65 q129 152 206 401 l62 -17 ZM582 274 l62 0 l0 -90 q0 -81 -52 -135 q-75 -79 -266 -126 q-14 26 -39 49 q181 37 250 103 q45 44 45 111 l0 88 ZM680 96 q169 -58 266 -117 l-36 -48 q-90 58 -264 123 l34 42 Z" /><glyph glyph-name="" unicode="&#x503c;" d="M331 815 q-42 -118 -104 -229 l0 -661 l-62 0 l0 560 q-39 -58 -90 -116 q-15 34 -37 64 q149 158 233 402 l60 -20 ZM444 14 l356 0 l0 87 l-356 0 l0 -87 ZM444 522 l0 -89 l356 0 l0 89 l-356 0 ZM800 382 l-356 0 l0 -90 l356 0 l0 90 ZM444 151 l356 0 l0 91 l-356 0 l0 -91 ZM954 14 l0 -58 l-667 0 l0 58 l97 0 l0 560 l172 0 q10 41 20 98 l-247 0 l0 59 l257 0 q10 59 14 105 l72 -6 q-15 -79 -20 -99 l271 0 l0 -59 l-283 0 q-5 -23 -24 -98 l246 0 l0 -560 l92 0 Z" /><glyph glyph-name="" unicode="&#x503e;" d="M667 605 q21 60 33 108 l-197 0 l0 58 l449 0 l0 -58 l-182 0 q-34 -89 -42 -108 l177 0 l0 -459 l-61 0 l0 400 l-241 0 l0 -401 l-58 0 l0 460 l122 0 ZM285 816 q-29 -93 -72 -191 l0 -701 l-60 0 l0 580 q-43 -80 -98 -147 q-9 28 -34 67 q128 152 204 409 l60 -17 ZM495 259 q0 -36 3 -54 q-164 -94 -184 -115 q-5 23 -27 59 q28 19 28 62 l0 515 l59 0 l0 -189 l132 0 l0 -58 l-132 0 l0 -281 l121 61 ZM747 283 q0 -118 -39 -192 q-56 -108 -207 -169 q-14 26 -36 43 q227 85 227 318 l0 209 l55 0 l0 -209 ZM767 118 q128 -83 188 -147 l-39 -48 q-66 72 -187 155 l38 40 Z" /><glyph glyph-name="" unicode="&#x5047;" d="M907 487 l-279 0 l0 58 l218 0 l0 187 l-218 0 l0 58 l279 0 l0 -303 ZM279 815 q-30 -112 -68 -210 l0 -680 l-63 0 l0 542 q-35 -66 -71 -113 q-10 31 -36 66 q113 149 175 410 l63 -15 ZM378 733 l0 -190 l150 0 l0 190 l-150 0 ZM378 127 l0 -200 l-62 0 l0 863 l271 0 l0 -304 l-209 0 l0 -113 l186 0 l0 -57 l-186 0 l0 -132 l197 0 l0 -57 l-197 0 ZM675 348 q27 -106 85 -195 q59 82 89 195 l-174 0 ZM921 394 q-37 -176 -126 -290 q72 -88 167 -126 q-22 -20 -41 -51 q-92 42 -164 131 q-82 -85 -206 -135 q-13 28 -34 49 q119 42 205 135 q-64 98 -100 230 l44 11 l-66 0 l0 57 l271 0 l11 2 l39 -13 Z" /><glyph glyph-name="" unicode="&#x504e;" d="M819 742 l-161 0 l0 -105 l161 0 l0 105 ZM819 587 l-161 0 l0 -107 l161 0 l0 107 ZM438 480 l161 0 l0 107 l-161 0 l0 -107 ZM438 637 l161 0 l0 105 l-161 0 l0 -105 ZM881 427 l-502 0 l0 368 l502 0 l0 -368 ZM336 814 q-42 -116 -101 -223 l0 -668 l-64 0 l0 563 q-39 -59 -93 -120 q-14 31 -39 65 q150 157 235 401 l62 -18 ZM906 203 q-59 -48 -151 -98 q83 -94 207 -134 q-20 -16 -42 -53 q-241 89 -329 366 l-116 0 l0 -274 l171 40 q0 -43 1 -58 q-225 -59 -244 -73 q-11 41 -26 63 q35 20 35 65 l0 237 l-106 0 l0 59 l647 0 l0 -59 l-302 0 q27 -78 70 -138 q83 49 143 100 l42 -43 Z" /><glyph glyph-name="" unicode="&#x504f;" d="M350 813 q-51 -126 -106 -217 l0 -670 l-63 0 l0 572 q-52 -74 -108 -131 q-14 36 -37 64 q159 154 252 401 l62 -19 ZM423 669 l0 -120 l422 0 l0 120 l-422 0 ZM423 492 q-5 -364 -84 -557 q-22 26 -52 39 q74 181 74 547 l0 205 l254 0 q-20 52 -45 97 l58 16 q31 -49 54 -113 l228 0 l0 -234 l-487 0 ZM871 209 l0 158 l-99 0 l0 -158 l99 0 ZM725 209 l0 158 l-96 0 l0 -158 l96 0 ZM583 209 l0 158 l-91 0 l0 -158 l91 0 ZM926 -5 q0 -42 -24 -55 q-21 -10 -93 -10 q-3 20 -18 53 q53 -2 68 0 q12 0 12 12 l0 160 l-99 0 l0 -196 l-47 0 l0 196 l-96 0 l0 -200 l-46 0 l0 200 l-91 0 l0 -226 l-54 0 l0 492 l488 0 l0 -426 Z" /><glyph glyph-name="" unicode="&#x505a;" d="M300 813 q-33 -103 -80 -201 l0 -688 l-62 0 l0 574 q-45 -77 -100 -143 q-14 38 -36 67 q136 155 218 408 l60 -17 ZM360 326 l0 -233 l172 0 l0 233 l-172 0 ZM360 35 l0 -65 l-59 0 l0 414 l115 0 l0 194 l-143 0 l0 61 l143 0 l0 185 l63 0 l0 -185 l134 0 l0 -61 l-134 0 l0 -194 l112 0 l0 -349 l-231 0 ZM703 583 l-6 -17 q22 -200 73 -331 q56 133 80 348 l-147 0 ZM909 583 q-30 -264 -108 -418 q65 -124 166 -189 q-27 -27 -41 -53 q-93 66 -159 184 q-73 -113 -187 -185 q-18 27 -43 46 q128 73 200 200 q-54 127 -78 294 q-23 -53 -50 -97 q-25 33 -45 49 q92 142 132 421 l61 -10 q-16 -99 -39 -184 l238 0 l0 -58 l-47 0 Z" /><glyph glyph-name="" unicode="&#x505c;" d="M331 816 q-42 -116 -105 -231 l0 -660 l-61 0 l0 560 q-38 -58 -90 -117 q-13 31 -37 65 q147 154 232 401 l61 -18 ZM396 241 l461 0 l0 -55 l-194 0 l0 -186 q0 -50 -38 -63 q-31 -9 -159 -9 q-4 26 -22 58 q63 -1 132 -1 q20 1 20 17 l0 184 l-200 0 l0 55 ZM311 375 l634 0 l0 -159 l-60 0 l0 104 l-515 0 l0 -103 l-59 0 l0 158 ZM797 580 l-335 0 l0 -88 l335 0 l0 88 ZM861 630 l0 -188 l-461 0 l0 188 l461 0 ZM947 744 l0 -58 l-621 0 l0 58 l280 0 q-20 47 -41 78 l60 18 q35 -52 52 -96 l270 0 Z" /><glyph glyph-name="" unicode="&#x5065;" d="M727 616 l100 0 l0 82 l-100 0 l0 -82 ZM827 564 l-100 0 l0 -84 l100 0 l0 84 ZM669 564 l-181 0 l0 52 l181 0 l0 82 l-134 0 l0 52 l134 0 l0 85 l58 0 l0 -85 l154 0 l0 -134 l72 0 l0 -52 l-72 0 l0 -136 l-154 0 l0 -78 l175 0 l0 -55 l-175 0 l0 -85 l209 0 l0 -55 l-209 0 l0 -125 l-58 0 l0 125 l-179 0 l0 55 l179 0 l0 85 l-153 0 l0 55 l153 0 l0 78 l-134 0 l0 52 l134 0 l0 84 ZM283 818 q-27 -96 -71 -199 l0 -692 l-60 0 l0 572 q-38 -69 -78 -119 q-12 35 -35 66 q117 140 185 387 l59 -15 ZM493 462 q-19 -210 -75 -341 q117 -127 375 -127 l164 0 q-17 -27 -21 -57 l-147 0 q-269 0 -396 129 q-47 -89 -121 -142 q-13 21 -43 43 q77 54 124 147 q-55 77 -88 186 l48 21 q25 -87 65 -149 q37 95 53 243 l-152 0 q62 127 121 288 l-114 0 l0 58 l198 0 q-78 -198 -119 -292 l82 0 l11 1 l35 -8 Z" /><glyph glyph-name="" unicode="&#x5076;" d="M332 813 q-43 -118 -102 -223 l0 -667 l-64 0 l0 563 q-46 -68 -94 -120 q-12 27 -38 65 q151 156 236 401 l62 -19 ZM597 474 l0 105 l-164 0 l0 -105 l164 0 ZM433 630 l164 0 l0 103 l-164 0 l0 -103 ZM827 733 l-170 0 l0 -103 l170 0 l0 103 ZM827 579 l-170 0 l0 -105 l170 0 l0 105 ZM934 -3 q0 -51 -36 -64 q-32 -12 -154 -10 q-5 26 -21 57 q85 -4 128 -1 q21 1 21 18 l0 284 l-215 0 l0 -131 l102 8 q-26 50 -39 72 l42 16 q68 -107 92 -193 l-45 -18 q-8 30 -27 74 l-346 -38 l-13 59 l174 15 l0 136 l-210 0 l0 -357 l-63 0 l0 415 l273 0 l0 81 l-226 0 l0 367 l521 0 l0 -367 l-235 0 l0 -81 l277 0 l0 -342 Z" /><glyph glyph-name="" unicode="&#x5077;" d="M300 812 q-33 -106 -76 -203 l0 -685 l-64 0 l0 558 q-44 -77 -85 -129 q-14 36 -37 66 q126 155 202 411 l60 -18 ZM539 189 l0 87 l-151 0 l0 -87 l151 0 ZM388 410 l0 -83 l151 0 l0 83 l-151 0 ZM596 2 q0 -46 -25 -58 q-21 -12 -93 -12 q-3 25 -18 59 q32 -1 67 -1 q12 0 12 12 l0 135 l-151 0 l0 -209 l-59 0 l0 536 l267 0 l0 -462 ZM785 532 l-369 0 l0 55 l369 0 l0 -55 ZM737 89 l-54 0 l0 358 l54 0 l0 -358 ZM828 484 l57 0 l0 -481 q0 -49 -30 -62 q-26 -11 -120 -11 q-5 30 -20 58 q77 -2 97 0 q16 0 16 15 l0 481 ZM660 814 q-3 -3 -9 -11 q-5 -8 -9 -12 q107 -115 309 -194 q-26 -22 -41 -51 q-190 88 -301 206 q-123 -137 -305 -217 q-14 21 -42 49 q228 92 343 255 l55 -25 Z" /><glyph glyph-name="" unicode="&#x507f;" d="M893 792 q-57 -78 -107 -133 l-53 21 q57 70 94 137 l66 -25 ZM381 464 l-64 0 l0 190 l143 0 q-31 64 -95 133 l55 27 q69 -73 99 -131 l-54 -29 l122 0 l0 184 l67 0 l0 -184 l278 0 l0 -190 l-66 0 l0 132 l-485 0 l0 -132 ZM402 416 l0 62 l450 0 l0 -62 l-450 0 ZM298 813 q-29 -97 -75 -197 l0 -692 l-65 0 l0 565 q-37 -68 -88 -132 q-10 26 -37 68 q127 150 204 405 l61 -17 ZM592 253 q-77 -125 -160 -220 l368 34 q-51 71 -89 115 l55 29 q125 -146 178 -247 l-60 -33 q-13 28 -47 81 q-460 -45 -492 -59 q-9 33 -24 69 q22 5 61 50 q61 67 127 181 l-221 0 l0 64 l665 0 l0 -64 l-361 0 Z" /><glyph glyph-name="" unicode="&#x5080;" d="M822 288 q-27 -78 -73 -154 l112 13 q-27 56 -41 80 l40 16 q53 -90 70 -152 l-42 -19 q-7 24 -11 33 q-165 -25 -182 -33 q-6 24 -17 49 q13 2 31 32 q45 76 62 151 l51 -16 ZM332 813 q-44 -122 -98 -223 l0 -668 l-64 0 l0 562 q-38 -59 -89 -118 q-15 30 -39 65 q144 153 228 401 l62 -19 ZM564 384 q9 39 19 121 l-173 0 l0 -121 l154 0 ZM410 558 l178 0 q4 60 6 121 l-184 0 l0 -121 ZM831 679 l-172 0 q-4 -85 -7 -121 l179 0 l0 121 ZM831 505 l-184 0 q-9 -69 -19 -121 l203 0 l0 121 ZM861 -5 q23 0 31 14 q7 14 10 64 q22 -14 55 -22 q-5 -66 -23 -88 q-18 -23 -66 -23 l-163 0 q-63 0 -84 17 q-21 17 -21 69 l0 248 q-79 -241 -288 -349 q-18 27 -45 47 q213 106 283 356 l-204 0 l0 407 l207 0 q18 45 32 102 l74 -10 q-20 -49 -39 -92 l277 0 l0 -407 l-281 0 q-1 -7 -8 -29 l53 0 l0 -273 q0 -19 9 -25 q9 -6 40 -6 l151 0 Z" /><glyph glyph-name="" unicode="&#x5085;" d="M661 566 l0 -66 l178 0 l0 66 l-178 0 ZM839 388 l0 67 l-178 0 l0 -67 l178 0 ZM597 388 l0 67 l-174 0 l0 -67 l174 0 ZM423 566 l0 -66 l174 0 l0 66 l-174 0 ZM597 734 l0 98 l64 0 l0 -98 l161 0 q-40 28 -103 62 l37 33 q88 -45 127 -71 l-22 -24 l86 0 l0 -55 l-286 0 l0 -65 l242 0 l0 -329 l-64 0 l0 57 l-178 0 l0 -50 l-64 0 l0 50 l-174 0 l0 -58 l-62 0 l0 330 l236 0 l0 65 l-277 0 l0 55 l277 0 ZM334 813 q-46 -116 -104 -216 l0 -671 l-64 0 l0 573 q-48 -69 -107 -133 q-19 43 -39 65 q160 155 251 401 l63 -19 ZM447 158 q88 -78 134 -134 l-50 -36 q-55 66 -132 140 l48 30 ZM961 179 l-147 0 l0 -180 q0 -50 -37 -65 q-30 -9 -156 -9 q-4 26 -22 58 q98 -3 131 -1 q19 1 19 18 l0 179 l-457 0 l0 55 l457 0 l0 76 l65 0 l0 -76 l147 0 l0 -55 Z" /><glyph glyph-name="" unicode="&#x508d;" d="M906 685 l-564 0 l0 56 l266 0 q-15 63 -26 97 l63 8 q19 -44 31 -105 l230 0 l0 -56 ZM336 814 q-44 -116 -106 -229 l0 -659 l-64 0 l0 556 q-43 -63 -91 -115 q-16 34 -38 64 q149 153 236 401 l63 -18 ZM640 462 q25 -64 32 -103 l244 0 l0 -57 l-353 0 q-5 -57 -13 -97 l316 0 l-2 -28 q-16 -194 -49 -227 q-20 -20 -60 -23 q-51 -2 -118 2 q-2 33 -17 57 q59 -5 106 -5 q25 0 34 8 q21 22 34 159 l-257 0 q-45 -159 -203 -226 q-12 22 -40 48 q108 42 154 128 q38 70 48 204 l-165 0 l0 57 l273 0 q-9 44 -27 93 l63 10 ZM935 551 l0 -156 l-67 0 l0 101 l-485 0 l0 -101 l-65 0 l0 156 l166 0 q-15 68 -35 115 l61 11 q29 -63 40 -117 l-39 -9 l193 0 q35 77 51 132 l68 -13 q-39 -92 -53 -119 l165 0 Z" /><glyph glyph-name="" unicode="&#x50a8;" d="M405 606 q-35 65 -112 142 l46 32 q82 -78 115 -138 l-49 -36 ZM280 821 q-25 -91 -76 -210 l0 -684 l-59 0 l0 564 q-36 -67 -81 -127 q-13 31 -35 62 q119 150 195 411 l56 -16 ZM508 134 q7 -28 17 -54 q-158 -97 -177 -120 q-9 30 -33 56 q34 22 34 74 l0 362 l-101 0 l0 64 l160 0 l0 -440 l100 58 ZM849 304 l-225 0 l0 -106 l225 0 l0 106 ZM849 37 l0 110 l-225 0 l0 -110 l225 0 ZM698 530 l23 0 q49 59 94 132 l-117 0 l0 -132 ZM748 469 q-53 -63 -105 -109 l267 0 l0 -428 l-61 0 l0 49 l-225 0 l0 -53 l-58 0 l0 369 q-42 -30 -80 -56 q-16 26 -43 53 q122 70 224 175 l-194 0 l0 61 l163 0 l0 132 l-134 0 l0 58 l134 0 l0 116 l62 0 l0 -116 l120 0 l0 -53 q41 68 67 132 l60 -16 q-60 -137 -148 -253 l157 0 l0 -61 l-206 0 Z" /><glyph glyph-name="" unicode="&#x50ac;" d="M908 573 l-542 0 l0 216 l62 0 l0 -157 l182 0 l0 202 l64 0 l0 -202 l171 0 l0 157 l63 0 l0 -216 ZM296 812 q-29 -98 -70 -192 l0 -696 l-63 0 l0 568 q-40 -73 -90 -139 q-13 33 -36 66 q126 157 198 411 l61 -18 ZM434 29 l208 0 l0 87 l-208 0 l0 -87 ZM642 388 l-208 0 l0 -82 l208 0 l0 82 ZM642 254 l-208 0 l0 -87 l208 0 l0 87 ZM953 -29 l-519 0 l0 -48 l-61 0 l0 388 q-41 -62 -78 -102 q-25 40 -40 58 q112 109 170 293 l59 -16 q-16 -50 -38 -100 l208 0 q-18 50 -46 100 l57 17 q41 -65 56 -117 l217 0 l0 -56 l-233 0 l0 -82 l209 0 l0 -52 l-209 0 l0 -87 l209 0 l0 -51 l-209 0 l0 -87 l248 0 l0 -58 Z" /><glyph glyph-name="" unicode="&#x50b2;" d="M300 818 q-29 -100 -80 -213 l0 -680 l-62 0 l0 560 q-39 -68 -82 -123 q-23 47 -38 65 q126 153 202 408 l60 -17 ZM728 595 l-11 -33 q20 -196 70 -333 q43 131 53 366 l-112 0 ZM900 595 q-14 -289 -80 -441 q61 -115 148 -175 q-28 -26 -43 -54 q-80 62 -137 164 q-57 -99 -159 -167 q-13 28 -36 53 q108 67 164 180 q-53 125 -79 307 q-25 -52 -40 -75 l-2 2 l0 -43 l-206 0 q-4 -64 -8 -95 l184 0 q0 -18 -1 -28 q-12 -233 -38 -261 q-18 -21 -51 -24 q-37 -2 -91 1 q-2 31 -16 56 q37 -4 80 -4 q20 0 28 9 q16 19 27 196 l-130 0 q-29 -179 -132 -271 q-15 23 -43 46 q118 96 129 375 l-106 0 l0 56 l167 0 l0 110 l-133 0 l0 55 l133 0 l0 98 l-147 0 l0 56 l147 0 l0 103 l61 0 l0 -103 l137 0 l0 -56 l-137 0 l0 -98 l120 0 l0 -55 l-120 0 l0 -110 l133 0 q-20 20 -33 29 q89 133 131 405 l61 -11 q-21 -115 -37 -172 l209 0 l0 -58 l-54 0 Z" /><glyph glyph-name="" unicode="&#x50bb;" d="M756 487 q-59 39 -133 77 q-87 -48 -160 -77 q-20 26 -39 41 q65 22 147 61 q-66 33 -126 54 l32 36 q66 -23 147 -61 q59 33 101 67 l49 -20 q-29 -26 -100 -72 q54 -27 115 -65 l-33 -41 ZM831 698 l-435 0 l0 -221 l435 0 l0 221 ZM892 427 l-555 0 l0 321 l203 0 q27 39 48 84 l70 -16 q-19 -27 -50 -68 l284 0 l0 -321 ZM705 418 q145 -49 231 -101 l-33 -46 q-96 58 -233 107 l35 40 ZM289 310 q133 48 235 111 l36 -39 q-89 -56 -239 -112 l-32 40 ZM309 813 q-37 -111 -79 -198 l0 -687 l-63 0 l0 570 q-45 -78 -101 -144 q-15 39 -36 66 q136 154 218 409 l61 -16 ZM472 200 q55 -66 145 -117 q89 54 140 122 l-278 0 l-7 -5 ZM843 238 q-54 -108 -170 -182 q126 -55 275 -75 q-21 -21 -35 -51 q-163 26 -295 94 q-134 -69 -317 -100 q-8 23 -27 51 q159 21 290 81 q-75 46 -132 114 q-47 -33 -94 -56 q-17 26 -41 40 q148 70 232 176 l63 -12 q-32 -39 -58 -64 l259 0 l12 3 l38 -19 Z" /><glyph glyph-name="" unicode="&#x50cf;" d="M332 813 q-49 -130 -103 -226 l0 -660 l-64 0 l0 556 q-45 -66 -91 -117 q-12 27 -38 65 q147 155 234 401 l62 -19 ZM419 466 l144 0 q33 50 41 107 l-185 0 l0 -107 ZM485 711 q-35 -48 -70 -86 l192 0 q33 36 63 86 l-185 0 ZM831 573 l-171 0 q-5 -57 -30 -107 l201 0 l0 107 ZM902 326 q-34 -23 -114 -67 q56 -165 177 -227 q-26 -23 -44 -51 q-123 75 -181 255 q-9 -5 -52 -25 q26 -77 18 -151 q-7 -71 -41 -103 q-30 -30 -85 -32 q-17 0 -61 2 q-2 31 -16 58 q35 -4 66 -4 q33 0 50 19 q42 38 24 149 q-133 -124 -325 -190 q-19 31 -39 47 q221 66 352 197 q-11 33 -27 61 q-112 -100 -279 -161 q-16 25 -37 44 q179 54 292 155 q-21 30 -47 51 q-77 -61 -205 -103 q-16 24 -38 43 q150 48 228 121 l-159 0 l0 156 q-17 -16 -57 -48 q-19 27 -44 42 q151 108 232 271 l63 -12 q-12 -24 -33 -59 l185 0 l13 3 l39 -28 q-34 -58 -80 -114 l217 0 l0 -211 l-299 0 q-16 -21 -24 -27 q63 -52 101 -131 q119 64 185 111 l45 -41 Z" /><glyph glyph-name="" unicode="&#x50da;&#xf9bb;" d="M321 813 q-45 -122 -99 -223 l0 -664 l-62 0 l0 560 q-38 -62 -90 -120 q-18 36 -38 65 q142 150 229 401 l60 -19 ZM476 143 q-54 -99 -154 -183 q-15 15 -50 40 q94 67 145 161 l59 -18 ZM799 160 q102 -94 148 -169 l-56 -33 q-44 79 -145 174 l53 28 ZM783 461 l-334 0 l0 -84 l334 0 l0 84 ZM783 330 l-334 0 l0 -86 l334 0 l0 86 ZM574 669 q-41 -86 -103 -159 l294 0 q-59 76 -96 159 l-95 0 ZM942 612 q-65 -59 -108 -90 q68 -73 145 -112 q-28 -24 -45 -51 q-54 32 -89 65 l0 -229 l-193 0 l0 -199 q0 -50 -35 -63 q-29 -11 -145 -11 q-3 25 -20 60 q87 -3 116 -1 q18 1 18 16 l0 198 l-197 0 l0 235 q-32 -28 -92 -66 q-19 28 -45 50 q81 43 150 113 q-48 48 -93 80 l42 37 q49 -33 90 -72 q28 33 65 97 l-210 0 l0 58 l237 0 q23 52 38 109 l63 -13 q-20 -66 -33 -96 l346 0 l0 -58 l-215 0 q31 -61 70 -109 q63 59 88 90 l52 -38 Z" /><glyph glyph-name="" unicode="&#x50e7;" d="M484 692 q-20 45 -73 120 l56 21 q52 -62 76 -116 l-59 -25 ZM326 814 q-37 -106 -96 -218 l0 -670 l-64 0 l0 564 q-41 -65 -93 -122 q-11 24 -38 63 q146 155 231 401 l60 -18 ZM445 245 l0 -80 l336 0 l0 80 l-336 0 ZM781 32 l0 83 l-336 0 l0 -83 l336 0 ZM381 299 l466 0 l0 -370 l-66 0 l0 49 l-336 0 l0 -51 l-64 0 l0 372 ZM470 612 q53 -73 78 -141 l-45 -20 q-26 72 -76 145 l43 16 ZM671 460 q49 71 85 153 l48 -15 q-58 -105 -91 -153 l-42 15 ZM841 640 l-197 0 l0 -226 l197 0 l0 226 ZM391 414 l199 0 l0 226 l-199 0 l0 -226 ZM904 691 l0 -327 l-573 0 l0 327 l355 0 q55 68 89 146 l69 -24 q-56 -82 -88 -122 l148 0 Z" /><glyph glyph-name="" unicode="&#x50f5;" d="M945 737 l-631 0 l0 50 l631 0 l0 -50 ZM426 490 l171 0 l0 61 l-171 0 l0 -61 ZM426 591 l171 0 l0 60 l-171 0 l0 -60 ZM821 651 l-163 0 l0 -60 l163 0 l0 60 ZM821 551 l-163 0 l0 -61 l163 0 l0 61 ZM364 448 l0 245 l521 0 l0 -245 l-521 0 ZM948 354 l-642 0 l0 50 l642 0 l0 -50 ZM420 94 l177 0 l0 66 l-177 0 l0 -66 ZM420 199 l177 0 l0 63 l-177 0 l0 -63 ZM823 262 l-165 0 l0 -63 l165 0 l0 63 ZM823 160 l-165 0 l0 -66 l165 0 l0 66 ZM358 52 l0 252 l529 0 l0 -252 l-529 0 ZM297 813 q-30 -100 -73 -196 l0 -693 l-63 0 l0 567 q-39 -71 -88 -133 q-15 37 -35 62 q127 156 202 409 l57 -16 ZM950 1 l0 -54 l-675 0 l0 54 l675 0 Z" /><glyph glyph-name="" unicode="&#x50fb;" d="M941 650 l-333 0 l0 59 l147 0 q-15 64 -34 114 l58 10 q26 -63 40 -124 l122 0 l0 -59 ZM684 457 q-10 79 -38 160 l49 12 q33 -89 40 -156 l-51 -16 ZM289 817 q-31 -104 -76 -210 l0 -683 l-59 0 l0 563 q-40 -73 -83 -130 q-15 38 -35 67 q123 153 196 409 l57 -16 ZM409 293 l0 -225 l119 0 l0 225 l-119 0 ZM370 722 l0 -190 l144 0 l0 190 l-144 0 ZM586 10 l-177 0 l0 -76 l-55 0 l0 354 q-25 -189 -78 -303 q-20 23 -46 39 q83 180 83 540 l0 215 l258 0 l0 -304 l-203 0 q-2 -69 -7 -125 l225 0 l0 -340 ZM805 382 l0 -143 l134 0 l0 -59 l-134 0 l0 -255 l-62 0 l0 255 l-129 0 l0 59 l129 0 l0 143 l-151 0 l0 59 l199 0 q37 85 64 193 l59 -16 q-48 -131 -69 -177 l110 0 l0 -59 l-150 0 Z" /><glyph glyph-name="" unicode="&#x5112;" d="M579 745 l-247 0 l0 55 l567 0 l0 -55 l-259 0 l0 -65 l293 0 l0 -134 l-54 0 l0 83 l-239 0 l0 -233 l-61 0 l0 233 l-231 0 l0 -83 l-52 0 l0 134 l283 0 l0 65 ZM675 472 l196 0 l0 -42 l-196 0 l0 42 ZM856 569 l0 -41 l-181 0 l0 41 l181 0 ZM350 472 l193 0 l0 -41 l-193 0 l0 41 ZM542 569 l0 -41 l-172 0 l0 41 l172 0 ZM313 815 q-39 -116 -98 -230 l0 -660 l-61 0 l0 554 q-41 -64 -83 -114 q-22 39 -39 60 q142 157 221 407 l60 -17 ZM640 315 l-13 -35 q-8 -21 -13 -32 l295 0 l0 -258 q0 -43 -26 -55 q-21 -10 -97 -10 q-2 21 -19 54 q55 -2 69 0 q12 0 12 12 l0 202 l-119 0 l0 -256 l-56 0 l0 256 l-114 0 l0 -256 l-56 0 l0 256 l-112 0 l0 -268 l-60 0 l0 323 l219 0 q11 31 19 67 l-288 0 l0 55 l671 0 l0 -55 l-312 0 Z" /><glyph glyph-name="" unicode="&#x5121;" d="M793 732 l-157 0 l0 -99 l157 0 l0 99 ZM793 584 l-157 0 l0 -101 l157 0 l0 101 ZM422 483 l152 0 l0 101 l-152 0 l0 -101 ZM422 633 l152 0 l0 99 l-152 0 l0 -99 ZM857 432 l-497 0 l0 351 l497 0 l0 -351 ZM302 814 q-34 -103 -80 -197 l0 -690 l-62 0 l0 575 q-52 -86 -100 -141 q-18 37 -40 60 q141 159 220 409 l62 -16 ZM327 317 l0 -116 l79 0 l0 116 l-79 0 ZM534 317 l-83 0 l0 -116 l83 0 l0 116 ZM534 33 l0 119 l-83 0 l0 -119 l83 0 ZM406 33 l0 119 l-79 0 l0 -119 l79 0 ZM278 367 l306 0 l0 -428 l-50 0 l0 45 l-207 0 l0 -52 l-49 0 l0 435 ZM889 33 l0 119 l-85 0 l0 -119 l85 0 ZM677 33 l81 0 l0 119 l-81 0 l0 -119 ZM677 317 l0 -116 l81 0 l0 116 l-81 0 ZM889 317 l-85 0 l0 -116 l85 0 l0 116 ZM939 367 l0 -428 l-50 0 l0 45 l-212 0 l0 -52 l-49 0 l0 435 l311 0 Z" /><glyph glyph-name="" unicode="&#x2f09;&#x513f;" d="M700 794 l0 -742 q0 -34 7 -43 q7 -9 32 -9 l109 0 q26 0 35 42 q8 38 11 168 q31 -24 63 -31 q-5 -142 -24 -189 q-22 -54 -81 -54 l-120 0 q-57 0 -78 24 q-21 24 -21 93 l0 741 l67 0 ZM329 793 l0 -321 q0 -184 -40 -296 q-57 -155 -206 -252 q-21 32 -49 51 q140 89 192 229 q37 101 37 268 l0 321 l66 0 Z" /><glyph glyph-name="" unicode="&#x5141;" d="M841 7 q33 0 44 34 q9 32 13 153 q18 -15 63 -29 q-7 -134 -28 -177 q-23 -45 -88 -45 l-158 0 q-65 0 -89 22 q-23 22 -23 84 l0 383 l-158 -12 q-14 -218 -73 -318 q-74 -125 -265 -181 q-17 36 -41 55 q178 48 245 156 q53 87 65 282 q-168 -15 -196 -26 q-9 34 -23 67 q26 6 79 67 q123 134 225 320 l70 -26 q-122 -196 -259 -344 l487 34 q-64 84 -134 171 l54 33 q169 -205 240 -308 l-59 -40 q-19 30 -59 86 l-131 -10 l0 -389 q0 -27 10 -34 q9 -8 42 -8 l147 0 Z" /><glyph glyph-name="" unicode="&#x5143;" d="M855 692 l-705 0 l0 64 l705 0 l0 -64 ZM838 5 q31 0 40 33 q9 31 13 149 q21 -17 62 -30 q-6 -129 -26 -170 q-22 -44 -84 -44 l-148 0 q-64 0 -86 21 q-23 21 -23 82 l0 365 l-194 0 q-16 -187 -70 -288 q-69 -132 -226 -196 q-18 33 -42 51 q147 56 208 175 q46 89 59 258 l-258 0 l0 65 l875 0 l0 -65 l-284 0 l0 -365 q0 -25 9 -33 q9 -8 39 -8 l136 0 Z" /><glyph glyph-name="" unicode="&#x5144;" d="M230 435 l544 0 l0 279 l-544 0 l0 -279 ZM839 -4 q32 0 42 32 q9 31 13 147 q21 -17 61 -28 q-5 -130 -26 -171 q-22 -43 -86 -43 l-154 0 q-65 0 -88 21 q-23 21 -23 81 l0 334 l-184 0 q-15 -184 -71 -276 q-70 -114 -240 -169 q-12 31 -43 58 q158 46 221 146 q49 79 61 241 l-159 0 l0 411 l681 0 l0 -411 l-199 0 l0 -335 q0 -24 10 -31 q9 -7 41 -7 l143 0 Z" /><glyph glyph-name="" unicode="&#x5145;" d="M511 677 q-28 64 -82 141 l65 20 q58 -81 84 -137 l-67 -24 ZM837 13 q30 0 39 28 q9 28 13 130 q22 -19 63 -30 q-6 -115 -27 -153 q-22 -39 -83 -39 l-155 0 q-65 0 -89 21 q-23 21 -23 79 l0 294 l-155 -9 q-16 -171 -76 -257 q-72 -105 -242 -154 q-13 32 -41 58 q156 42 220 130 q53 72 67 219 q-165 -10 -196 -20 q-12 42 -23 68 q23 4 69 48 q75 69 157 184 l-286 0 l0 64 l863 0 l0 -64 l-488 0 q-94 -124 -195 -221 l489 24 q-61 60 -139 122 l53 33 q173 -134 259 -244 l-57 -38 q-24 30 -59 68 l-150 -8 l0 -296 q0 -23 9 -30 q10 -7 41 -7 l142 0 Z" /><glyph glyph-name="" unicode="&#x5146;" d="M908 720 q-101 -159 -176 -245 l-51 29 q94 112 162 249 l65 -33 ZM241 474 q-43 108 -152 240 l55 29 q111 -132 157 -234 l-60 -35 ZM351 822 l66 0 l0 -379 q0 -189 -53 -297 q-72 -145 -264 -228 q-17 34 -40 55 q253 108 284 345 q-108 -55 -261 -126 l-31 64 q82 32 298 129 q1 19 1 58 l0 379 ZM850 0 q26 0 35 25 q8 22 12 97 q31 -20 62 -28 q-7 -90 -27 -122 q-23 -35 -79 -35 l-171 0 q-65 0 -88 24 q-24 25 -24 97 l0 764 l66 0 l0 -422 l21 24 q196 -102 293 -191 l-42 -54 q-94 89 -272 188 l0 -310 q0 -36 10 -46 q9 -11 42 -11 l162 0 Z" /><glyph glyph-name="" unicode="&#x5148;" d="M841 4 q29 0 37 27 q9 27 12 125 q20 -17 61 -28 q-6 -113 -26 -150 q-21 -37 -78 -37 l-146 0 q-63 0 -84 20 q-22 20 -22 78 l0 302 l-198 0 q-17 -165 -74 -256 q-70 -112 -228 -166 q-19 36 -43 55 q148 46 212 144 q51 77 66 223 l-265 0 l0 64 l402 0 l0 207 l-212 0 q-38 -88 -90 -154 q-37 22 -57 31 q97 118 144 321 l68 -13 q-18 -63 -39 -121 l186 0 l0 159 l67 0 l0 -159 l333 0 l0 -64 l-333 0 l0 -207 l402 0 l0 -64 l-274 0 l0 -303 q0 -22 8 -28 q9 -6 38 -6 l133 0 Z" /><glyph glyph-name="" unicode="&#x5149;" d="M867 739 q-89 -139 -155 -212 l-56 25 q87 101 144 214 l67 -27 ZM289 527 q-47 92 -145 212 l53 29 q106 -125 149 -207 l-57 -34 ZM839 8 q23 0 30 15 q7 15 9 68 q18 -14 62 -25 q-6 -72 -25 -97 q-20 -25 -71 -25 l-159 0 q-65 0 -88 20 q-22 20 -22 78 l0 360 l-158 0 q-14 -196 -71 -295 q-71 -125 -245 -186 q-16 35 -42 57 q162 51 227 162 q49 86 62 262 l-278 0 l0 64 l394 0 l0 370 l69 0 l0 -370 l392 0 l0 -64 l-282 0 l0 -359 q0 -23 8 -29 q9 -6 40 -6 l148 0 Z" /><glyph glyph-name="" unicode="&#x514b;" d="M248 325 l506 0 l0 170 l-506 0 l0 -170 ZM840 -3 q31 0 41 26 q9 26 12 123 q22 -17 62 -28 q-6 -112 -27 -147 q-22 -37 -83 -37 l-163 0 q-67 0 -90 20 q-23 20 -23 77 l0 234 l-155 0 q-20 -142 -83 -215 q-75 -88 -243 -128 q-11 29 -39 61 q155 32 222 104 q56 60 72 178 l-159 0 l0 290 l280 0 l0 117 l-392 0 l0 61 l392 0 l0 103 l67 0 l0 -103 l400 0 l0 -61 l-400 0 l0 -117 l290 0 l0 -290 l-185 0 l0 -234 q0 -22 10 -28 q9 -6 42 -6 l152 0 Z" /><glyph glyph-name="" unicode="&#x514d;" d="M540 524 q-8 -109 -25 -183 l289 0 l0 183 l-264 0 ZM446 341 q15 66 24 183 l-245 0 l0 -183 l221 0 ZM327 700 q-47 -61 -102 -116 l275 0 q49 54 86 116 l-259 0 ZM835 5 q33 0 42 25 q9 24 12 117 q23 -17 62 -27 q-7 -106 -28 -140 q-22 -35 -83 -35 l-173 0 q-69 0 -93 19 q-24 20 -24 75 l0 242 l-50 0 q-81 -260 -405 -347 q-13 34 -38 57 q296 73 373 290 l-271 0 l0 243 q-39 -32 -64 -49 q-17 28 -47 48 q190 125 291 314 l72 -13 q-26 -44 -42 -67 l256 0 l12 3 l44 -29 q-40 -73 -104 -147 l296 0 l0 -303 l-255 0 l0 -241 q0 -22 10 -28 q10 -7 45 -7 l162 0 Z" /><glyph glyph-name="" unicode="&#x5151;" d="M289 835 q80 -99 113 -172 l-60 -29 q-37 86 -110 176 l57 25 ZM232 362 l532 0 l0 211 l-532 0 l0 -211 ZM842 2 q28 0 37 23 q9 23 12 103 q22 -16 61 -25 q-6 -97 -26 -129 q-21 -32 -78 -32 l-162 0 q-66 0 -89 19 q-24 19 -24 75 l0 266 l-150 0 q-17 -158 -79 -239 q-73 -95 -242 -140 q-16 37 -38 56 q157 37 222 118 q53 68 67 205 l-188 0 l0 332 l408 0 q79 100 129 202 l68 -23 q-62 -102 -123 -179 l187 0 l0 -332 l-193 0 l0 -265 q0 -22 10 -28 q9 -7 42 -7 l149 0 Z" /><glyph glyph-name="" unicode="&#x5154;" d="M542 518 q-10 -120 -29 -197 l294 0 l0 197 l-265 0 ZM444 321 q19 78 29 197 l-258 0 l0 -197 l229 0 ZM324 700 q-50 -67 -104 -123 l270 0 q48 53 90 123 l-256 0 ZM838 -10 q34 0 44 24 q10 22 14 107 q18 -13 60 -25 q-6 -101 -28 -133 q-22 -33 -86 -33 l-190 0 q-74 0 -99 19 q-25 19 -25 77 l0 235 l-32 0 q-86 -253 -408 -339 q-13 32 -37 56 q290 73 373 283 l-274 0 l0 251 q-25 -21 -65 -51 q-13 23 -47 48 q194 129 293 328 l72 -13 q-10 -19 -39 -66 l255 0 l11 3 l45 -31 q-41 -77 -108 -153 l308 0 l0 -316 l-281 0 l0 -235 q0 -23 11 -29 q12 -7 51 -7 l182 0 ZM694 238 q105 -77 153 -142 l-47 -39 q-48 68 -151 145 l45 36 Z" /><glyph glyph-name="" unicode="&#x515a;" d="M231 820 q72 -77 102 -139 l-59 -34 q-31 67 -99 144 l56 29 ZM144 434 l-64 0 l0 213 l386 0 l0 189 l67 0 l0 -189 l134 0 q59 84 101 175 l67 -23 q-50 -88 -98 -152 l185 0 l0 -213 l-66 0 l0 153 l-712 0 l0 -153 ZM298 286 l401 0 l0 156 l-401 0 l0 -156 ZM840 -5 q30 0 39 22 q9 22 12 104 q21 -16 61 -26 q-7 -98 -27 -130 q-21 -32 -79 -32 l-171 0 q-68 0 -91 19 q-23 20 -23 76 l0 198 l-127 0 q-23 -126 -94 -192 q-79 -74 -252 -109 q-10 29 -36 59 q157 28 229 87 q63 53 84 155 l-133 0 l0 276 l536 0 l0 -276 l-142 0 l0 -198 q0 -20 10 -27 q10 -6 44 -6 l160 0 Z" /><glyph glyph-name="" unicode="&#x515c;" d="M891 300 l-204 0 l0 63 l139 0 l0 330 l-139 0 l0 63 l204 0 l0 -456 ZM593 675 l-191 0 l0 -128 l191 0 l0 128 ZM593 496 l-191 0 l0 -131 l191 0 l0 131 ZM652 311 l-308 0 l0 418 l90 0 q24 57 35 108 l67 -13 q-30 -80 -37 -95 l153 0 l0 -418 ZM321 428 q2 -33 9 -58 q-208 -95 -224 -110 q-8 35 -29 59 q41 21 41 67 l0 329 q104 43 169 88 l52 -48 q-64 -37 -156 -71 l0 -313 l138 57 ZM412 273 q-18 -148 -80 -223 q-73 -89 -242 -129 q-10 29 -38 57 q157 33 222 107 q53 61 69 188 l69 0 ZM841 -4 q31 0 39 25 q9 25 12 120 q25 -19 62 -27 q-6 -110 -27 -146 q-21 -36 -80 -36 l-157 0 q-66 0 -88 20 q-23 20 -23 76 l0 245 l67 0 l0 -245 q0 -20 9 -26 q9 -6 41 -6 l145 0 Z" /><glyph glyph-name="" unicode="&#x5162;" d="M151 358 l228 0 l0 144 l-228 0 l0 -144 ZM492 156 q5 -29 15 -53 q-176 -96 -197 -118 q-11 30 -29 50 q33 25 33 76 l0 191 l-92 0 q-7 -153 -33 -232 q-34 -98 -114 -148 q-18 34 -41 49 q70 43 99 127 q23 70 27 204 l-71 0 l0 256 l144 0 l0 113 l-175 0 l0 59 l175 0 l0 105 l68 0 l0 -105 l164 0 l0 -59 l-164 0 l0 -113 l142 0 l0 -256 l-70 0 l0 -207 l119 61 ZM593 356 l252 0 l0 146 l-252 0 l0 -146 ZM870 -1 q19 0 26 5 q9 9 13 26 q4 42 3 119 q19 -19 52 -29 q-2 -103 -9 -130 q-8 -30 -28 -42 q-19 -12 -52 -12 l-52 0 q-39 0 -57 17 q-19 15 -19 72 l0 275 l-84 0 q-6 -163 -38 -240 q-38 -91 -139 -138 q-15 32 -39 51 q89 40 123 118 q27 65 32 209 l-72 0 l0 259 l151 0 l0 112 l-172 0 l0 59 l172 0 l0 105 l68 0 l0 -105 l189 0 l0 -59 l-189 0 l0 -112 l161 0 l0 -259 l-102 0 l0 -278 q0 -14 7 -18 q8 -5 21 -5 l34 0 Z" /><glyph glyph-name="" unicode="&#x2f0a;&#x5165;" d="M341 811 q153 -109 303 -412 q142 -289 314 -391 q-26 -36 -33 -73 q-146 82 -250 257 q-32 54 -82 154 q-54 112 -79 156 q-113 -398 -408 -572 q-26 30 -60 53 q315 165 414 608 q-68 101 -159 164 l40 56 Z" /><glyph glyph-name="" unicode="&#x5168;" d="M534 14 l392 0 l0 -61 l-848 0 l0 61 l387 0 l0 171 l-262 0 l0 60 l262 0 l0 162 l-267 0 l0 60 l608 0 l0 -60 l-272 0 l0 -162 l274 0 l0 -60 l-274 0 l0 -171 ZM554 819 l-18 -26 q159 -189 436 -340 q-31 -25 -47 -56 q-263 158 -425 347 q-166 -213 -423 -343 q-16 28 -46 54 q306 142 464 391 l59 -27 Z" /><glyph glyph-name="" unicode="&#x2f0b;&#x516b;" d="M383 731 q-25 -275 -77 -442 q-74 -236 -222 -359 q-19 27 -47 49 q232 190 275 758 l71 -6 ZM653 760 q31 -574 316 -785 q-38 -21 -57 -45 q-281 213 -324 826 l65 4 Z" /><glyph glyph-name="" unicode="&#x516c;" d="M400 786 q-104 -252 -282 -411 q-37 32 -62 47 q178 139 275 383 l69 -19 ZM675 303 q161 -190 241 -335 l-64 -35 q-30 55 -68 111 q-585 -39 -618 -51 q-11 40 -26 69 q26 6 89 85 q118 130 242 384 l70 -32 q-142 -258 -281 -421 l482 27 q-55 80 -128 170 l61 28 ZM659 812 q116 -237 301 -381 q-30 -23 -56 -57 q-182 163 -309 413 l64 25 Z" /><glyph glyph-name="" unicode="&#x516d;" d="M941 569 l0 -68 l-879 0 l0 68 l879 0 ZM385 357 q-117 -248 -271 -427 q-33 27 -65 46 q152 160 264 404 l72 -23 ZM672 388 q194 -270 276 -414 l-68 -37 q-92 171 -270 422 l62 29 ZM478 830 q62 -117 97 -206 l-71 -29 q-32 90 -92 213 l66 22 Z" /><glyph glyph-name="" unicode="&#x5170;" d="M332 626 q-35 80 -117 178 l54 27 q88 -99 121 -173 l-58 -32 ZM901 543 l-801 0 l0 65 l483 0 q86 115 136 227 l68 -22 q-61 -109 -132 -205 l246 0 l0 -65 ZM153 270 l0 65 l679 0 l0 -65 l-679 0 ZM938 43 l0 -66 l-879 0 l0 66 l879 0 Z" /><glyph glyph-name="" unicode="&#x5171;" d="M403 161 q-112 -137 -286 -237 q-17 20 -51 47 q183 101 268 216 l69 -26 ZM647 188 q192 -136 282 -222 l-62 -41 q-95 95 -277 229 l57 34 ZM353 314 l294 0 l0 243 l-294 0 l0 -243 ZM953 314 l0 -65 l-901 0 l0 65 l233 0 l0 243 l-192 0 l0 64 l192 0 l0 205 l68 0 l0 -205 l294 0 l0 205 l68 0 l0 -205 l201 0 l0 -64 l-201 0 l0 -243 l238 0 Z" /><glyph glyph-name="" unicode="&#x5173;" d="M330 625 q-28 78 -99 171 l54 29 q68 -80 104 -168 l-59 -32 ZM558 304 q117 -240 396 -311 q-27 -23 -47 -62 q-266 81 -394 324 q-75 -210 -411 -330 q-17 31 -47 58 q337 116 395 321 l-377 0 l0 66 l390 0 q3 35 3 65 l0 121 l-334 0 l0 65 l470 0 q64 96 111 210 l71 -25 q-53 -101 -111 -185 l204 0 l0 -65 l-337 0 l0 -122 q0 -31 -3 -64 l394 0 l0 -66 l-373 0 Z" /><glyph glyph-name="" unicode="&#x5174;" d="M940 354 l0 -64 l-883 0 l0 64 l883 0 ZM669 233 q183 -159 271 -265 l-60 -41 q-87 112 -266 272 l55 34 ZM380 207 q-114 -166 -283 -282 q-23 31 -48 53 q170 108 260 255 l71 -26 ZM124 743 q111 -154 156 -288 l-63 -30 q-43 134 -153 293 l60 25 ZM422 816 q90 -161 117 -301 l-65 -25 q-27 139 -114 305 l62 21 ZM923 764 q-124 -244 -230 -387 l-60 27 q127 169 220 386 l70 -26 Z" /><glyph glyph-name="" unicode="&#x5175;" d="M411 125 q-134 -116 -304 -200 q-22 26 -47 48 q185 88 288 191 l63 -39 ZM639 164 q187 -102 290 -185 l-51 -50 q-103 86 -288 192 l49 43 ZM294 261 l349 0 l0 242 l-349 0 l0 -242 ZM949 261 l0 -64 l-895 0 l0 64 l173 0 l0 510 q396 22 577 60 l36 -60 q-212 -42 -546 -56 l0 -149 l599 0 l0 -63 l-182 0 l0 -242 l238 0 Z" /><glyph glyph-name="" unicode="&#x5176;" d="M309 199 l381 0 l0 116 l-381 0 l0 -116 ZM309 653 l0 -106 l381 0 l0 106 l-381 0 ZM309 373 l381 0 l0 116 l-381 0 l0 -116 ZM942 138 l-884 0 l0 61 l186 0 l0 454 l-158 0 l0 62 l158 0 l0 119 l65 0 l0 -119 l381 0 l0 119 l67 0 l0 -119 l162 0 l0 -62 l-162 0 l0 -454 l185 0 l0 -61 ZM425 76 q-131 -82 -333 -149 q-21 30 -43 50 q204 62 315 140 l61 -41 ZM621 113 q195 -70 324 -140 l-59 -44 q-118 70 -309 141 l44 43 Z" /><glyph glyph-name="" unicode="&#x5177;" d="M275 206 l459 0 l0 96 l-459 0 l0 -96 ZM275 731 l0 -91 l459 0 l0 91 l-459 0 ZM275 446 l0 -92 l459 0 l0 92 l-459 0 ZM734 588 l-459 0 l0 -90 l459 0 l0 90 ZM947 145 l-890 0 l0 61 l152 0 l0 581 l594 0 l0 -581 l144 0 l0 -61 ZM394 95 q-113 -94 -302 -170 q-15 23 -47 49 q193 71 287 159 l62 -38 ZM651 135 q169 -74 300 -157 l-51 -49 q-115 78 -290 161 l41 45 Z" /><glyph glyph-name="" unicode="&#x5178;" d="M406 98 q-115 -98 -301 -175 q-22 25 -50 48 q187 71 287 164 l64 -37 ZM644 137 q177 -85 292 -164 l-58 -45 q-111 81 -280 166 l46 43 ZM208 222 l151 0 l0 193 l-151 0 l0 -193 ZM208 652 l0 -175 l151 0 l0 175 l-151 0 ZM422 652 l0 -175 l155 0 l0 175 l-155 0 ZM640 652 l0 -175 l158 0 l0 175 l-158 0 ZM577 415 l-155 0 l0 -193 l155 0 l0 193 ZM640 222 l158 0 l0 193 l-158 0 l0 -193 ZM956 222 l0 -64 l-913 0 l0 64 l101 0 l0 492 l215 0 l0 123 l63 0 l0 -123 l155 0 l0 123 l63 0 l0 -123 l224 0 l0 -492 l92 0 Z" /><glyph glyph-name="" unicode="&#x517b;" d="M616 296 l69 0 l0 -372 l-69 0 l0 372 ZM671 390 q112 -111 284 -156 q-27 -25 -44 -56 q-201 65 -315 212 l-182 0 q-41 -55 -91 -95 l53 0 l0 -63 q0 -217 -217 -314 q-22 35 -45 52 q195 82 195 264 l0 50 q-92 -70 -225 -107 q-14 27 -44 59 q175 40 286 154 l-265 0 l0 56 l311 0 q21 28 50 85 l-268 0 l0 55 l291 0 q11 28 26 80 l-365 0 l0 56 l219 0 q-22 50 -63 99 l57 20 q48 -53 70 -102 l-44 -17 l264 0 q50 68 75 121 l68 -21 q-39 -63 -69 -100 l218 0 l0 -56 l-365 0 q-9 -37 -23 -80 l337 0 l0 -55 l-358 0 q-18 -45 -41 -85 l482 0 l0 -56 l-262 0 Z" /><glyph glyph-name="" unicode="&#x517c;" d="M568 242 l0 101 l-146 0 l0 -101 l146 0 ZM422 401 l146 0 l0 91 l-146 0 l0 -91 ZM422 546 l146 0 l0 94 l-146 0 l0 -94 ZM632 492 l0 -91 l144 0 l0 91 l-144 0 ZM776 343 l-144 0 l0 -101 l144 0 l0 101 ZM670 188 q126 -128 290 -188 q-28 -24 -45 -53 q-160 71 -283 204 l0 -227 l-64 0 l0 264 l-146 0 l0 -264 l-64 0 l0 217 q-114 -128 -271 -199 q-16 26 -45 51 q166 63 280 195 l-186 0 l0 54 l222 0 l0 101 l-297 0 l0 58 l297 0 l0 91 l-215 0 l0 54 l215 0 l0 94 l-281 0 l0 58 l236 0 q-35 51 -100 113 l58 27 q74 -65 111 -121 l-39 -19 l282 0 q66 77 101 139 l69 -23 q-46 -65 -91 -116 l220 0 l0 -58 l-292 0 l0 -94 l209 0 l0 -145 l100 0 l0 -58 l-100 0 l0 -155 l-171 0 Z" /><glyph glyph-name="" unicode="&#x517d;" d="M793 656 l-262 0 l0 -87 l262 0 l0 87 ZM793 522 l-262 0 l0 -89 l262 0 l0 89 ZM198 433 l270 0 l0 89 l-270 0 l0 -89 ZM198 569 l270 0 l0 87 l-270 0 l0 -87 ZM858 384 l-722 0 l0 321 l203 0 q-19 45 -66 107 l54 25 q56 -70 72 -112 l-38 -20 l234 0 q52 66 85 129 l61 -23 q-38 -58 -79 -106 l196 0 l0 -321 ZM235 140 l0 -111 l531 0 l0 111 l-531 0 ZM172 196 l659 0 l0 -268 l-65 0 l0 49 l-531 0 l0 -53 l-63 0 l0 272 ZM946 317 l0 -54 l-890 0 l0 54 l890 0 Z" /><glyph glyph-name="" unicode="&#x5180;" d="M668 592 q-69 0 -92 15 q-23 16 -23 62 l0 166 l63 0 l0 -90 q173 33 253 68 l44 -38 q-111 -46 -297 -75 l0 -31 q0 -17 10 -22 q10 -5 46 -5 l173 0 q27 0 36 14 q8 14 11 65 q22 -14 54 -20 q-5 -65 -24 -87 q-19 -22 -71 -22 l-183 0 ZM230 348 l239 0 l0 60 l-239 0 l0 -60 ZM230 451 l239 0 l0 60 l-239 0 l0 -60 ZM775 511 l-243 0 l0 -60 l243 0 l0 60 ZM775 408 l-243 0 l0 -60 l243 0 l0 60 ZM168 556 l671 0 l0 -253 l-671 0 l0 253 ZM67 640 q67 5 285 31 l0 52 l-267 0 l0 49 l267 0 l0 63 l63 0 l0 -255 l-63 0 l0 45 q-102 -14 -278 -37 l-7 52 ZM419 28 q-139 -57 -332 -105 q-10 26 -23 47 q187 43 308 99 l47 -41 ZM622 65 q186 -38 322 -95 l-24 -48 q-112 53 -318 101 l20 42 ZM360 118 l279 0 l0 70 l-279 0 l0 -70 ZM952 118 l0 -48 l-901 0 l0 48 l246 0 l0 70 l-203 0 l0 47 l203 0 l0 52 l63 0 l0 -52 l279 0 l0 53 l65 0 l0 -53 l203 0 l0 -47 l-203 0 l0 -70 l248 0 Z" /><glyph glyph-name="" unicode="&#x5185;" d="M899 16 q0 -64 -44 -79 q-37 -12 -184 -12 q-5 34 -23 68 q98 -4 160 -1 q25 1 25 24 l0 583 l-300 0 q-3 -74 -19 -134 q183 -158 289 -284 l-54 -42 q-83 105 -254 263 q-66 -168 -248 -274 q-21 30 -47 49 q255 139 266 422 l-297 0 l0 -677 l-66 0 l0 742 l364 0 l0 172 l67 0 l0 -172 l365 0 l0 -648 Z" /><glyph glyph-name="" unicode="&#x5188;" d="M697 86 q-54 80 -174 211 q-115 -148 -244 -249 q-35 29 -58 41 q139 101 257 254 q-116 121 -233 218 l47 38 q100 -80 225 -205 q87 123 151 263 l64 -20 q-70 -149 -170 -288 q122 -127 185 -216 l-50 -47 ZM901 19 q0 -61 -45 -78 q-38 -13 -181 -11 q-5 31 -26 65 q96 -4 156 -1 q27 1 27 25 l0 698 l-663 0 l0 -793 l-68 0 l0 858 l800 0 l0 -763 Z" /><glyph glyph-name="" unicode="&#x518c;" d="M779 440 l0 267 l-168 0 l0 -267 l168 0 ZM372 440 l0 267 l-149 0 l0 -267 l149 0 ZM954 376 l-109 0 l0 -369 q0 -55 -36 -70 q-29 -13 -144 -13 q-7 34 -23 63 q54 -1 117 -1 q20 1 20 22 l0 368 l-170 0 q-12 -296 -116 -454 q-18 28 -49 46 q91 143 101 408 l-109 0 l0 -363 q0 -54 -34 -68 q-29 -12 -139 -12 q-4 21 -22 60 q88 -2 112 0 q19 0 19 20 l0 363 l-151 0 q-14 -301 -128 -457 q-21 32 -48 46 q102 145 112 411 l-111 0 l0 64 l113 0 l0 329 l277 0 l0 -329 l110 0 l0 329 l299 0 l0 -329 l109 0 l0 -64 Z" /><glyph glyph-name="" unicode="&#x518d;" d="M770 229 l0 132 l-240 0 l0 -132 l240 0 ZM229 229 l234 0 l0 132 l-234 0 l0 -132 ZM229 546 l0 -127 l234 0 l0 127 l-234 0 ZM530 546 l0 -127 l240 0 l0 127 l-240 0 ZM958 167 l-122 0 l0 -158 q0 -59 -42 -74 q-34 -12 -171 -12 q-7 34 -26 64 q97 -3 150 0 q23 0 23 22 l0 158 l-541 0 l0 -245 l-66 0 l0 245 l-119 0 l0 62 l119 0 l0 378 l300 0 l0 104 l-383 0 l0 62 l841 0 l0 -62 l-391 0 l0 -104 l306 0 l0 -378 l122 0 l0 -62 Z" /><glyph glyph-name="" unicode="&#x5192;" d="M260 356 l0 -76 l479 0 l0 76 l-479 0 ZM739 154 l0 77 l-479 0 l0 -77 l479 0 ZM739 24 l0 80 l-479 0 l0 -80 l479 0 ZM195 408 l611 0 l0 -477 l-67 0 l0 41 l-479 0 l0 -45 l-65 0 l0 481 ZM746 616 l-493 0 l0 49 l493 0 l0 -49 ZM255 490 l0 49 l490 0 l0 -49 l-490 0 ZM873 789 l0 -331 l-66 0 l0 279 l-619 0 l0 -281 l-64 0 l0 333 l749 0 Z" /><glyph glyph-name="" unicode="&#x5195;" d="M211 521 l-63 0 l0 276 l704 0 l0 -274 l-64 0 l0 224 l-577 0 l0 -226 ZM731 649 l-461 0 l0 43 l461 0 l0 -43 ZM270 591 l461 0 l0 -42 l-461 0 l0 42 ZM534 316 q-7 -53 -20 -106 l264 0 l0 106 l-244 0 ZM446 210 q14 46 22 106 l-231 0 l0 -106 l209 0 ZM329 440 q-41 -39 -85 -72 l285 0 q40 31 76 72 l-276 0 ZM842 -5 q33 0 43 20 q10 20 13 96 q20 -16 57 -24 q-6 -90 -27 -119 q-21 -29 -80 -29 l-189 0 q-70 0 -95 17 q-24 18 -24 68 l0 134 l-44 0 q-41 -96 -134 -150 q-99 -57 -284 -84 q-9 27 -31 56 q302 39 377 178 l-251 0 l0 164 q-39 -23 -86 -45 q-13 25 -41 46 q202 88 294 221 l69 -14 q-12 -17 -35 -43 l271 0 l11 3 l43 -27 q-33 -46 -87 -95 l233 0 l0 -210 l-242 0 l0 -133 q0 -19 11 -24 q11 -6 49 -6 l179 0 Z" /><glyph glyph-name="" unicode="&#x5197;" d="M154 518 l-68 0 l0 248 l834 0 l0 -248 l-70 0 l0 183 l-696 0 l0 -183 ZM853 2 q24 0 31 32 q8 32 10 142 q26 -19 64 -29 q-5 -125 -24 -167 q-21 -44 -76 -44 l-119 0 q-56 0 -76 22 q-21 22 -21 84 l0 423 l-288 0 l0 -145 q0 -280 -271 -397 q-16 37 -40 57 q145 62 201 161 q41 71 41 182 l0 204 l426 0 l0 -485 q0 -25 7 -33 q7 -7 30 -7 l105 0 Z" /><glyph glyph-name="" unicode="&#x5199;" d="M818 352 q-34 -334 -86 -384 q-26 -28 -80 -29 q-44 -4 -161 3 q-2 31 -21 63 q79 -8 161 -8 q34 0 46 11 q44 37 72 316 l-530 0 q43 153 85 372 l67 -6 q-11 -57 -24 -113 l449 0 l0 -59 l-462 0 q-14 -67 -31 -134 l518 0 l-3 -32 ZM661 148 l-567 0 l0 62 l567 0 l0 -62 ZM918 780 l0 -188 l-68 0 l0 126 l-701 0 l0 -126 l-66 0 l0 188 l835 0 Z" /><glyph glyph-name="" unicode="&#x519b;" d="M145 588 l-64 0 l0 205 l840 0 l0 -205 l-67 0 l0 146 l-709 0 l0 -146 ZM930 93 l-363 0 l0 -168 l-66 0 l0 168 l-422 0 l0 62 l422 0 l0 130 l-190 0 q-85 0 -101 -14 q-6 28 -22 64 q18 4 56 65 q21 34 61 116 l-123 0 l0 59 l149 0 q32 71 47 125 l68 -21 q-35 -84 -44 -104 l414 0 l0 -59 l-442 0 q-46 -97 -95 -171 l222 0 l0 121 l66 0 l0 -121 l278 0 l0 -60 l-278 0 l0 -130 l363 0 l0 -62 Z" /><glyph glyph-name="" unicode="&#x519c;" d="M868 422 q-95 -87 -212 -164 q118 -182 304 -259 q-29 -24 -48 -56 q-318 146 -444 592 q-58 -102 -142 -178 l0 -332 l236 68 q2 -38 7 -59 q-297 -94 -323 -111 q-11 35 -30 61 q44 16 44 63 l0 257 q-78 -55 -173 -95 q-24 34 -49 54 q297 108 412 383 l-285 0 l0 -139 l-65 0 l0 201 l374 0 q18 51 35 128 l66 -12 q-18 -76 -33 -116 l362 0 l0 -201 l-68 0 l0 139 l-315 0 l-12 -27 q42 -177 117 -311 q113 80 189 157 l53 -43 Z" /><glyph glyph-name="" unicode="&#x51a0;" d="M832 134 q0 -50 -34 -64 q-30 -12 -131 -10 q-5 28 -21 58 q83 -2 105 0 q18 1 18 17 l0 314 l-259 0 l0 61 l259 0 l0 130 l63 0 l0 -130 l113 0 l0 -61 l-113 0 l0 -315 ZM599 391 q66 -87 92 -171 l-56 -25 q-25 86 -88 174 l52 22 ZM148 619 l-65 0 l0 167 l836 0 l0 -167 l-67 0 l0 105 l-704 0 l0 -105 ZM125 598 l349 0 l0 -62 l-349 0 l0 62 ZM809 -3 q53 0 69 24 q15 24 20 112 q27 -17 61 -24 q-9 -105 -36 -137 q-29 -35 -113 -35 l-297 0 q-96 0 -129 21 q-34 22 -34 86 l0 296 l-113 0 l0 -73 q0 -225 -152 -344 q-21 32 -45 47 q135 103 135 298 l0 72 l-118 0 l0 62 l455 0 l0 -62 l-99 0 l0 -296 q0 -29 18 -38 q19 -9 80 -9 l298 0 Z" /><glyph glyph-name="" unicode="&#x51a4;" d="M150 590 l-64 0 l0 199 l824 0 l0 -199 l-66 0 l0 139 l-694 0 l0 -139 ZM536 426 q-11 -90 -25 -144 l258 0 l0 144 l-233 0 ZM444 282 q16 62 25 144 l-217 0 l0 -144 l192 0 ZM348 575 q-52 -57 -91 -93 l238 0 q43 44 73 93 l-220 0 ZM833 -1 q35 0 45 23 q10 22 13 107 q19 -14 61 -25 q-8 -102 -29 -134 q-23 -33 -86 -33 l-191 0 q-73 0 -98 19 q-25 20 -25 76 l0 194 l-28 0 q-84 -231 -407 -303 q-9 25 -34 57 q289 61 370 246 l-237 0 l0 199 q-27 -21 -89 -59 q-18 29 -45 48 q211 115 312 294 l71 -13 q-29 -46 -44 -65 l215 0 l10 3 l43 -30 q-39 -67 -91 -121 l268 0 l0 -256 l-250 0 l0 -194 q0 -21 12 -27 q11 -6 51 -6 l183 0 ZM692 202 q89 -66 124 -117 l-48 -34 q-37 56 -122 119 l46 32 Z" /><glyph glyph-name="" unicode="&#x51ac;" d="M259 127 q297 -72 484 -149 l-32 -62 q-186 82 -483 158 l31 53 ZM381 299 q205 -59 329 -110 l-32 -59 q-123 53 -327 118 l30 51 ZM361 675 q-16 -20 -24 -29 q61 -83 161 -151 q128 84 197 180 l-334 0 ZM795 710 q-78 -140 -238 -253 q177 -99 398 -135 q-19 -19 -42 -63 q-238 47 -414 161 q-186 -114 -416 -167 q-10 36 -33 61 q212 44 391 146 q-87 68 -144 142 q-83 -85 -166 -140 q-17 30 -45 49 q201 129 304 326 l72 -14 q-33 -56 -57 -89 l335 0 l11 3 l44 -27 Z" /><glyph glyph-name="" unicode="&#x51af;" d="M41 5 q83 158 151 347 l58 -32 q-62 -175 -144 -347 l-65 32 ZM113 794 q107 -142 149 -237 l-63 -31 q-40 99 -145 241 l59 27 ZM767 146 l-475 0 l0 62 l475 0 l0 -62 ZM916 400 q-1 -22 -3 -31 q-31 -357 -86 -409 q-26 -27 -79 -30 q-60 -4 -166 4 q-2 33 -20 61 q80 -8 164 -8 q34 0 48 12 q44 40 73 339 l-460 0 l0 1 l-22 0 q19 120 32 300 l65 -5 q-10 -124 -24 -234 l285 0 q19 135 35 310 l-440 0 l0 64 l452 0 l11 4 l48 -6 q-9 -108 -39 -372 l126 0 Z" /><glyph glyph-name="" unicode="&#x51b0;" d="M220 580 q-61 64 -175 136 l39 47 q116 -67 177 -130 l-41 -53 ZM269 351 q-92 -187 -167 -307 l-57 41 q87 131 174 307 l50 -41 ZM539 566 q-55 -369 -261 -529 q-18 33 -43 54 q170 118 231 419 l-184 0 l0 65 l206 0 l12 2 l39 -11 ZM934 600 q-98 -119 -207 -212 q93 -209 243 -291 q-32 -29 -47 -56 q-186 118 -281 432 l0 -456 q0 -60 -39 -77 q-32 -15 -149 -15 q-5 32 -27 70 q92 -3 126 -1 q22 1 22 22 l0 818 l67 0 l0 -176 q25 -118 61 -213 q109 100 176 190 l55 -35 Z" /><glyph glyph-name="" unicode="&#x51b2;" d="M224 565 q-47 87 -156 198 l49 35 q113 -111 161 -193 l-54 -40 ZM57 11 q89 138 180 328 l48 -42 q-80 -174 -172 -329 l-56 43 ZM867 311 l0 258 l-206 0 l0 -258 l206 0 ZM595 311 l0 258 l-201 0 l0 -258 l201 0 ZM933 632 l0 -440 l-66 0 l0 57 l-206 0 l0 -323 l-66 0 l0 323 l-201 0 l0 -63 l-63 0 l0 446 l264 0 l0 193 l66 0 l0 -193 l272 0 Z" /><glyph glyph-name="" unicode="&#x51b3;" d="M209 563 q-41 80 -153 200 l52 33 q111 -115 158 -195 l-57 -38 ZM266 298 q-76 -173 -166 -328 l-56 40 q89 145 172 329 l50 -41 ZM631 505 q0 -77 -6 -130 l166 0 l0 238 l-160 0 l0 -108 ZM668 311 q78 -254 294 -328 q-26 -25 -44 -58 q-223 90 -308 365 q-55 -240 -313 -368 q-15 28 -46 53 q248 113 295 336 l-240 0 l0 64 l250 0 q6 54 6 130 l0 108 l-203 0 l0 63 l203 0 l0 157 l69 0 l0 -157 l224 0 l0 -301 l103 0 l0 -64 l-290 0 Z" /><glyph glyph-name="" unicode="&#x51b5;" d="M212 566 q-49 88 -156 197 l51 36 q113 -115 159 -192 l-54 -41 ZM271 297 q-79 -173 -171 -330 l-57 44 q89 138 180 328 l48 -42 ZM442 449 l384 0 l0 278 l-384 0 l0 -278 ZM867 -5 q20 0 27 28 q6 27 8 125 q21 -18 58 -28 q-5 -109 -22 -146 q-17 -38 -64 -38 l-103 0 q-52 0 -70 20 q-18 20 -18 75 l0 356 l-127 0 q-12 -192 -56 -286 q-57 -118 -198 -175 q-13 28 -42 53 q131 50 182 153 q40 83 49 255 l-115 0 l0 403 l519 0 l0 -403 l-146 0 l0 -357 q0 -22 6 -28 q6 -7 25 -7 l87 0 Z" /><glyph glyph-name="" unicode="&#x51b6;" d="M217 569 q-48 85 -161 194 l51 35 q118 -114 164 -188 l-54 -41 ZM44 10 q89 133 187 327 l48 -44 q-86 -175 -179 -327 l-56 44 ZM433 259 l0 -230 l363 0 l0 230 l-363 0 ZM368 321 l495 0 l0 -395 l-67 0 l0 41 l-363 0 l0 -45 l-65 0 l0 399 ZM727 703 q148 -153 219 -287 l-58 -35 q-20 37 -41 68 q-488 -32 -517 -44 q-5 24 -23 64 q25 5 70 66 q103 125 182 301 l69 -20 q-107 -201 -212 -330 l391 22 q-63 90 -136 167 l56 28 Z" /><glyph glyph-name="" unicode="&#x51b7;" d="M186 551 q-35 87 -132 216 l58 26 q94 -117 136 -210 l-62 -32 ZM42 4 q84 162 150 339 l57 -31 q-61 -173 -142 -338 l-65 30 ZM866 345 q-81 -143 -231 -287 q64 -47 111 -90 l-48 -44 q-89 87 -268 208 l45 38 q68 -44 109 -75 q107 101 184 214 l-409 0 l0 62 l449 0 l12 4 l46 -30 ZM580 556 q61 -55 105 -115 l-54 -34 q-39 60 -103 122 l52 27 ZM658 815 q-12 -24 -19 -35 q120 -193 309 -299 q-31 -25 -49 -55 q-169 110 -293 300 q-119 -183 -307 -305 q-18 27 -48 49 q232 144 342 366 l65 -21 Z" /><glyph glyph-name="" unicode="&#x51bb;" d="M196 532 q-39 92 -142 230 l53 30 q104 -131 147 -224 l-58 -36 ZM45 9 q79 136 158 327 l53 -34 q-68 -170 -151 -328 l-60 35 ZM485 228 q-70 -154 -158 -251 q-22 22 -52 40 q90 93 143 230 l67 -19 ZM674 334 l0 -324 q0 -55 -37 -70 q-31 -12 -148 -12 q-5 32 -21 64 q89 -3 121 -1 q19 1 19 19 l0 324 l-163 0 q-78 0 -92 -14 q-11 43 -23 66 q20 6 57 83 q35 73 69 170 l-167 0 l0 62 l188 0 q30 100 40 141 l68 -18 q-12 -51 -37 -123 l393 0 l0 -62 l-414 0 q-50 -137 -104 -244 l185 0 l0 155 l66 0 l0 -155 l228 0 l0 -61 l-228 0 ZM805 249 q105 -151 145 -233 l-59 -30 q-52 105 -143 238 l57 25 Z" /><glyph glyph-name="" unicode="&#x51c0;" d="M195 542 q-40 85 -142 222 l58 27 q104 -136 146 -217 l-62 -32 ZM54 4 q86 157 152 333 l59 -33 q-67 -175 -145 -333 l-66 33 ZM809 346 l-184 0 l0 -114 l184 0 l0 114 ZM625 407 l184 0 l0 109 l-184 0 l0 -109 ZM470 691 q-42 -66 -81 -115 l217 0 q39 44 75 115 l-211 0 ZM954 346 l-83 0 l0 -215 l-62 0 l0 41 l-184 0 l0 -165 q0 -57 -39 -70 q-32 -12 -155 -12 q-7 31 -23 63 q86 -3 131 0 q21 1 21 19 l0 165 l-228 0 l0 60 l228 0 l0 114 l-285 0 l0 61 l285 0 l0 109 l-199 0 l0 29 q-26 -30 -48 -50 q-23 25 -52 45 q137 114 214 296 l62 -17 q-8 -20 -33 -69 l213 0 l11 3 l43 -29 q-37 -76 -93 -148 l193 0 l0 -169 l83 0 l0 -61 Z" /><glyph glyph-name="" unicode="&#x51c4;" d="M42 5 q64 142 123 331 l51 -31 q-61 -195 -116 -330 l-58 30 ZM99 794 q87 -124 122 -216 l-54 -33 q-31 88 -119 222 l51 27 ZM606 375 l189 0 l0 80 l-189 0 l0 -80 ZM606 505 l189 0 l0 77 l-189 0 l0 -77 ZM494 194 q-38 -49 -51 -64 q66 -14 165 -42 q61 46 88 106 l-202 0 ZM580 323 q-18 -34 -48 -75 l418 0 l0 -54 l-182 0 q-30 -73 -93 -125 q156 -51 239 -93 l-53 -43 q-79 44 -243 96 q-121 -68 -359 -99 q-9 28 -32 55 q201 17 316 68 q-123 34 -200 50 q36 36 78 91 l-174 0 l0 54 l215 0 q26 39 49 75 l-212 0 l0 52 l243 0 l0 80 l-309 0 l0 50 l309 0 l0 77 l-238 0 l0 51 l238 0 l0 66 l-296 0 l0 55 l296 0 l0 81 l64 0 l0 -81 l329 0 l0 -55 l-329 0 l0 -66 l254 0 l0 -127 l93 0 l0 -55 l-93 0 l0 -128 l-280 0 Z" /><glyph glyph-name="" unicode="&#x51c6;" d="M681 659 q-17 55 -73 143 l56 26 q58 -87 77 -140 l-60 -29 ZM190 542 q-42 93 -137 221 l58 27 q94 -121 141 -215 l-62 -33 ZM54 4 q81 144 152 333 l59 -33 q-64 -167 -145 -333 l-66 33 ZM431 57 l216 0 l0 143 l-216 0 l0 -143 ZM647 597 l-216 0 l0 -139 l216 0 l0 139 ZM647 399 l-216 0 l0 -140 l216 0 l0 140 ZM948 -4 l-517 0 l0 -72 l-62 0 l0 595 q-48 -73 -103 -133 q-31 34 -50 47 q149 143 233 393 l61 -15 q-25 -74 -64 -155 l481 0 l0 -59 l-216 0 l0 -139 l196 0 l0 -59 l-196 0 l0 -140 l195 0 l0 -59 l-195 0 l0 -143 l237 0 l0 -61 Z" /><glyph glyph-name="" unicode="&#x51c9;" d="M919 656 l-619 0 l0 62 l288 0 q-19 52 -44 101 l64 18 q35 -64 54 -119 l257 0 l0 -62 ZM190 516 q-37 104 -136 251 l56 29 q103 -144 139 -243 l-59 -37 ZM43 5 q83 149 157 339 l58 -31 q-73 -186 -152 -339 l-63 31 ZM462 222 q-66 -143 -150 -245 q-25 25 -53 39 q82 91 141 225 l62 -19 ZM427 355 l359 0 l0 156 l-359 0 l0 -156 ZM644 298 l0 -296 q0 -52 -36 -64 q-29 -11 -145 -11 q-6 25 -24 60 q87 -3 117 -1 q19 1 19 17 l0 295 l-212 0 l0 271 l490 0 l0 -271 l-209 0 ZM799 239 q93 -134 131 -217 l-57 -28 q-44 91 -130 222 l56 23 Z" /><glyph glyph-name="" unicode="&#x51cc;" d="M936 529 l-646 0 l0 58 l291 0 l0 101 l-227 0 l0 58 l227 0 l0 90 l65 0 l0 -90 l221 0 l0 -58 l-221 0 l0 -101 l290 0 l0 -58 ZM891 336 q-87 65 -217 131 l39 38 q126 -61 217 -125 l-39 -44 ZM542 482 q-105 -91 -210 -153 l-45 46 q118 59 199 131 l56 -24 ZM189 545 q-37 91 -135 223 l57 25 q94 -119 139 -217 l-61 -31 ZM42 4 q82 156 150 339 l54 -29 q-62 -176 -142 -339 l-62 29 ZM493 244 q44 -75 126 -133 q95 62 141 145 l-255 0 l-12 -12 ZM847 291 q-49 -128 -172 -215 q122 -68 286 -92 q-21 -21 -40 -57 q-171 30 -303 112 q-133 -77 -334 -113 q-17 35 -37 53 q183 30 316 99 q-67 53 -114 125 q-60 -54 -127 -93 q-27 32 -47 47 q183 98 269 250 l60 -20 q-22 -38 -53 -78 l240 0 l13 3 l43 -21 Z" /><glyph glyph-name="" unicode="&#x51cf;" d="M889 684 q-48 60 -128 114 l41 33 q87 -60 128 -111 l-41 -36 ZM181 545 q-36 96 -127 221 l52 24 q93 -124 130 -217 l-55 -28 ZM238 312 q-63 -179 -139 -338 l-57 28 q82 162 145 339 l51 -29 ZM467 338 l0 -164 l129 0 l0 164 l-129 0 ZM467 119 l0 -59 l-53 0 l0 333 l232 0 l0 -274 l-179 0 ZM653 475 l-251 0 l0 53 l251 0 l0 -53 ZM927 512 q-49 -202 -137 -345 q37 -167 88 -170 q27 -1 41 158 q16 -19 47 -32 q-24 -202 -87 -200 q-84 3 -135 179 q-76 -100 -182 -171 q-15 19 -45 42 q125 75 209 202 q-33 168 -49 436 l-316 0 l0 -205 q0 -325 -112 -486 q-21 24 -50 35 q102 148 102 451 l0 265 l373 0 l-6 159 l59 0 q1 -56 5 -159 l215 0 l0 -60 l-211 0 q12 -203 37 -359 q64 126 97 272 l57 -12 Z" /><glyph glyph-name="" unicode="&#x51d1;" d="M48 4 q81 154 143 333 l60 -31 q-63 -177 -135 -332 l-68 30 ZM105 791 q100 -129 146 -217 l-61 -33 q-42 88 -142 223 l57 27 ZM592 139 q-74 -149 -280 -209 q-11 27 -34 50 q175 47 243 159 l-168 0 l0 55 l195 0 q13 35 24 92 l-122 0 l0 55 l303 0 l0 -55 l-117 0 q-10 -55 -23 -92 l267 0 l0 -55 l-288 0 ZM633 116 q158 -54 284 -134 l-37 -51 q-116 81 -283 140 l36 45 ZM755 418 q82 -90 211 -131 q-28 -23 -42 -50 q-151 56 -240 181 l-183 0 q-75 -116 -195 -187 q-15 26 -45 52 q101 55 162 135 l-150 0 l0 56 l188 0 q25 40 39 78 l-162 0 l0 55 l183 0 q13 37 22 76 l-236 0 l0 57 l248 0 q9 43 15 96 l66 -6 q-6 -50 -15 -90 l291 0 l0 -57 l-303 0 l-10 -39 q-7 -23 -10 -37 l294 0 l0 -55 l-314 0 q-24 -60 -35 -78 l405 0 l0 -56 l-184 0 Z" /><glyph glyph-name="" unicode="&#x51db;" d="M938 699 l-653 0 l0 52 l286 0 q-13 36 -33 76 l65 16 q18 -33 43 -92 l292 0 l0 -52 ZM697 523 l-172 0 l0 -50 l172 0 l0 50 ZM747 439 l-273 0 l0 118 l273 0 l0 -118 ZM824 602 l-424 0 l0 -211 l424 0 l0 211 ZM884 350 l-543 0 l0 294 l543 0 l0 -294 ZM363 248 l0 50 l497 0 l0 -50 l-497 0 ZM226 540 q-47 81 -159 182 l43 38 q117 -103 162 -176 l-46 -44 ZM284 361 q-104 -190 -183 -308 l-53 42 q85 113 189 307 l47 -41 ZM486 102 q-77 -91 -190 -157 q-38 34 -50 42 q117 60 179 134 l61 -19 ZM645 139 l0 -143 q0 -47 -34 -60 q-27 -9 -139 -9 q-2 13 -22 55 q91 -3 115 0 q16 1 16 15 l0 142 l-301 0 l0 52 l666 0 l0 -52 l-301 0 ZM779 119 q108 -71 172 -140 l-53 -34 q-64 72 -169 145 l50 29 Z" /><glyph glyph-name="" unicode="&#x51dd;" d="M663 686 q43 -22 86 -49 q49 43 98 110 l-258 0 l0 57 l300 0 l13 3 l40 -28 q-60 -94 -146 -174 q44 -31 69 -56 l-38 -45 q-69 70 -201 142 l37 40 ZM357 527 q-56 0 -75 16 q-18 16 -18 65 l0 227 l62 0 l0 -116 q131 43 181 72 l37 -46 q-73 -36 -218 -75 l0 -63 q0 -16 7 -21 q7 -5 31 -5 l116 0 q19 0 25 13 q6 13 7 61 q21 -15 55 -23 q-4 -62 -21 -84 q-17 -21 -59 -21 l-130 0 ZM167 541 q-31 97 -113 226 l56 21 q84 -128 116 -222 l-59 -25 ZM213 315 q-51 -184 -109 -333 l-61 23 q62 146 114 335 l56 -25 ZM421 169 q86 -69 126 -127 l-45 -42 q-36 51 -99 111 q-44 -115 -159 -188 q-18 24 -42 41 q134 79 163 228 l-134 0 l0 59 l141 0 q1 14 1 39 l0 88 l-56 0 q-25 -67 -49 -108 q-29 21 -49 31 q51 79 76 223 l58 -12 l-18 -78 l214 0 l0 -56 l-117 0 l0 -89 q0 -24 -1 -38 l130 0 l0 -59 l-136 0 l-2 -12 q-2 -8 -2 -11 ZM789 3 q36 -10 77 -10 q75 0 95 1 q-13 -23 -19 -58 l-79 0 q-85 0 -135 32 q-62 40 -96 138 q-29 -120 -90 -181 q-16 26 -39 39 q94 94 103 393 l52 0 q-3 -94 -11 -154 q27 -120 84 -168 l0 408 l-159 0 l0 58 l337 0 l9 3 l37 -10 q-20 -96 -42 -156 l-46 13 q12 37 24 92 l-102 0 l0 -176 l152 0 l0 -55 l-152 0 l0 -209 Z" /><glyph glyph-name="" unicode="&#x2f0f;&#x51e0;" d="M858 12 q22 0 30 38 q6 33 9 152 q28 -24 63 -31 q-5 -131 -23 -175 q-20 -49 -75 -49 l-114 0 q-54 0 -74 24 q-20 24 -20 91 l0 648 l-326 0 l0 -239 q0 -381 -229 -549 q-21 32 -50 51 q210 153 210 499 l0 303 l463 0 l0 -714 q0 -31 7 -40 q6 -9 29 -9 l100 0 Z" /><glyph glyph-name="" unicode="&#x51e1;" d="M393 534 q147 -145 213 -225 l-53 -45 q-68 89 -209 234 l49 36 ZM860 14 q22 0 30 38 q6 33 9 151 q28 -23 63 -30 q-5 -130 -23 -174 q-20 -49 -74 -49 l-112 0 q-53 0 -72 23 q-20 24 -20 91 l0 646 l-352 0 l0 -212 q0 -395 -217 -576 q-24 31 -51 49 q200 166 200 528 l0 277 l487 0 l0 -713 q0 -31 6 -40 q6 -9 28 -9 l98 0 Z" /><glyph glyph-name="" unicode="&#x51e4;" d="M697 575 q-43 -186 -136 -324 q100 -98 149 -169 l-48 -48 q-50 73 -140 165 q-106 -133 -248 -202 q-19 33 -39 52 q136 60 242 195 q-84 81 -174 152 l43 41 q80 -61 169 -142 q69 103 105 232 l-322 0 l0 61 l347 0 l12 3 l40 -16 ZM837 782 q-1 -359 8 -522 q13 -254 54 -254 q17 0 21 155 q18 -29 41 -47 q-5 -101 -19 -138 q-14 -41 -50 -42 q-79 0 -103 234 q-13 129 -17 553 l-550 0 l0 -185 q0 -408 -124 -615 q-26 28 -57 39 q115 187 115 576 l0 246 l681 0 Z" /><glyph glyph-name="" unicode="&#x51eb;" d="M919 450 l-2 -29 q-15 -214 -43 -243 q-20 -23 -54 -24 q-37 -4 -98 1 q-4 33 -17 59 q37 -4 86 -4 q20 -1 29 9 q18 18 29 169 l-669 0 l0 358 l208 0 q22 38 43 90 l70 -14 q-16 -29 -45 -76 l346 0 l0 -27 q-8 -162 -28 -183 q-16 -19 -52 -22 q-43 -2 -98 2 q-2 29 -16 51 q38 -4 85 -4 q19 0 26 8 q11 13 16 113 l-489 0 l0 -234 l673 0 ZM537 506 q-71 49 -198 89 l29 45 q128 -37 199 -83 l-30 -51 ZM800 5 q48 0 60 3 q22 3 29 21 q6 21 8 84 q25 -20 58 -28 q-4 -77 -17 -99 q-13 -24 -49 -32 q-27 -7 -86 -7 l-109 0 q-61 0 -91 15 q-35 16 -35 87 l0 202 l-234 0 l0 -45 q0 -198 -243 -279 q-19 30 -49 50 q224 73 224 232 l0 101 l369 0 l0 -264 q0 -32 18 -37 q15 -4 49 -4 l98 0 Z" /><glyph glyph-name="" unicode="&#x51ed;" d="M585 726 q-118 -12 -227 -20 q-3 18 -17 49 q352 28 503 69 l48 -48 q-89 -23 -241 -43 l0 -123 l291 0 l0 -58 l-291 0 l0 -127 l273 0 l0 -58 l-588 0 l0 58 l249 0 l0 127 l-284 0 l0 58 l284 0 l0 116 ZM179 593 q-45 -47 -102 -90 q-20 24 -48 46 q165 112 250 287 l61 -17 q-36 -74 -97 -152 l0 -331 l-64 0 l0 257 ZM869 1 q22 0 28 22 q7 21 9 103 q19 -14 59 -25 q-4 -96 -23 -128 q-18 -32 -67 -32 l-121 0 q-55 0 -75 18 q-20 19 -20 71 l0 196 l-323 0 l0 -37 q0 -186 -251 -266 q-13 29 -38 57 q222 65 222 211 l0 95 l456 0 l0 -256 q0 -18 7 -23 q7 -6 30 -6 l107 0 Z" /><glyph glyph-name="" unicode="&#x51ef;" d="M487 548 l-398 0 l0 224 l56 0 l0 -169 l113 0 l0 228 l59 0 l0 -228 l113 0 l0 169 l57 0 l0 -224 ZM438 104 q0 -18 6 -57 q-313 -79 -335 -92 q-9 33 -25 57 q21 10 21 52 l0 213 l300 0 l0 124 l-319 0 l0 60 l380 0 l0 -243 l-23 0 l0 -1 l-280 0 l0 -178 l275 65 ZM887 -7 q12 0 16 26 q3 24 5 105 q22 -17 52 -24 q-4 -91 -17 -123 q-15 -34 -51 -34 l-57 0 q-41 0 -55 19 q-13 18 -13 72 l0 687 l-139 0 l0 -236 q0 -378 -129 -561 q-18 24 -50 41 q117 165 117 521 l0 293 l262 0 l0 -746 q0 -26 3 -33 q3 -7 14 -7 l42 0 Z" /><glyph glyph-name="" unicode="&#x51f0;" d="M530 25 l262 0 l0 -55 l-592 0 l0 55 l266 0 l0 86 l-186 0 l0 52 l186 0 l0 77 l-217 0 l0 53 l497 0 l0 -53 l-216 0 l0 -77 l190 0 l0 -52 l-190 0 l0 -86 ZM653 586 l-307 0 l0 -70 l307 0 l0 70 ZM653 471 l-307 0 l0 -70 l307 0 l0 70 ZM542 704 l-34 -71 l206 0 l0 -280 l-427 0 l0 280 l156 0 q19 47 29 83 l70 -12 ZM844 780 q0 -373 7 -523 q13 -256 51 -256 q17 0 19 155 q20 -30 41 -46 q-6 -100 -19 -137 q-14 -40 -48 -41 q-77 0 -99 235 q-12 125 -15 554 l-564 0 l0 -186 q0 -407 -124 -611 q-23 26 -54 37 q114 187 114 574 l0 245 l691 0 Z" /><glyph glyph-name="" unicode="&#x51f3;" d="M346 640 q-119 -99 -267 -154 q-14 25 -38 47 q96 32 183 88 q-44 41 -100 76 l35 30 q61 -36 107 -79 q65 46 112 102 l-268 0 l0 51 l307 0 l11 3 l41 -24 q-42 -70 -115 -133 l300 0 q-86 78 -134 170 l51 18 q22 -41 65 -93 q73 45 126 91 l46 -32 q-52 -44 -139 -92 q34 -34 68 -57 q61 35 130 89 l45 -32 q-58 -45 -133 -85 q82 -52 178 -79 q-25 -23 -40 -52 q-143 47 -257 149 l0 -41 l-314 0 l0 39 ZM296 426 l414 0 l0 72 l-414 0 l0 -72 ZM71 291 l262 0 q-20 42 -48 76 l43 14 l-94 0 l0 163 l541 0 l0 -163 l-431 0 q34 -39 58 -90 l199 0 q30 42 53 90 l63 -18 l-48 -72 l260 0 l0 -52 l-858 0 l0 52 ZM864 -1 q20 0 27 17 q6 18 8 83 q20 -16 57 -24 q-4 -78 -22 -105 q-17 -26 -62 -26 l-122 0 q-55 0 -74 16 q-20 16 -20 64 l0 111 l-319 0 l0 -10 q0 -143 -252 -199 q-11 27 -35 56 q223 44 223 146 l0 60 l448 0 l0 -164 q0 -16 6 -20 q7 -5 30 -5 l107 0 Z" /><glyph glyph-name="" unicode="&#x51f6;" d="M723 121 q-67 105 -197 247 q-131 -160 -287 -268 q-10 10 -58 46 q167 105 301 270 q-143 152 -281 274 l44 42 q150 -131 278 -264 q104 140 179 305 l65 -21 q-85 -182 -199 -331 q138 -146 206 -249 l-51 -51 ZM908 643 l0 -702 l-68 0 l0 34 l-747 0 l0 668 l67 0 l0 -604 l680 0 l0 604 l68 0 Z" /><glyph glyph-name="" unicode="&#x51f8;" d="M824 73 l0 324 l-212 0 l0 312 l-229 0 l0 -313 l-209 0 l0 -323 l650 0 ZM890 460 l0 -518 l-66 0 l0 68 l-650 0 l0 -75 l-66 0 l0 523 l211 0 l0 313 l359 0 l0 -311 l212 0 Z" /><glyph glyph-name="" unicode="&#x51f9;" d="M816 85 l0 596 l-164 0 l0 -361 l-309 0 l0 361 l-173 0 l0 -596 l646 0 ZM883 744 l0 -811 l-67 0 l0 88 l-646 0 l0 -78 l-64 0 l0 802 l303 0 l0 -362 l179 0 l0 361 l295 0 Z" /><glyph glyph-name="" unicode="&#x51fa;" d="M890 339 l0 -413 l-72 0 l0 58 l-707 0 l0 355 l72 0 l0 -290 l280 0 l0 355 l-309 0 l0 339 l69 0 l0 -274 l240 0 l0 366 l72 0 l0 -366 l244 0 l0 275 l72 0 l0 -340 l-316 0 l0 -355 l283 0 l0 290 l72 0 Z" /><glyph glyph-name="" unicode="&#x51fb;" d="M536 47 l243 0 l0 255 l67 0 l0 -378 l-67 0 l0 59 l-626 0 l0 320 l70 0 l0 -256 l244 0 l0 335 l-396 0 l0 67 l396 0 l0 163 l-322 0 l0 66 l322 0 l0 157 l69 0 l0 -157 l326 0 l0 -66 l-326 0 l0 -163 l396 0 l0 -67 l-396 0 l0 -335 Z" /><glyph glyph-name="" unicode="&#x51fd;" d="M468 604 q107 49 204 126 l-488 0 l0 62 l559 0 l15 3 l44 -34 q-112 -104 -268 -183 l0 -143 q34 -26 51 -40 q97 103 151 188 l56 -29 q-96 -123 -168 -191 q116 -96 176 -166 l-42 -46 q-73 89 -224 215 l0 -201 q0 -50 -34 -65 q-30 -10 -137 -10 q-5 31 -20 60 q80 -3 107 -1 q18 0 18 17 l0 168 q-60 -43 -247 -171 l-33 54 q94 57 280 178 l0 209 ZM348 385 q-57 82 -137 153 l43 34 q87 -72 139 -146 l-45 -41 ZM910 616 l0 -691 l-66 0 l0 56 l-751 0 l0 632 l66 0 l0 -570 l685 0 l0 573 l66 0 Z" /><glyph glyph-name="" unicode="&#x51ff;" d="M851 773 q-43 -73 -100 -143 l-48 29 q64 81 95 143 l53 -29 ZM243 633 q-25 54 -85 145 l50 22 q60 -79 88 -138 l-53 -29 ZM807 494 l65 0 l0 -570 l-65 0 l0 72 l-678 0 l0 496 l67 0 l0 -436 l611 0 l0 438 ZM239 388 l286 0 q64 68 110 137 l51 -26 q-39 -56 -91 -111 l162 0 l0 -51 l-227 0 l0 -85 l213 0 l0 -50 l-213 0 l0 -116 l-63 0 l0 116 l-217 0 l0 50 l217 0 l0 85 l-228 0 l0 51 ZM350 533 q59 -59 83 -112 l-47 -30 q-27 57 -81 116 l45 26 ZM953 606 l0 -64 l-907 0 l0 64 l321 0 l0 222 l63 0 l0 -222 l145 0 l0 224 l62 0 l0 -224 l316 0 Z" /><glyph glyph-name="" unicode="&#x2f11;&#x5200;" d="M904 726 l-1 -38 q-23 -649 -75 -711 q-29 -37 -85 -42 q-65 -5 -168 3 q-4 40 -24 71 q74 -7 168 -7 q31 0 45 16 q50 50 68 642 l-363 0 q-13 -261 -70 -410 q-87 -226 -301 -329 q-25 38 -50 54 q205 94 286 306 q51 134 62 379 l-307 0 l0 66 l815 0 Z" /><glyph glyph-name="" unicode="&#x5201;" d="M644 459 q-283 -204 -502 -351 l-37 63 q186 119 516 350 l23 -62 ZM882 740 l-1 -39 q-24 -656 -81 -723 q-32 -39 -90 -43 q-57 -4 -180 3 q-2 39 -25 72 q81 -7 183 -7 q34 0 49 16 q51 51 73 653 l-687 0 l0 68 l759 0 Z" /><glyph glyph-name="" unicode="&#x5203;" d="M872 689 q-21 -659 -73 -722 q-27 -36 -81 -42 q-49 -4 -158 3 q-4 40 -22 70 q81 -7 156 -7 q31 0 44 17 q46 49 65 654 l-288 0 q-16 -250 -78 -399 q-97 -234 -329 -339 q-17 28 -48 53 q223 96 314 316 q56 136 70 369 l-352 0 l0 65 l780 0 l0 -38 ZM252 524 q-58 -198 -129 -287 l-58 32 q82 96 130 275 l57 -20 Z" /><glyph glyph-name="" unicode="&#x5206;" d="M398 795 q-102 -253 -293 -408 q-23 27 -56 50 q187 137 279 377 l70 -19 ZM808 458 q0 -24 -1 -33 q-20 -409 -64 -458 q-26 -29 -75 -32 q-57 -3 -158 3 q-4 37 -22 66 q78 -7 153 -7 q28 0 43 12 q35 35 53 383 l-283 0 q-24 -174 -87 -275 q-83 -133 -257 -196 q-15 32 -41 56 q162 54 238 172 q57 90 77 243 l-197 0 l0 66 l621 0 ZM669 816 q103 -227 287 -364 q-28 -21 -53 -56 q-179 152 -294 396 l60 24 Z" /><glyph glyph-name="" unicode="&#x5207;" d="M430 273 q2 -26 11 -57 q-260 -117 -286 -142 q-12 35 -32 60 q42 22 42 70 l0 282 l-122 -26 l-11 60 l133 29 l0 247 l64 0 l0 -234 l193 42 l11 -59 l-204 -45 l0 -312 l201 85 ZM935 746 l-1 -38 q-20 -670 -67 -730 q-26 -35 -74 -41 q-51 -3 -140 2 q-4 42 -21 67 q74 -5 135 -5 q27 0 39 18 q44 48 61 663 l-215 0 q-6 -290 -49 -437 q-65 -216 -241 -318 q-24 35 -49 51 q169 92 229 295 q39 134 44 409 l-163 0 l0 64 l512 0 Z" /><glyph glyph-name="" unicode="&#x520a;" d="M331 443 l219 0 l0 -66 l-219 0 l0 -451 l-67 0 l0 451 l-219 0 l0 66 l219 0 l0 265 l-191 0 l0 65 l447 0 l0 -65 l-189 0 l0 -265 ZM686 167 l-66 0 l0 550 l66 0 l0 -550 ZM908 817 l0 -800 q0 -64 -45 -81 q-37 -14 -182 -12 q-7 35 -26 69 q98 -4 158 -1 q27 1 27 25 l0 800 l68 0 Z" /><glyph glyph-name="" unicode="&#x5211;" d="M401 441 l0 275 l-165 0 l0 -275 l165 0 ZM465 441 l122 0 l0 -64 l-122 0 l0 -442 l-64 0 l0 442 l-165 0 q-5 -298 -149 -454 q-20 25 -49 43 q129 140 135 411 l-124 0 l0 64 l124 0 l0 275 l-102 0 l0 64 l488 0 l0 -64 l-94 0 l0 -275 ZM708 175 l-63 0 l0 548 l63 0 l0 -548 ZM910 817 l0 -802 q0 -60 -41 -78 q-36 -15 -170 -13 q-5 32 -23 67 q106 -3 144 -1 q25 1 25 25 l0 802 l65 0 Z" /><glyph glyph-name="" unicode="&#x5212;" d="M456 634 q-49 65 -144 141 l45 36 q97 -73 146 -137 l-47 -40 ZM278 502 q18 -137 55 -261 q84 105 135 235 l63 -20 q-66 -158 -174 -287 q66 -176 132 -176 q35 0 43 162 q23 -25 56 -36 q-10 -110 -32 -151 q-22 -41 -71 -41 q-99 0 -177 188 q-97 -99 -218 -170 q-20 28 -47 53 q136 72 239 184 q-45 137 -69 312 l-166 -19 l-6 62 l164 18 q-17 150 -18 279 l68 0 q0 -128 15 -271 l319 37 l7 -62 l-318 -36 ZM715 180 l-64 0 l0 545 l64 0 l0 -545 ZM908 825 l0 -810 q0 -60 -41 -77 q-34 -13 -165 -13 q-5 30 -22 66 q102 -3 139 -1 q24 1 24 24 l0 811 l65 0 Z" /><glyph glyph-name="" unicode="&#x5217;" d="M66 780 l504 0 l0 -64 l-270 0 q-20 -84 -45 -158 l231 0 l12 3 l40 -13 q-69 -472 -412 -629 q-17 32 -41 56 q157 63 256 208 q-69 66 -157 122 l39 49 q89 -56 154 -113 q62 112 90 255 l-235 0 q-53 -134 -120 -217 q-25 25 -52 43 q115 136 173 394 l-167 0 l0 64 ZM711 164 l-65 0 l0 553 l65 0 l0 -553 ZM917 832 l0 -818 q0 -58 -39 -74 q-31 -12 -148 -12 q-7 32 -23 64 q96 -2 122 0 q22 0 22 22 l0 818 l66 0 Z" /><glyph glyph-name="" unicode="&#x5218;" d="M312 671 q-21 58 -68 139 l58 25 q54 -90 71 -136 l-61 -28 ZM51 667 l515 0 l0 -62 l-92 0 q-35 -190 -97 -333 q102 -119 149 -198 l-52 -47 q-43 77 -128 181 q-94 -178 -252 -285 q-13 21 -47 52 q162 101 255 286 q-95 112 -201 214 l46 39 q92 -87 183 -189 q48 113 80 280 l-359 0 l0 62 ZM698 175 l-64 0 l0 544 l64 0 l0 -544 ZM910 817 l0 -804 q0 -60 -40 -76 q-39 -14 -161 -13 q-5 29 -24 66 q99 -3 136 -1 q24 1 24 23 l0 805 l65 0 Z" /><glyph glyph-name="" unicode="&#x5219;" d="M368 159 q118 -93 179 -160 l-43 -49 q-66 78 -178 167 l42 42 ZM533 781 l0 -600 l-64 0 l0 539 l-295 0 l0 -541 l-63 0 l0 602 l422 0 ZM902 829 l0 -807 q0 -63 -43 -80 q-39 -13 -176 -12 q-8 37 -25 67 q111 -3 153 -1 q26 1 26 25 l0 808 l65 0 ZM715 746 l0 -592 l-63 0 l0 592 l63 0 ZM351 649 l0 -282 q0 -316 -259 -444 q-13 31 -41 49 q143 72 197 187 q39 81 39 210 l0 280 l64 0 Z" /><glyph glyph-name="" unicode="&#x521a;" d="M435 116 q-35 92 -82 188 q-67 -157 -138 -260 q-14 11 -50 32 q80 110 154 291 q-60 117 -133 235 l47 23 q61 -97 113 -190 q45 124 75 243 l55 -11 q-40 -150 -96 -296 q68 -128 105 -227 l-50 -28 ZM583 24 q0 -52 -36 -67 q-29 -12 -146 -12 q-5 26 -23 59 q29 -1 122 -1 q22 1 22 22 l0 701 l-368 0 l0 -797 l-62 0 l0 857 l491 0 l0 -762 ZM747 174 l-60 0 l0 553 l60 0 l0 -553 ZM914 817 l0 -803 q0 -56 -38 -72 q-32 -12 -156 -12 q-5 29 -21 61 q88 -3 130 0 q24 0 24 23 l0 803 l61 0 Z" /><glyph glyph-name="" unicode="&#x521b;" d="M453 -3 q35 0 45 26 q10 25 14 116 q30 -19 60 -25 q-7 -105 -29 -139 q-22 -36 -86 -36 l-190 0 q-70 0 -95 20 q-26 21 -26 82 l0 430 l358 0 l-2 -28 q-13 -232 -42 -263 q-18 -21 -55 -24 q-35 -3 -97 0 q-2 31 -17 58 q37 -4 87 -4 q20 0 29 9 q19 23 30 193 l-227 0 l0 -371 q0 -28 12 -36 q11 -8 50 -8 l181 0 ZM378 815 q-6 -16 -19 -43 q165 -169 234 -269 l-49 -44 q-71 110 -215 259 q-96 -171 -248 -289 q-20 24 -49 45 q195 141 286 359 l60 -18 ZM710 170 l-63 0 l0 549 l63 0 l0 -549 ZM908 820 l0 -803 q0 -61 -44 -77 q-38 -13 -177 -12 q-9 39 -24 63 q36 -1 153 -1 q26 1 26 26 l0 804 l66 0 Z" /><glyph glyph-name="" unicode="&#x521d;" d="M251 667 q-26 59 -86 140 l51 28 q62 -77 88 -134 l-53 -34 ZM381 190 q-45 66 -108 142 l0 -406 l-68 0 l0 394 q-65 -76 -128 -127 q-18 44 -37 61 q175 134 273 342 l-255 0 l0 61 l288 0 l13 3 l39 -27 q-43 -111 -124 -224 l36 -40 q54 56 81 98 l47 -38 q-59 -61 -97 -94 q53 -58 82 -91 l-42 -54 ZM918 712 q-18 -677 -68 -739 q-26 -35 -75 -41 q-52 -5 -147 2 q-4 38 -20 64 q76 -6 142 -6 q26 0 41 17 q43 48 62 676 l-202 0 q-14 -295 -62 -456 q-59 -194 -192 -306 q-19 28 -51 51 q128 98 182 283 q44 149 55 428 l-170 0 l0 64 l505 0 l0 -37 Z" /><glyph glyph-name="" unicode="&#x5220;" d="M557 447 l0 296 l-100 0 l0 -296 l100 0 ZM270 447 l0 297 l-100 0 l0 -297 l100 0 ZM614 447 l52 0 l0 -62 l-52 0 l0 -376 q0 -48 -28 -61 q-23 -12 -106 -12 q-4 29 -18 58 q37 -1 80 -1 q15 1 15 17 l0 375 l-100 0 l0 -20 q0 -305 -70 -440 q-12 15 -47 31 q60 121 60 408 l0 21 l-73 0 l0 -376 q0 -48 -29 -61 q-22 -12 -105 -12 q-4 29 -18 58 l80 0 q15 0 15 16 l0 375 l-100 0 l0 -50 q0 -288 -78 -410 q-17 21 -48 34 q69 111 69 376 l0 50 l-65 0 l0 62 l65 0 l0 356 l214 0 l0 -356 l73 0 l0 355 l214 0 l0 -355 ZM766 166 l-55 0 l0 557 l55 0 l0 -557 ZM914 818 l0 -817 q0 -51 -32 -65 q-26 -12 -125 -12 q-5 27 -20 59 l100 0 q19 0 19 19 l0 816 l58 0 Z" /><glyph glyph-name="" unicode="&#x5224;" d="M566 763 q-52 -120 -108 -210 q-29 18 -56 28 q56 83 104 200 l60 -18 ZM180 560 q-30 76 -102 195 l55 21 q71 -111 105 -190 l-58 -26 ZM353 431 q0 -82 -6 -135 l220 0 l0 -62 l-230 0 q-37 -206 -208 -316 q-34 37 -51 47 q151 97 190 269 l-219 0 l0 62 l230 0 q8 60 8 135 l0 41 l-200 0 l0 63 l200 0 l0 296 l66 0 l0 -296 l190 0 l0 -63 l-190 0 l0 -41 ZM698 167 l-64 0 l0 548 l64 0 l0 -548 ZM908 816 l0 -802 q0 -61 -43 -79 q-38 -14 -177 -12 q-7 31 -24 67 q111 -3 152 -1 q26 1 26 25 l0 802 l66 0 Z" /><glyph glyph-name="" unicode="&#x5228;" d="M179 506 l0 -168 l161 0 l0 168 l-161 0 ZM475 -2 q42 0 55 29 q13 27 18 123 q26 -19 58 -26 q-8 -111 -31 -146 q-26 -39 -98 -39 l-226 0 q-79 0 -106 23 q-29 24 -29 92 l0 452 l-32 -39 q-20 20 -55 41 q121 123 181 329 l64 -15 q-14 -42 -35 -98 l325 0 l0 -32 q-9 -448 -38 -490 q-19 -27 -56 -30 q-34 -4 -100 -1 q0 35 -16 60 q39 -4 88 -4 q21 0 30 14 q21 32 29 422 l-290 0 q-24 -52 -55 -99 l245 0 l0 -284 l-222 0 l0 -227 q0 -34 14 -44 q14 -11 60 -11 l222 0 ZM727 170 l-63 0 l0 558 l63 0 l0 -558 ZM912 823 l0 -812 q0 -59 -38 -74 q-33 -14 -152 -14 q-5 31 -23 67 q59 -2 127 -2 q22 1 22 23 l0 812 l64 0 Z" /><glyph glyph-name="" unicode="&#x5229;" d="M337 535 l211 0 l0 -62 l-211 0 l0 -26 q56 -51 196 -196 l-38 -54 q-62 74 -158 175 l0 -446 l-66 0 l0 445 q-93 -204 -197 -306 q-14 34 -36 61 q136 131 219 347 l-200 0 l0 62 l214 0 l0 177 q-115 -21 -197 -31 q-5 29 -21 53 q292 42 416 95 l50 -50 q-66 -28 -182 -53 l0 -191 ZM695 170 l-66 0 l0 548 l66 0 l0 -548 ZM908 825 l0 -805 q0 -62 -43 -78 q-35 -13 -176 -13 q-7 34 -25 67 q36 -1 152 -1 q26 1 26 25 l0 805 l66 0 Z" /><glyph glyph-name="" unicode="&#x522b;" d="M427 731 l-268 0 l0 -202 l268 0 l0 202 ZM491 469 l-393 0 l0 322 l393 0 l0 -322 ZM507 352 l-1 -31 q-16 -320 -47 -358 q-21 -26 -60 -29 q-42 -4 -110 1 q-2 34 -18 63 q44 -4 100 -4 q22 0 32 11 q23 25 36 286 l-146 0 q-35 -270 -213 -370 q-15 32 -42 48 q162 86 192 322 l-171 0 l0 61 l178 0 q4 57 5 91 l64 0 l-6 -91 l207 0 ZM694 167 l-64 0 l0 548 l64 0 l0 -548 ZM908 816 l0 -802 q0 -61 -42 -78 q-32 -13 -170 -13 q-9 39 -25 67 q35 -1 146 -1 q25 1 25 25 l0 802 l66 0 Z" /><glyph glyph-name="" unicode="&#x522e;" d="M472 256 l-319 0 l0 -212 l319 0 l0 212 ZM345 555 l237 0 l0 -63 l-237 0 l0 -174 l193 0 l0 -377 l-66 0 l0 42 l-319 0 l0 -46 l-63 0 l0 381 l190 0 l0 174 l-236 0 l0 63 l236 0 l0 162 q-111 -19 -209 -31 q-6 34 -19 55 q309 37 439 95 l52 -50 q-74 -30 -198 -57 l0 -174 ZM712 180 l-64 0 l0 548 l64 0 l0 -548 ZM910 824 l0 -803 q0 -61 -42 -78 q-38 -14 -168 -12 q-6 29 -24 67 q105 -3 144 -1 q24 1 24 23 l0 804 l66 0 Z" /><glyph glyph-name="" unicode="&#x5230;" d="M363 93 l212 39 l4 -58 q-328 -65 -498 -96 l-14 62 l232 41 l0 174 l-197 0 l0 60 l197 0 l0 111 l64 0 l0 -111 l203 0 l0 -60 l-203 0 l0 -162 ZM75 768 l510 0 l0 -59 l-271 0 q-58 -113 -121 -195 l270 24 q-43 60 -78 103 l48 29 q108 -130 152 -214 l-50 -33 q-14 28 -38 64 q-352 -36 -375 -46 q-12 42 -23 63 q18 3 48 44 q51 67 93 161 l-165 0 l0 59 ZM706 149 l-62 0 l0 601 l62 0 l0 -601 ZM906 818 l0 -783 q0 -60 -39 -75 q-35 -13 -153 -13 q-8 36 -26 67 q95 -3 132 -1 q21 1 21 21 l0 784 l65 0 Z" /><glyph glyph-name="" unicode="&#x5236;" d="M359 518 l246 0 l0 -61 l-246 0 l0 -106 l208 0 l0 -276 q0 -47 -29 -60 q-24 -11 -117 -11 q-2 22 -19 59 q68 -3 90 -1 q14 0 14 14 l0 215 l-147 0 l0 -365 l-64 0 l0 365 l-138 0 l0 -284 l-61 0 l0 344 l199 0 l0 106 l-246 0 l0 61 l246 0 l0 111 l-136 0 q-28 -71 -52 -107 q-24 15 -59 25 q62 91 102 264 l62 -12 q-14 -58 -32 -109 l115 0 l0 142 l64 0 l0 -142 l206 0 l0 -61 l-206 0 l0 -111 ZM744 194 l-63 0 l0 549 l63 0 l0 -549 ZM923 826 l0 -804 q0 -63 -40 -80 q-35 -13 -158 -13 q-9 42 -22 71 q60 -2 134 -2 q22 1 22 23 l0 805 l64 0 Z" /><glyph glyph-name="" unicode="&#x5237;" d="M174 735 l0 -135 l343 0 l0 135 l-343 0 ZM174 540 l0 -85 q0 -338 -87 -499 q-26 26 -50 37 q77 147 77 462 l0 341 l466 0 l0 -256 l-406 0 ZM581 107 q0 -42 -24 -55 q-19 -11 -92 -11 q-3 23 -19 55 q34 -1 68 -1 q11 1 11 13 l0 246 l-112 0 l0 -432 l-58 0 l0 432 l-104 0 l0 -325 l-52 0 l0 382 l156 0 l0 106 l58 0 l0 -106 l168 0 l0 -304 ZM739 174 l-59 0 l0 556 l59 0 l0 -556 ZM913 819 l0 -795 q0 -60 -39 -77 q-34 -13 -155 -13 q-6 39 -21 69 q30 -1 131 -1 q21 0 21 21 l0 796 l63 0 Z" /><glyph glyph-name="" unicode="&#x5238;" d="M729 303 q-72 54 -123 125 l-230 0 q-56 -70 -127 -125 l480 0 ZM681 428 q110 -126 289 -174 q-27 -22 -44 -56 q-84 28 -163 80 l-1 -5 q-17 -272 -55 -311 q-23 -24 -65 -27 q-53 -4 -135 2 q-2 34 -20 62 q55 -5 127 -5 q27 0 37 10 q27 26 42 238 l-250 0 q-23 -123 -85 -194 q-73 -83 -221 -123 q-12 26 -39 56 q135 32 201 101 q55 58 75 160 l-159 0 l0 36 q-67 -48 -135 -78 q-14 30 -42 54 q143 62 251 174 l-224 0 l0 60 l275 0 q39 51 69 109 l-281 0 l0 60 l171 0 q-31 66 -86 127 l53 27 q62 -70 89 -126 l-54 -28 l136 0 q37 92 49 180 l68 -7 q-14 -91 -47 -173 l128 0 q51 65 98 151 l62 -21 q-62 -90 -95 -130 l167 0 l0 -60 l-384 0 q-32 -65 -63 -109 l517 0 l0 -60 l-256 0 Z" /><glyph glyph-name="" unicode="&#x5239;" d="M499 486 q-56 47 -162 111 q-113 -84 -242 -140 q-24 32 -42 50 q124 48 231 121 q-101 59 -194 101 l40 39 q94 -41 203 -102 q86 69 138 147 l57 -23 q-57 -81 -142 -154 q104 -61 156 -104 l-43 -46 ZM234 249 q-52 -132 -140 -236 q-22 28 -48 46 q89 85 139 217 l49 -27 ZM349 343 l0 -342 q0 -47 -31 -60 q-23 -11 -112 -11 q-5 29 -21 57 l85 0 q15 1 15 14 l0 342 l-219 0 l0 58 l219 0 l0 114 l64 0 l0 -114 l213 0 l0 -58 l-213 0 ZM445 278 q90 -118 125 -216 l-53 -26 q-36 95 -123 221 l51 21 ZM703 175 l-63 0 l0 547 l63 0 l0 -547 ZM908 816 l0 -808 q0 -55 -38 -71 q-34 -13 -150 -12 q-3 26 -21 62 q56 -1 120 -1 q23 1 23 22 l0 809 l66 -1 Z" /><glyph glyph-name="" unicode="&#x523a;" d="M357 712 l228 0 l0 -64 l-228 0 l0 -93 l198 0 l0 -196 q0 -49 -28 -62 q-22 -11 -119 -11 q-3 25 -18 59 q42 -1 89 -1 q14 1 14 16 l0 136 l-136 0 l0 -206 q65 -46 220 -174 l-37 -56 q-59 59 -183 163 l0 -298 l-66 0 l0 313 q-100 -168 -215 -246 q-11 28 -33 58 q164 110 248 299 l0 147 l-135 0 l0 -214 l-64 0 l0 273 l199 0 l0 93 l-231 0 l0 64 l231 0 l0 119 l66 0 l0 -119 ZM728 171 l-65 0 l0 549 l65 0 l0 -549 ZM911 816 l0 -800 q0 -61 -41 -79 q-32 -13 -164 -13 q-8 38 -23 69 q101 -3 137 -1 q24 1 24 24 l0 800 l67 0 Z" /><glyph glyph-name="" unicode="&#x523b;" d="M524 554 q-134 -254 -411 -403 q-16 30 -42 54 q164 77 286 214 q-224 -14 -247 -23 q-5 25 -21 63 q19 3 57 41 q56 59 113 148 l-200 0 l0 62 l260 0 q-19 56 -56 113 l60 16 q48 -65 66 -127 l-6 -2 l216 0 l0 -62 l-262 0 q-70 -104 -146 -181 l213 9 q39 55 60 98 l60 -20 ZM590 361 q-58 -101 -144 -191 q112 -96 161 -155 l-48 -43 q-47 57 -155 157 q-132 -121 -295 -203 q-21 34 -44 56 q318 139 464 402 l61 -23 ZM738 166 l-63 0 l0 553 l63 0 l0 -553 ZM920 822 l0 -808 q0 -59 -40 -75 q-33 -12 -163 -12 q-6 33 -22 63 q90 -3 135 0 q24 0 24 24 l0 808 l66 0 Z" /><glyph glyph-name="" unicode="&#x523d;" d="M450 228 q108 -151 150 -259 l-58 -28 q-12 30 -32 70 q-375 -47 -406 -61 q-8 34 -23 64 q39 11 52 31 q24 31 115 240 l-185 0 l0 63 l535 0 l0 -63 l-281 0 q-118 -257 -116 -254 l282 32 q-38 70 -87 141 l54 24 ZM530 521 l0 -61 l-363 0 l0 61 l363 0 ZM394 818 q-14 -26 -22 -38 q184 -146 264 -243 l-41 -50 q-72 95 -253 245 q-111 -159 -268 -263 q-16 37 -35 61 q196 116 298 309 l57 -21 ZM741 175 l-63 0 l0 549 l63 0 l0 -549 ZM913 816 l0 -805 q0 -59 -39 -75 q-30 -13 -159 -13 q-5 31 -21 66 q98 -3 132 -1 q24 1 24 23 l0 805 l63 0 Z" /><glyph glyph-name="" unicode="&#x5242;" d="M194 345 l60 0 l0 -111 q0 -206 -170 -305 q-22 29 -42 43 q152 87 152 263 l0 110 ZM432 344 l61 0 l0 -417 l-61 0 l0 417 ZM325 837 q45 -56 72 -119 l214 0 l0 -59 l-96 0 q-35 -95 -105 -164 q114 -63 189 -111 l-36 -51 q-59 41 -199 121 q-112 -83 -286 -127 q-12 28 -35 53 q164 35 265 106 q-87 46 -169 86 l36 45 q96 -45 182 -92 q59 55 92 134 l-382 0 l0 59 l261 0 q-24 52 -58 100 l55 19 ZM727 201 l-61 0 l0 498 l61 0 l0 -498 ZM911 827 l0 -811 q0 -59 -39 -73 q-32 -14 -162 -12 q-5 26 -21 61 q92 -3 138 0 q24 1 24 24 l0 811 l60 0 Z" /><glyph glyph-name="" unicode="&#x5243;" d="M157 429 l-15 -116 l155 0 l0 116 l-140 0 ZM358 486 l142 0 l0 129 l-142 0 l0 -129 ZM573 313 l-2 -28 q-12 -216 -38 -246 q-19 -20 -49 -23 q-31 -3 -88 0 q-4 39 -16 60 q34 -3 76 -3 q20 -1 28 9 q15 18 26 174 l-152 0 l0 -333 l-61 0 l0 277 q-93 -137 -216 -207 q-13 23 -43 49 q139 68 230 214 l-191 0 q19 113 28 230 l192 0 l0 129 l-222 0 l0 57 l145 0 q-22 69 -68 138 l51 21 q53 -76 74 -147 l-27 -12 l129 0 q43 73 75 162 l64 -19 q-48 -96 -76 -143 l118 0 l0 -243 l-202 0 l0 -116 l215 0 ZM729 176 l-61 0 l0 547 l61 0 l0 -547 ZM912 830 l0 -815 q0 -58 -39 -75 q-34 -13 -159 -13 q-6 27 -22 65 q106 -2 132 0 q24 0 24 22 l0 816 l64 0 Z" /><glyph glyph-name="" unicode="&#x524a;" d="M139 584 q-22 87 -73 192 l55 20 q52 -97 77 -189 l-59 -23 ZM441 225 l0 108 l-285 0 l0 -108 l285 0 ZM156 498 l0 -107 l285 0 l0 107 l-285 0 ZM506 11 q0 -52 -35 -68 q-27 -11 -146 -11 q-5 31 -19 62 q54 -2 116 -2 q19 1 19 20 l0 154 l-285 0 l0 -238 l-64 0 l0 632 l173 0 l0 275 l65 0 l0 -275 l176 0 l0 -549 ZM399 604 q52 93 84 200 l67 -18 q-52 -124 -96 -200 l-55 18 ZM683 170 l-64 0 l0 547 l64 0 l0 -547 ZM910 816 l0 -802 q0 -62 -43 -78 q-38 -15 -176 -13 q-7 34 -25 67 q36 -1 153 -1 q26 1 26 25 l0 802 l65 0 Z" /><glyph glyph-name="" unicode="&#x524d;" d="M416 200 l0 107 l-231 0 l0 -107 l231 0 ZM185 464 l0 -104 l231 0 l0 104 l-231 0 ZM480 5 q0 -51 -34 -65 q-30 -11 -139 -11 q-7 31 -22 59 q83 -3 112 -1 q19 1 19 18 l0 142 l-231 0 l0 -218 l-64 0 l0 593 l359 0 l0 -517 ZM810 543 l65 0 l0 -532 q0 -56 -39 -71 q-33 -12 -156 -12 q-7 32 -25 64 q99 -3 133 -1 q22 1 22 20 l0 532 ZM670 106 l-62 0 l0 407 l62 0 l0 -407 ZM944 676 l0 -61 l-887 0 l0 61 l252 0 q-32 66 -94 138 l61 23 q67 -76 101 -142 l-49 -19 l303 0 q58 85 96 165 l69 -24 q-55 -92 -91 -141 l239 0 Z" /><glyph glyph-name="" unicode="&#x5251;" d="M590 115 l2 -58 l-493 -92 l-18 65 q57 8 304 50 q67 138 120 325 l60 -16 q-59 -171 -117 -298 l142 24 ZM509 478 l-337 0 l0 57 l337 0 l0 -57 ZM325 170 q-10 98 -45 223 l53 12 q38 -129 49 -221 l-57 -14 ZM155 370 q48 -106 69 -219 l-56 -20 q-15 101 -64 224 l51 15 ZM378 823 q0 1 -20 -37 q175 -137 265 -241 l-40 -49 q-84 101 -254 242 q-111 -170 -265 -284 q-19 42 -34 59 q192 132 292 331 l56 -21 ZM736 166 l-59 0 l0 550 l59 0 l0 -550 ZM915 816 l0 -804 q0 -58 -40 -72 q-34 -14 -167 -12 q-5 30 -22 60 q98 -3 144 0 q26 0 26 24 l0 804 l59 0 Z" /><glyph glyph-name="" unicode="&#x5254;" d="M172 490 l329 0 l0 99 l-329 0 l0 -99 ZM172 642 l329 0 l0 97 l-329 0 l0 -97 ZM594 349 q-1 -20 -3 -29 q-24 -314 -65 -357 q-22 -24 -58 -27 q-40 -2 -108 3 q-2 32 -16 55 q43 -4 99 -4 q24 0 34 11 q33 33 54 291 l-73 0 q-68 -238 -201 -354 q-19 25 -45 39 q124 97 192 315 l-74 0 q-79 -183 -220 -286 q-22 26 -43 39 q126 84 208 247 l-87 0 q-52 -69 -113 -118 q-13 15 -41 41 q109 83 173 219 l-98 0 l0 361 l457 0 l0 -361 l-293 0 q-18 -39 -46 -85 l367 0 ZM737 175 l-63 0 l0 548 l63 0 l0 -548 ZM916 821 l0 -805 q0 -59 -39 -76 q-36 -13 -159 -12 q-8 35 -22 65 q31 -1 132 -1 q24 1 24 23 l0 806 l64 0 Z" /><glyph glyph-name="" unicode="&#x5256;" d="M573 653 l-497 0 l0 61 l228 0 q-23 64 -44 108 l57 15 q36 -68 52 -123 l204 0 l0 -61 ZM212 457 q-12 71 -61 170 l57 15 q44 -80 66 -168 l-62 -17 ZM185 232 l0 -192 l283 0 l0 192 l-283 0 ZM120 292 l415 0 l0 -352 l-67 0 l0 40 l-283 0 l0 -48 l-65 0 l0 360 ZM513 630 q-45 -117 -76 -183 l164 0 l0 -62 l-554 0 l0 62 l324 0 q41 83 75 198 l67 -15 ZM720 170 l-63 0 l0 553 l63 0 l0 -553 ZM900 816 l0 -804 q0 -57 -38 -73 q-34 -13 -152 -12 q-5 31 -22 63 q59 -1 126 -1 q23 1 23 23 l0 804 l63 0 Z" /><glyph glyph-name="" unicode="&#x5265;" d="M512 795 q-1 -111 -13 -296 l117 0 l0 -58 l-255 0 l0 -172 l45 -29 q68 87 111 167 l57 -32 q-67 -98 -124 -166 q103 -73 157 -127 l-42 -48 q-68 73 -204 167 l0 -201 q0 -53 -35 -66 q-30 -11 -143 -11 q-3 30 -19 61 q87 -3 116 -1 q19 1 19 18 l0 184 q-84 -62 -227 -160 l-37 54 q103 62 264 172 l0 190 l-247 0 l0 58 l386 0 l6 92 l-310 0 l0 55 l312 0 q2 25 4 92 l-334 0 l0 57 l341 0 l11 4 l44 -4 ZM125 404 q76 -74 110 -141 l-49 -36 q-35 71 -107 144 l46 33 ZM727 176 l-63 0 l0 549 l63 0 l0 -549 ZM913 817 l0 -806 q0 -58 -39 -75 q-33 -14 -158 -12 q-5 23 -22 65 q97 -3 132 -1 q23 1 23 23 l0 806 l64 0 Z" /><glyph glyph-name="" unicode="&#x5267;" d="M361 428 l0 114 l-180 0 q0 -54 -3 -114 l183 0 ZM181 725 l0 -123 l323 0 l0 123 l-323 0 ZM513 192 l-250 0 l0 -160 l250 0 l0 160 ZM421 428 l190 0 l0 -60 l-190 0 l0 -118 l153 0 l0 -317 l-61 0 l0 41 l-250 0 l0 -44 l-59 0 l0 320 l157 0 l0 118 l-187 0 q-21 -257 -89 -397 q-21 27 -49 50 q82 181 82 544 l0 219 l449 0 l0 -242 l-146 0 l0 -114 ZM735 169 l-60 0 l0 548 l60 0 l0 -548 ZM909 816 l0 -811 q0 -54 -34 -70 q-27 -12 -135 -12 q-8 33 -21 63 q81 -3 108 -1 q20 1 20 20 l0 811 l62 0 Z" /><glyph glyph-name="" unicode="&#x5269;" d="M495 554 l0 -109 q63 30 93 58 l40 -39 q-58 -40 -133 -68 l0 -85 q0 -15 4 -19 q3 -4 17 -4 l59 0 q13 0 17 13 q5 13 6 60 q21 -14 45 -19 q-4 -59 -16 -80 q-13 -20 -44 -20 l-73 0 q-40 0 -54 14 q-13 13 -13 54 l0 244 l52 0 ZM383 640 l263 0 l0 -58 l-263 0 l0 -324 q110 -72 242 -175 l-37 -55 q-61 58 -205 168 l0 -268 l-62 0 l0 260 q-107 -148 -230 -231 q-19 29 -44 50 q167 96 274 275 l0 300 l-261 0 l0 58 l261 0 l0 90 q-115 -13 -215 -17 q-3 23 -17 53 q331 21 460 64 l48 -48 q-86 -28 -214 -44 l0 -98 ZM61 317 q62 12 143 33 l0 80 l-127 0 l0 50 l127 0 l0 74 l52 0 l0 -318 l-52 0 l0 66 q-24 -6 -128 -35 l-15 50 ZM753 167 l-61 0 l0 548 l61 0 l0 -548 ZM914 824 l0 -812 q0 -56 -38 -74 q-38 -13 -154 -12 q-6 33 -22 63 q102 -2 126 0 q24 0 24 22 l0 813 l64 0 Z" /><glyph glyph-name="" unicode="&#x526a;" d="M871 200 q-23 -211 -61 -246 q-23 -22 -69 -23 q-49 -3 -149 3 q-2 30 -20 58 q62 -7 145 -7 q31 0 41 9 q27 23 45 179 l-318 0 q-31 -108 -116 -164 q-92 -60 -284 -88 q-9 29 -31 57 q175 21 258 68 q77 44 104 127 l-329 0 l0 55 l787 0 l-3 -28 ZM423 412 l0 64 l-226 0 l0 -64 l226 0 ZM197 580 l0 -62 l226 0 l0 62 l-226 0 ZM480 331 q0 -38 -26 -48 q-20 -9 -98 -9 q-5 23 -17 44 q56 -2 72 0 q12 1 12 13 l0 39 l-226 0 l0 -95 l-57 0 l0 351 l340 0 l0 -295 ZM658 615 l0 -257 l-58 0 l0 257 l58 0 ZM851 331 q0 -43 -29 -53 q-23 -9 -116 -9 q-3 15 -19 49 q67 -3 90 -1 q15 1 15 14 l0 311 l59 0 l0 -311 ZM934 733 l0 -53 l-866 0 l0 53 l232 0 q-29 54 -60 89 l59 17 q46 -51 65 -93 l-39 -13 l299 0 q47 64 66 105 l65 -16 q-35 -55 -63 -89 l242 0 Z" /><glyph glyph-name="" unicode="&#x526f;" d="M152 297 l0 -99 l159 0 l0 99 l-159 0 ZM531 297 l-159 0 l0 -99 l159 0 l0 99 ZM531 39 l0 106 l-159 0 l0 -106 l159 0 ZM311 39 l0 106 l-159 0 l0 -106 l159 0 ZM91 351 l503 0 l0 -412 l-63 0 l0 46 l-379 0 l0 -58 l-61 0 l0 424 ZM487 600 l-299 0 l0 -119 l299 0 l0 119 ZM551 654 l0 -227 l-424 0 l0 227 l424 0 ZM64 789 l546 0 l0 -58 l-546 0 l0 58 ZM739 167 l-60 0 l0 548 l60 0 l0 -548 ZM917 816 l0 -803 q0 -60 -40 -76 q-36 -15 -164 -13 q-5 30 -22 66 q32 -1 137 -1 q25 1 25 24 l0 803 l64 0 Z" /><glyph glyph-name="" unicode="&#x5272;" d="M546 688 l-415 0 l0 -92 l181 0 l0 58 l60 0 l0 -58 l174 0 l0 92 ZM487 162 l-299 0 l0 -130 l299 0 l0 130 ZM339 840 q29 -48 46 -100 l222 0 l0 -144 l-58 0 l0 -51 l-177 0 l0 -70 l153 0 l0 -50 l-153 0 l0 -72 l227 0 l0 -51 l-227 0 l0 -82 l174 0 l0 -290 l-59 0 l0 49 l-299 0 l0 -55 l-57 0 l0 296 l181 0 l0 82 l-240 0 l0 51 l240 0 l0 72 l-162 0 l0 50 l162 0 l0 70 l-187 0 l0 45 l-54 0 l0 150 l245 0 q-18 50 -37 84 l60 16 ZM736 162 l-60 0 l0 536 l60 0 l0 -536 ZM919 829 l0 -818 q0 -57 -38 -73 q-33 -13 -156 -13 q-5 33 -21 64 q97 -3 129 -1 q23 1 23 23 l0 818 l63 0 Z" /><glyph glyph-name="" unicode="&#x527f;" d="M533 585 q-43 60 -125 128 q62 63 107 123 l56 -17 q-36 -43 -94 -104 q67 -54 105 -106 l-49 -24 ZM351 587 q-40 58 -116 128 q69 75 100 121 l55 -17 q-22 -28 -87 -103 q71 -67 97 -106 l-49 -23 ZM174 585 q-38 61 -110 128 q58 65 96 123 l55 -16 q-34 -46 -86 -105 q56 -53 95 -107 l-50 -23 ZM296 339 l0 73 l-144 0 l0 -73 l144 0 ZM152 460 l144 0 l0 73 l-144 0 l0 -73 ZM496 533 l-138 0 l0 -73 l138 0 l0 73 ZM496 412 l-138 0 l0 -73 l138 0 l0 73 ZM358 229 l240 0 l0 -55 l-217 0 q125 -72 215 -129 l-38 -51 q-106 78 -200 136 l0 -205 l-62 0 l0 206 q-98 -111 -218 -174 q-21 32 -42 48 q130 60 228 169 l-205 0 l0 55 l237 0 l0 60 l-203 0 l0 294 l465 0 l0 -294 l-200 0 l0 -60 ZM729 157 l-62 0 l0 557 l62 0 l0 -557 ZM912 816 l0 -804 q0 -58 -39 -75 q-36 -13 -159 -12 q-6 27 -22 65 q31 -1 132 -1 q24 1 24 23 l0 804 l64 0 Z" /><glyph glyph-name="" unicode="&#x5288;" d="M917 707 l-419 0 l0 53 l186 0 q-13 40 -27 66 l54 16 q22 -35 35 -82 l171 0 l0 -53 ZM167 747 l0 -99 l224 0 l0 99 l-224 0 ZM211 354 l187 0 l0 117 l-187 0 l0 -117 ZM155 497 q-21 -122 -73 -192 q-21 24 -48 38 q74 104 74 306 l0 151 l343 0 l0 -206 l-285 0 q-4 -50 -7 -72 l297 0 l0 -219 l-301 0 l0 194 ZM890 241 q-1 -20 -2 -28 q-24 -224 -63 -259 q-24 -23 -73 -24 q-51 -4 -152 3 q-2 29 -21 59 q73 -8 152 -8 q31 0 42 10 q29 24 46 192 l-316 0 q-32 -112 -120 -171 q-95 -65 -292 -94 q-12 35 -33 59 q181 22 267 72 q79 46 108 134 l-330 0 l0 55 l787 0 ZM739 535 l0 -94 l191 0 l0 -54 l-191 0 l0 -115 l-63 0 l0 115 l-188 0 l0 54 l188 0 l0 94 l-204 0 l0 54 l131 0 q-17 42 -49 97 l49 18 q43 -68 58 -115 l101 0 q31 61 51 115 l56 -14 q-33 -73 -49 -101 l127 0 l0 -54 l-208 0 Z" /><glyph glyph-name="" unicode="&#x2f12;&#x529b;&#xf98a;" d="M903 616 q-1 -27 -2 -36 q-32 -549 -89 -611 q-27 -34 -82 -38 q-51 -5 -158 4 q-4 39 -23 67 q81 -7 158 -7 q31 0 46 15 q51 49 78 539 l-350 0 q-28 -416 -372 -629 q-22 34 -51 52 q326 196 354 577 l-325 0 l0 67 l328 0 q1 18 1 51 l0 167 l69 0 l0 -167 q0 -33 -1 -51 l419 0 Z" /><glyph glyph-name="" unicode="&#x529d;" d="M379 103 q-39 72 -92 148 q-86 -158 -212 -249 q-16 27 -46 53 q123 80 216 256 q-102 142 -188 244 l50 35 q87 -103 169 -212 q53 124 80 277 l-301 0 l0 64 l320 0 l10 3 l43 -15 q-31 -220 -108 -390 q75 -103 112 -171 l-53 -43 ZM925 591 q-18 -561 -61 -615 q-24 -31 -70 -37 q-45 -3 -131 2 q-4 40 -21 64 q56 -4 125 -4 q25 -1 39 15 q36 41 52 545 l-190 0 q-8 -415 -265 -634 q-19 21 -54 44 q244 205 252 590 l-150 0 l0 65 l150 0 l0 209 l67 0 l0 -209 l257 0 l0 -35 Z" /><glyph glyph-name="" unicode="&#x529e;" d="M749 612 q-22 -572 -71 -630 q-28 -35 -80 -39 q-45 -4 -161 2 q-2 39 -22 70 q68 -6 156 -6 q28 -1 43 15 q44 46 62 560 l-211 0 q-8 -199 -73 -340 q-88 -194 -292 -323 q-27 36 -53 53 q329 205 348 610 l-304 0 l0 66 l306 0 l0 185 l70 0 l0 -185 l282 0 l0 -38 ZM250 469 q-63 -187 -137 -281 l-60 36 q83 95 137 269 l60 -24 ZM841 501 q84 -171 113 -308 l-66 -23 q-26 141 -109 311 l62 20 Z" /><glyph glyph-name="" unicode="&#x529f;" d="M443 219 q-120 -35 -383 -108 l-17 67 l75 19 q54 14 88 22 l0 433 l-150 0 l0 63 l364 0 l0 -63 l-148 0 l0 -415 l164 44 l7 -62 ZM937 571 q-22 -542 -71 -600 q-25 -33 -74 -37 q-45 -4 -147 3 q-4 37 -20 65 q62 -6 141 -6 q30 0 42 15 q42 45 62 531 l-209 0 q-14 -225 -72 -360 q-73 -169 -232 -258 q-23 34 -48 51 q150 80 218 235 q54 124 67 332 l-168 0 l0 64 l171 0 q3 102 3 212 l67 0 q0 -110 -3 -212 l273 0 l0 -35 Z" /><glyph glyph-name="" unicode="&#x52a0;" d="M490 652 q0 -26 -1 -35 q-25 -572 -73 -630 q-24 -33 -65 -36 q-40 -5 -109 0 q-2 40 -18 68 q54 -5 100 -5 q23 0 34 17 q41 47 64 556 l-148 0 q-23 -471 -176 -657 q-25 29 -53 43 q143 167 164 614 l-142 0 l0 65 l144 0 q2 124 2 181 l66 0 q0 -88 -3 -181 l214 0 ZM840 76 l0 569 l-205 0 l0 -569 l205 0 ZM909 709 l0 -764 l-69 0 l0 67 l-205 0 l0 -74 l-66 0 l0 771 l340 0 Z" /><glyph glyph-name="" unicode="&#x52a1;" d="M864 280 q-1 -21 -3 -30 q-31 -248 -77 -288 q-27 -25 -77 -26 q-52 -2 -145 3 q-4 32 -21 59 q71 -7 148 -7 q31 0 43 10 q38 32 60 220 l-310 0 q-86 -223 -386 -295 q-11 28 -36 57 q273 51 352 238 l-281 0 l0 59 l300 0 q14 49 20 102 l69 -6 q-9 -60 -20 -96 l364 0 ZM323 658 q63 -84 188 -136 q156 63 239 152 l-412 0 l-15 -16 ZM853 707 q-84 -126 -266 -213 q146 -48 369 -63 q-23 -26 -37 -60 q-245 21 -410 89 q-181 -71 -433 -102 q-8 33 -27 59 q210 19 387 78 q-97 53 -156 125 q-74 -59 -142 -97 q-19 32 -42 48 q196 105 291 266 l70 -14 q-32 -51 -67 -91 l411 0 l12 3 l40 -28 Z" /><glyph glyph-name="" unicode="&#x52a3;" d="M524 523 l-65 0 l0 312 l65 0 l0 -312 ZM338 763 q-79 -151 -203 -249 q-30 25 -56 38 q128 93 196 228 l63 -17 ZM770 624 q-156 -195 -679 -263 q-13 32 -36 61 q506 45 651 228 l64 -26 ZM871 302 l-2 -31 q-26 -270 -68 -310 q-25 -24 -74 -27 q-53 -3 -153 3 q-6 38 -23 64 q76 -7 151 -7 q32 0 43 10 q32 27 53 238 l-312 0 q-35 -125 -122 -197 q-97 -82 -284 -121 q-10 29 -34 57 q170 32 259 99 q80 59 114 162 l-298 0 l0 60 l312 0 q9 37 16 114 l67 0 q-6 -66 -16 -114 l371 0 ZM720 786 q154 -119 220 -207 l-55 -38 q-70 97 -216 212 l51 33 Z" /><glyph glyph-name="" unicode="&#x52a8;" d="M477 693 l-382 0 l0 60 l382 0 l0 -60 ZM450 65 q-13 50 -19 69 q-316 -70 -338 -84 q-10 36 -23 63 q17 3 45 69 q47 104 84 271 l-141 0 l0 62 l437 0 l0 -62 l-228 0 q-39 -163 -105 -315 l250 52 q-33 93 -61 159 l55 15 q67 -154 103 -279 l-59 -20 ZM941 569 q-18 -540 -61 -595 q-27 -31 -70 -35 q-60 -4 -139 2 q-2 35 -21 65 q59 -6 133 -6 q27 0 39 15 q37 41 52 525 l-157 0 q-23 -444 -203 -615 q-24 32 -52 47 q168 154 191 568 l-145 0 l0 64 l148 0 q3 107 3 215 l65 0 q0 -120 -4 -215 l221 0 l0 -35 Z" /><glyph glyph-name="" unicode="&#x52a9;" d="M171 116 l198 42 l0 140 l-198 0 l0 -182 ZM171 725 l0 -155 l198 0 l0 155 l-198 0 ZM369 510 l-198 0 l0 -153 l198 0 l0 153 ZM494 124 l-443 -102 l-12 67 l72 15 l0 682 l321 0 l0 -615 l57 13 l5 -60 ZM925 573 q-14 -553 -54 -606 q-23 -31 -70 -35 q-37 -4 -137 2 q-2 37 -20 63 q73 -5 132 -5 q26 0 38 15 q34 39 46 537 l-164 0 q-13 -220 -66 -359 q-66 -171 -208 -263 q-20 33 -50 49 q135 83 197 240 q50 127 62 333 l-165 0 l0 63 l168 0 q3 75 3 228 l65 0 q0 -153 -3 -228 l226 0 l0 -34 Z" /><glyph glyph-name="" unicode="&#x52aa;" d="M253 664 q5 11 -53 -99 q59 -23 125 -58 q65 68 93 157 l-165 0 ZM435 372 q-45 32 -100 64 q-101 -84 -261 -120 q-9 30 -29 55 q138 24 234 95 q-66 36 -165 78 q37 56 70 120 l-127 0 l0 59 l156 0 q31 65 48 118 l64 -11 q-28 -73 -44 -107 l164 0 l11 2 l37 -11 q-29 -139 -113 -235 q57 -30 105 -63 l-50 -44 ZM880 232 q-26 -240 -67 -277 q-22 -24 -68 -25 q-55 -4 -141 2 q-4 36 -18 60 q56 -6 131 -6 q30 0 39 9 q30 26 51 208 l-309 0 q-36 -113 -121 -178 q-95 -73 -274 -107 q-11 31 -34 58 q294 50 359 227 l-305 0 l0 58 l322 0 q6 26 14 84 l69 0 q-8 -58 -14 -84 l368 0 l-2 -29 ZM608 714 q42 -112 117 -190 q86 81 123 190 l-240 0 ZM926 760 q-44 -168 -156 -276 q80 -65 187 -95 q-26 -26 -41 -54 q-109 35 -194 108 q-82 -62 -190 -98 q-11 25 -35 52 q102 30 182 88 q-84 92 -128 220 l33 9 l-59 0 l0 58 l350 0 l12 3 l39 -15 Z" /><glyph glyph-name="" unicode="&#x52ab;" d="M462 37 q-1 5 -18 58 q-324 -62 -353 -77 q-11 42 -21 62 q16 3 52 58 q62 106 108 235 l-176 0 l0 63 l206 0 l0 170 l-172 0 l0 63 l172 0 l0 167 l65 0 l0 -167 l165 0 l0 -63 l-165 0 l0 -170 l198 0 l0 -63 l-222 0 q-57 -150 -131 -268 l253 45 q-36 86 -63 135 l54 21 q76 -133 106 -242 l-58 -27 ZM926 608 l-1 -34 q-16 -555 -54 -605 q-23 -31 -64 -35 q-38 -4 -117 1 q-2 37 -18 65 q60 -5 109 -5 q24 0 34 15 q31 39 46 535 l-142 0 q-17 -435 -191 -622 q-27 27 -57 44 q172 166 186 578 l-128 0 l0 63 l130 0 q1 68 -1 221 l65 0 q0 -152 -2 -221 l205 0 Z" /><glyph glyph-name="" unicode="&#x52b1;" d="M167 416 q0 -334 -78 -487 q-23 21 -54 31 q71 141 71 455 l0 363 l463 0 l0 -61 l-402 0 l0 -301 ZM517 388 q-17 -375 -49 -413 q-19 -25 -55 -27 q-26 -4 -96 0 q-2 33 -15 56 q56 -6 86 -4 q20 -1 30 12 q26 32 38 346 l-120 0 q-24 -314 -144 -440 q-16 27 -46 44 q127 130 136 581 l-110 0 l0 60 l364 0 l0 -60 l-193 0 q0 -44 -4 -126 l178 0 l0 -29 ZM928 552 q-14 -542 -51 -592 q-23 -31 -64 -35 q-26 -3 -116 1 q-2 36 -18 62 q47 -4 109 -4 q21 -1 34 14 q31 41 43 526 l-128 0 q-21 -438 -185 -602 q-18 25 -50 43 q155 151 174 559 l-114 0 l0 62 l116 0 q3 75 3 233 l62 0 q0 -120 -3 -233 l188 0 l0 -34 Z" /><glyph glyph-name="" unicode="&#x52b2;" d="M487 406 q-57 52 -175 125 q-104 -90 -230 -139 q-16 31 -40 54 q228 78 342 263 l-309 0 l0 60 l347 0 l12 4 l43 -23 q-43 -97 -122 -178 q110 -63 178 -119 l-46 -47 ZM494 63 q-204 -44 -428 -94 l-15 64 q82 16 197 40 l0 217 l-172 0 l0 61 l403 0 l0 -61 l-167 0 l0 -205 l178 39 l4 -61 ZM924 567 q-7 -543 -34 -587 q-21 -29 -59 -33 q-24 -3 -105 -1 q-2 37 -18 64 q42 -3 95 -3 q20 -1 30 14 q22 35 27 518 l-136 0 q-9 -231 -52 -364 q-52 -164 -172 -254 q-24 32 -49 48 q113 80 162 231 q40 122 48 339 l-140 0 l0 62 l141 0 q2 73 2 234 l64 0 q0 -161 -2 -234 l198 0 l0 -34 Z" /><glyph glyph-name="" unicode="&#x52b3;" d="M846 325 l-2 -32 q-16 -290 -54 -329 q-24 -26 -74 -29 q-57 -3 -164 3 q-4 35 -24 65 q70 -7 162 -7 q33 0 43 10 q28 26 42 256 l-302 0 q-29 -133 -110 -209 q-90 -84 -273 -126 q-10 29 -37 58 q166 34 249 104 q74 62 101 173 l-265 0 l0 63 l277 0 q6 41 12 124 l69 0 q-4 -66 -12 -124 l362 0 ZM84 542 l829 0 l0 -166 l-67 0 l0 106 l-698 0 l0 -111 l-64 0 l0 171 ZM940 739 l0 -63 l-233 0 l0 -87 l-67 0 l0 87 l-281 0 l0 -87 l-69 0 l0 87 l-228 0 l0 63 l228 0 l0 96 l69 0 l0 -96 l281 0 l0 96 l67 0 l0 -96 l233 0 Z" /><glyph glyph-name="" unicode="&#x52bf;" d="M54 547 q104 16 167 27 l0 102 l-153 0 l0 60 l153 0 l0 99 l61 0 l0 -99 l132 0 l0 -60 l-132 0 l0 -92 l136 25 l3 -59 l-139 -26 l0 -108 q0 -48 -31 -60 q-27 -11 -129 -11 q-4 23 -20 57 q47 -1 102 -1 q17 0 17 15 l0 97 l-153 -28 l-14 62 ZM835 736 q-4 -182 2 -245 q9 -81 41 -81 q24 0 28 89 q23 -20 51 -25 q-6 -71 -24 -97 q-17 -26 -57 -26 q-68 0 -89 88 q-16 63 -14 240 l-130 0 q-9 -79 -30 -141 q88 -56 132 -93 l-37 -52 q-32 30 -119 89 q-47 -84 -147 -131 l57 0 q-7 -44 -14 -73 l373 0 q-1 -21 -3 -30 q-24 -243 -68 -284 q-24 -24 -76 -27 q-44 -3 -154 4 q-4 36 -22 60 q79 -6 155 -6 q31 0 42 9 q32 28 54 215 l-317 0 q-74 -227 -384 -295 q-11 32 -36 57 q278 55 350 238 l-303 0 l0 59 l321 0 q7 29 14 73 q-14 25 -36 43 q100 43 142 123 q-58 38 -104 64 l35 45 q29 -16 91 -54 q14 39 22 107 l-145 0 l0 57 l150 0 q2 32 4 100 l62 0 q-2 -68 -4 -100 l187 0 Z" /><glyph glyph-name="" unicode="&#x52c3;" d="M126 435 l-57 0 l0 146 l201 0 l0 95 l-194 0 l0 57 l194 0 l0 100 l64 0 l0 -100 l190 0 l0 -57 l-190 0 l0 -95 l196 0 l0 -146 l-59 0 l0 89 l-345 0 l0 -89 ZM329 184 l0 -171 q0 -51 -34 -64 q-29 -12 -135 -12 q-5 29 -23 62 q75 -3 111 0 q18 0 18 15 l0 162 l-208 -26 l-8 62 q66 6 216 24 l0 72 q51 28 104 71 l-238 0 l0 53 l296 0 l14 4 l41 -32 q-57 -59 -154 -117 l0 -43 l208 25 l0 -58 l-208 -27 ZM924 571 q-14 -549 -53 -600 q-23 -30 -67 -34 q-29 -3 -126 1 q-4 37 -19 62 q66 -5 120 -5 q25 0 36 15 q33 41 46 533 l-132 0 q-19 -456 -217 -620 q-23 31 -49 46 q184 146 205 574 l-111 0 l0 62 l113 0 q2 72 2 223 l62 0 q0 -151 -2 -223 l192 0 l0 -34 Z" /><glyph glyph-name="" unicode="&#x52c7;" d="M783 557 l-255 0 l0 -72 l255 0 l0 72 ZM783 364 l0 74 l-255 0 l0 -74 l255 0 ZM466 364 l0 74 l-258 0 l0 -74 l258 0 ZM208 557 l0 -72 l258 0 l0 72 l-258 0 ZM320 705 q85 -8 198 -32 q96 28 170 65 l-563 0 l0 53 l653 0 l15 4 l43 -37 q-83 -54 -228 -106 q69 -19 89 -26 l-17 -22 l167 0 l0 -353 l-64 0 l0 66 l-255 0 l0 -51 l-62 0 l0 51 l-258 0 l0 -65 l-62 0 l0 352 l443 0 q-150 42 -303 61 l34 40 ZM872 196 q0 -20 -2 -29 q-23 -181 -60 -215 q-22 -20 -67 -23 q-51 -2 -136 4 q-2 26 -18 57 q66 -6 129 -6 q28 0 38 9 q25 22 43 147 l-311 0 q-79 -169 -399 -219 q-10 31 -31 56 q281 38 356 163 l-303 0 l0 56 l329 0 q9 30 15 59 l67 0 q-4 -21 -14 -59 l364 0 Z" /><glyph glyph-name="" unicode="&#x52c9;" d="M740 568 q-23 -370 -191 -500 q-12 24 -44 45 q153 117 173 455 l-123 0 l0 61 l126 0 q2 34 4 197 l62 0 q-2 -133 -4 -197 l183 0 l0 -30 q-16 -430 -52 -478 q-21 -26 -58 -30 q-40 -4 -102 1 q-2 33 -18 62 q41 -4 94 -4 q20 -1 30 13 q29 33 42 405 l-122 0 ZM335 432 q0 -53 -4 -97 l135 0 l0 188 l-131 0 l0 -91 ZM270 335 q5 43 5 98 l0 90 l-115 0 l0 -188 l110 0 ZM229 690 q-35 -62 -72 -111 l145 0 q34 46 65 111 l-138 0 ZM812 5 q50 0 66 21 q14 20 20 96 q25 -17 59 -22 q-9 -94 -35 -122 q-27 -30 -107 -30 l-304 0 q-102 0 -135 20 q-34 20 -34 81 l0 230 l-19 0 q-37 -223 -239 -354 q-18 25 -46 44 q185 115 225 310 l-163 0 l0 232 l-8 -8 q-25 30 -49 40 q121 116 185 292 l66 -10 l-35 -79 l139 0 l11 3 l40 -26 q-28 -69 -78 -144 l157 0 l0 -300 l-122 0 l0 -230 q0 -27 19 -35 q20 -9 84 -9 l303 0 Z" /><glyph glyph-name="" unicode="&#x52cb;" d="M415 740 l-230 0 l0 -105 l230 0 l0 105 ZM478 583 l-354 0 l0 208 l354 0 l0 -208 ZM152 119 l-58 0 l0 390 l411 0 l0 -390 l-60 0 l0 334 l-293 0 l0 -334 ZM331 251 q0 -103 -44 -173 q-62 -98 -218 -157 q-15 29 -39 52 q240 81 240 278 l0 140 l61 0 l0 -140 ZM358 117 q87 -71 123 -117 l-47 -40 q-35 46 -122 121 l46 36 ZM924 575 q-12 -551 -46 -601 q-24 -31 -64 -35 q-38 -4 -118 1 q-2 38 -18 64 q60 -5 109 -5 q23 0 34 16 q28 36 39 533 l-132 0 q-7 -231 -42 -366 q-43 -166 -142 -259 q-23 32 -51 46 q159 145 171 579 l-140 0 l0 62 l141 0 q1 71 1 224 l65 0 q0 -152 -1 -224 l194 0 l0 -35 Z" /><glyph glyph-name="" unicode="&#x52d2;&#xf952;" d="M142 303 l125 0 l0 115 l-125 0 l0 -115 ZM451 418 l-126 0 l0 -115 l126 0 l0 115 ZM217 594 l160 0 l0 88 l-160 0 l0 -88 ZM328 106 l0 -182 l-63 0 l0 182 l-220 0 l0 58 l220 0 l0 85 l-179 0 l0 223 l179 0 l0 68 l-106 0 l0 142 l-105 0 l0 54 l105 0 l0 97 l58 0 l0 -97 l160 0 l0 97 l59 0 l0 -97 l98 0 l0 -54 l-98 0 l0 -142 l-108 0 l0 -68 l181 0 l0 -223 l-181 0 l0 -85 l209 0 l0 -58 l-209 0 ZM926 571 q-14 -553 -52 -605 q-23 -31 -67 -35 q-34 -4 -125 2 q-4 38 -20 62 q53 -4 121 -4 q23 -1 34 14 q33 40 45 538 l-146 0 q-21 -455 -226 -619 q-21 31 -49 47 q193 145 212 572 l-146 0 l0 62 l149 0 q2 73 2 226 l63 0 q0 -153 -3 -226 l208 0 l0 -34 Z" /><glyph glyph-name="" unicode="&#x52d8;" d="M217 326 l202 0 l0 91 l-202 0 l0 -91 ZM217 674 l0 -76 l202 0 l0 76 l-202 0 ZM217 467 l202 0 l0 81 l-202 0 l0 -81 ZM924 605 q0 -25 -1 -33 q-14 -552 -52 -603 q-22 -30 -64 -34 q-43 -5 -116 0 q-2 37 -18 62 q48 -4 110 -4 q23 -2 34 15 q31 41 44 535 l-132 0 q-17 -453 -184 -620 q-20 29 -51 46 l24 24 l-409 0 l0 275 l-65 0 l0 58 l112 0 l0 348 l-94 0 l0 54 l94 0 l0 106 l61 0 l0 -106 l202 0 l0 106 l60 0 l0 -106 l85 0 l0 -54 l-85 0 l0 -348 l97 0 l0 -58 l-410 0 l0 -217 l361 0 l0 -47 q125 151 141 539 l-114 0 l0 62 l116 0 q2 73 2 223 l62 0 q0 -113 -3 -223 l193 0 ZM455 81 q-23 54 -90 143 l45 26 q66 -81 93 -138 l-48 -31 ZM199 96 q52 75 88 153 l50 -27 q-50 -91 -94 -153 l-44 27 Z" /><glyph glyph-name="" unicode="&#x52df;" d="M299 710 l-227 0 l0 56 l227 0 l0 69 l65 0 l0 -69 l268 0 l0 69 l65 0 l0 -69 l230 0 l0 -56 l-230 0 l0 -52 l-65 0 l0 52 l-268 0 l0 -52 l-65 0 l0 52 ZM754 161 q-68 46 -112 95 l-287 0 q-51 -51 -124 -95 l195 0 q12 37 18 75 l65 0 q-7 -43 -16 -75 l261 0 ZM242 416 l519 0 l0 70 l-519 0 l0 -70 ZM242 530 l519 0 l0 68 l-519 0 l0 -68 ZM719 256 q101 -86 247 -123 q-22 -19 -43 -53 q-73 22 -147 68 l-2 -13 q-15 -157 -43 -185 q-21 -18 -60 -21 q-34 -1 -119 2 q-2 29 -17 55 q48 -5 112 -5 q23 0 32 8 q18 18 30 121 l-234 0 q-66 -141 -300 -191 q-11 29 -34 52 q201 37 262 139 l-201 0 l0 34 q-54 -29 -124 -55 q-16 31 -40 47 q138 46 231 120 l-210 0 l0 55 l267 0 q29 36 42 60 l-190 0 l0 272 l649 0 l0 -272 l-387 0 q-16 -31 -38 -60 l539 0 l0 -55 l-222 0 Z" /><glyph glyph-name="" unicode="&#x52e4;" d="M142 384 l135 0 l0 90 l-135 0 l0 -90 ZM453 474 l-122 0 l0 -90 l122 0 l0 90 ZM203 630 l202 0 l0 69 l-202 0 l0 -69 ZM524 10 q-192 -23 -462 -52 l-8 60 q182 15 220 19 l0 71 l-181 0 l0 52 l181 0 l0 60 l-199 0 l0 51 l199 0 l0 63 l-186 0 l0 189 l186 0 l0 58 l-131 0 l0 118 l-91 0 l0 53 l91 0 l0 82 l60 0 l0 -82 l202 0 l0 82 l62 0 l0 -82 l82 0 l0 -53 l-82 0 l0 -118 l-133 0 l0 -58 l176 0 l0 -189 l-176 0 l0 -63 l186 0 l0 -51 l-186 0 l0 -60 l166 0 l0 -52 l-166 0 l0 -66 l190 18 l0 -50 ZM926 577 q-14 -547 -52 -599 q-23 -30 -65 -34 q-49 -4 -119 1 q-2 34 -19 62 q50 -4 113 -4 q22 -1 35 14 q32 40 44 533 l-127 0 q-15 -462 -174 -629 q-19 26 -50 44 q149 149 163 585 l-115 0 l0 61 l116 0 q2 70 2 223 l61 0 q0 -152 -2 -223 l189 0 l0 -34 Z" /><glyph glyph-name="" unicode="&#x52fa;" d="M338 469 q155 -143 216 -274 l-61 -36 q-60 131 -211 279 l56 31 ZM915 645 q-27 -616 -82 -676 q-29 -36 -84 -40 q-54 -4 -174 3 q-4 39 -23 67 q89 -7 174 -7 q33 0 48 16 q50 49 73 608 l-565 0 q-80 -159 -176 -260 q-23 23 -59 44 q159 150 248 435 l68 -16 q-23 -72 -51 -137 l603 0 l0 -37 Z" /><glyph glyph-name="" unicode="&#x52fe;" d="M676 97 q-9 20 -38 74 q-442 -51 -470 -63 q-10 37 -25 69 q26 5 67 68 q91 114 170 307 l72 -26 q-99 -204 -200 -335 l355 38 q-37 67 -101 168 l53 28 q126 -193 173 -294 l-56 -34 ZM921 685 l-1 -38 q-24 -606 -80 -671 q-31 -38 -93 -42 q-51 -4 -188 4 q-4 39 -27 70 q87 -7 196 -7 q34 -1 49 14 q52 47 73 605 l-573 0 q-78 -153 -169 -261 q-40 31 -61 43 q152 161 249 432 l68 -19 q-27 -69 -55 -130 l612 0 Z" /></font>
</defs>
</svg>
