<?xml version="1.0" encoding="utf-8"?>
<!-- Generator: Adobe Illustrator 16.0.0, SVG Export Plug-In . SVG Version: 6.00 Build 0)  -->
<!DOCTYPE svg PUBLIC "-//W3C//DTD SVG 1.1//EN" "http://www.w3.org/Graphics/SVG/1.1/DTD/svg11.dtd">
<svg version="1.1" id="图层_1" xmlns="http://www.w3.org/2000/svg" xmlns:xlink="http://www.w3.org/1999/xlink" x="0px" y="0px"
	 width="293.286px" height="34.772px" viewBox="0 0 293.286 34.772" enable-background="new 0 0 293.286 34.772"
	 xml:space="preserve">
<g>
	<path fill="#FFFFFF" d="M17.859,1.756C9.44,1.613,2.504,8.333,2.367,16.765c-0.137,8.432,6.577,15.381,14.996,15.524
		c1.792,0.029,3.516-0.254,5.123-0.795c-3.056-0.648-5.531-2.74-6.573-5.477c-4.283-0.863-7.51-4.655-7.51-9.205
		c0-5.186,4.192-9.39,9.364-9.39c4.495,0,8.249,3.176,9.154,7.413c2.53,0.653,4.62,2.305,5.762,4.478
		c0.1-0.664,0.161-1.342,0.172-2.032C32.992,8.85,26.279,1.899,17.859,1.756z"/>
	<path fill="#FFFFFF" d="M25.983,18.538c-2.041-0.708-4.287,0.497-5.017,2.689c-0.732,2.193,0.331,4.544,2.37,5.25
		c2.04,0.709,4.286-0.495,5.017-2.687C29.083,21.598,28.022,19.246,25.983,18.538z"/>
	<path fill="#FFFFFF" d="M51.953,11.314h7.939V9.869h-8.496V6.354h-1.523v3.516h-8.496v1.445h7.881
		c-1.836,3.392-4.606,6.608-8.311,9.648c0.352,0.3,0.781,0.69,1.289,1.172c3.431-3.073,5.977-6.263,7.637-9.57v7.734h-4.629v1.367
		h4.629v4.004h1.523v-4.004h4.473v-1.367h-4.473v-7.734c1.875,3.796,4.388,6.907,7.539,9.336c0.547-0.573,0.99-1.028,1.328-1.367
		C56.793,18.28,54.023,15.208,51.953,11.314z"/>
	<path fill="#FFFFFF" d="M63.232,17.174c-0.521,2.5-1.159,5.085-1.914,7.754l1.504,0.508c0.664-2.852,1.263-5.384,1.797-7.598
		C64.163,17.694,63.701,17.474,63.232,17.174z"/>
	<path fill="#FFFFFF" d="M65.322,14.342c-1.276-1.016-2.422-1.888-3.438-2.617l-0.977,1.113c0.951,0.742,2.051,1.667,3.301,2.773
		C64.495,15.312,64.866,14.889,65.322,14.342z"/>
	<path fill="#FFFFFF" d="M76.044,20.67c1.081,1.315,2.083,2.669,3.008,4.063l1.23-0.938c-0.885-1.237-1.92-2.546-3.105-3.926
		L76.044,20.67z"/>
	<path fill="#FFFFFF" d="M66.767,14.693c0,4.505-0.898,7.761-2.695,9.766c0.443,0.403,0.82,0.808,1.133,1.211
		c2.005-2.214,3.008-5.879,3.008-10.996V9.049h4.941c-0.267,0.801-0.541,1.569-0.82,2.305h-2.539v8.008h1.406v-0.508h2.363v4.453
		c0,0.625-0.299,0.938-0.898,0.938c-0.482,0-1.048-0.026-1.699-0.078c0.117,0.508,0.208,0.957,0.273,1.348
		c0.69,0.013,1.256,0.02,1.699,0.02c1.354,0,2.031-0.696,2.031-2.09v-4.59h2.52v0.508h1.406v-8.008H73.74
		c0.377-0.755,0.746-1.523,1.104-2.305h5.479V7.721H66.767V14.693z M77.49,17.564h-6.289v-1.855h6.289V17.564z M77.49,12.643v1.816
		h-6.289v-1.816H77.49z"/>
	<path fill="#FFFFFF" d="M70.966,19.967c-0.859,1.484-1.842,2.819-2.949,4.004l1.152,0.898c1.042-1.185,2.057-2.565,3.047-4.141
		L70.966,19.967z"/>
	<path fill="#FFFFFF" d="M65.908,9.342c-1.094-0.989-2.155-1.868-3.184-2.637l-0.996,1.074c0.873,0.716,1.875,1.634,3.008,2.754
		C65.062,10.182,65.452,9.784,65.908,9.342z"/>
	<path fill="#FFFFFF" d="M85.458,12.252h10.43v0.527h1.328V7.193H84.13v5.586h1.328V12.252z M85.458,8.209h10.43v1.035h-10.43V8.209
		z M85.458,10.182h10.43v1.055h-10.43V10.182z"/>
	<path fill="#FFFFFF" d="M91.318,22.799h7.852v-1.016h-7.852V20.67h4.707v0.508h1.328v-5.996H83.974v5.996h1.328V20.67h4.648v1.113
		h-7.832v1.016h7.832v1.113h-8.965v1.055h19.297v-1.055h-8.965V22.799z M91.318,16.197h4.707v1.25h-4.707V16.197z M91.318,18.385
		h4.707v1.27h-4.707V18.385z M89.951,19.654h-4.648v-1.27h4.648V19.654z M89.951,17.447h-4.648v-1.25h4.648V17.447z"/>
	<rect x="81.142" y="13.189" fill="#FFFFFF" width="19.063" height="1.055"/>
	<path fill="#FFFFFF" d="M111.767,13.854l6.543-4.785V7.545h-15.234V9.01h12.637l-5.605,4.082v2.148h-9.082v1.465h9.082v5.742
		c0,0.938-0.462,1.406-1.387,1.406c-1.055-0.013-2.058-0.078-3.008-0.195c0.104,0.664,0.183,1.257,0.234,1.777
		c1.458,0.026,2.487,0.039,3.086,0.039c1.823,0,2.734-0.872,2.734-2.617v-6.152h8.555V15.24h-8.555V13.854z"/>
	<path fill="#FFFFFF" d="M126.025,9.967c-0.638-0.703-1.667-1.784-3.086-3.242l-1.191,1.035c1.12,1.159,2.09,2.278,2.91,3.359
		L126.025,9.967z"/>
	<path fill="#FFFFFF" d="M125.283,22.564v-9.492h-4.336v1.406h2.773v7.734c0,0.794-0.228,1.387-0.684,1.777l0.938,1.328
		c1.354-0.964,3.073-2.097,5.156-3.398c-0.052-0.456-0.098-1.022-0.137-1.699C127.653,21.093,126.416,21.874,125.283,22.564z"/>
	<polygon fill="#FFFFFF" points="134.56,6.471 132.88,6.471 132.88,13.189 127.197,13.189 127.197,14.596 132.88,14.596 
		132.88,25.611 134.56,25.611 134.56,14.596 140.283,14.596 140.283,13.189 134.56,13.189 	"/>
	<path fill="#FFFFFF" d="M141.884,11.9c0.989-0.827,1.868-1.726,2.637-2.695h1.641l-0.703,0.508c0.481,0.521,0.964,1.081,1.445,1.68
		h-3.242v8.789h1.367v-0.645h11.348v0.645h1.367v-8.789h-1.514l0.947-0.762c-0.469-0.488-0.983-0.964-1.543-1.426h4.453V8.072
		h-6.191c0.313-0.547,0.618-1.126,0.918-1.738h-1.68c-0.716,1.55-1.628,2.903-2.734,4.063c0.456,0.313,0.853,0.618,1.191,0.918
		c0.554-0.618,1.087-1.321,1.602-2.109h1.943l-0.674,0.508c0.605,0.547,1.155,1.106,1.65,1.68h-9.004l0.928-0.703
		c-0.469-0.515-0.938-1.009-1.406-1.484h4.395V8.072h-5.684c0.371-0.56,0.71-1.14,1.016-1.738h-1.66
		c-0.925,1.797-2.188,3.32-3.789,4.57C141.272,11.243,141.598,11.575,141.884,11.9z M156.376,18.443h-11.348v-1.309h11.348V18.443z
		 M156.376,16.119h-11.348v-1.309h11.348V16.119z M156.376,12.486v1.309h-11.348v-1.309H156.376z"/>
	<path fill="#FFFFFF" d="M155.693,19.928h-1.445v1.211h-6.396c0.046-0.384,0.068-0.794,0.068-1.23h-1.426
		c0,0.449-0.026,0.859-0.078,1.23h-5.313v1.211h5.02c-0.481,1.081-1.804,1.804-3.965,2.168c0.325,0.456,0.612,0.886,0.859,1.289
		c2.617-0.554,4.16-1.706,4.629-3.457h6.602v3.281h1.445V22.35h4.629v-1.211h-4.629V19.928z"/>
	<rect x="162.978" y="7.818" fill="#FFFFFF" width="15.449" height="1.445"/>
	<path fill="#FFFFFF" d="M161.162,15.26h7.041c-1.185,1.979-2.478,3.815-3.877,5.508c-0.521,0.625-1.172,1.126-1.953,1.504
		l0.781,1.797c0.495-0.144,1.022-0.247,1.582-0.313c3.216-0.208,7.161-0.394,11.836-0.557c0.469,0.612,0.938,1.24,1.406,1.885
		l1.465-1.094c-1.901-2.409-3.815-4.688-5.742-6.836l-1.289,0.859c1.042,1.23,2.08,2.507,3.115,3.828
		c-2.402,0.098-5.823,0.202-10.264,0.313c1.419-1.687,3.105-3.984,5.059-6.895h9.941v-1.445h-19.102V15.26z"/>
	<path fill="#FFFFFF" d="M182.314,18.795c0,2.461-0.437,4.362-1.309,5.703c0.43,0.352,0.788,0.716,1.074,1.094
		c1.12-1.575,1.66-3.86,1.621-6.855h2.734v4.492c0,0.534-0.267,0.801-0.801,0.801c-0.481,0-1.055-0.052-1.719-0.156
		c0.104,0.534,0.183,0.996,0.234,1.387c0.573,0.039,1.191,0.059,1.855,0.059c1.211,0,1.816-0.651,1.816-1.953V7.525h-5.508V18.795z
		 M183.701,8.795h2.734v3.75h-2.734V8.795z M183.701,13.756h2.734v3.77h-2.734V13.756z"/>
	<path fill="#FFFFFF" d="M199.169,15.729v-1.152h-8.242V8.951h6.66c-0.026,0.403-0.059,0.774-0.098,1.113
		c-0.091,1.106-0.696,1.641-1.816,1.602c-0.769-0.026-1.634-0.098-2.598-0.215c0.091,0.521,0.176,1.035,0.254,1.543
		c1.146,0.039,1.985,0.065,2.52,0.078c1.953,0.039,2.981-0.95,3.086-2.969c0.039-0.612,0.091-1.445,0.156-2.5h-9.648v17.949h1.484
		v-9.707h0.918c0.403,2.292,1.24,4.251,2.51,5.879c-0.944,0.925-2.067,1.719-3.369,2.383c0.286,0.43,0.554,0.859,0.801,1.289
		c1.341-0.749,2.51-1.614,3.506-2.598c1.113,1.113,2.471,2.044,4.072,2.793c0.313-0.417,0.69-0.886,1.133-1.406
		c-1.667-0.593-3.063-1.423-4.189-2.49C197.695,20.003,198.649,18.014,199.169,15.729z M193.183,15.846h4.443
		c-0.449,1.829-1.211,3.425-2.285,4.785C194.306,19.315,193.586,17.721,193.183,15.846z"/>
	<path fill="#FFFFFF" d="M209.97,15.533h-1.582c-0.065,0.774-0.144,1.478-0.234,2.109h-5.684v1.387h5.41
		c-0.69,2.461-2.903,4.297-6.641,5.508c0.339,0.442,0.657,0.879,0.957,1.309c4.16-1.413,6.585-3.685,7.275-6.816h6.514
		c-0.052,1.106-0.137,2.148-0.254,3.125c-0.117,1.094-0.729,1.653-1.836,1.68c-0.977-0.013-2.214-0.085-3.711-0.215
		c0.117,0.599,0.215,1.14,0.293,1.621c1.536,0.065,2.688,0.091,3.457,0.078c1.979-0.013,3.073-0.938,3.281-2.773
		c0.117-0.938,0.241-2.571,0.371-4.902h-7.881C209.797,17.011,209.885,16.308,209.97,15.533z"/>
	<path fill="#FFFFFF" d="M217.685,9.537V8.229h-10.566c0.319-0.456,0.625-0.925,0.918-1.406l-1.465-0.625
		c-1.159,2.239-2.937,4.31-5.332,6.211c0.325,0.286,0.684,0.638,1.074,1.055c1.224-1.022,2.341-2.132,3.35-3.33
		c0.892,1.237,2.08,2.308,3.564,3.213c-2.402,0.918-5.234,1.628-8.496,2.129c0.313,0.508,0.579,0.964,0.801,1.367
		c3.665-0.638,6.79-1.507,9.375-2.607c2.298,1.067,5.144,1.826,8.535,2.275c0.313-0.508,0.677-1.055,1.094-1.641
		c-3.027-0.188-5.635-0.681-7.822-1.475C214.817,12.294,216.474,11.009,217.685,9.537z M206.875,9.518h8.721
		c-1.237,1.191-2.796,2.227-4.678,3.105C209.27,11.81,207.922,10.774,206.875,9.518z"/>
	<path fill="#FFFFFF" d="M234.189,16.061c1.276-1.367,2.649-3.06,4.121-5.078l-1.465-0.938c-1.146,1.823-2.435,3.489-3.867,5
		L234.189,16.061z"/>
	<polygon fill="#FFFFFF" points="231.455,8.834 239.306,8.834 239.306,7.33 222.041,7.33 222.041,8.834 229.814,8.834 
		229.814,16.998 221.162,16.998 221.162,18.502 229.814,18.502 229.814,25.689 231.455,25.689 231.455,18.502 240.166,18.502 
		240.166,16.998 231.455,16.998 	"/>
	<path fill="#FFFFFF" d="M224.267,10.123l-1.23,0.859c1.406,1.784,2.61,3.489,3.613,5.117l1.387-1.035
		C226.982,13.476,225.725,11.829,224.267,10.123z"/>
	<path fill="#FFFFFF" d="M243.662,25.592h1.602v-1.289h10.742v1.289h1.602v-8.867h-13.945V25.592z M245.263,18.17h10.742v4.727
		h-10.742V18.17z"/>
	<path fill="#FFFFFF" d="M254.736,8.971l-1.133,0.977c0.918,0.918,1.823,1.862,2.715,2.832c-3.86,0.163-7.786,0.306-11.777,0.43
		c2.122-1.784,4.16-3.821,6.113-6.113l-1.465-0.898c-1.849,2.383-3.887,4.485-6.113,6.309c-0.481,0.391-1.022,0.696-1.621,0.918
		l0.645,1.68c0.664-0.156,1.354-0.261,2.07-0.313c3.086-0.176,7.552-0.388,13.398-0.635c0.534,0.593,1.062,1.194,1.582,1.807
		l1.387-1.152C258.713,12.818,256.78,10.872,254.736,8.971z"/>
	<path fill="#FFFFFF" d="M270.507,10.445v-0.02c0.413-0.133,0.738-0.36,0.974-0.679c0.236-0.319,0.354-0.687,0.354-1.104
		c0-0.524-0.198-0.945-0.596-1.262s-0.928-0.476-1.592-0.476h-2.222v7.563h2.28c0.729,0,1.327-0.201,1.794-0.603
		c0.468-0.402,0.701-0.929,0.701-1.58c0-0.508-0.154-0.927-0.461-1.257C271.432,10.698,271.022,10.504,270.507,10.445z
		 M268.403,7.76h0.977c0.95,0,1.426,0.356,1.426,1.069c0,0.407-0.135,0.725-0.402,0.955c-0.27,0.229-0.64,0.344-1.111,0.344h-0.889
		V7.76z M270.758,13.26c-0.277,0.236-0.673,0.354-1.184,0.354h-1.172v-2.637h1.011c1.175,0,1.763,0.433,1.763,1.299
		C271.176,12.696,271.038,13.024,270.758,13.26z"/>
	<polygon fill="#FFFFFF" points="274.677,11.061 277.382,11.061 277.382,10.196 274.677,10.196 274.677,7.774 277.597,7.774 
		277.597,6.905 273.701,6.905 273.701,14.469 277.768,14.469 277.768,13.604 274.677,13.604 	"/>
	<polygon fill="#FFFFFF" points="283.789,6.905 278.452,6.905 278.452,7.774 280.625,7.774 280.625,14.469 281.606,14.469 
		281.606,7.774 283.789,7.774 	"/>
	<path fill="#FFFFFF" d="M287.202,6.905h-1.045l-2.881,7.563h1.079l0.728-2.07h3.149l0.771,2.07h1.079L287.202,6.905z
		 M285.39,11.544l1.133-3.145c0.046-0.124,0.086-0.299,0.122-0.527h0.024c0.042,0.25,0.081,0.426,0.117,0.527l1.143,3.145H285.39z"
		/>
</g>
</svg>
